#N canvas 7 0 1668 1028 12;
#X obj 11 758 osc~;
#X obj 113 756 osc~;
#X obj 212 756 osc~;
#X obj 313 755 osc~;
#X obj 413 755 osc~;
#X obj 511 756 osc~;
#X obj 611 757 osc~;
#X obj 712 757 osc~;
#X obj 813 756 osc~;
#X obj 910 755 osc~;
#X obj 1012 754 osc~;
#X obj 1109 754 osc~;
#X obj 1210 755 osc~;
#X obj 1307 756 osc~;
#X obj 1406 756 osc~;
#X obj 1508 757 osc~;
#X obj 259 153 recall;
#X obj 29 800 pow 2;
#X obj 29 874 line~;
#X obj 29 837 pack 0 20;
#X obj 11 907 *~;
#X obj 11 947 throw~ add1\$0;
#X obj 129 800 pow 2;
#X obj 129 874 line~;
#X obj 129 837 pack 0 20;
#X obj 111 907 *~;
#X obj 111 947 throw~ add1\$0;
#X obj 229 800 pow 2;
#X obj 229 874 line~;
#X obj 229 837 pack 0 20;
#X obj 211 907 *~;
#X obj 211 947 throw~ add1\$0;
#X obj 329 800 pow 2;
#X obj 329 874 line~;
#X obj 329 837 pack 0 20;
#X obj 311 907 *~;
#X obj 311 947 throw~ add1\$0;
#X obj 429 800 pow 2;
#X obj 429 874 line~;
#X obj 429 837 pack 0 20;
#X obj 411 907 *~;
#X obj 411 947 throw~ add1\$0;
#X obj 529 800 pow 2;
#X obj 529 874 line~;
#X obj 529 837 pack 0 20;
#X obj 511 907 *~;
#X obj 511 947 throw~ add1\$0;
#X obj 629 800 pow 2;
#X obj 629 874 line~;
#X obj 629 837 pack 0 20;
#X obj 611 907 *~;
#X obj 611 947 throw~ add1\$0;
#X obj 729 800 pow 2;
#X obj 729 874 line~;
#X obj 729 837 pack 0 20;
#X obj 711 907 *~;
#X obj 711 947 throw~ add1\$0;
#X obj 829 800 pow 2;
#X obj 829 874 line~;
#X obj 829 837 pack 0 20;
#X obj 811 907 *~;
#X obj 811 947 throw~ add1\$0;
#X obj 929 800 pow 2;
#X obj 929 874 line~;
#X obj 929 837 pack 0 20;
#X obj 911 907 *~;
#X obj 911 947 throw~ add1\$0;
#X obj 1029 800 pow 2;
#X obj 1029 874 line~;
#X obj 1029 837 pack 0 20;
#X obj 1011 907 *~;
#X obj 1011 947 throw~ add1\$0;
#X obj 1129 800 pow 2;
#X obj 1129 874 line~;
#X obj 1129 837 pack 0 20;
#X obj 1111 907 *~;
#X obj 1111 947 throw~ add1\$0;
#X obj 1228 799 pow 2;
#X obj 1228 873 line~;
#X obj 1228 836 pack 0 20;
#X obj 1210 906 *~;
#X obj 1210 946 throw~ add1\$0;
#X obj 1328 799 pow 2;
#X obj 1328 873 line~;
#X obj 1328 836 pack 0 20;
#X obj 1310 906 *~;
#X obj 1310 946 throw~ add1\$0;
#X obj 1428 799 pow 2;
#X obj 1428 873 line~;
#X obj 1428 836 pack 0 20;
#X obj 1410 906 *~;
#X obj 1410 946 throw~ add1\$0;
#X obj 1527 798 pow 2;
#X obj 1527 872 line~;
#X obj 1527 835 pack 0 20;
#X obj 1509 905 *~;
#X obj 1509 945 throw~ add1\$0;
#X obj 435 586 line~;
#X obj 379 481 inlet;
#X obj 437 545 pack 0 0;
#X msg 491 480 20;
#X floatatom 491 512 5 0 0 0 - - -;
#X obj 373 523 mtof;
#X obj 425 481 inlet;
#X obj 515 345 catch~ add1\$0;
#X obj 734 313 vsl 15 128 0 1 0 0 empty empty empty 0 -9 0 10 -262144
-1 -1 12700 1;
#X obj 755 313 vsl 15 128 0 1 0 0 empty empty empty 0 -9 0 10 -262144
-1 -1 6500 1;
#X obj 777 313 vsl 15 128 0 1 0 0 empty empty empty 0 -9 0 10 -262144
-1 -1 3200 1;
#X obj 798 313 vsl 15 128 0 1 0 0 empty empty empty 0 -9 0 10 -262144
-1 -1 1400 1;
#X obj 819 313 vsl 15 128 0 1 0 0 empty empty empty 0 -9 0 10 -262144
-1 -1 600 1;
#X obj 840 313 vsl 15 128 0 1 0 0 empty empty empty 0 -9 0 10 -262144
-1 -1 4700 1;
#X obj 862 313 vsl 15 128 0 1 0 0 empty empty empty 0 -9 0 10 -262144
-1 -1 0 1;
#X obj 883 313 vsl 15 128 0 1 0 0 empty empty empty 0 -9 0 10 -262144
-1 -1 0 1;
#X obj 904 313 vsl 15 128 0 1 0 0 empty empty empty 0 -9 0 10 -262144
-1 -1 0 1;
#X obj 925 313 vsl 15 128 0 1 0 0 empty empty empty 0 -9 0 10 -262144
-1 -1 0 1;
#X obj 947 313 vsl 15 128 0 1 0 0 empty empty empty 0 -9 0 10 -262144
-1 -1 0 1;
#X obj 968 313 vsl 15 128 0 1 0 0 empty empty empty 0 -9 0 10 -262144
-1 -1 0 1;
#X obj 989 313 vsl 15 128 0 1 0 0 empty empty empty 0 -9 0 10 -262144
-1 -1 0 1;
#X obj 1010 313 vsl 15 128 0 1 0 0 empty empty empty 0 -9 0 10 -262144
-1 -1 0 1;
#X obj 1032 313 vsl 15 128 0 1 0 0 empty empty empty 0 -9 0 10 -262144
-1 -1 0 1;
#X obj 1053 313 vsl 15 128 0 1 0 0 empty empty empty 0 -9 0 10 -262144
-1 -1 0 1;
#X obj 530 401 dac~;
#X floatatom 364 442 5 0 0 0 - - -;
#X obj 12 725 *~ 1;
#X obj 113 726 *~ 2;
#X obj 212 726 *~ 3;
#X obj 313 725 *~ 4;
#X obj 413 725 *~ 5;
#X obj 511 726 *~ 6;
#X obj 611 727 *~ 7;
#X obj 712 727 *~ 8;
#X obj 813 726 *~ 9;
#X obj 910 725 *~ 10;
#X obj 1012 724 *~ 11;
#X obj 1109 724 *~ 12;
#X obj 1210 725 *~ 13;
#X obj 1307 725 *~ 14;
#X obj 1406 726 *~ 15;
#X obj 1507 727 *~ 16;
#X connect 0 0 20 0;
#X connect 1 0 25 0;
#X connect 2 0 30 0;
#X connect 3 0 35 0;
#X connect 4 0 40 0;
#X connect 5 0 45 0;
#X connect 6 0 50 0;
#X connect 7 0 55 0;
#X connect 8 0 60 0;
#X connect 9 0 65 0;
#X connect 10 0 70 0;
#X connect 11 0 75 0;
#X connect 12 0 80 0;
#X connect 13 0 85 0;
#X connect 14 0 90 0;
#X connect 15 0 95 0;
#X connect 17 0 19 0;
#X connect 18 0 20 1;
#X connect 19 0 18 0;
#X connect 20 0 21 0;
#X connect 22 0 24 0;
#X connect 23 0 25 1;
#X connect 24 0 23 0;
#X connect 25 0 26 0;
#X connect 27 0 29 0;
#X connect 28 0 30 1;
#X connect 29 0 28 0;
#X connect 30 0 31 0;
#X connect 32 0 34 0;
#X connect 33 0 35 1;
#X connect 34 0 33 0;
#X connect 35 0 36 0;
#X connect 37 0 39 0;
#X connect 38 0 40 1;
#X connect 39 0 38 0;
#X connect 40 0 41 0;
#X connect 42 0 44 0;
#X connect 43 0 45 1;
#X connect 44 0 43 0;
#X connect 45 0 46 0;
#X connect 47 0 49 0;
#X connect 48 0 50 1;
#X connect 49 0 48 0;
#X connect 50 0 51 0;
#X connect 52 0 54 0;
#X connect 53 0 55 1;
#X connect 54 0 53 0;
#X connect 55 0 56 0;
#X connect 57 0 59 0;
#X connect 58 0 60 1;
#X connect 59 0 58 0;
#X connect 60 0 61 0;
#X connect 62 0 64 0;
#X connect 63 0 65 1;
#X connect 64 0 63 0;
#X connect 65 0 66 0;
#X connect 67 0 69 0;
#X connect 68 0 70 1;
#X connect 69 0 68 0;
#X connect 70 0 71 0;
#X connect 72 0 74 0;
#X connect 73 0 75 1;
#X connect 74 0 73 0;
#X connect 75 0 76 0;
#X connect 77 0 79 0;
#X connect 78 0 80 1;
#X connect 79 0 78 0;
#X connect 80 0 81 0;
#X connect 82 0 84 0;
#X connect 83 0 85 1;
#X connect 84 0 83 0;
#X connect 85 0 86 0;
#X connect 87 0 89 0;
#X connect 88 0 90 1;
#X connect 89 0 88 0;
#X connect 90 0 91 0;
#X connect 92 0 94 0;
#X connect 93 0 95 1;
#X connect 94 0 93 0;
#X connect 95 0 96 0;
#X connect 97 0 123 0;
#X connect 97 0 124 0;
#X connect 97 0 125 0;
#X connect 97 0 126 0;
#X connect 97 0 127 0;
#X connect 97 0 128 0;
#X connect 97 0 129 0;
#X connect 97 0 130 0;
#X connect 97 0 131 0;
#X connect 97 0 132 0;
#X connect 97 0 133 0;
#X connect 97 0 134 0;
#X connect 97 0 135 0;
#X connect 97 0 136 0;
#X connect 97 0 137 0;
#X connect 97 0 138 0;
#X connect 98 0 102 0;
#X connect 99 0 97 0;
#X connect 100 0 101 0;
#X connect 101 0 99 1;
#X connect 102 0 99 0;
#X connect 103 0 99 0;
#X connect 104 0 121 0;
#X connect 104 0 121 1;
#X connect 105 0 17 0;
#X connect 106 0 22 0;
#X connect 107 0 27 0;
#X connect 108 0 32 0;
#X connect 109 0 37 0;
#X connect 110 0 42 0;
#X connect 111 0 47 0;
#X connect 112 0 52 0;
#X connect 113 0 57 0;
#X connect 114 0 62 0;
#X connect 115 0 67 0;
#X connect 116 0 72 0;
#X connect 117 0 77 0;
#X connect 118 0 82 0;
#X connect 119 0 87 0;
#X connect 120 0 92 0;
#X connect 122 0 102 0;
#X connect 122 0 100 0;
#X connect 123 0 0 0;
#X connect 124 0 1 0;
#X connect 125 0 2 0;
#X connect 126 0 3 0;
#X connect 127 0 4 0;
#X connect 128 0 5 0;
#X connect 129 0 6 0;
#X connect 130 0 7 0;
#X connect 131 0 8 0;
#X connect 132 0 9 0;
#X connect 133 0 10 0;
#X connect 134 0 11 0;
#X connect 135 0 12 0;
#X connect 136 0 13 0;
#X connect 137 0 14 0;
#X connect 138 0 15 0;
