#N canvas 805 85 539 449 12;
#X obj 158 53 inlet;
#X obj 203 53 inlet;
#X obj 247 53 inlet;
#X obj 292 53 inlet;
#X obj 337 53 inlet;
#X obj 158 88 sel 0;
#X msg 247 121 stop;
#X obj 324 267 pack 0 \$5;
#X obj 161 121 moses;
#X obj 161 148 t b b;
#X obj 161 187 t b;
#X msg 199 186 0;
#X obj 161 215 f \$1;
#X obj 161 265 pack 0 \$2;
#X obj 247 148 del \$2;
#X obj 247 187 f \$4;
#X obj 247 215 * 0.01;
#X obj 247 265 pack 0 \$3;
#X obj 247 240 * \$1;
#X obj 384 53 inlet;
#X obj 166 329 vline~;
#X obj 166 368 outlet~;
#X connect 0 0 5 0;
#X connect 1 0 12 1;
#X connect 1 0 18 1;
#X connect 2 0 14 1;
#X connect 2 0 13 1;
#X connect 3 0 17 1;
#X connect 4 0 15 1;
#X connect 5 0 6 0;
#X connect 5 0 7 0;
#X connect 5 1 8 0;
#X connect 6 0 14 0;
#X connect 7 0 20 0;
#X connect 8 0 9 0;
#X connect 8 1 10 0;
#X connect 9 0 10 0;
#X connect 9 1 11 0;
#X connect 10 0 12 0;
#X connect 10 0 14 0;
#X connect 11 0 20 0;
#X connect 12 0 13 0;
#X connect 13 0 20 0;
#X connect 14 0 15 0;
#X connect 15 0 16 0;
#X connect 16 0 18 0;
#X connect 17 0 20 0;
#X connect 18 0 17 0;
#X connect 19 0 7 1;
#X connect 20 0 21 0;
