#N canvas 0 23 926 658 12;
#X obj 19 135 list fromsymbol;
#X obj 19 210 unpack 0 0 0 0 0 0 0 0;
#X floatatom 19 268 5 0 0 0 - - -;
#X obj 19 104 symbol;
#X obj 19 293 dtoeb, f 15;
#X floatatom 132 268 5 0 0 0 - - -;
#X floatatom 244 268 5 0 0 0 - - -;
#X floatatom 357 267 5 0 0 0 - - -;
#X floatatom 469 267 5 0 0 0 - - -;
#X floatatom 582 267 5 0 0 0 - - -;
#X floatatom 694 267 5 0 0 0 - - -;
#X floatatom 807 266 5 0 0 0 - - -;
#X obj 70 75 list tosymbol;
#X symbolatom 70 104 10 0 0 0 - - -;
#X msg 183 162 0 0 0 0 0 0 0 0;
#N canvas 0 23 1297 452 dis 0;
#X obj 40 234 unpack 0 0;
#X msg 92 149 0;
#X obj 39 204 pack 0 0;
#X obj 40 264 tabwrite seq;
#X obj 133 234 unpack 0 0;
#X obj 132 204 pack 0 0;
#X obj 133 264 tabwrite seq;
#X msg 185 149 1;
#X obj 225 234 unpack 0 0;
#X obj 224 204 pack 0 0;
#X obj 225 264 tabwrite seq;
#X obj 318 234 unpack 0 0;
#X obj 317 204 pack 0 0;
#X obj 318 264 tabwrite seq;
#X msg 277 149 2;
#X msg 370 149 3;
#X obj 409 234 unpack 0 0;
#X obj 408 204 pack 0 0;
#X obj 409 264 tabwrite seq;
#X obj 502 234 unpack 0 0;
#X obj 501 204 pack 0 0;
#X obj 502 264 tabwrite seq;
#X obj 594 234 unpack 0 0;
#X obj 593 204 pack 0 0;
#X obj 594 264 tabwrite seq;
#X obj 687 234 unpack 0 0;
#X obj 686 204 pack 0 0;
#X obj 687 264 tabwrite seq;
#X msg 461 149 4;
#X msg 554 149 5;
#X msg 646 149 6;
#X msg 739 149 7;
#X obj 42 69 unpack 0 0 0 0 0 0 0 0;
#X obj 42 117 t f b;
#X obj 135 116 t f b;
#X obj 226 118 t f b;
#X obj 319 117 t f b;
#X obj 408 116 t f b;
#X obj 501 115 t f b;
#X obj 592 117 t f b;
#X obj 685 116 t f b;
#X obj 90 179 + \$1;
#X obj 185 177 + \$1;
#X obj 278 178 + \$1;
#X obj 373 176 + \$1;
#X obj 459 178 + \$1;
#X obj 554 176 + \$1;
#X obj 647 177 + \$1;
#X obj 742 175 + \$1;
#X obj 43 31 inlet;
#X obj 209 30 inlet;
#X connect 0 0 3 0;
#X connect 0 1 3 1;
#X connect 1 0 41 0;
#X connect 2 0 0 0;
#X connect 4 0 6 0;
#X connect 4 1 6 1;
#X connect 5 0 4 0;
#X connect 7 0 42 0;
#X connect 8 0 10 0;
#X connect 8 1 10 1;
#X connect 9 0 8 0;
#X connect 11 0 13 0;
#X connect 11 1 13 1;
#X connect 12 0 11 0;
#X connect 14 0 43 0;
#X connect 15 0 44 0;
#X connect 16 0 18 0;
#X connect 16 1 18 1;
#X connect 17 0 16 0;
#X connect 19 0 21 0;
#X connect 19 1 21 1;
#X connect 20 0 19 0;
#X connect 22 0 24 0;
#X connect 22 1 24 1;
#X connect 23 0 22 0;
#X connect 25 0 27 0;
#X connect 25 1 27 1;
#X connect 26 0 25 0;
#X connect 28 0 45 0;
#X connect 29 0 46 0;
#X connect 30 0 47 0;
#X connect 31 0 48 0;
#X connect 32 0 33 0;
#X connect 32 1 34 0;
#X connect 32 2 35 0;
#X connect 32 3 36 0;
#X connect 32 4 37 0;
#X connect 32 5 38 0;
#X connect 32 6 39 0;
#X connect 32 7 40 0;
#X connect 33 0 2 0;
#X connect 33 1 1 0;
#X connect 34 0 5 0;
#X connect 34 1 7 0;
#X connect 35 0 9 0;
#X connect 35 1 14 0;
#X connect 36 0 12 0;
#X connect 36 1 15 0;
#X connect 37 0 17 0;
#X connect 37 1 28 0;
#X connect 38 0 20 0;
#X connect 38 1 29 0;
#X connect 39 0 23 0;
#X connect 39 1 30 0;
#X connect 40 0 26 0;
#X connect 40 1 31 0;
#X connect 41 0 2 1;
#X connect 42 0 5 1;
#X connect 43 0 9 1;
#X connect 44 0 12 1;
#X connect 45 0 17 1;
#X connect 46 0 20 1;
#X connect 47 0 23 1;
#X connect 48 0 26 1;
#X connect 49 0 32 0;
#X connect 50 0 41 1;
#X connect 50 0 42 1;
#X connect 50 0 43 1;
#X connect 50 0 44 1;
#X connect 50 0 45 1;
#X connect 50 0 46 1;
#X connect 50 0 47 1;
#X connect 50 0 48 1;
#X restore 19 374 pd dis;
#X obj 20 330 pack 0 0 0 0 0 0 0 0, f 15;
#X obj 132 294 dtoeb, f 15;
#N canvas 0 23 1297 452 dis 0;
#X obj 40 234 unpack 0 0;
#X msg 92 149 0;
#X obj 39 204 pack 0 0;
#X obj 40 264 tabwrite seq;
#X obj 133 234 unpack 0 0;
#X obj 132 204 pack 0 0;
#X obj 133 264 tabwrite seq;
#X msg 185 149 1;
#X obj 225 234 unpack 0 0;
#X obj 224 204 pack 0 0;
#X obj 225 264 tabwrite seq;
#X obj 318 234 unpack 0 0;
#X obj 317 204 pack 0 0;
#X obj 318 264 tabwrite seq;
#X msg 277 149 2;
#X msg 370 149 3;
#X obj 409 234 unpack 0 0;
#X obj 408 204 pack 0 0;
#X obj 409 264 tabwrite seq;
#X obj 502 234 unpack 0 0;
#X obj 501 204 pack 0 0;
#X obj 502 264 tabwrite seq;
#X obj 594 234 unpack 0 0;
#X obj 593 204 pack 0 0;
#X obj 594 264 tabwrite seq;
#X obj 687 234 unpack 0 0;
#X obj 686 204 pack 0 0;
#X obj 687 264 tabwrite seq;
#X msg 461 149 4;
#X msg 554 149 5;
#X msg 646 149 6;
#X msg 739 149 7;
#X obj 42 69 unpack 0 0 0 0 0 0 0 0;
#X obj 42 117 t f b;
#X obj 135 116 t f b;
#X obj 226 118 t f b;
#X obj 319 117 t f b;
#X obj 408 116 t f b;
#X obj 501 115 t f b;
#X obj 592 117 t f b;
#X obj 685 116 t f b;
#X obj 90 179 + \$1;
#X obj 185 177 + \$1;
#X obj 278 178 + \$1;
#X obj 373 176 + \$1;
#X obj 459 178 + \$1;
#X obj 554 176 + \$1;
#X obj 647 177 + \$1;
#X obj 742 175 + \$1;
#X obj 43 31 inlet;
#X obj 209 30 inlet;
#X connect 0 0 3 0;
#X connect 0 1 3 1;
#X connect 1 0 41 0;
#X connect 2 0 0 0;
#X connect 4 0 6 0;
#X connect 4 1 6 1;
#X connect 5 0 4 0;
#X connect 7 0 42 0;
#X connect 8 0 10 0;
#X connect 8 1 10 1;
#X connect 9 0 8 0;
#X connect 11 0 13 0;
#X connect 11 1 13 1;
#X connect 12 0 11 0;
#X connect 14 0 43 0;
#X connect 15 0 44 0;
#X connect 16 0 18 0;
#X connect 16 1 18 1;
#X connect 17 0 16 0;
#X connect 19 0 21 0;
#X connect 19 1 21 1;
#X connect 20 0 19 0;
#X connect 22 0 24 0;
#X connect 22 1 24 1;
#X connect 23 0 22 0;
#X connect 25 0 27 0;
#X connect 25 1 27 1;
#X connect 26 0 25 0;
#X connect 28 0 45 0;
#X connect 29 0 46 0;
#X connect 30 0 47 0;
#X connect 31 0 48 0;
#X connect 32 0 33 0;
#X connect 32 1 34 0;
#X connect 32 2 35 0;
#X connect 32 3 36 0;
#X connect 32 4 37 0;
#X connect 32 5 38 0;
#X connect 32 6 39 0;
#X connect 32 7 40 0;
#X connect 33 0 2 0;
#X connect 33 1 1 0;
#X connect 34 0 5 0;
#X connect 34 1 7 0;
#X connect 35 0 9 0;
#X connect 35 1 14 0;
#X connect 36 0 12 0;
#X connect 36 1 15 0;
#X connect 37 0 17 0;
#X connect 37 1 28 0;
#X connect 38 0 20 0;
#X connect 38 1 29 0;
#X connect 39 0 23 0;
#X connect 39 1 30 0;
#X connect 40 0 26 0;
#X connect 40 1 31 0;
#X connect 41 0 2 1;
#X connect 42 0 5 1;
#X connect 43 0 9 1;
#X connect 44 0 12 1;
#X connect 45 0 17 1;
#X connect 46 0 20 1;
#X connect 47 0 23 1;
#X connect 48 0 26 1;
#X connect 49 0 32 0;
#X connect 50 0 41 1;
#X connect 50 0 42 1;
#X connect 50 0 43 1;
#X connect 50 0 44 1;
#X connect 50 0 45 1;
#X connect 50 0 46 1;
#X connect 50 0 47 1;
#X connect 50 0 48 1;
#X restore 132 375 pd dis;
#X obj 133 331 pack 0 0 0 0 0 0 0 0, f 15;
#X obj 244 295 dtoeb, f 15;
#N canvas 0 23 1297 452 dis 0;
#X obj 40 234 unpack 0 0;
#X msg 92 149 0;
#X obj 39 204 pack 0 0;
#X obj 40 264 tabwrite seq;
#X obj 133 234 unpack 0 0;
#X obj 132 204 pack 0 0;
#X obj 133 264 tabwrite seq;
#X msg 185 149 1;
#X obj 225 234 unpack 0 0;
#X obj 224 204 pack 0 0;
#X obj 225 264 tabwrite seq;
#X obj 318 234 unpack 0 0;
#X obj 317 204 pack 0 0;
#X obj 318 264 tabwrite seq;
#X msg 277 149 2;
#X msg 370 149 3;
#X obj 409 234 unpack 0 0;
#X obj 408 204 pack 0 0;
#X obj 409 264 tabwrite seq;
#X obj 502 234 unpack 0 0;
#X obj 501 204 pack 0 0;
#X obj 502 264 tabwrite seq;
#X obj 594 234 unpack 0 0;
#X obj 593 204 pack 0 0;
#X obj 594 264 tabwrite seq;
#X obj 687 234 unpack 0 0;
#X obj 686 204 pack 0 0;
#X obj 687 264 tabwrite seq;
#X msg 461 149 4;
#X msg 554 149 5;
#X msg 646 149 6;
#X msg 739 149 7;
#X obj 42 69 unpack 0 0 0 0 0 0 0 0;
#X obj 42 117 t f b;
#X obj 135 116 t f b;
#X obj 226 118 t f b;
#X obj 319 117 t f b;
#X obj 408 116 t f b;
#X obj 501 115 t f b;
#X obj 592 117 t f b;
#X obj 685 116 t f b;
#X obj 90 179 + \$1;
#X obj 185 177 + \$1;
#X obj 278 178 + \$1;
#X obj 373 176 + \$1;
#X obj 459 178 + \$1;
#X obj 554 176 + \$1;
#X obj 647 177 + \$1;
#X obj 742 175 + \$1;
#X obj 43 31 inlet;
#X obj 209 30 inlet;
#X connect 0 0 3 0;
#X connect 0 1 3 1;
#X connect 1 0 41 0;
#X connect 2 0 0 0;
#X connect 4 0 6 0;
#X connect 4 1 6 1;
#X connect 5 0 4 0;
#X connect 7 0 42 0;
#X connect 8 0 10 0;
#X connect 8 1 10 1;
#X connect 9 0 8 0;
#X connect 11 0 13 0;
#X connect 11 1 13 1;
#X connect 12 0 11 0;
#X connect 14 0 43 0;
#X connect 15 0 44 0;
#X connect 16 0 18 0;
#X connect 16 1 18 1;
#X connect 17 0 16 0;
#X connect 19 0 21 0;
#X connect 19 1 21 1;
#X connect 20 0 19 0;
#X connect 22 0 24 0;
#X connect 22 1 24 1;
#X connect 23 0 22 0;
#X connect 25 0 27 0;
#X connect 25 1 27 1;
#X connect 26 0 25 0;
#X connect 28 0 45 0;
#X connect 29 0 46 0;
#X connect 30 0 47 0;
#X connect 31 0 48 0;
#X connect 32 0 33 0;
#X connect 32 1 34 0;
#X connect 32 2 35 0;
#X connect 32 3 36 0;
#X connect 32 4 37 0;
#X connect 32 5 38 0;
#X connect 32 6 39 0;
#X connect 32 7 40 0;
#X connect 33 0 2 0;
#X connect 33 1 1 0;
#X connect 34 0 5 0;
#X connect 34 1 7 0;
#X connect 35 0 9 0;
#X connect 35 1 14 0;
#X connect 36 0 12 0;
#X connect 36 1 15 0;
#X connect 37 0 17 0;
#X connect 37 1 28 0;
#X connect 38 0 20 0;
#X connect 38 1 29 0;
#X connect 39 0 23 0;
#X connect 39 1 30 0;
#X connect 40 0 26 0;
#X connect 40 1 31 0;
#X connect 41 0 2 1;
#X connect 42 0 5 1;
#X connect 43 0 9 1;
#X connect 44 0 12 1;
#X connect 45 0 17 1;
#X connect 46 0 20 1;
#X connect 47 0 23 1;
#X connect 48 0 26 1;
#X connect 49 0 32 0;
#X connect 50 0 41 1;
#X connect 50 0 42 1;
#X connect 50 0 43 1;
#X connect 50 0 44 1;
#X connect 50 0 45 1;
#X connect 50 0 46 1;
#X connect 50 0 47 1;
#X connect 50 0 48 1;
#X restore 244 376 pd dis;
#X obj 245 332 pack 0 0 0 0 0 0 0 0, f 15;
#X obj 357 296 dtoeb, f 15;
#N canvas 0 23 1297 452 dis 0;
#X obj 40 234 unpack 0 0;
#X msg 92 149 0;
#X obj 39 204 pack 0 0;
#X obj 40 264 tabwrite seq;
#X obj 133 234 unpack 0 0;
#X obj 132 204 pack 0 0;
#X obj 133 264 tabwrite seq;
#X msg 185 149 1;
#X obj 225 234 unpack 0 0;
#X obj 224 204 pack 0 0;
#X obj 225 264 tabwrite seq;
#X obj 318 234 unpack 0 0;
#X obj 317 204 pack 0 0;
#X obj 318 264 tabwrite seq;
#X msg 277 149 2;
#X msg 370 149 3;
#X obj 409 234 unpack 0 0;
#X obj 408 204 pack 0 0;
#X obj 409 264 tabwrite seq;
#X obj 502 234 unpack 0 0;
#X obj 501 204 pack 0 0;
#X obj 502 264 tabwrite seq;
#X obj 594 234 unpack 0 0;
#X obj 593 204 pack 0 0;
#X obj 594 264 tabwrite seq;
#X obj 687 234 unpack 0 0;
#X obj 686 204 pack 0 0;
#X obj 687 264 tabwrite seq;
#X msg 461 149 4;
#X msg 554 149 5;
#X msg 646 149 6;
#X msg 739 149 7;
#X obj 42 69 unpack 0 0 0 0 0 0 0 0;
#X obj 42 117 t f b;
#X obj 135 116 t f b;
#X obj 226 118 t f b;
#X obj 319 117 t f b;
#X obj 408 116 t f b;
#X obj 501 115 t f b;
#X obj 592 117 t f b;
#X obj 685 116 t f b;
#X obj 90 179 + \$1;
#X obj 185 177 + \$1;
#X obj 278 178 + \$1;
#X obj 373 176 + \$1;
#X obj 459 178 + \$1;
#X obj 554 176 + \$1;
#X obj 647 177 + \$1;
#X obj 742 175 + \$1;
#X obj 43 31 inlet;
#X obj 209 30 inlet;
#X connect 0 0 3 0;
#X connect 0 1 3 1;
#X connect 1 0 41 0;
#X connect 2 0 0 0;
#X connect 4 0 6 0;
#X connect 4 1 6 1;
#X connect 5 0 4 0;
#X connect 7 0 42 0;
#X connect 8 0 10 0;
#X connect 8 1 10 1;
#X connect 9 0 8 0;
#X connect 11 0 13 0;
#X connect 11 1 13 1;
#X connect 12 0 11 0;
#X connect 14 0 43 0;
#X connect 15 0 44 0;
#X connect 16 0 18 0;
#X connect 16 1 18 1;
#X connect 17 0 16 0;
#X connect 19 0 21 0;
#X connect 19 1 21 1;
#X connect 20 0 19 0;
#X connect 22 0 24 0;
#X connect 22 1 24 1;
#X connect 23 0 22 0;
#X connect 25 0 27 0;
#X connect 25 1 27 1;
#X connect 26 0 25 0;
#X connect 28 0 45 0;
#X connect 29 0 46 0;
#X connect 30 0 47 0;
#X connect 31 0 48 0;
#X connect 32 0 33 0;
#X connect 32 1 34 0;
#X connect 32 2 35 0;
#X connect 32 3 36 0;
#X connect 32 4 37 0;
#X connect 32 5 38 0;
#X connect 32 6 39 0;
#X connect 32 7 40 0;
#X connect 33 0 2 0;
#X connect 33 1 1 0;
#X connect 34 0 5 0;
#X connect 34 1 7 0;
#X connect 35 0 9 0;
#X connect 35 1 14 0;
#X connect 36 0 12 0;
#X connect 36 1 15 0;
#X connect 37 0 17 0;
#X connect 37 1 28 0;
#X connect 38 0 20 0;
#X connect 38 1 29 0;
#X connect 39 0 23 0;
#X connect 39 1 30 0;
#X connect 40 0 26 0;
#X connect 40 1 31 0;
#X connect 41 0 2 1;
#X connect 42 0 5 1;
#X connect 43 0 9 1;
#X connect 44 0 12 1;
#X connect 45 0 17 1;
#X connect 46 0 20 1;
#X connect 47 0 23 1;
#X connect 48 0 26 1;
#X connect 49 0 32 0;
#X connect 50 0 41 1;
#X connect 50 0 42 1;
#X connect 50 0 43 1;
#X connect 50 0 44 1;
#X connect 50 0 45 1;
#X connect 50 0 46 1;
#X connect 50 0 47 1;
#X connect 50 0 48 1;
#X restore 357 377 pd dis;
#X obj 358 333 pack 0 0 0 0 0 0 0 0, f 15;
#X obj 469 295 dtoeb, f 15;
#N canvas 0 23 1297 452 dis 0;
#X obj 40 234 unpack 0 0;
#X msg 92 149 0;
#X obj 39 204 pack 0 0;
#X obj 40 264 tabwrite seq;
#X obj 133 234 unpack 0 0;
#X obj 132 204 pack 0 0;
#X obj 133 264 tabwrite seq;
#X msg 185 149 1;
#X obj 225 234 unpack 0 0;
#X obj 224 204 pack 0 0;
#X obj 225 264 tabwrite seq;
#X obj 318 234 unpack 0 0;
#X obj 317 204 pack 0 0;
#X obj 318 264 tabwrite seq;
#X msg 277 149 2;
#X msg 370 149 3;
#X obj 409 234 unpack 0 0;
#X obj 408 204 pack 0 0;
#X obj 409 264 tabwrite seq;
#X obj 502 234 unpack 0 0;
#X obj 501 204 pack 0 0;
#X obj 502 264 tabwrite seq;
#X obj 594 234 unpack 0 0;
#X obj 593 204 pack 0 0;
#X obj 594 264 tabwrite seq;
#X obj 687 234 unpack 0 0;
#X obj 686 204 pack 0 0;
#X obj 687 264 tabwrite seq;
#X msg 461 149 4;
#X msg 554 149 5;
#X msg 646 149 6;
#X msg 739 149 7;
#X obj 42 69 unpack 0 0 0 0 0 0 0 0;
#X obj 42 117 t f b;
#X obj 135 116 t f b;
#X obj 226 118 t f b;
#X obj 319 117 t f b;
#X obj 408 116 t f b;
#X obj 501 115 t f b;
#X obj 592 117 t f b;
#X obj 685 116 t f b;
#X obj 90 179 + \$1;
#X obj 185 177 + \$1;
#X obj 278 178 + \$1;
#X obj 373 176 + \$1;
#X obj 459 178 + \$1;
#X obj 554 176 + \$1;
#X obj 647 177 + \$1;
#X obj 742 175 + \$1;
#X obj 43 31 inlet;
#X obj 209 30 inlet;
#X connect 0 0 3 0;
#X connect 0 1 3 1;
#X connect 1 0 41 0;
#X connect 2 0 0 0;
#X connect 4 0 6 0;
#X connect 4 1 6 1;
#X connect 5 0 4 0;
#X connect 7 0 42 0;
#X connect 8 0 10 0;
#X connect 8 1 10 1;
#X connect 9 0 8 0;
#X connect 11 0 13 0;
#X connect 11 1 13 1;
#X connect 12 0 11 0;
#X connect 14 0 43 0;
#X connect 15 0 44 0;
#X connect 16 0 18 0;
#X connect 16 1 18 1;
#X connect 17 0 16 0;
#X connect 19 0 21 0;
#X connect 19 1 21 1;
#X connect 20 0 19 0;
#X connect 22 0 24 0;
#X connect 22 1 24 1;
#X connect 23 0 22 0;
#X connect 25 0 27 0;
#X connect 25 1 27 1;
#X connect 26 0 25 0;
#X connect 28 0 45 0;
#X connect 29 0 46 0;
#X connect 30 0 47 0;
#X connect 31 0 48 0;
#X connect 32 0 33 0;
#X connect 32 1 34 0;
#X connect 32 2 35 0;
#X connect 32 3 36 0;
#X connect 32 4 37 0;
#X connect 32 5 38 0;
#X connect 32 6 39 0;
#X connect 32 7 40 0;
#X connect 33 0 2 0;
#X connect 33 1 1 0;
#X connect 34 0 5 0;
#X connect 34 1 7 0;
#X connect 35 0 9 0;
#X connect 35 1 14 0;
#X connect 36 0 12 0;
#X connect 36 1 15 0;
#X connect 37 0 17 0;
#X connect 37 1 28 0;
#X connect 38 0 20 0;
#X connect 38 1 29 0;
#X connect 39 0 23 0;
#X connect 39 1 30 0;
#X connect 40 0 26 0;
#X connect 40 1 31 0;
#X connect 41 0 2 1;
#X connect 42 0 5 1;
#X connect 43 0 9 1;
#X connect 44 0 12 1;
#X connect 45 0 17 1;
#X connect 46 0 20 1;
#X connect 47 0 23 1;
#X connect 48 0 26 1;
#X connect 49 0 32 0;
#X connect 50 0 41 1;
#X connect 50 0 42 1;
#X connect 50 0 43 1;
#X connect 50 0 44 1;
#X connect 50 0 45 1;
#X connect 50 0 46 1;
#X connect 50 0 47 1;
#X connect 50 0 48 1;
#X restore 469 376 pd dis;
#X obj 470 332 pack 0 0 0 0 0 0 0 0, f 15;
#X obj 582 296 dtoeb, f 15;
#N canvas 0 23 1297 452 dis 0;
#X obj 40 234 unpack 0 0;
#X msg 92 149 0;
#X obj 39 204 pack 0 0;
#X obj 40 264 tabwrite seq;
#X obj 133 234 unpack 0 0;
#X obj 132 204 pack 0 0;
#X obj 133 264 tabwrite seq;
#X msg 185 149 1;
#X obj 225 234 unpack 0 0;
#X obj 224 204 pack 0 0;
#X obj 225 264 tabwrite seq;
#X obj 318 234 unpack 0 0;
#X obj 317 204 pack 0 0;
#X obj 318 264 tabwrite seq;
#X msg 277 149 2;
#X msg 370 149 3;
#X obj 409 234 unpack 0 0;
#X obj 408 204 pack 0 0;
#X obj 409 264 tabwrite seq;
#X obj 502 234 unpack 0 0;
#X obj 501 204 pack 0 0;
#X obj 502 264 tabwrite seq;
#X obj 594 234 unpack 0 0;
#X obj 593 204 pack 0 0;
#X obj 594 264 tabwrite seq;
#X obj 687 234 unpack 0 0;
#X obj 686 204 pack 0 0;
#X obj 687 264 tabwrite seq;
#X msg 461 149 4;
#X msg 554 149 5;
#X msg 646 149 6;
#X msg 739 149 7;
#X obj 42 69 unpack 0 0 0 0 0 0 0 0;
#X obj 42 117 t f b;
#X obj 135 116 t f b;
#X obj 226 118 t f b;
#X obj 319 117 t f b;
#X obj 408 116 t f b;
#X obj 501 115 t f b;
#X obj 592 117 t f b;
#X obj 685 116 t f b;
#X obj 90 179 + \$1;
#X obj 185 177 + \$1;
#X obj 278 178 + \$1;
#X obj 373 176 + \$1;
#X obj 459 178 + \$1;
#X obj 554 176 + \$1;
#X obj 647 177 + \$1;
#X obj 742 175 + \$1;
#X obj 43 31 inlet;
#X obj 209 30 inlet;
#X connect 0 0 3 0;
#X connect 0 1 3 1;
#X connect 1 0 41 0;
#X connect 2 0 0 0;
#X connect 4 0 6 0;
#X connect 4 1 6 1;
#X connect 5 0 4 0;
#X connect 7 0 42 0;
#X connect 8 0 10 0;
#X connect 8 1 10 1;
#X connect 9 0 8 0;
#X connect 11 0 13 0;
#X connect 11 1 13 1;
#X connect 12 0 11 0;
#X connect 14 0 43 0;
#X connect 15 0 44 0;
#X connect 16 0 18 0;
#X connect 16 1 18 1;
#X connect 17 0 16 0;
#X connect 19 0 21 0;
#X connect 19 1 21 1;
#X connect 20 0 19 0;
#X connect 22 0 24 0;
#X connect 22 1 24 1;
#X connect 23 0 22 0;
#X connect 25 0 27 0;
#X connect 25 1 27 1;
#X connect 26 0 25 0;
#X connect 28 0 45 0;
#X connect 29 0 46 0;
#X connect 30 0 47 0;
#X connect 31 0 48 0;
#X connect 32 0 33 0;
#X connect 32 1 34 0;
#X connect 32 2 35 0;
#X connect 32 3 36 0;
#X connect 32 4 37 0;
#X connect 32 5 38 0;
#X connect 32 6 39 0;
#X connect 32 7 40 0;
#X connect 33 0 2 0;
#X connect 33 1 1 0;
#X connect 34 0 5 0;
#X connect 34 1 7 0;
#X connect 35 0 9 0;
#X connect 35 1 14 0;
#X connect 36 0 12 0;
#X connect 36 1 15 0;
#X connect 37 0 17 0;
#X connect 37 1 28 0;
#X connect 38 0 20 0;
#X connect 38 1 29 0;
#X connect 39 0 23 0;
#X connect 39 1 30 0;
#X connect 40 0 26 0;
#X connect 40 1 31 0;
#X connect 41 0 2 1;
#X connect 42 0 5 1;
#X connect 43 0 9 1;
#X connect 44 0 12 1;
#X connect 45 0 17 1;
#X connect 46 0 20 1;
#X connect 47 0 23 1;
#X connect 48 0 26 1;
#X connect 49 0 32 0;
#X connect 50 0 41 1;
#X connect 50 0 42 1;
#X connect 50 0 43 1;
#X connect 50 0 44 1;
#X connect 50 0 45 1;
#X connect 50 0 46 1;
#X connect 50 0 47 1;
#X connect 50 0 48 1;
#X restore 582 377 pd dis;
#X obj 583 333 pack 0 0 0 0 0 0 0 0, f 15;
#X obj 694 297 dtoeb, f 15;
#N canvas 0 23 1297 452 dis 0;
#X obj 40 234 unpack 0 0;
#X msg 92 149 0;
#X obj 39 204 pack 0 0;
#X obj 40 264 tabwrite seq;
#X obj 133 234 unpack 0 0;
#X obj 132 204 pack 0 0;
#X obj 133 264 tabwrite seq;
#X msg 185 149 1;
#X obj 225 234 unpack 0 0;
#X obj 224 204 pack 0 0;
#X obj 225 264 tabwrite seq;
#X obj 318 234 unpack 0 0;
#X obj 317 204 pack 0 0;
#X obj 318 264 tabwrite seq;
#X msg 277 149 2;
#X msg 370 149 3;
#X obj 409 234 unpack 0 0;
#X obj 408 204 pack 0 0;
#X obj 409 264 tabwrite seq;
#X obj 502 234 unpack 0 0;
#X obj 501 204 pack 0 0;
#X obj 502 264 tabwrite seq;
#X obj 594 234 unpack 0 0;
#X obj 593 204 pack 0 0;
#X obj 594 264 tabwrite seq;
#X obj 687 234 unpack 0 0;
#X obj 686 204 pack 0 0;
#X obj 687 264 tabwrite seq;
#X msg 461 149 4;
#X msg 554 149 5;
#X msg 646 149 6;
#X msg 739 149 7;
#X obj 42 69 unpack 0 0 0 0 0 0 0 0;
#X obj 42 117 t f b;
#X obj 135 116 t f b;
#X obj 226 118 t f b;
#X obj 319 117 t f b;
#X obj 408 116 t f b;
#X obj 501 115 t f b;
#X obj 592 117 t f b;
#X obj 685 116 t f b;
#X obj 90 179 + \$1;
#X obj 185 177 + \$1;
#X obj 278 178 + \$1;
#X obj 373 176 + \$1;
#X obj 459 178 + \$1;
#X obj 554 176 + \$1;
#X obj 647 177 + \$1;
#X obj 742 175 + \$1;
#X obj 43 31 inlet;
#X obj 209 30 inlet;
#X connect 0 0 3 0;
#X connect 0 1 3 1;
#X connect 1 0 41 0;
#X connect 2 0 0 0;
#X connect 4 0 6 0;
#X connect 4 1 6 1;
#X connect 5 0 4 0;
#X connect 7 0 42 0;
#X connect 8 0 10 0;
#X connect 8 1 10 1;
#X connect 9 0 8 0;
#X connect 11 0 13 0;
#X connect 11 1 13 1;
#X connect 12 0 11 0;
#X connect 14 0 43 0;
#X connect 15 0 44 0;
#X connect 16 0 18 0;
#X connect 16 1 18 1;
#X connect 17 0 16 0;
#X connect 19 0 21 0;
#X connect 19 1 21 1;
#X connect 20 0 19 0;
#X connect 22 0 24 0;
#X connect 22 1 24 1;
#X connect 23 0 22 0;
#X connect 25 0 27 0;
#X connect 25 1 27 1;
#X connect 26 0 25 0;
#X connect 28 0 45 0;
#X connect 29 0 46 0;
#X connect 30 0 47 0;
#X connect 31 0 48 0;
#X connect 32 0 33 0;
#X connect 32 1 34 0;
#X connect 32 2 35 0;
#X connect 32 3 36 0;
#X connect 32 4 37 0;
#X connect 32 5 38 0;
#X connect 32 6 39 0;
#X connect 32 7 40 0;
#X connect 33 0 2 0;
#X connect 33 1 1 0;
#X connect 34 0 5 0;
#X connect 34 1 7 0;
#X connect 35 0 9 0;
#X connect 35 1 14 0;
#X connect 36 0 12 0;
#X connect 36 1 15 0;
#X connect 37 0 17 0;
#X connect 37 1 28 0;
#X connect 38 0 20 0;
#X connect 38 1 29 0;
#X connect 39 0 23 0;
#X connect 39 1 30 0;
#X connect 40 0 26 0;
#X connect 40 1 31 0;
#X connect 41 0 2 1;
#X connect 42 0 5 1;
#X connect 43 0 9 1;
#X connect 44 0 12 1;
#X connect 45 0 17 1;
#X connect 46 0 20 1;
#X connect 47 0 23 1;
#X connect 48 0 26 1;
#X connect 49 0 32 0;
#X connect 50 0 41 1;
#X connect 50 0 42 1;
#X connect 50 0 43 1;
#X connect 50 0 44 1;
#X connect 50 0 45 1;
#X connect 50 0 46 1;
#X connect 50 0 47 1;
#X connect 50 0 48 1;
#X restore 694 378 pd dis;
#X obj 695 334 pack 0 0 0 0 0 0 0 0, f 15;
#X obj 807 298 dtoeb, f 15;
#N canvas 0 23 1297 452 dis 0;
#X obj 40 234 unpack 0 0;
#X msg 92 149 0;
#X obj 39 204 pack 0 0;
#X obj 40 264 tabwrite seq;
#X obj 133 234 unpack 0 0;
#X obj 132 204 pack 0 0;
#X obj 133 264 tabwrite seq;
#X msg 185 149 1;
#X obj 225 234 unpack 0 0;
#X obj 224 204 pack 0 0;
#X obj 225 264 tabwrite seq;
#X obj 318 234 unpack 0 0;
#X obj 317 204 pack 0 0;
#X obj 318 264 tabwrite seq;
#X msg 277 149 2;
#X msg 370 149 3;
#X obj 409 234 unpack 0 0;
#X obj 408 204 pack 0 0;
#X obj 409 264 tabwrite seq;
#X obj 502 234 unpack 0 0;
#X obj 501 204 pack 0 0;
#X obj 502 264 tabwrite seq;
#X obj 594 234 unpack 0 0;
#X obj 593 204 pack 0 0;
#X obj 594 264 tabwrite seq;
#X obj 687 234 unpack 0 0;
#X obj 686 204 pack 0 0;
#X obj 687 264 tabwrite seq;
#X msg 461 149 4;
#X msg 554 149 5;
#X msg 646 149 6;
#X msg 739 149 7;
#X obj 42 69 unpack 0 0 0 0 0 0 0 0;
#X obj 42 117 t f b;
#X obj 135 116 t f b;
#X obj 226 118 t f b;
#X obj 319 117 t f b;
#X obj 408 116 t f b;
#X obj 501 115 t f b;
#X obj 592 117 t f b;
#X obj 685 116 t f b;
#X obj 90 179 + \$1;
#X obj 185 177 + \$1;
#X obj 278 178 + \$1;
#X obj 373 176 + \$1;
#X obj 459 178 + \$1;
#X obj 554 176 + \$1;
#X obj 647 177 + \$1;
#X obj 742 175 + \$1;
#X obj 43 31 inlet;
#X obj 209 30 inlet;
#X connect 0 0 3 0;
#X connect 0 1 3 1;
#X connect 1 0 41 0;
#X connect 2 0 0 0;
#X connect 4 0 6 0;
#X connect 4 1 6 1;
#X connect 5 0 4 0;
#X connect 7 0 42 0;
#X connect 8 0 10 0;
#X connect 8 1 10 1;
#X connect 9 0 8 0;
#X connect 11 0 13 0;
#X connect 11 1 13 1;
#X connect 12 0 11 0;
#X connect 14 0 43 0;
#X connect 15 0 44 0;
#X connect 16 0 18 0;
#X connect 16 1 18 1;
#X connect 17 0 16 0;
#X connect 19 0 21 0;
#X connect 19 1 21 1;
#X connect 20 0 19 0;
#X connect 22 0 24 0;
#X connect 22 1 24 1;
#X connect 23 0 22 0;
#X connect 25 0 27 0;
#X connect 25 1 27 1;
#X connect 26 0 25 0;
#X connect 28 0 45 0;
#X connect 29 0 46 0;
#X connect 30 0 47 0;
#X connect 31 0 48 0;
#X connect 32 0 33 0;
#X connect 32 1 34 0;
#X connect 32 2 35 0;
#X connect 32 3 36 0;
#X connect 32 4 37 0;
#X connect 32 5 38 0;
#X connect 32 6 39 0;
#X connect 32 7 40 0;
#X connect 33 0 2 0;
#X connect 33 1 1 0;
#X connect 34 0 5 0;
#X connect 34 1 7 0;
#X connect 35 0 9 0;
#X connect 35 1 14 0;
#X connect 36 0 12 0;
#X connect 36 1 15 0;
#X connect 37 0 17 0;
#X connect 37 1 28 0;
#X connect 38 0 20 0;
#X connect 38 1 29 0;
#X connect 39 0 23 0;
#X connect 39 1 30 0;
#X connect 40 0 26 0;
#X connect 40 1 31 0;
#X connect 41 0 2 1;
#X connect 42 0 5 1;
#X connect 43 0 9 1;
#X connect 44 0 12 1;
#X connect 45 0 17 1;
#X connect 46 0 20 1;
#X connect 47 0 23 1;
#X connect 48 0 26 1;
#X connect 49 0 32 0;
#X connect 50 0 41 1;
#X connect 50 0 42 1;
#X connect 50 0 43 1;
#X connect 50 0 44 1;
#X connect 50 0 45 1;
#X connect 50 0 46 1;
#X connect 50 0 47 1;
#X connect 50 0 48 1;
#X restore 807 379 pd dis;
#X obj 808 335 pack 0 0 0 0 0 0 0 0, f 15;
#X msg 76 374 0;
#X msg 183 375 8;
#X msg 301 377 16;
#X msg 408 378 24;
#X msg 527 376 32;
#X msg 634 377 40;
#X msg 752 379 48;
#X msg 859 380 56;
#X obj 182 103 pack 0 0 0 0 0 0 0 0;
#X obj 240 60 int;
#X obj 429 148 tabread seq;
#X obj 336 21 clock;
#X obj 429 171 sel 1;
#X obj 595 132 bng 30 100 50 0 empty empty empty 17 7 0 10 -262144
-1 -1;
#X msg 19 74 ¥˙˚˜;
#N canvas 0 22 450 278 (subpatch) 0;
#X array seq 64 float 3;
#A 0 1 1 0 0 0 0 1 0 1 0 1 0 0 1 0 1 1 1 0 0 1 0 1 1 1 0 0 1 1 0 0
1 1 1 0 0 1 0 1 1 1 0 0 1 1 0 1 0 1 1 0 0 1 0 1 1 1 0 0 1 1 1 0 0;
#X coords 0 1 64 0 250 20 1 0 0;
#X restore 430 206 graph;
#X obj 250 34 del 10;
#X obj 113 525 +;
#X obj 142 524 +;
#X obj 173 524 +;
#X obj 202 522 +;
#X obj 28 522 +;
#X obj 57 523 +;
#X obj 86 522 +;
#X obj 36 456 unpack 0 0 0 0 0 0 0 0;
#X obj 277 493 * 1;
#X obj 243 492 * 2;
#X obj 205 493 * 4;
#X obj 170 493 * 8;
#X obj 130 492 * 16;
#X obj 92 493 * 32;
#X obj 53 493 * 64;
#X obj 7 493 * 128;
#X floatatom 524 426 5 0 0 0 - - -;
#X obj 123 620 +;
#X obj 154 621 +;
#X obj 184 622 +;
#X obj 215 622 +;
#X obj 30 620 +;
#X obj 62 621 +;
#X obj 92 620 +;
#X obj 43 553 unpack 0 0 0 0 0 0 0 0;
#X obj 280 589 * 1;
#X obj 250 589 * 2;
#X obj 212 590 * 4;
#X obj 177 590 * 8;
#X obj 137 589 * 16;
#X obj 99 590 * 32;
#X obj 60 590 * 64;
#X obj 14 590 * 128;
#X floatatom 613 426 5 0 0 0 - - -;
#X msg 36 424 1 0 0 1 0 0 1 0;
#X obj 860 267 loadbang;
#X msg 239 8 136;
#X msg 273 426 0 0 0 0 1 0 1 0;
#X obj 429 125 % 64;
#X msg 183 134 146 74 75 200 146 10 146 10;
#X obj 412 526 +;
#X obj 441 525 +;
#X obj 472 525 +;
#X obj 501 523 +;
#X obj 327 523 +;
#X obj 356 524 +;
#X obj 385 523 +;
#X obj 335 457 unpack 0 0 0 0 0 0 0 0;
#X obj 576 494 * 1;
#X obj 542 493 * 2;
#X obj 504 494 * 4;
#X obj 469 494 * 8;
#X obj 429 493 * 16;
#X obj 391 494 * 32;
#X obj 352 494 * 64;
#X obj 306 494 * 128;
#X floatatom 567 426 5 0 0 0 - - -;
#X obj 422 621 +;
#X obj 453 622 +;
#X obj 483 623 +;
#X obj 514 623 +;
#X obj 329 621 +;
#X obj 361 622 +;
#X obj 391 621 +;
#X obj 342 554 unpack 0 0 0 0 0 0 0 0;
#X obj 579 590 * 1;
#X obj 549 590 * 2;
#X obj 511 591 * 4;
#X obj 476 591 * 8;
#X obj 436 590 * 16;
#X obj 398 591 * 32;
#X obj 359 591 * 64;
#X obj 313 591 * 128;
#X floatatom 653 426 5 0 0 0 - - -;
#X msg 155 425 1 0 0 1 0 0 1 0;
#X msg 391 424 0 0 0 0 1 0 1 0;
#X obj 545 88 tgl 15 0 empty empty empty 17 7 0 10 -262144 -1 -1 0
1;
#X obj 545 108 change;
#X obj 595 97 bng 30 100 50 0 empty empty empty 17 7 0 10 -262144 -1
-1;
#X obj 545 136 sel 1;
#X obj 630 97 bng 30 100 50 0 empty empty empty 17 7 0 10 -262144 -1
-1;
#X connect 0 0 1 0;
#X connect 1 0 2 0;
#X connect 1 1 5 0;
#X connect 1 2 6 0;
#X connect 1 3 7 0;
#X connect 1 4 8 0;
#X connect 1 5 9 0;
#X connect 1 6 10 0;
#X connect 1 7 11 0;
#X connect 2 0 4 0;
#X connect 3 0 0 0;
#X connect 4 0 16 0;
#X connect 4 1 16 1;
#X connect 4 2 16 2;
#X connect 4 3 16 3;
#X connect 4 4 16 4;
#X connect 4 5 16 5;
#X connect 4 6 16 6;
#X connect 4 7 16 7;
#X connect 5 0 17 0;
#X connect 6 0 20 0;
#X connect 7 0 23 0;
#X connect 8 0 26 0;
#X connect 9 0 29 0;
#X connect 10 0 32 0;
#X connect 11 0 35 0;
#X connect 12 0 13 0;
#X connect 13 0 0 0;
#X connect 14 0 1 0;
#X connect 16 0 15 0;
#X connect 17 0 19 0;
#X connect 17 1 19 1;
#X connect 17 2 19 2;
#X connect 17 3 19 3;
#X connect 17 4 19 4;
#X connect 17 5 19 5;
#X connect 17 6 19 6;
#X connect 17 7 19 7;
#X connect 19 0 18 0;
#X connect 20 0 22 0;
#X connect 20 1 22 1;
#X connect 20 2 22 2;
#X connect 20 3 22 3;
#X connect 20 4 22 4;
#X connect 20 5 22 5;
#X connect 20 6 22 6;
#X connect 20 7 22 7;
#X connect 22 0 21 0;
#X connect 23 0 25 0;
#X connect 23 1 25 1;
#X connect 23 2 25 2;
#X connect 23 3 25 3;
#X connect 23 4 25 4;
#X connect 23 5 25 5;
#X connect 23 6 25 6;
#X connect 23 7 25 7;
#X connect 25 0 24 0;
#X connect 26 0 28 0;
#X connect 26 1 28 1;
#X connect 26 2 28 2;
#X connect 26 3 28 3;
#X connect 26 4 28 4;
#X connect 26 5 28 5;
#X connect 26 6 28 6;
#X connect 26 7 28 7;
#X connect 28 0 27 0;
#X connect 29 0 31 0;
#X connect 29 1 31 1;
#X connect 29 2 31 2;
#X connect 29 3 31 3;
#X connect 29 4 31 4;
#X connect 29 5 31 5;
#X connect 29 6 31 6;
#X connect 29 7 31 7;
#X connect 31 0 30 0;
#X connect 32 0 34 0;
#X connect 32 1 34 1;
#X connect 32 2 34 2;
#X connect 32 3 34 3;
#X connect 32 4 34 4;
#X connect 32 5 34 5;
#X connect 32 6 34 6;
#X connect 32 7 34 7;
#X connect 34 0 33 0;
#X connect 35 0 37 0;
#X connect 35 1 37 1;
#X connect 35 2 37 2;
#X connect 35 3 37 3;
#X connect 35 4 37 4;
#X connect 35 5 37 5;
#X connect 35 6 37 6;
#X connect 35 7 37 7;
#X connect 37 0 36 0;
#X connect 38 0 15 1;
#X connect 39 0 18 1;
#X connect 40 0 21 1;
#X connect 41 0 24 1;
#X connect 42 0 27 1;
#X connect 43 0 30 1;
#X connect 44 0 33 1;
#X connect 45 0 36 1;
#X connect 46 0 1 0;
#X connect 47 0 46 0;
#X connect 47 0 46 1;
#X connect 47 0 46 2;
#X connect 47 0 46 3;
#X connect 47 0 46 4;
#X connect 47 0 46 5;
#X connect 47 0 46 6;
#X connect 47 0 46 7;
#X connect 48 0 50 0;
#X connect 48 0 131 0;
#X connect 49 4 93 0;
#X connect 50 0 51 0;
#X connect 52 0 3 0;
#X connect 54 0 47 0;
#X connect 55 0 56 0;
#X connect 56 0 57 0;
#X connect 57 0 58 0;
#X connect 58 0 71 0;
#X connect 59 0 60 0;
#X connect 60 0 61 0;
#X connect 61 0 55 0;
#X connect 62 0 70 0;
#X connect 62 1 69 0;
#X connect 62 2 68 0;
#X connect 62 3 67 0;
#X connect 62 4 66 0;
#X connect 62 5 65 0;
#X connect 62 6 64 0;
#X connect 62 7 63 0;
#X connect 63 0 58 1;
#X connect 64 0 57 1;
#X connect 65 0 56 1;
#X connect 66 0 55 1;
#X connect 67 0 61 1;
#X connect 68 0 60 1;
#X connect 69 0 59 1;
#X connect 70 0 59 0;
#X connect 72 0 73 0;
#X connect 73 0 74 0;
#X connect 74 0 75 0;
#X connect 75 0 88 0;
#X connect 76 0 77 0;
#X connect 77 0 78 0;
#X connect 78 0 72 0;
#X connect 79 0 87 0;
#X connect 79 1 86 0;
#X connect 79 2 85 0;
#X connect 79 3 84 0;
#X connect 79 4 83 0;
#X connect 79 5 82 0;
#X connect 79 6 81 0;
#X connect 79 7 80 0;
#X connect 80 0 75 1;
#X connect 81 0 74 1;
#X connect 82 0 73 1;
#X connect 83 0 72 1;
#X connect 84 0 78 1;
#X connect 85 0 77 1;
#X connect 86 0 76 1;
#X connect 87 0 76 0;
#X connect 89 0 62 0;
#X connect 90 0 45 0;
#X connect 90 0 44 0;
#X connect 90 0 43 0;
#X connect 90 0 42 0;
#X connect 90 0 41 0;
#X connect 90 0 40 0;
#X connect 90 0 39 0;
#X connect 90 0 38 0;
#X connect 91 0 47 0;
#X connect 91 0 54 0;
#X connect 92 0 79 0;
#X connect 93 0 48 0;
#X connect 94 0 1 0;
#X connect 95 0 96 0;
#X connect 96 0 97 0;
#X connect 97 0 98 0;
#X connect 98 0 111 0;
#X connect 99 0 100 0;
#X connect 100 0 101 0;
#X connect 101 0 95 0;
#X connect 102 0 110 0;
#X connect 102 1 109 0;
#X connect 102 2 108 0;
#X connect 102 3 107 0;
#X connect 102 4 106 0;
#X connect 102 5 105 0;
#X connect 102 6 104 0;
#X connect 102 7 103 0;
#X connect 103 0 98 1;
#X connect 104 0 97 1;
#X connect 105 0 96 1;
#X connect 106 0 95 1;
#X connect 107 0 101 1;
#X connect 108 0 100 1;
#X connect 109 0 99 1;
#X connect 110 0 99 0;
#X connect 112 0 113 0;
#X connect 113 0 114 0;
#X connect 114 0 115 0;
#X connect 115 0 128 0;
#X connect 116 0 117 0;
#X connect 117 0 118 0;
#X connect 118 0 112 0;
#X connect 119 0 127 0;
#X connect 119 1 126 0;
#X connect 119 2 125 0;
#X connect 119 3 124 0;
#X connect 119 4 123 0;
#X connect 119 5 122 0;
#X connect 119 6 121 0;
#X connect 119 7 120 0;
#X connect 120 0 115 1;
#X connect 121 0 114 1;
#X connect 122 0 113 1;
#X connect 123 0 112 1;
#X connect 124 0 118 1;
#X connect 125 0 117 1;
#X connect 126 0 116 1;
#X connect 127 0 116 0;
#X connect 129 0 102 0;
#X connect 130 0 119 0;
#X connect 131 0 132 0;
#X connect 132 0 133 0;
#X connect 132 0 134 0;
#X connect 134 0 135 0;
