#N canvas 275 159 948 473 12;
#X obj 22 60 list fromsymbol;
#X obj 22 109 unpack 0 0 0 0 0 0 0 0;
#X floatatom 22 167 5 0 0 0 - - -;
#X obj 22 29 symbol;
#X obj 22 192 dtoeb, f 15;
#X floatatom 135 167 5 0 0 0 - - -;
#X floatatom 247 167 5 0 0 0 - - -;
#X floatatom 360 166 5 0 0 0 - - -;
#X floatatom 472 166 5 0 0 0 - - -;
#X floatatom 585 166 5 0 0 0 - - -;
#X floatatom 697 166 5 0 0 0 - - -;
#X floatatom 810 165 5 0 0 0 - - -;
#X obj 73 0 list tosymbol;
#X symbolatom 73 29 10 0 0 0 - - -;
#X msg 186 61 0 0 0 0 0 0 0 0;
#N canvas 0 23 1297 452 dis 0;
#X obj 40 234 unpack 0 0;
#X msg 92 149 0;
#X obj 39 204 pack 0 0;
#X obj 40 264 tabwrite seq;
#X obj 133 234 unpack 0 0;
#X obj 132 204 pack 0 0;
#X obj 133 264 tabwrite seq;
#X msg 185 149 1;
#X obj 225 234 unpack 0 0;
#X obj 224 204 pack 0 0;
#X obj 225 264 tabwrite seq;
#X obj 318 234 unpack 0 0;
#X obj 317 204 pack 0 0;
#X obj 318 264 tabwrite seq;
#X msg 277 149 2;
#X msg 370 149 3;
#X obj 409 234 unpack 0 0;
#X obj 408 204 pack 0 0;
#X obj 409 264 tabwrite seq;
#X obj 502 234 unpack 0 0;
#X obj 501 204 pack 0 0;
#X obj 502 264 tabwrite seq;
#X obj 594 234 unpack 0 0;
#X obj 593 204 pack 0 0;
#X obj 594 264 tabwrite seq;
#X obj 687 234 unpack 0 0;
#X obj 686 204 pack 0 0;
#X obj 687 264 tabwrite seq;
#X msg 461 149 4;
#X msg 554 149 5;
#X msg 646 149 6;
#X msg 739 149 7;
#X obj 42 69 unpack 0 0 0 0 0 0 0 0;
#X obj 42 117 t f b;
#X obj 135 116 t f b;
#X obj 226 118 t f b;
#X obj 319 117 t f b;
#X obj 408 116 t f b;
#X obj 501 115 t f b;
#X obj 592 117 t f b;
#X obj 685 116 t f b;
#X obj 90 179 + \$1;
#X obj 185 177 + \$1;
#X obj 278 178 + \$1;
#X obj 373 176 + \$1;
#X obj 459 178 + \$1;
#X obj 554 176 + \$1;
#X obj 647 177 + \$1;
#X obj 742 175 + \$1;
#X obj 43 31 inlet;
#X obj 209 30 inlet;
#X connect 0 0 3 0;
#X connect 0 1 3 1;
#X connect 1 0 41 0;
#X connect 2 0 0 0;
#X connect 4 0 6 0;
#X connect 4 1 6 1;
#X connect 5 0 4 0;
#X connect 7 0 42 0;
#X connect 8 0 10 0;
#X connect 8 1 10 1;
#X connect 9 0 8 0;
#X connect 11 0 13 0;
#X connect 11 1 13 1;
#X connect 12 0 11 0;
#X connect 14 0 43 0;
#X connect 15 0 44 0;
#X connect 16 0 18 0;
#X connect 16 1 18 1;
#X connect 17 0 16 0;
#X connect 19 0 21 0;
#X connect 19 1 21 1;
#X connect 20 0 19 0;
#X connect 22 0 24 0;
#X connect 22 1 24 1;
#X connect 23 0 22 0;
#X connect 25 0 27 0;
#X connect 25 1 27 1;
#X connect 26 0 25 0;
#X connect 28 0 45 0;
#X connect 29 0 46 0;
#X connect 30 0 47 0;
#X connect 31 0 48 0;
#X connect 32 0 33 0;
#X connect 32 1 34 0;
#X connect 32 2 35 0;
#X connect 32 3 36 0;
#X connect 32 4 37 0;
#X connect 32 5 38 0;
#X connect 32 6 39 0;
#X connect 32 7 40 0;
#X connect 33 0 2 0;
#X connect 33 1 1 0;
#X connect 34 0 5 0;
#X connect 34 1 7 0;
#X connect 35 0 9 0;
#X connect 35 1 14 0;
#X connect 36 0 12 0;
#X connect 36 1 15 0;
#X connect 37 0 17 0;
#X connect 37 1 28 0;
#X connect 38 0 20 0;
#X connect 38 1 29 0;
#X connect 39 0 23 0;
#X connect 39 1 30 0;
#X connect 40 0 26 0;
#X connect 40 1 31 0;
#X connect 41 0 2 1;
#X connect 42 0 5 1;
#X connect 43 0 9 1;
#X connect 44 0 12 1;
#X connect 45 0 17 1;
#X connect 46 0 20 1;
#X connect 47 0 23 1;
#X connect 48 0 26 1;
#X connect 49 0 32 0;
#X connect 50 0 41 1;
#X connect 50 0 42 1;
#X connect 50 0 43 1;
#X connect 50 0 44 1;
#X connect 50 0 45 1;
#X connect 50 0 46 1;
#X connect 50 0 47 1;
#X connect 50 0 48 1;
#X restore 22 273 pd dis;
#X obj 23 229 pack 0 0 0 0 0 0 0 0, f 15;
#X obj 135 193 dtoeb, f 15;
#N canvas 0 23 1297 452 dis 0;
#X obj 40 234 unpack 0 0;
#X msg 92 149 0;
#X obj 39 204 pack 0 0;
#X obj 40 264 tabwrite seq;
#X obj 133 234 unpack 0 0;
#X obj 132 204 pack 0 0;
#X obj 133 264 tabwrite seq;
#X msg 185 149 1;
#X obj 225 234 unpack 0 0;
#X obj 224 204 pack 0 0;
#X obj 225 264 tabwrite seq;
#X obj 318 234 unpack 0 0;
#X obj 317 204 pack 0 0;
#X obj 318 264 tabwrite seq;
#X msg 277 149 2;
#X msg 370 149 3;
#X obj 409 234 unpack 0 0;
#X obj 408 204 pack 0 0;
#X obj 409 264 tabwrite seq;
#X obj 502 234 unpack 0 0;
#X obj 501 204 pack 0 0;
#X obj 502 264 tabwrite seq;
#X obj 594 234 unpack 0 0;
#X obj 593 204 pack 0 0;
#X obj 594 264 tabwrite seq;
#X obj 687 234 unpack 0 0;
#X obj 686 204 pack 0 0;
#X obj 687 264 tabwrite seq;
#X msg 461 149 4;
#X msg 554 149 5;
#X msg 646 149 6;
#X msg 739 149 7;
#X obj 42 69 unpack 0 0 0 0 0 0 0 0;
#X obj 42 117 t f b;
#X obj 135 116 t f b;
#X obj 226 118 t f b;
#X obj 319 117 t f b;
#X obj 408 116 t f b;
#X obj 501 115 t f b;
#X obj 592 117 t f b;
#X obj 685 116 t f b;
#X obj 90 179 + \$1;
#X obj 185 177 + \$1;
#X obj 278 178 + \$1;
#X obj 373 176 + \$1;
#X obj 459 178 + \$1;
#X obj 554 176 + \$1;
#X obj 647 177 + \$1;
#X obj 742 175 + \$1;
#X obj 43 31 inlet;
#X obj 209 30 inlet;
#X connect 0 0 3 0;
#X connect 0 1 3 1;
#X connect 1 0 41 0;
#X connect 2 0 0 0;
#X connect 4 0 6 0;
#X connect 4 1 6 1;
#X connect 5 0 4 0;
#X connect 7 0 42 0;
#X connect 8 0 10 0;
#X connect 8 1 10 1;
#X connect 9 0 8 0;
#X connect 11 0 13 0;
#X connect 11 1 13 1;
#X connect 12 0 11 0;
#X connect 14 0 43 0;
#X connect 15 0 44 0;
#X connect 16 0 18 0;
#X connect 16 1 18 1;
#X connect 17 0 16 0;
#X connect 19 0 21 0;
#X connect 19 1 21 1;
#X connect 20 0 19 0;
#X connect 22 0 24 0;
#X connect 22 1 24 1;
#X connect 23 0 22 0;
#X connect 25 0 27 0;
#X connect 25 1 27 1;
#X connect 26 0 25 0;
#X connect 28 0 45 0;
#X connect 29 0 46 0;
#X connect 30 0 47 0;
#X connect 31 0 48 0;
#X connect 32 0 33 0;
#X connect 32 1 34 0;
#X connect 32 2 35 0;
#X connect 32 3 36 0;
#X connect 32 4 37 0;
#X connect 32 5 38 0;
#X connect 32 6 39 0;
#X connect 32 7 40 0;
#X connect 33 0 2 0;
#X connect 33 1 1 0;
#X connect 34 0 5 0;
#X connect 34 1 7 0;
#X connect 35 0 9 0;
#X connect 35 1 14 0;
#X connect 36 0 12 0;
#X connect 36 1 15 0;
#X connect 37 0 17 0;
#X connect 37 1 28 0;
#X connect 38 0 20 0;
#X connect 38 1 29 0;
#X connect 39 0 23 0;
#X connect 39 1 30 0;
#X connect 40 0 26 0;
#X connect 40 1 31 0;
#X connect 41 0 2 1;
#X connect 42 0 5 1;
#X connect 43 0 9 1;
#X connect 44 0 12 1;
#X connect 45 0 17 1;
#X connect 46 0 20 1;
#X connect 47 0 23 1;
#X connect 48 0 26 1;
#X connect 49 0 32 0;
#X connect 50 0 41 1;
#X connect 50 0 42 1;
#X connect 50 0 43 1;
#X connect 50 0 44 1;
#X connect 50 0 45 1;
#X connect 50 0 46 1;
#X connect 50 0 47 1;
#X connect 50 0 48 1;
#X restore 135 274 pd dis;
#X obj 136 230 pack 0 0 0 0 0 0 0 0, f 15;
#X obj 247 194 dtoeb, f 15;
#N canvas 0 23 1297 452 dis 0;
#X obj 40 234 unpack 0 0;
#X msg 92 149 0;
#X obj 39 204 pack 0 0;
#X obj 40 264 tabwrite seq;
#X obj 133 234 unpack 0 0;
#X obj 132 204 pack 0 0;
#X obj 133 264 tabwrite seq;
#X msg 185 149 1;
#X obj 225 234 unpack 0 0;
#X obj 224 204 pack 0 0;
#X obj 225 264 tabwrite seq;
#X obj 318 234 unpack 0 0;
#X obj 317 204 pack 0 0;
#X obj 318 264 tabwrite seq;
#X msg 277 149 2;
#X msg 370 149 3;
#X obj 409 234 unpack 0 0;
#X obj 408 204 pack 0 0;
#X obj 409 264 tabwrite seq;
#X obj 502 234 unpack 0 0;
#X obj 501 204 pack 0 0;
#X obj 502 264 tabwrite seq;
#X obj 594 234 unpack 0 0;
#X obj 593 204 pack 0 0;
#X obj 594 264 tabwrite seq;
#X obj 687 234 unpack 0 0;
#X obj 686 204 pack 0 0;
#X obj 687 264 tabwrite seq;
#X msg 461 149 4;
#X msg 554 149 5;
#X msg 646 149 6;
#X msg 739 149 7;
#X obj 42 69 unpack 0 0 0 0 0 0 0 0;
#X obj 42 117 t f b;
#X obj 135 116 t f b;
#X obj 226 118 t f b;
#X obj 319 117 t f b;
#X obj 408 116 t f b;
#X obj 501 115 t f b;
#X obj 592 117 t f b;
#X obj 685 116 t f b;
#X obj 90 179 + \$1;
#X obj 185 177 + \$1;
#X obj 278 178 + \$1;
#X obj 373 176 + \$1;
#X obj 459 178 + \$1;
#X obj 554 176 + \$1;
#X obj 647 177 + \$1;
#X obj 742 175 + \$1;
#X obj 43 31 inlet;
#X obj 209 30 inlet;
#X connect 0 0 3 0;
#X connect 0 1 3 1;
#X connect 1 0 41 0;
#X connect 2 0 0 0;
#X connect 4 0 6 0;
#X connect 4 1 6 1;
#X connect 5 0 4 0;
#X connect 7 0 42 0;
#X connect 8 0 10 0;
#X connect 8 1 10 1;
#X connect 9 0 8 0;
#X connect 11 0 13 0;
#X connect 11 1 13 1;
#X connect 12 0 11 0;
#X connect 14 0 43 0;
#X connect 15 0 44 0;
#X connect 16 0 18 0;
#X connect 16 1 18 1;
#X connect 17 0 16 0;
#X connect 19 0 21 0;
#X connect 19 1 21 1;
#X connect 20 0 19 0;
#X connect 22 0 24 0;
#X connect 22 1 24 1;
#X connect 23 0 22 0;
#X connect 25 0 27 0;
#X connect 25 1 27 1;
#X connect 26 0 25 0;
#X connect 28 0 45 0;
#X connect 29 0 46 0;
#X connect 30 0 47 0;
#X connect 31 0 48 0;
#X connect 32 0 33 0;
#X connect 32 1 34 0;
#X connect 32 2 35 0;
#X connect 32 3 36 0;
#X connect 32 4 37 0;
#X connect 32 5 38 0;
#X connect 32 6 39 0;
#X connect 32 7 40 0;
#X connect 33 0 2 0;
#X connect 33 1 1 0;
#X connect 34 0 5 0;
#X connect 34 1 7 0;
#X connect 35 0 9 0;
#X connect 35 1 14 0;
#X connect 36 0 12 0;
#X connect 36 1 15 0;
#X connect 37 0 17 0;
#X connect 37 1 28 0;
#X connect 38 0 20 0;
#X connect 38 1 29 0;
#X connect 39 0 23 0;
#X connect 39 1 30 0;
#X connect 40 0 26 0;
#X connect 40 1 31 0;
#X connect 41 0 2 1;
#X connect 42 0 5 1;
#X connect 43 0 9 1;
#X connect 44 0 12 1;
#X connect 45 0 17 1;
#X connect 46 0 20 1;
#X connect 47 0 23 1;
#X connect 48 0 26 1;
#X connect 49 0 32 0;
#X connect 50 0 41 1;
#X connect 50 0 42 1;
#X connect 50 0 43 1;
#X connect 50 0 44 1;
#X connect 50 0 45 1;
#X connect 50 0 46 1;
#X connect 50 0 47 1;
#X connect 50 0 48 1;
#X restore 247 275 pd dis;
#X obj 248 231 pack 0 0 0 0 0 0 0 0, f 15;
#X obj 360 195 dtoeb, f 15;
#N canvas 0 23 1297 452 dis 0;
#X obj 40 234 unpack 0 0;
#X msg 92 149 0;
#X obj 39 204 pack 0 0;
#X obj 40 264 tabwrite seq;
#X obj 133 234 unpack 0 0;
#X obj 132 204 pack 0 0;
#X obj 133 264 tabwrite seq;
#X msg 185 149 1;
#X obj 225 234 unpack 0 0;
#X obj 224 204 pack 0 0;
#X obj 225 264 tabwrite seq;
#X obj 318 234 unpack 0 0;
#X obj 317 204 pack 0 0;
#X obj 318 264 tabwrite seq;
#X msg 277 149 2;
#X msg 370 149 3;
#X obj 409 234 unpack 0 0;
#X obj 408 204 pack 0 0;
#X obj 409 264 tabwrite seq;
#X obj 502 234 unpack 0 0;
#X obj 501 204 pack 0 0;
#X obj 502 264 tabwrite seq;
#X obj 594 234 unpack 0 0;
#X obj 593 204 pack 0 0;
#X obj 594 264 tabwrite seq;
#X obj 687 234 unpack 0 0;
#X obj 686 204 pack 0 0;
#X obj 687 264 tabwrite seq;
#X msg 461 149 4;
#X msg 554 149 5;
#X msg 646 149 6;
#X msg 739 149 7;
#X obj 42 69 unpack 0 0 0 0 0 0 0 0;
#X obj 42 117 t f b;
#X obj 135 116 t f b;
#X obj 226 118 t f b;
#X obj 319 117 t f b;
#X obj 408 116 t f b;
#X obj 501 115 t f b;
#X obj 592 117 t f b;
#X obj 685 116 t f b;
#X obj 90 179 + \$1;
#X obj 185 177 + \$1;
#X obj 278 178 + \$1;
#X obj 373 176 + \$1;
#X obj 459 178 + \$1;
#X obj 554 176 + \$1;
#X obj 647 177 + \$1;
#X obj 742 175 + \$1;
#X obj 43 31 inlet;
#X obj 209 30 inlet;
#X connect 0 0 3 0;
#X connect 0 1 3 1;
#X connect 1 0 41 0;
#X connect 2 0 0 0;
#X connect 4 0 6 0;
#X connect 4 1 6 1;
#X connect 5 0 4 0;
#X connect 7 0 42 0;
#X connect 8 0 10 0;
#X connect 8 1 10 1;
#X connect 9 0 8 0;
#X connect 11 0 13 0;
#X connect 11 1 13 1;
#X connect 12 0 11 0;
#X connect 14 0 43 0;
#X connect 15 0 44 0;
#X connect 16 0 18 0;
#X connect 16 1 18 1;
#X connect 17 0 16 0;
#X connect 19 0 21 0;
#X connect 19 1 21 1;
#X connect 20 0 19 0;
#X connect 22 0 24 0;
#X connect 22 1 24 1;
#X connect 23 0 22 0;
#X connect 25 0 27 0;
#X connect 25 1 27 1;
#X connect 26 0 25 0;
#X connect 28 0 45 0;
#X connect 29 0 46 0;
#X connect 30 0 47 0;
#X connect 31 0 48 0;
#X connect 32 0 33 0;
#X connect 32 1 34 0;
#X connect 32 2 35 0;
#X connect 32 3 36 0;
#X connect 32 4 37 0;
#X connect 32 5 38 0;
#X connect 32 6 39 0;
#X connect 32 7 40 0;
#X connect 33 0 2 0;
#X connect 33 1 1 0;
#X connect 34 0 5 0;
#X connect 34 1 7 0;
#X connect 35 0 9 0;
#X connect 35 1 14 0;
#X connect 36 0 12 0;
#X connect 36 1 15 0;
#X connect 37 0 17 0;
#X connect 37 1 28 0;
#X connect 38 0 20 0;
#X connect 38 1 29 0;
#X connect 39 0 23 0;
#X connect 39 1 30 0;
#X connect 40 0 26 0;
#X connect 40 1 31 0;
#X connect 41 0 2 1;
#X connect 42 0 5 1;
#X connect 43 0 9 1;
#X connect 44 0 12 1;
#X connect 45 0 17 1;
#X connect 46 0 20 1;
#X connect 47 0 23 1;
#X connect 48 0 26 1;
#X connect 49 0 32 0;
#X connect 50 0 41 1;
#X connect 50 0 42 1;
#X connect 50 0 43 1;
#X connect 50 0 44 1;
#X connect 50 0 45 1;
#X connect 50 0 46 1;
#X connect 50 0 47 1;
#X connect 50 0 48 1;
#X restore 360 276 pd dis;
#X obj 361 232 pack 0 0 0 0 0 0 0 0, f 15;
#X obj 472 194 dtoeb, f 15;
#N canvas 0 23 1297 452 dis 0;
#X obj 40 234 unpack 0 0;
#X msg 92 149 0;
#X obj 39 204 pack 0 0;
#X obj 40 264 tabwrite seq;
#X obj 133 234 unpack 0 0;
#X obj 132 204 pack 0 0;
#X obj 133 264 tabwrite seq;
#X msg 185 149 1;
#X obj 225 234 unpack 0 0;
#X obj 224 204 pack 0 0;
#X obj 225 264 tabwrite seq;
#X obj 318 234 unpack 0 0;
#X obj 317 204 pack 0 0;
#X obj 318 264 tabwrite seq;
#X msg 277 149 2;
#X msg 370 149 3;
#X obj 409 234 unpack 0 0;
#X obj 408 204 pack 0 0;
#X obj 409 264 tabwrite seq;
#X obj 502 234 unpack 0 0;
#X obj 501 204 pack 0 0;
#X obj 502 264 tabwrite seq;
#X obj 594 234 unpack 0 0;
#X obj 593 204 pack 0 0;
#X obj 594 264 tabwrite seq;
#X obj 687 234 unpack 0 0;
#X obj 686 204 pack 0 0;
#X obj 687 264 tabwrite seq;
#X msg 461 149 4;
#X msg 554 149 5;
#X msg 646 149 6;
#X msg 739 149 7;
#X obj 42 69 unpack 0 0 0 0 0 0 0 0;
#X obj 42 117 t f b;
#X obj 135 116 t f b;
#X obj 226 118 t f b;
#X obj 319 117 t f b;
#X obj 408 116 t f b;
#X obj 501 115 t f b;
#X obj 592 117 t f b;
#X obj 685 116 t f b;
#X obj 90 179 + \$1;
#X obj 185 177 + \$1;
#X obj 278 178 + \$1;
#X obj 373 176 + \$1;
#X obj 459 178 + \$1;
#X obj 554 176 + \$1;
#X obj 647 177 + \$1;
#X obj 742 175 + \$1;
#X obj 43 31 inlet;
#X obj 209 30 inlet;
#X connect 0 0 3 0;
#X connect 0 1 3 1;
#X connect 1 0 41 0;
#X connect 2 0 0 0;
#X connect 4 0 6 0;
#X connect 4 1 6 1;
#X connect 5 0 4 0;
#X connect 7 0 42 0;
#X connect 8 0 10 0;
#X connect 8 1 10 1;
#X connect 9 0 8 0;
#X connect 11 0 13 0;
#X connect 11 1 13 1;
#X connect 12 0 11 0;
#X connect 14 0 43 0;
#X connect 15 0 44 0;
#X connect 16 0 18 0;
#X connect 16 1 18 1;
#X connect 17 0 16 0;
#X connect 19 0 21 0;
#X connect 19 1 21 1;
#X connect 20 0 19 0;
#X connect 22 0 24 0;
#X connect 22 1 24 1;
#X connect 23 0 22 0;
#X connect 25 0 27 0;
#X connect 25 1 27 1;
#X connect 26 0 25 0;
#X connect 28 0 45 0;
#X connect 29 0 46 0;
#X connect 30 0 47 0;
#X connect 31 0 48 0;
#X connect 32 0 33 0;
#X connect 32 1 34 0;
#X connect 32 2 35 0;
#X connect 32 3 36 0;
#X connect 32 4 37 0;
#X connect 32 5 38 0;
#X connect 32 6 39 0;
#X connect 32 7 40 0;
#X connect 33 0 2 0;
#X connect 33 1 1 0;
#X connect 34 0 5 0;
#X connect 34 1 7 0;
#X connect 35 0 9 0;
#X connect 35 1 14 0;
#X connect 36 0 12 0;
#X connect 36 1 15 0;
#X connect 37 0 17 0;
#X connect 37 1 28 0;
#X connect 38 0 20 0;
#X connect 38 1 29 0;
#X connect 39 0 23 0;
#X connect 39 1 30 0;
#X connect 40 0 26 0;
#X connect 40 1 31 0;
#X connect 41 0 2 1;
#X connect 42 0 5 1;
#X connect 43 0 9 1;
#X connect 44 0 12 1;
#X connect 45 0 17 1;
#X connect 46 0 20 1;
#X connect 47 0 23 1;
#X connect 48 0 26 1;
#X connect 49 0 32 0;
#X connect 50 0 41 1;
#X connect 50 0 42 1;
#X connect 50 0 43 1;
#X connect 50 0 44 1;
#X connect 50 0 45 1;
#X connect 50 0 46 1;
#X connect 50 0 47 1;
#X connect 50 0 48 1;
#X restore 472 275 pd dis;
#X obj 473 231 pack 0 0 0 0 0 0 0 0, f 15;
#X obj 585 195 dtoeb, f 15;
#N canvas 0 23 1297 452 dis 0;
#X obj 40 234 unpack 0 0;
#X msg 92 149 0;
#X obj 39 204 pack 0 0;
#X obj 40 264 tabwrite seq;
#X obj 133 234 unpack 0 0;
#X obj 132 204 pack 0 0;
#X obj 133 264 tabwrite seq;
#X msg 185 149 1;
#X obj 225 234 unpack 0 0;
#X obj 224 204 pack 0 0;
#X obj 225 264 tabwrite seq;
#X obj 318 234 unpack 0 0;
#X obj 317 204 pack 0 0;
#X obj 318 264 tabwrite seq;
#X msg 277 149 2;
#X msg 370 149 3;
#X obj 409 234 unpack 0 0;
#X obj 408 204 pack 0 0;
#X obj 409 264 tabwrite seq;
#X obj 502 234 unpack 0 0;
#X obj 501 204 pack 0 0;
#X obj 502 264 tabwrite seq;
#X obj 594 234 unpack 0 0;
#X obj 593 204 pack 0 0;
#X obj 594 264 tabwrite seq;
#X obj 687 234 unpack 0 0;
#X obj 686 204 pack 0 0;
#X obj 687 264 tabwrite seq;
#X msg 461 149 4;
#X msg 554 149 5;
#X msg 646 149 6;
#X msg 739 149 7;
#X obj 42 69 unpack 0 0 0 0 0 0 0 0;
#X obj 42 117 t f b;
#X obj 135 116 t f b;
#X obj 226 118 t f b;
#X obj 319 117 t f b;
#X obj 408 116 t f b;
#X obj 501 115 t f b;
#X obj 592 117 t f b;
#X obj 685 116 t f b;
#X obj 90 179 + \$1;
#X obj 185 177 + \$1;
#X obj 278 178 + \$1;
#X obj 373 176 + \$1;
#X obj 459 178 + \$1;
#X obj 554 176 + \$1;
#X obj 647 177 + \$1;
#X obj 742 175 + \$1;
#X obj 43 31 inlet;
#X obj 209 30 inlet;
#X connect 0 0 3 0;
#X connect 0 1 3 1;
#X connect 1 0 41 0;
#X connect 2 0 0 0;
#X connect 4 0 6 0;
#X connect 4 1 6 1;
#X connect 5 0 4 0;
#X connect 7 0 42 0;
#X connect 8 0 10 0;
#X connect 8 1 10 1;
#X connect 9 0 8 0;
#X connect 11 0 13 0;
#X connect 11 1 13 1;
#X connect 12 0 11 0;
#X connect 14 0 43 0;
#X connect 15 0 44 0;
#X connect 16 0 18 0;
#X connect 16 1 18 1;
#X connect 17 0 16 0;
#X connect 19 0 21 0;
#X connect 19 1 21 1;
#X connect 20 0 19 0;
#X connect 22 0 24 0;
#X connect 22 1 24 1;
#X connect 23 0 22 0;
#X connect 25 0 27 0;
#X connect 25 1 27 1;
#X connect 26 0 25 0;
#X connect 28 0 45 0;
#X connect 29 0 46 0;
#X connect 30 0 47 0;
#X connect 31 0 48 0;
#X connect 32 0 33 0;
#X connect 32 1 34 0;
#X connect 32 2 35 0;
#X connect 32 3 36 0;
#X connect 32 4 37 0;
#X connect 32 5 38 0;
#X connect 32 6 39 0;
#X connect 32 7 40 0;
#X connect 33 0 2 0;
#X connect 33 1 1 0;
#X connect 34 0 5 0;
#X connect 34 1 7 0;
#X connect 35 0 9 0;
#X connect 35 1 14 0;
#X connect 36 0 12 0;
#X connect 36 1 15 0;
#X connect 37 0 17 0;
#X connect 37 1 28 0;
#X connect 38 0 20 0;
#X connect 38 1 29 0;
#X connect 39 0 23 0;
#X connect 39 1 30 0;
#X connect 40 0 26 0;
#X connect 40 1 31 0;
#X connect 41 0 2 1;
#X connect 42 0 5 1;
#X connect 43 0 9 1;
#X connect 44 0 12 1;
#X connect 45 0 17 1;
#X connect 46 0 20 1;
#X connect 47 0 23 1;
#X connect 48 0 26 1;
#X connect 49 0 32 0;
#X connect 50 0 41 1;
#X connect 50 0 42 1;
#X connect 50 0 43 1;
#X connect 50 0 44 1;
#X connect 50 0 45 1;
#X connect 50 0 46 1;
#X connect 50 0 47 1;
#X connect 50 0 48 1;
#X restore 585 276 pd dis;
#X obj 586 232 pack 0 0 0 0 0 0 0 0, f 15;
#X obj 697 196 dtoeb, f 15;
#N canvas 0 23 1297 452 dis 0;
#X obj 40 234 unpack 0 0;
#X msg 92 149 0;
#X obj 39 204 pack 0 0;
#X obj 40 264 tabwrite seq;
#X obj 133 234 unpack 0 0;
#X obj 132 204 pack 0 0;
#X obj 133 264 tabwrite seq;
#X msg 185 149 1;
#X obj 225 234 unpack 0 0;
#X obj 224 204 pack 0 0;
#X obj 225 264 tabwrite seq;
#X obj 318 234 unpack 0 0;
#X obj 317 204 pack 0 0;
#X obj 318 264 tabwrite seq;
#X msg 277 149 2;
#X msg 370 149 3;
#X obj 409 234 unpack 0 0;
#X obj 408 204 pack 0 0;
#X obj 409 264 tabwrite seq;
#X obj 502 234 unpack 0 0;
#X obj 501 204 pack 0 0;
#X obj 502 264 tabwrite seq;
#X obj 594 234 unpack 0 0;
#X obj 593 204 pack 0 0;
#X obj 594 264 tabwrite seq;
#X obj 687 234 unpack 0 0;
#X obj 686 204 pack 0 0;
#X obj 687 264 tabwrite seq;
#X msg 461 149 4;
#X msg 554 149 5;
#X msg 646 149 6;
#X msg 739 149 7;
#X obj 42 69 unpack 0 0 0 0 0 0 0 0;
#X obj 42 117 t f b;
#X obj 135 116 t f b;
#X obj 226 118 t f b;
#X obj 319 117 t f b;
#X obj 408 116 t f b;
#X obj 501 115 t f b;
#X obj 592 117 t f b;
#X obj 685 116 t f b;
#X obj 90 179 + \$1;
#X obj 185 177 + \$1;
#X obj 278 178 + \$1;
#X obj 373 176 + \$1;
#X obj 459 178 + \$1;
#X obj 554 176 + \$1;
#X obj 647 177 + \$1;
#X obj 742 175 + \$1;
#X obj 43 31 inlet;
#X obj 209 30 inlet;
#X connect 0 0 3 0;
#X connect 0 1 3 1;
#X connect 1 0 41 0;
#X connect 2 0 0 0;
#X connect 4 0 6 0;
#X connect 4 1 6 1;
#X connect 5 0 4 0;
#X connect 7 0 42 0;
#X connect 8 0 10 0;
#X connect 8 1 10 1;
#X connect 9 0 8 0;
#X connect 11 0 13 0;
#X connect 11 1 13 1;
#X connect 12 0 11 0;
#X connect 14 0 43 0;
#X connect 15 0 44 0;
#X connect 16 0 18 0;
#X connect 16 1 18 1;
#X connect 17 0 16 0;
#X connect 19 0 21 0;
#X connect 19 1 21 1;
#X connect 20 0 19 0;
#X connect 22 0 24 0;
#X connect 22 1 24 1;
#X connect 23 0 22 0;
#X connect 25 0 27 0;
#X connect 25 1 27 1;
#X connect 26 0 25 0;
#X connect 28 0 45 0;
#X connect 29 0 46 0;
#X connect 30 0 47 0;
#X connect 31 0 48 0;
#X connect 32 0 33 0;
#X connect 32 1 34 0;
#X connect 32 2 35 0;
#X connect 32 3 36 0;
#X connect 32 4 37 0;
#X connect 32 5 38 0;
#X connect 32 6 39 0;
#X connect 32 7 40 0;
#X connect 33 0 2 0;
#X connect 33 1 1 0;
#X connect 34 0 5 0;
#X connect 34 1 7 0;
#X connect 35 0 9 0;
#X connect 35 1 14 0;
#X connect 36 0 12 0;
#X connect 36 1 15 0;
#X connect 37 0 17 0;
#X connect 37 1 28 0;
#X connect 38 0 20 0;
#X connect 38 1 29 0;
#X connect 39 0 23 0;
#X connect 39 1 30 0;
#X connect 40 0 26 0;
#X connect 40 1 31 0;
#X connect 41 0 2 1;
#X connect 42 0 5 1;
#X connect 43 0 9 1;
#X connect 44 0 12 1;
#X connect 45 0 17 1;
#X connect 46 0 20 1;
#X connect 47 0 23 1;
#X connect 48 0 26 1;
#X connect 49 0 32 0;
#X connect 50 0 41 1;
#X connect 50 0 42 1;
#X connect 50 0 43 1;
#X connect 50 0 44 1;
#X connect 50 0 45 1;
#X connect 50 0 46 1;
#X connect 50 0 47 1;
#X connect 50 0 48 1;
#X restore 697 277 pd dis;
#X obj 698 233 pack 0 0 0 0 0 0 0 0, f 15;
#X obj 810 197 dtoeb, f 15;
#N canvas 0 23 1297 452 dis 0;
#X obj 40 234 unpack 0 0;
#X msg 92 149 0;
#X obj 39 204 pack 0 0;
#X obj 40 264 tabwrite seq;
#X obj 133 234 unpack 0 0;
#X obj 132 204 pack 0 0;
#X obj 133 264 tabwrite seq;
#X msg 185 149 1;
#X obj 225 234 unpack 0 0;
#X obj 224 204 pack 0 0;
#X obj 225 264 tabwrite seq;
#X obj 318 234 unpack 0 0;
#X obj 317 204 pack 0 0;
#X obj 318 264 tabwrite seq;
#X msg 277 149 2;
#X msg 370 149 3;
#X obj 409 234 unpack 0 0;
#X obj 408 204 pack 0 0;
#X obj 409 264 tabwrite seq;
#X obj 502 234 unpack 0 0;
#X obj 501 204 pack 0 0;
#X obj 502 264 tabwrite seq;
#X obj 594 234 unpack 0 0;
#X obj 593 204 pack 0 0;
#X obj 594 264 tabwrite seq;
#X obj 687 234 unpack 0 0;
#X obj 686 204 pack 0 0;
#X obj 687 264 tabwrite seq;
#X msg 461 149 4;
#X msg 554 149 5;
#X msg 646 149 6;
#X msg 739 149 7;
#X obj 42 69 unpack 0 0 0 0 0 0 0 0;
#X obj 42 117 t f b;
#X obj 135 116 t f b;
#X obj 226 118 t f b;
#X obj 319 117 t f b;
#X obj 408 116 t f b;
#X obj 501 115 t f b;
#X obj 592 117 t f b;
#X obj 685 116 t f b;
#X obj 90 179 + \$1;
#X obj 185 177 + \$1;
#X obj 278 178 + \$1;
#X obj 373 176 + \$1;
#X obj 459 178 + \$1;
#X obj 554 176 + \$1;
#X obj 647 177 + \$1;
#X obj 742 175 + \$1;
#X obj 43 31 inlet;
#X obj 209 30 inlet;
#X connect 0 0 3 0;
#X connect 0 1 3 1;
#X connect 1 0 41 0;
#X connect 2 0 0 0;
#X connect 4 0 6 0;
#X connect 4 1 6 1;
#X connect 5 0 4 0;
#X connect 7 0 42 0;
#X connect 8 0 10 0;
#X connect 8 1 10 1;
#X connect 9 0 8 0;
#X connect 11 0 13 0;
#X connect 11 1 13 1;
#X connect 12 0 11 0;
#X connect 14 0 43 0;
#X connect 15 0 44 0;
#X connect 16 0 18 0;
#X connect 16 1 18 1;
#X connect 17 0 16 0;
#X connect 19 0 21 0;
#X connect 19 1 21 1;
#X connect 20 0 19 0;
#X connect 22 0 24 0;
#X connect 22 1 24 1;
#X connect 23 0 22 0;
#X connect 25 0 27 0;
#X connect 25 1 27 1;
#X connect 26 0 25 0;
#X connect 28 0 45 0;
#X connect 29 0 46 0;
#X connect 30 0 47 0;
#X connect 31 0 48 0;
#X connect 32 0 33 0;
#X connect 32 1 34 0;
#X connect 32 2 35 0;
#X connect 32 3 36 0;
#X connect 32 4 37 0;
#X connect 32 5 38 0;
#X connect 32 6 39 0;
#X connect 32 7 40 0;
#X connect 33 0 2 0;
#X connect 33 1 1 0;
#X connect 34 0 5 0;
#X connect 34 1 7 0;
#X connect 35 0 9 0;
#X connect 35 1 14 0;
#X connect 36 0 12 0;
#X connect 36 1 15 0;
#X connect 37 0 17 0;
#X connect 37 1 28 0;
#X connect 38 0 20 0;
#X connect 38 1 29 0;
#X connect 39 0 23 0;
#X connect 39 1 30 0;
#X connect 40 0 26 0;
#X connect 40 1 31 0;
#X connect 41 0 2 1;
#X connect 42 0 5 1;
#X connect 43 0 9 1;
#X connect 44 0 12 1;
#X connect 45 0 17 1;
#X connect 46 0 20 1;
#X connect 47 0 23 1;
#X connect 48 0 26 1;
#X connect 49 0 32 0;
#X connect 50 0 41 1;
#X connect 50 0 42 1;
#X connect 50 0 43 1;
#X connect 50 0 44 1;
#X connect 50 0 45 1;
#X connect 50 0 46 1;
#X connect 50 0 47 1;
#X connect 50 0 48 1;
#X restore 810 278 pd dis;
#X obj 811 234 pack 0 0 0 0 0 0 0 0, f 15;
#X msg 79 273 0;
#X msg 186 274 8;
#X msg 304 276 16;
#X msg 411 277 24;
#X msg 530 275 32;
#X msg 637 276 40;
#X msg 755 278 48;
#X msg 862 279 56;
#X obj 185 2 pack 0 0 0 0 0 0 0 0;
#X obj 243 -41 int;
#X obj 432 47 tabread seq;
#X obj 339 -80 clock;
#X obj 432 70 sel 1;
#X obj 432 92 bng 15 250 50 0 empty empty empty 17 7 0 10 -262144 -1
-1;
#X msg 22 -1 ¥˙˚˜;
#N canvas 0 22 450 278 (subpatch) 0;
#X array seq 64 float 1;
#A 0 1 0 0 1 0 0 1 0 0 1 0 0 1 0 1 0 0 1 0 0 1 0 1 1 1 1 0 0 1 0 0
0 1 0 0 1 0 0 1 0 0 0 0 0 1 0 1 0 1 0 0 1 0 0 1 0 0 0 0 0 1 0 1 0;
#X coords 0 1 63 0 500 20 1 0 0;
#X restore 20 317 graph;
#X obj 253 -67 del 10;
#X obj 1612 195 channelst;
#X obj 1055 507 +;
#X obj 1080 532 +;
#X obj 1108 554 +;
#X obj 1133 579 +;
#X obj 973 430 +;
#X obj 1001 452 +;
#X obj 1026 477 +;
#X obj 986 363 unpack 0 0 0 0 0 0 0 0;
#X obj 1227 400 * 1;
#X obj 1193 399 * 2;
#X obj 1155 400 * 4;
#X obj 1120 400 * 8;
#X obj 1080 399 * 16;
#X obj 1042 400 * 32;
#X obj 1003 400 * 64;
#X obj 957 400 * 128;
#X floatatom 1133 609 5 0 0 0 - - -;
#X obj 992 195 samppad;
#X obj 1179 572 +;
#X obj 1204 597 +;
#X obj 1232 619 +;
#X obj 1257 644 +;
#X obj 1097 495 +;
#X obj 1125 517 +;
#X obj 1150 542 +;
#X obj 1110 428 unpack 0 0 0 0 0 0 0 0;
#X obj 1347 464 * 1;
#X obj 1317 464 * 2;
#X obj 1279 465 * 4;
#X obj 1244 465 * 8;
#X obj 1204 464 * 16;
#X obj 1166 465 * 32;
#X obj 1127 465 * 64;
#X obj 1081 465 * 128;
#X floatatom 1257 674 5 0 0 0 - - -;
#X msg 988 327 1 0 0 1 0 0 1 0;
#X obj 858 165 loadbang;
#X obj 1770 197 channelst;
#X obj 1787 93 *~;
#X obj 1823 -97 vsl 15 128 1 50 0 0 empty empty empty 0 -9 0 10 -262144
-1 -1 11500 1;
#X obj 1825 94 *~;
#X obj 1866 148 clip~ -1 1;
#X obj 1787 148 clip~ -1 1;
#X floatatom 1876 96 5 0 0 0 - - -;
#X obj 1073 -33 drumtrig;
#X obj 1691 197 channelst;
#X msg 242 -93 136;
#X msg 1107 327 0 0 0 0 1 0 1 0;
#X obj 432 24 % 64;
#X msg 186 33 146 74 75 200 146 10 146 10;
#X connect 0 0 1 0;
#X connect 1 0 2 0;
#X connect 1 1 5 0;
#X connect 1 2 6 0;
#X connect 1 3 7 0;
#X connect 1 4 8 0;
#X connect 1 5 9 0;
#X connect 1 6 10 0;
#X connect 1 7 11 0;
#X connect 2 0 4 0;
#X connect 3 0 0 0;
#X connect 4 0 16 0;
#X connect 4 1 16 1;
#X connect 4 2 16 2;
#X connect 4 3 16 3;
#X connect 4 4 16 4;
#X connect 4 5 16 5;
#X connect 4 6 16 6;
#X connect 4 7 16 7;
#X connect 5 0 17 0;
#X connect 6 0 20 0;
#X connect 7 0 23 0;
#X connect 8 0 26 0;
#X connect 9 0 29 0;
#X connect 10 0 32 0;
#X connect 11 0 35 0;
#X connect 12 0 13 0;
#X connect 13 0 0 0;
#X connect 14 0 1 0;
#X connect 16 0 15 0;
#X connect 17 0 19 0;
#X connect 17 1 19 1;
#X connect 17 2 19 2;
#X connect 17 3 19 3;
#X connect 17 4 19 4;
#X connect 17 5 19 5;
#X connect 17 6 19 6;
#X connect 17 7 19 7;
#X connect 19 0 18 0;
#X connect 20 0 22 0;
#X connect 20 1 22 1;
#X connect 20 2 22 2;
#X connect 20 3 22 3;
#X connect 20 4 22 4;
#X connect 20 5 22 5;
#X connect 20 6 22 6;
#X connect 20 7 22 7;
#X connect 22 0 21 0;
#X connect 23 0 25 0;
#X connect 23 1 25 1;
#X connect 23 2 25 2;
#X connect 23 3 25 3;
#X connect 23 4 25 4;
#X connect 23 5 25 5;
#X connect 23 6 25 6;
#X connect 23 7 25 7;
#X connect 25 0 24 0;
#X connect 26 0 28 0;
#X connect 26 1 28 1;
#X connect 26 2 28 2;
#X connect 26 3 28 3;
#X connect 26 4 28 4;
#X connect 26 5 28 5;
#X connect 26 6 28 6;
#X connect 26 7 28 7;
#X connect 28 0 27 0;
#X connect 29 0 31 0;
#X connect 29 1 31 1;
#X connect 29 2 31 2;
#X connect 29 3 31 3;
#X connect 29 4 31 4;
#X connect 29 5 31 5;
#X connect 29 6 31 6;
#X connect 29 7 31 7;
#X connect 31 0 30 0;
#X connect 32 0 34 0;
#X connect 32 1 34 1;
#X connect 32 2 34 2;
#X connect 32 3 34 3;
#X connect 32 4 34 4;
#X connect 32 5 34 5;
#X connect 32 6 34 6;
#X connect 32 7 34 7;
#X connect 34 0 33 0;
#X connect 35 0 37 0;
#X connect 35 1 37 1;
#X connect 35 2 37 2;
#X connect 35 3 37 3;
#X connect 35 4 37 4;
#X connect 35 5 37 5;
#X connect 35 6 37 6;
#X connect 35 7 37 7;
#X connect 37 0 36 0;
#X connect 38 0 15 1;
#X connect 39 0 18 1;
#X connect 40 0 21 1;
#X connect 41 0 24 1;
#X connect 42 0 27 1;
#X connect 43 0 30 1;
#X connect 44 0 33 1;
#X connect 45 0 36 1;
#X connect 46 0 1 0;
#X connect 47 0 46 0;
#X connect 47 0 46 1;
#X connect 47 0 46 2;
#X connect 47 0 46 3;
#X connect 47 0 46 4;
#X connect 47 0 46 5;
#X connect 47 0 46 6;
#X connect 47 0 46 7;
#X connect 48 0 50 0;
#X connect 49 4 104 0;
#X connect 50 0 51 0;
#X connect 51 0 73 0;
#X connect 52 0 3 0;
#X connect 54 0 47 0;
#X connect 55 0 94 0;
#X connect 55 1 96 0;
#X connect 56 0 57 0;
#X connect 57 0 58 0;
#X connect 58 0 59 0;
#X connect 59 0 72 0;
#X connect 60 0 61 0;
#X connect 61 0 62 0;
#X connect 62 0 56 0;
#X connect 63 0 71 0;
#X connect 63 1 70 0;
#X connect 63 2 69 0;
#X connect 63 3 68 0;
#X connect 63 4 67 0;
#X connect 63 5 66 0;
#X connect 63 6 65 0;
#X connect 63 7 64 0;
#X connect 64 0 59 1;
#X connect 65 0 58 1;
#X connect 66 0 57 1;
#X connect 67 0 56 1;
#X connect 68 0 62 1;
#X connect 69 0 61 1;
#X connect 70 0 60 1;
#X connect 71 0 60 0;
#X connect 73 0 55 4;
#X connect 73 2 101 4;
#X connect 73 3 101 5;
#X connect 74 0 75 0;
#X connect 75 0 76 0;
#X connect 76 0 77 0;
#X connect 77 0 90 0;
#X connect 78 0 79 0;
#X connect 79 0 80 0;
#X connect 80 0 74 0;
#X connect 81 0 89 0;
#X connect 81 1 88 0;
#X connect 81 2 87 0;
#X connect 81 3 86 0;
#X connect 81 4 85 0;
#X connect 81 5 84 0;
#X connect 81 6 83 0;
#X connect 81 7 82 0;
#X connect 82 0 77 1;
#X connect 83 0 76 1;
#X connect 84 0 75 1;
#X connect 85 0 74 1;
#X connect 86 0 80 1;
#X connect 87 0 79 1;
#X connect 88 0 78 1;
#X connect 89 0 78 0;
#X connect 91 0 63 0;
#X connect 92 0 45 0;
#X connect 92 0 44 0;
#X connect 92 0 43 0;
#X connect 92 0 42 0;
#X connect 92 0 41 0;
#X connect 92 0 40 0;
#X connect 92 0 39 0;
#X connect 92 0 38 0;
#X connect 94 0 98 0;
#X connect 95 0 94 1;
#X connect 95 0 96 1;
#X connect 95 0 99 0;
#X connect 96 0 97 0;
#X connect 97 0 93 5;
#X connect 98 0 93 4;
#X connect 100 0 73 2;
#X connect 102 0 47 0;
#X connect 102 0 54 0;
#X connect 103 0 81 0;
#X connect 104 0 48 0;
#X connect 105 0 1 0;
