#N canvas 587 23 450 723 12;
#X obj 254 164 metro;
#X floatatom 286 138 5 0 0 0 - - -;
#X obj 286 111 expr ( 60000 / $f1 ) \;;
#X obj 53 77 tgl 15 0 empty empty empty 17 7 0 10 -262144 -1 -1 1 1
;
#X obj 254 227 +;
#X msg 254 191 1;
#X floatatom 254 251 5 0 0 0 - - -;
#X obj 207 164 sel 0;
#X obj 254 302 sel 0;
#X obj 254 328 bng 15 250 50 0 empty empty empty 17 7 0 10 -262144
-1 -1;
#X obj 254 276 % 250;
#X obj 254 382 +;
#X floatatom 254 406 5 0 0 0 - - -;
#X msg 254 352 1;
#X obj 254 433 % 4;
#X obj 54 98 hradio 17 1 0 4 empty empty empty 0 -8 0 10 -262144 -1
-1 3;
#X msg 207 191 -1;
#X obj 72 77 tgl 15 0 empty empty empty 17 7 0 10 -262144 -1 -1 1 1
;
#X obj 286 54 * 1000;
#X obj 127 55 vsl 20 140 0 300 0 0 empty empty empty 0 -9 0 10 -262144
-1 -1 5560 1;
#X floatatom 93 77 4 0 0 0 - - -;
#X floatatom 345 179 5 0 0 0 - - -;
#X msg 286 81 \$1;
#X obj 295 20 int;
#X floatatom 93 54 4 0 0 0 - - -;
#X obj 254 498 + 1;
#X floatatom 254 528 5 0 0 0 - - -;
#X obj 307 434 outlet;
#X obj 307 460 s clo;
#X obj 216 433 % 16;
#X obj 193 476 bng 15 250 50 0 empty empty empty 17 7 0 10 -262144
-1 -1;
#X obj 193 530 +;
#X floatatom 193 554 5 0 0 0 - - -;
#X msg 193 500 1;
#X obj 162 450 sel 0;
#X obj 192 583 % 4;
#X obj 193 617 + 1;
#X floatatom 54 119 5 0 0 0 - - -;
#X floatatom 54 144 5 0 0 0 - - -;
#X obj 24 359 outlet;
#X obj 142 22 inlet;
#X obj 7 22 inlet;
#X obj 99 22 inlet;
#X obj 52 22 inlet;
#X obj 201 29 loadbang;
#X msg 201 60 120;
#X msg 201 96 4;
#X obj 97 533 + 1;
#X msg 241 107 1;
#X connect 0 0 5 0;
#X connect 1 0 0 1;
#X connect 2 0 1 0;
#X connect 3 0 0 0;
#X connect 3 0 7 0;
#X connect 4 0 6 0;
#X connect 5 0 4 0;
#X connect 6 0 4 1;
#X connect 6 0 10 0;
#X connect 7 0 16 0;
#X connect 8 0 9 0;
#X connect 9 0 13 0;
#X connect 10 0 8 0;
#X connect 11 0 12 0;
#X connect 12 0 11 1;
#X connect 12 0 14 0;
#X connect 12 0 27 0;
#X connect 12 0 28 0;
#X connect 12 0 29 0;
#X connect 13 0 11 0;
#X connect 14 0 15 0;
#X connect 14 0 25 0;
#X connect 15 0 39 0;
#X connect 16 0 6 0;
#X connect 16 0 12 0;
#X connect 16 0 32 0;
#X connect 17 0 0 0;
#X connect 18 0 22 0;
#X connect 19 0 23 0;
#X connect 22 0 2 0;
#X connect 22 0 21 0;
#X connect 23 0 18 0;
#X connect 23 0 20 0;
#X connect 24 0 14 1;
#X connect 25 0 26 0;
#X connect 29 0 34 0;
#X connect 30 0 33 0;
#X connect 31 0 32 0;
#X connect 32 0 31 1;
#X connect 32 0 35 0;
#X connect 32 0 47 0;
#X connect 33 0 31 0;
#X connect 34 0 30 0;
#X connect 35 0 36 0;
#X connect 36 0 37 0;
#X connect 40 0 19 0;
#X connect 41 0 3 0;
#X connect 42 0 24 0;
#X connect 43 0 17 0;
#X connect 44 0 45 0;
#X connect 44 0 46 0;
#X connect 44 0 48 0;
#X connect 45 0 19 0;
#X connect 46 0 24 0;
#X connect 47 0 38 0;
#X connect 48 0 17 0;
#X coords 0 -1 1 1 100 150 1 50 50;
