#N canvas 0 23 1366 723 12;
#X declare -lib Gem;
#X obj 85 376 gemhead;
#X obj 85 432 color;
#X obj 85 485 square;
#X msg 242 461 draw line;
#X msg 172 460 width 10;
#X obj 20 59 cnv 15 220 70 empty empty empty 20 12 0 14 -195568 -66577
0;
#N canvas 0 22 454 304 gemwin 0;
#X obj 132 136 gemwin;
#X obj 67 89 outlet;
#X obj 67 10 inlet;
#X obj 67 41 route create;
#X msg 67 70 set destroy;
#X msg 182 68 set create;
#X msg 132 112 create \, 1;
#X msg 238 112 destroy;
#N canvas 87 154 247 179 Gem.init 0;
#X obj 59 46 loadbang;
#X msg 118 81 reset;
#X obj 118 113 outlet;
#X obj 59 65 t b b;
#X connect 0 0 3 0;
#X connect 1 0 2 0;
#X connect 3 1 1 0;
#X restore 289 80 pd Gem.init;
#X connect 2 0 3 0;
#X connect 3 0 4 0;
#X connect 3 0 6 0;
#X connect 3 1 5 0;
#X connect 3 1 7 0;
#X connect 4 0 1 0;
#X connect 5 0 1 0;
#X connect 6 0 0 0;
#X connect 7 0 0 0;
#X connect 8 0 0 0;
#X restore 25 103 pd gemwin;
#X msg 25 79 destroy;
#X text 21 59 Create window and render;
#X obj 21 29 declare -lib Gem;
#X obj 85 459 accumrotate;
#X obj 9 365 ortho;
#X obj 85 353 tgl 15 0 empty empty empty 17 7 0 10 -262144 -1 -1 0
1;
#X msg 317 461 0 1 0;
#X obj 240 116 drumtrig;
#X msg 237 375 0;
#X msg 277 376 1;
#X obj 70 168 clock;
#X msg 194 425 20;
#X obj 178 372 del 50;
#X obj 751 420 channelst;
#X obj 718 13 kik;
#X obj 631 474 shape;
#X floatatom 113 296 5 0 0 0 - - -;
#X obj 113 319 % 32;
#X floatatom 136 345 5 0 0 0 - - -;
#X obj 346 28 sel 0;
#X obj 359 82 tgl 15 0 empty empty empty 17 7 0 10 -262144 -1 -1 1
1;
#X obj 406 93 sel 0 1;
#X obj 10 395 spigot;
#X obj 542 257 kik;
#X obj 384 413 drumtrig;
#X obj 606 378 /~ 5;
#X msg 889 60 16;
#X floatatom 593 127 5 0 0 0 - - -;
#X obj 812 212 gemhead;
#X obj 812 268 color;
#X obj 812 321 square;
#X msg 969 297 draw line;
#X msg 899 296 width 10;
#X obj 812 295 accumrotate;
#X obj 812 189 tgl 15 0 empty empty empty 17 7 0 10 -262144 -1 -1 0
1;
#X msg 964 211 0;
#X msg 1004 212 1;
#X obj 905 208 del 50;
#X msg 1044 297 1 0 0;
#X msg 899 425 -20;
#X msg 566 56 4;
#X msg 505 49 0.8;
#X obj 919 569 freeverb~;
#X obj 1020 394 channelst;
#X connect 0 0 11 0;
#X connect 0 0 1 0;
#X connect 1 0 10 0;
#X connect 3 0 2 0;
#X connect 4 0 2 0;
#X connect 6 0 7 0;
#X connect 7 0 6 0;
#X connect 10 0 2 0;
#X connect 11 0 29 0;
#X connect 12 0 0 0;
#X connect 13 0 1 1;
#X connect 14 0 16 0;
#X connect 14 0 18 0;
#X connect 14 0 19 0;
#X connect 14 0 21 0;
#X connect 14 0 34 0;
#X connect 15 0 12 0;
#X connect 16 0 12 0;
#X connect 17 4 23 0;
#X connect 18 0 10 2;
#X connect 19 0 15 0;
#X connect 21 0 22 0;
#X connect 22 0 20 4;
#X connect 23 0 24 0;
#X connect 24 0 25 0;
#X connect 25 0 26 0;
#X connect 26 0 27 0;
#X connect 27 0 28 0;
#X connect 27 0 29 1;
#X connect 28 0 48 0;
#X connect 28 1 47 0;
#X connect 29 0 1 0;
#X connect 30 0 32 0;
#X connect 31 0 30 0;
#X connect 31 0 44 0;
#X connect 31 0 43 0;
#X connect 31 0 46 0;
#X connect 32 0 20 4;
#X connect 32 0 49 0;
#X connect 32 0 49 1;
#X connect 33 0 21 4;
#X connect 34 0 21 4;
#X connect 35 0 36 0;
#X connect 36 0 40 0;
#X connect 38 0 37 0;
#X connect 39 0 37 0;
#X connect 40 0 37 0;
#X connect 41 0 35 0;
#X connect 42 0 41 0;
#X connect 43 0 41 0;
#X connect 44 0 42 0;
#X connect 45 0 36 1;
#X connect 46 0 40 2;
#X connect 47 0 34 0;
#X connect 48 0 34 0;
#X connect 49 0 50 4;
#X connect 49 1 50 5;
