#N canvas 590 134 602 592 12;
#X obj 124 466 *~;
#X obj 163 466 *~;
#X obj 223 465 *~;
#X obj 262 465 *~;
#X obj 187 537 dac~;
#X obj 187 223 vsl 15 128 0 1 0 0 empty empty empty 0 -9 0 10 -262144
-1 -1 0 1;
#X obj 279 223 vsl 15 128 0 1 0 0 empty empty empty 0 -9 0 10 -262144
-1 -1 0 1;
#X obj 96 272 osc~ 220;
#N canvas 0 22 100 176 slidercon 1;
#X obj 14 104 vline~;
#X obj 14 73 pack 0 20;
#X obj 14 42 pow 2;
#X obj 14 14 inlet;
#X obj 14 136 outlet~;
#X connect 0 0 4 0;
#X connect 1 0 0 0;
#X connect 2 0 1 0;
#X connect 3 0 2 0;
#X restore 187 359 pd slidercon;
#N canvas 0 22 100 176 slidercon 0;
#X obj 14 104 vline~;
#X obj 14 73 pack 0 20;
#X obj 14 42 pow 2;
#X obj 14 14 inlet;
#X obj 14 136 outlet~;
#X connect 0 0 4 0;
#X connect 1 0 0 0;
#X connect 2 0 1 0;
#X connect 3 0 2 0;
#X restore 279 358 pd slidercon;
#X connect 0 0 4 0;
#X connect 1 0 4 1;
#X connect 2 0 4 0;
#X connect 3 0 4 1;
#X connect 5 0 8 0;
#X connect 6 0 9 0;
#X connect 7 0 0 0;
#X connect 7 0 1 0;
#X connect 8 0 0 1;
#X connect 8 0 1 1;
#X connect 9 0 3 1;
#X connect 9 0 2 1;
