#N canvas 475 23 682 723 10;
#X obj 22 50 / 2;
#X obj 53 50 % 2;
#X floatatom 106 71 5 0 0 0 - - -;
#X floatatom 22 90 5 0 0 0 - - -;
#X obj 22 70 i;
#X obj 22 134 / 2;
#X obj 22 155 i;
#X obj 55 132 % 2;
#X floatatom 110 158 5 0 0 0 - - -;
#X floatatom 22 174 5 0 0 0 - - -;
#X obj 23 221 / 2;
#X obj 50 221 % 2;
#X floatatom 106 243 5 0 0 0 - - -;
#X obj 23 241 i;
#X floatatom 22 261 5 0 0 0 - - -;
#X obj 22 302 / 2;
#X obj 49 302 % 2;
#X floatatom 106 325 5 0 0 0 - - -;
#X obj 22 324 i;
#X floatatom 21 346 5 0 0 0 - - -;
#X obj 21 385 / 2;
#X obj 48 385 % 2;
#X floatatom 105 406 5 0 0 0 - - -;
#X obj 21 405 i;
#X floatatom 21 425 5 0 0 0 - - -;
#X obj 21 463 / 2;
#X obj 48 463 % 2;
#X floatatom 105 483 5 0 0 0 - - -;
#X obj 21 482 i;
#X floatatom 20 502 5 0 0 0 - - -;
#X obj 20 540 / 2;
#X obj 47 540 % 2;
#X floatatom 104 560 5 0 0 0 - - -;
#X obj 20 559 i;
#X floatatom 21 581 5 0 0 0 - - -;
#X obj 48 617 % 2;
#X floatatom 105 639 5 0 0 0 - - -;
#X text 151 48 bit;
#X text 155 71 1;
#X text 157 159 2;
#X text 154 245 3;
#X text 154 325 4;
#X text 153 408 5;
#X text 152 482 6;
#X text 149 559 7;
#X text 152 639 8;
#X obj 313 734 +;
#X obj 23 31 t f f;
#X obj 22 197 t f f;
#X obj 22 281 t f f;
#X obj 21 365 t f f;
#X obj 21 443 t f f;
#X obj 21 520 t f f;
#X obj 22 110 t f f;
#X obj 119 678 outlet;
#X obj 162 678 outlet;
#X obj 204 678 outlet;
#X obj 247 678 outlet;
#X obj 289 678 outlet;
#X obj 332 678 outlet;
#X obj 374 678 outlet;
#X obj 417 678 outlet;
#X obj 99 25 inlet;
#X connect 0 0 4 0;
#X connect 1 0 2 0;
#X connect 2 0 61 0;
#X connect 3 0 53 0;
#X connect 4 0 3 0;
#X connect 5 0 6 0;
#X connect 6 0 9 0;
#X connect 7 0 8 0;
#X connect 8 0 60 0;
#X connect 9 0 48 0;
#X connect 10 0 13 0;
#X connect 11 0 12 0;
#X connect 12 0 59 0;
#X connect 13 0 14 0;
#X connect 14 0 49 0;
#X connect 15 0 18 0;
#X connect 16 0 17 0;
#X connect 17 0 58 0;
#X connect 18 0 19 0;
#X connect 19 0 50 0;
#X connect 20 0 23 0;
#X connect 21 0 22 0;
#X connect 22 0 57 0;
#X connect 23 0 24 0;
#X connect 24 0 51 0;
#X connect 25 0 28 0;
#X connect 26 0 27 0;
#X connect 27 0 56 0;
#X connect 28 0 29 0;
#X connect 29 0 52 0;
#X connect 30 0 33 0;
#X connect 31 0 32 0;
#X connect 32 0 55 0;
#X connect 33 0 34 0;
#X connect 34 0 35 0;
#X connect 35 0 36 0;
#X connect 36 0 54 0;
#X connect 47 0 0 0;
#X connect 47 1 1 0;
#X connect 48 0 10 0;
#X connect 48 1 11 0;
#X connect 49 0 15 0;
#X connect 49 1 16 0;
#X connect 50 0 20 0;
#X connect 50 1 21 0;
#X connect 51 0 25 0;
#X connect 51 1 26 0;
#X connect 52 0 30 0;
#X connect 52 1 31 0;
#X connect 53 0 5 0;
#X connect 53 1 7 0;
#X connect 62 0 47 0;
