#N canvas 0 23 1366 723 12;
#X obj 53 458 channelst;
#X obj 107 404 *~;
#X obj 180 300 -~ 1;
#X obj 127 350 *~ -1;
#X obj 190 217 phasor~ 8;
#X obj 400 206 tgl 15 0 empty empty empty 17 7 0 10 -262144 -1 -1 1
1;
#X floatatom 287 215 5 0 0 0 - - -;
#X obj 320 249 metro 1000;
#X obj 287 274 + 1;
#X obj 294 151 random 7;
#X floatatom 295 325 5 0 0 0 - - -;
#X obj 435 449 channelst;
#X obj 819 469 channelst;
#X obj 873 441 *~;
#X obj 910 180 tgl 15 0 empty empty empty 17 7 0 10 -262144 -1 -1 1
1;
#X floatatom 910 267 5 0 0 0 - - -;
#X obj 910 206 metro 1000;
#X obj 910 297 + 1;
#X obj 910 236 random 7;
#X floatatom 933 321 5 0 0 0 - - -;
#X obj 873 400 osc~;
#X obj 463 151 unpack 0 0 0;
#X obj 458 87 mtof;
#X obj 496 86 mtof;
#X obj 533 85 mtof;
#X obj 462 123 pack 0 0 0;
#X obj 472 50 unpack 0 0 0;
#X obj 646 428 *~;
#X obj 683 360 -~ 1;
#X obj 683 387 *~ -1;
#X obj 683 167 tgl 15 0 empty empty empty 17 7 0 10 -262144 -1 -1 1
1;
#X floatatom 683 254 5 0 0 0 - - -;
#X obj 683 284 + 1;
#X obj 683 223 random 7;
#X floatatom 706 308 5 0 0 0 - - -;
#X obj 624 387 triosc~;
#X obj 683 331 triosc~ 8;
#X msg 676 61 60 67 56;
#X obj 41 223 sqosc~;
#X obj 1159 402 channelst;
#X obj 1066 161 vsl 15 128 0 500 0 0 empty empty empty 0 -9 0 10 -262144
-1 -1 12700 1;
#X obj 1035 330 delread4~ del1;
#X obj 996 503 delwrite~ del1 500;
#X floatatom 1066 297 5 0 0 0 - - -;
#X obj 1006 558 delwrite~ del2 500;
#X obj 1213 140 vsl 15 128 0 500 0 0 empty empty empty 0 -9 0 10 -262144
-1 -1 5080 1;
#X floatatom 1177 298 5 0 0 0 - - -;
#X obj 1146 331 delread4~ del2;
#X obj 1012 289 line~;
#X obj 1117 257 line~;
#X obj 910 344 osc~ 8;
#X msg 642 7 60 66 72;
#X obj 683 193 metro 800;
#X obj 996 147 * 200;
#X obj 1176 92 * 200;
#X obj 985 445 *~ 0.5;
#X obj 1081 446 *~ 0.5;
#X msg 716 23 60 66 48;
#X obj 1024 250 pack 0 100;
#X obj 1129 218 pack 0 100;
#X obj 1165 671 freeverb~;
#X obj 1265 399 channelst;
#X msg 528 12 60 65 69;
#X connect 0 0 42 0;
#X connect 0 0 44 0;
#X connect 1 0 0 4;
#X connect 2 0 3 0;
#X connect 3 0 1 1;
#X connect 4 0 2 0;
#X connect 5 0 7 0;
#X connect 6 0 8 0;
#X connect 7 0 9 0;
#X connect 8 0 4 0;
#X connect 8 0 10 0;
#X connect 9 0 6 0;
#X connect 11 0 42 0;
#X connect 11 0 44 0;
#X connect 12 0 42 0;
#X connect 12 0 44 0;
#X connect 13 0 12 4;
#X connect 14 0 16 0;
#X connect 15 0 17 0;
#X connect 16 0 18 0;
#X connect 17 0 19 0;
#X connect 17 0 50 0;
#X connect 17 0 53 0;
#X connect 18 0 15 0;
#X connect 20 0 13 0;
#X connect 21 0 38 0;
#X connect 21 1 35 0;
#X connect 21 2 20 0;
#X connect 22 0 25 0;
#X connect 23 0 25 1;
#X connect 24 0 25 2;
#X connect 25 0 21 0;
#X connect 26 0 22 0;
#X connect 26 1 23 0;
#X connect 26 2 24 0;
#X connect 27 0 11 4;
#X connect 28 0 29 0;
#X connect 29 0 27 1;
#X connect 30 0 52 0;
#X connect 31 0 32 0;
#X connect 32 0 34 0;
#X connect 32 0 36 0;
#X connect 33 0 31 0;
#X connect 34 0 54 0;
#X connect 35 0 27 0;
#X connect 36 0 28 0;
#X connect 37 0 26 0;
#X connect 38 0 1 0;
#X connect 39 0 60 0;
#X connect 39 1 60 1;
#X connect 40 0 43 0;
#X connect 40 0 58 0;
#X connect 41 0 39 4;
#X connect 41 0 55 0;
#X connect 45 0 46 0;
#X connect 46 0 59 0;
#X connect 47 0 39 5;
#X connect 47 0 56 0;
#X connect 48 0 41 0;
#X connect 49 0 47 0;
#X connect 50 0 13 1;
#X connect 51 0 26 0;
#X connect 52 0 33 0;
#X connect 53 0 40 0;
#X connect 54 0 45 0;
#X connect 55 0 42 0;
#X connect 55 0 61 4;
#X connect 56 0 44 0;
#X connect 56 0 61 5;
#X connect 57 0 26 0;
#X connect 58 0 48 0;
#X connect 59 0 49 0;
#X connect 60 0 61 4;
#X connect 60 1 61 5;
#X connect 62 0 26 0;
