#N canvas 45 33 1366 692 12;
#X obj 207 430 channelst;
#X obj 381 317 osc~ 50;
#X obj 445 314 osc~ 20;
#X obj 67 347 osc~ 70;
#X obj 301 316 osc~ 40;
#X obj 217 271 osc~ 77;
#X obj 91 313 line~;
#X obj 99 278 pack 0 1000;
#X obj 220 240 line~;
#X obj 228 205 pack 0 1000;
#X obj 307 244 line~;
#X obj 315 209 pack 0 1000;
#X obj 407 254 line~;
#X obj 415 219 pack 0 1000;
#X obj 510 254 line~;
#X obj 496 171 pack 0 1000;
#X obj 580 448 channelst;
#X obj 647 405 *~;
#X obj 319 48 bng 15 250 50 0 empty empty empty 17 7 0 10 -262144 -1
-1;
#X obj 766 395 channelst;
#X obj 940 282 osc~ 50;
#X obj 1004 279 osc~ 20;
#X obj 626 312 osc~ 70;
#X obj 860 281 osc~ 40;
#X obj 776 236 osc~ 77;
#X obj 650 278 line~;
#X obj 658 243 pack 0 1000;
#X obj 779 205 line~;
#X obj 787 170 pack 0 1000;
#X obj 866 209 line~;
#X obj 874 174 pack 0 1000;
#X obj 966 219 line~;
#X obj 974 184 pack 0 1000;
#X obj 1069 219 line~;
#X obj 1077 184 pack 0 1000;
#X obj 878 13 bng 15 250 50 0 empty empty empty 17 7 0 10 -262144 -1
-1;
#X obj 635 75 bng 15 250 50 0 empty empty empty 17 7 0 10 -262144 -1
-1;
#X obj 453 93 random 20;
#X obj 508 127 random 10;
#X obj 683 163 random 10;
#X obj 924 91 random 50;
#X obj 628 174 tgl 15 0 empty empty empty 17 7 0 10 -262144 -1 -1 1
1;
#X obj 553 356 vline~;
#X obj 365 126 random 30;
#X obj 1012 58 random 20;
#X obj 1067 92 random 50;
#X obj 553 299 + 100;
#X obj 611 207 metro 5;
#X obj 556 265 random 500;
#X obj 1129 293 vsl 15 128 1 1000 0 0 empty empty empty 0 -9 0 10 -262144
-1 -1 800 1;
#X obj 1065 291 vsl 15 128 0 10000 0 0 empty empty empty 0 -9 0 10
-262144 -1 -1 0 1;
#X obj 1023 442 vsl 15 128 0 10000 0 0 empty empty empty 0 -9 0 10
-262144 -1 -1 0 1;
#X obj 265 139 random 2;
#X obj 620 361 osc~;
#X obj 124 198 random 10;
#X obj 110 251 / 10;
#X obj 763 84 random 10;
#X obj 749 137 / 10;
#X obj 540 330 pack 0 10;
#X obj 1105 363 vsl 15 128 0 100 0 0 empty empty empty 0 -9 0 10 -262144
-1 -1 0 1;
#X obj 589 405 *~;
#X obj 1317 411 channelst;
#X obj 1491 298 osc~ 50;
#X obj 1555 295 osc~ 20;
#X obj 1177 328 osc~ 70;
#X obj 1411 297 osc~ 40;
#X obj 1327 252 osc~ 77;
#X obj 1201 294 line~;
#X obj 1209 259 pack 0 1000;
#X obj 1330 221 line~;
#X obj 1321 185 pack 0 1000;
#X obj 1417 225 line~;
#X obj 1425 190 pack 0 1000;
#X obj 1517 235 line~;
#X obj 1525 200 pack 0 1000;
#X obj 1620 235 line~;
#X obj 1606 152 pack 0 1000;
#X obj 1690 429 channelst;
#X obj 1757 386 *~;
#X obj 1429 29 bng 15 250 50 0 empty empty empty 17 7 0 10 -262144
-1 -1;
#X obj 1876 376 channelst;
#X obj 2050 263 osc~ 50;
#X obj 2114 260 osc~ 20;
#X obj 1736 293 osc~ 70;
#X obj 1970 262 osc~ 40;
#X obj 1886 217 osc~ 77;
#X obj 1760 259 line~;
#X obj 1768 224 pack 0 1000;
#X obj 1889 186 line~;
#X obj 1897 151 pack 0 1000;
#X obj 1976 190 line~;
#X obj 1984 155 pack 0 1000;
#X obj 2076 200 line~;
#X obj 2084 165 pack 0 1000;
#X obj 2179 200 line~;
#X obj 2187 165 pack 0 1000;
#X obj 1988 -6 bng 15 250 50 0 empty empty empty 17 7 0 10 -262144
-1 -1;
#X obj 1745 56 bng 15 250 50 0 empty empty empty 17 7 0 10 -262144
-1 -1;
#X obj 1563 74 random 20;
#X obj 1618 108 random 10;
#X obj 1793 144 random 10;
#X obj 2034 72 random 50;
#X obj 1738 155 tgl 15 0 empty empty empty 17 7 0 10 -262144 -1 -1
1 1;
#X obj 1663 337 vline~;
#X obj 1475 107 random 30;
#X obj 2122 39 random 20;
#X obj 2177 73 random 50;
#X obj 1663 280 + 100;
#X obj 1721 188 metro 5;
#X obj 1666 246 random 500;
#X obj 1375 120 random 2;
#X obj 1730 342 osc~;
#X obj 1234 179 random 10;
#X obj 1220 232 / 10;
#X obj 1873 65 random 10;
#X obj 1859 118 / 10;
#X obj 1650 311 pack 0 10;
#X obj 1699 386 *~;
#X connect 0 0 60 1;
#X connect 1 0 0 4;
#X connect 2 0 0 4;
#X connect 3 0 0 4;
#X connect 4 0 0 4;
#X connect 5 0 0 4;
#X connect 6 0 3 0;
#X connect 7 0 6 0;
#X connect 8 0 5 0;
#X connect 9 0 8 0;
#X connect 10 0 4 0;
#X connect 11 0 10 0;
#X connect 12 0 1 0;
#X connect 13 0 12 0;
#X connect 14 0 2 0;
#X connect 15 0 14 0;
#X connect 17 0 16 5;
#X connect 18 0 37 0;
#X connect 18 0 43 0;
#X connect 18 0 52 0;
#X connect 18 0 38 0;
#X connect 18 0 54 0;
#X connect 19 0 17 1;
#X connect 20 0 19 4;
#X connect 21 0 19 4;
#X connect 22 0 19 4;
#X connect 23 0 19 4;
#X connect 24 0 19 4;
#X connect 25 0 22 0;
#X connect 26 0 25 0;
#X connect 27 0 24 0;
#X connect 28 0 27 0;
#X connect 29 0 23 0;
#X connect 30 0 29 0;
#X connect 31 0 20 0;
#X connect 32 0 31 0;
#X connect 33 0 21 0;
#X connect 34 0 33 0;
#X connect 35 0 39 0;
#X connect 35 0 40 0;
#X connect 35 0 44 0;
#X connect 35 0 45 0;
#X connect 35 0 56 0;
#X connect 36 0 18 0;
#X connect 36 0 35 0;
#X connect 37 0 13 0;
#X connect 38 0 15 0;
#X connect 39 0 26 0;
#X connect 40 0 30 0;
#X connect 41 0 47 0;
#X connect 42 0 53 0;
#X connect 43 0 11 0;
#X connect 44 0 32 0;
#X connect 45 0 34 0;
#X connect 46 0 58 0;
#X connect 47 0 48 0;
#X connect 48 0 46 0;
#X connect 49 0 47 1;
#X connect 49 0 108 1;
#X connect 50 0 48 1;
#X connect 50 0 109 1;
#X connect 51 0 46 1;
#X connect 51 0 107 1;
#X connect 52 0 9 0;
#X connect 53 0 17 0;
#X connect 53 0 60 0;
#X connect 54 0 55 0;
#X connect 55 0 7 0;
#X connect 56 0 57 0;
#X connect 57 0 28 0;
#X connect 58 0 42 0;
#X connect 59 0 58 1;
#X connect 59 0 116 1;
#X connect 60 0 16 4;
#X connect 61 0 117 1;
#X connect 62 0 61 4;
#X connect 63 0 61 4;
#X connect 64 0 61 4;
#X connect 65 0 61 4;
#X connect 66 0 61 4;
#X connect 67 0 64 0;
#X connect 68 0 67 0;
#X connect 69 0 66 0;
#X connect 70 0 69 0;
#X connect 71 0 65 0;
#X connect 72 0 71 0;
#X connect 73 0 62 0;
#X connect 74 0 73 0;
#X connect 75 0 63 0;
#X connect 76 0 75 0;
#X connect 78 0 77 5;
#X connect 79 0 98 0;
#X connect 79 0 104 0;
#X connect 79 0 110 0;
#X connect 79 0 99 0;
#X connect 79 0 112 0;
#X connect 80 0 78 1;
#X connect 81 0 80 4;
#X connect 82 0 80 4;
#X connect 83 0 80 4;
#X connect 84 0 80 4;
#X connect 85 0 80 4;
#X connect 86 0 83 0;
#X connect 87 0 86 0;
#X connect 88 0 85 0;
#X connect 89 0 88 0;
#X connect 90 0 84 0;
#X connect 91 0 90 0;
#X connect 92 0 81 0;
#X connect 93 0 92 0;
#X connect 94 0 82 0;
#X connect 95 0 94 0;
#X connect 96 0 100 0;
#X connect 96 0 101 0;
#X connect 96 0 105 0;
#X connect 96 0 106 0;
#X connect 96 0 114 0;
#X connect 97 0 79 0;
#X connect 97 0 96 0;
#X connect 98 0 74 0;
#X connect 99 0 76 0;
#X connect 100 0 87 0;
#X connect 101 0 91 0;
#X connect 102 0 108 0;
#X connect 103 0 111 0;
#X connect 104 0 72 0;
#X connect 105 0 93 0;
#X connect 106 0 95 0;
#X connect 107 0 116 0;
#X connect 108 0 109 0;
#X connect 109 0 107 0;
#X connect 110 0 70 0;
#X connect 111 0 78 0;
#X connect 111 0 117 0;
#X connect 112 0 113 0;
#X connect 113 0 68 0;
#X connect 114 0 115 0;
#X connect 115 0 89 0;
#X connect 116 0 103 0;
#X connect 117 0 77 4;
