#N canvas 0 0 1280 778 12;
#X obj 23 482 channelst;
#X obj 16 750 dac~ 1 2 3 4;
#X obj 78 20 noise~;
#X obj 16 57 channelst;
#X obj 150 243 lop~ 500;
#X obj 150 272 hip~ 200;
#X obj 151 301 *~;
#X obj 147 392 sixteenmix;
#X obj 124 517 stoe, f 33;
#X obj 162 195 snapshot~;
#X obj 209 159 metro 10;
#X obj 219 114 tgl 15 0 empty empty empty 17 7 0 10 -262144 -1 -1 1
1;
#X obj 327 227 lop~ 500;
#X obj 327 256 hip~ 200;
#X obj 328 285 *~;
#X obj 339 190 snapshot~;
#X obj 404 147 metro 10;
#X obj 420 74 tgl 15 0 empty empty empty 17 7 0 10 -262144 -1 -1 1
1;
#X obj 149 63 osc~ 0.05;
#X obj 325 64 osc~ 0.04;
#X obj 147 115 +~ 1;
#X obj 324 96 +~ 1;
#X obj 498 225 lop~ 500;
#X obj 498 254 hip~ 200;
#X obj 499 283 *~;
#X obj 510 196 snapshot~;
#X obj 575 145 metro 10;
#X obj 591 72 tgl 15 0 empty empty empty 17 7 0 10 -262144 -1 -1 1
1;
#X obj 496 62 osc~ 0.04;
#X obj 495 94 +~ 1;
#X obj 590 224 +~ 1;
#X obj 589 254 /~ 2;
#X obj 413 266 +~ 1;
#X obj 412 291 /~ 2;
#X obj 233 253 osc~ 0.02;
#X obj 416 239 osc~ 0.03;
#X obj 589 197 osc~ 0.04;
#X obj 324 143 *~ 700;
#X obj 147 159 *~ 800;
#X obj 495 141 *~ 200;
#X obj 566 306 +~ 0.25;
#X obj 414 318 +~ 0.25;
#X obj 241 272 +~ 1;
#X obj 240 297 /~ 2;
#X obj 242 324 +~ 0.25;
#X obj 509 409 metro 125;
#X obj 514 380 tgl 15 0 empty empty empty 17 7 0 10 -262144 -1 -1 1
1;
#X obj 526 476 sel 0;
#X obj 528 506 bng 15 250 50 0 empty empty empty 17 7 0 10 -262144
-1 -1;
#X obj 584 548 vline~;
#X obj 381 374 channelst;
#X obj 495 671 *~;
#X obj 652 578 *~ 1000;
#X obj 559 688 *~;
#X obj 676 643 /~ 500;
#X obj 597 665 osc~;
#X obj 701 610 osc~;
#X obj 731 586 +~ 300;
#X obj 751 553 /~ 200;
#X obj 704 688 *~;
#X msg 589 487 0 100 \, 1 100 200 \, 0 100 300;
#X obj 686 41 metro 125;
#X obj 691 12 tgl 15 0 empty empty empty 17 7 0 10 -262144 -1 -1 1
1;
#X obj 703 108 sel 0;
#X obj 705 138 bng 15 250 50 0 empty empty empty 17 7 0 10 -262144
-1 -1;
#X obj 684 230 vline~;
#X obj 595 353 *~;
#X obj 659 370 *~;
#X obj 697 347 osc~;
#X obj 801 292 osc~;
#X obj 804 370 *~;
#X msg 689 169 0 100 \, 1 100 200 \, 0 100 300;
#X obj 508 440 random 10;
#X obj 685 72 random 10;
#X obj 383 650 freeverb~;
#X obj 539 636 osc~;
#X obj 639 318 osc~;
#X obj 589 579 /~ 200;
#X obj 569 612 +~ 200;
#X obj 934 160 osc~;
#X obj 976 160 osc~;
#X obj 1015 160 osc~;
#X obj 1057 160 osc~;
#X obj 954 68 mtof;
#X obj 943 201 *~;
#X obj 953 270 /~ 2;
#X obj 952 298 +~ 1;
#X obj 1020 200 *~;
#X obj 1030 269 /~ 2;
#X obj 1029 297 +~ 1;
#X obj 1099 201 *~;
#X obj 1109 270 /~ 2;
#X obj 1108 298 +~ 1;
#X obj 1178 194 *~;
#X obj 1188 263 /~ 2;
#X obj 1187 291 +~ 1;
#X obj 924 235 osc~ 0.2;
#X obj 1001 234 osc~ 0.3;
#X obj 1080 235 osc~ 0.3;
#X obj 1159 228 osc~ 0.4;
#X obj 997 128 * 4;
#X obj 1034 126 * 5;
#X obj 1076 124 * 3;
#X obj 934 126 * 4;
#X obj 768 36 metro 125;
#X obj 773 7 tgl 15 0 empty empty empty 17 7 0 10 -262144 -1 -1 1 1
;
#X obj 1145 48 metro 125;
#X obj 1150 19 tgl 15 0 empty empty empty 17 7 0 10 -262144 -1 -1 1
1;
#X obj 1054 40 metro 125;
#X obj 1059 11 tgl 15 0 empty empty empty 17 7 0 10 -262144 -1 -1 1
1;
#X obj 1198 136 metro 125;
#X obj 1203 107 tgl 15 0 empty empty empty 17 7 0 10 -262144 -1 -1
1 1;
#X obj 856 334 channelst;
#X obj 1089 343 noise~;
#X obj 1064 421 noise~;
#X obj 1141 488 *~;
#X obj 1166 484 channelst;
#X obj 1094 455 lop~ 100;
#X obj 1089 374 expr~ ( $v1 > 0.9 );
#X obj 974 548 delwrite~ delwater 500;
#X obj 885 624 vsl 15 128 0 1000 0 0 empty empty empty 0 -9 0 10 -262144
-1 -1 3800 1;
#X obj 947 409 delread4~ delwater;
#X obj 689 261 /~ 1;
#X obj 851 235 /~ 1;
#X obj 752 260 *~ 10000;
#X obj 669 294 +~ 1000;
#X obj 776 325 /~ 200;
#X obj 831 268 +~ 1000;
#X obj 274 581 tgl 15 0 empty empty empty 17 7 0 10 -262144 -1 -1 1
1;
#X obj 286 677 sel 0;
#X obj 176 577 +;
#X msg 175 555 1;
#X floatatom 182 622 5 0 0 0 - - -;
#X obj 151 671 sel 0 1 2 3 4;
#X obj 157 647 % 5;
#X obj 304 742 mtof;
#X obj 468 757 channelst;
#X obj 268 767 bng 15 250 50 0 empty empty empty 17 7 0 10 -262144
-1 -1;
#X obj 243 897 vline~;
#X obj 197 843 *~;
#X obj 180 789 triosc~;
#X obj 269 610 metro 250;
#X obj 268 641 random 5;
#X msg 254 801 0 20 \, 1 100 20 \, 0 100 250;
#X obj 1053 71 random 20;
#X obj 1144 79 random 20;
#X obj 767 67 random 30;
#X obj 1197 167 random 40;
#X msg 910 32 24;
#X msg 304 713 60;
#X msg 341 710 72;
#X msg 380 714 48;
#X msg 265 709 56;
#X msg 422 713 75;
#X obj 985 844 *~ 0.7;
#X obj 969 791 delread4~ delwaterf;
#X obj 996 930 delwrite~ delwaterf 500;
#X obj 1009 631 vsl 15 128 0 10000 0 0 empty empty empty 0 -9 0 10
-262144 -1 -1 12700 1;
#X obj 963 462 *~ 0.5;
#X connect 0 0 1 0;
#X connect 0 0 1 2;
#X connect 0 1 1 1;
#X connect 0 1 1 3;
#X connect 2 0 3 5;
#X connect 3 0 12 0;
#X connect 3 0 22 0;
#X connect 3 1 4 0;
#X connect 4 0 5 0;
#X connect 5 0 6 0;
#X connect 6 0 7 1;
#X connect 7 0 8 0;
#X connect 7 1 8 1;
#X connect 7 2 8 2;
#X connect 7 3 8 3;
#X connect 7 4 8 4;
#X connect 7 5 8 5;
#X connect 7 6 8 6;
#X connect 7 7 8 7;
#X connect 7 8 8 8;
#X connect 7 9 8 9;
#X connect 7 10 8 10;
#X connect 7 11 8 11;
#X connect 7 12 8 12;
#X connect 7 13 8 13;
#X connect 7 14 8 14;
#X connect 7 15 8 15;
#X connect 8 0 0 4;
#X connect 8 1 0 5;
#X connect 9 0 4 1;
#X connect 10 0 9 0;
#X connect 11 0 10 0;
#X connect 12 0 13 0;
#X connect 13 0 14 0;
#X connect 14 0 7 0;
#X connect 15 0 12 1;
#X connect 16 0 15 0;
#X connect 17 0 16 0;
#X connect 18 0 20 0;
#X connect 19 0 21 0;
#X connect 20 0 38 0;
#X connect 21 0 37 0;
#X connect 22 0 23 0;
#X connect 23 0 24 0;
#X connect 24 0 7 0;
#X connect 24 0 7 1;
#X connect 25 0 22 1;
#X connect 26 0 25 0;
#X connect 27 0 26 0;
#X connect 28 0 29 0;
#X connect 29 0 39 0;
#X connect 30 0 31 0;
#X connect 31 0 40 0;
#X connect 32 0 33 0;
#X connect 33 0 41 0;
#X connect 34 0 42 0;
#X connect 35 0 32 0;
#X connect 36 0 30 0;
#X connect 37 0 15 0;
#X connect 38 0 9 0;
#X connect 39 0 25 0;
#X connect 40 0 24 1;
#X connect 41 0 14 1;
#X connect 42 0 43 0;
#X connect 43 0 44 0;
#X connect 44 0 6 1;
#X connect 45 0 72 0;
#X connect 46 0 45 0;
#X connect 47 0 48 0;
#X connect 48 0 60 0;
#X connect 49 0 51 1;
#X connect 49 0 52 0;
#X connect 49 0 58 0;
#X connect 50 0 7 2;
#X connect 50 0 74 0;
#X connect 50 1 7 3;
#X connect 50 1 74 1;
#X connect 51 0 53 0;
#X connect 52 0 54 0;
#X connect 52 0 77 0;
#X connect 53 0 50 4;
#X connect 54 0 55 0;
#X connect 55 0 53 1;
#X connect 56 0 59 0;
#X connect 57 0 56 0;
#X connect 58 0 57 0;
#X connect 59 0 51 0;
#X connect 60 0 49 0;
#X connect 61 0 73 0;
#X connect 62 0 61 0;
#X connect 63 0 64 0;
#X connect 64 0 71 0;
#X connect 64 0 148 0;
#X connect 65 0 66 1;
#X connect 65 0 123 0;
#X connect 65 0 124 0;
#X connect 66 0 67 0;
#X connect 67 0 50 5;
#X connect 68 0 67 1;
#X connect 69 0 70 0;
#X connect 70 0 66 0;
#X connect 71 0 65 0;
#X connect 72 0 47 0;
#X connect 73 0 63 0;
#X connect 74 0 7 4;
#X connect 74 1 7 5;
#X connect 75 0 51 0;
#X connect 75 0 59 1;
#X connect 76 0 66 0;
#X connect 76 0 70 1;
#X connect 77 0 78 0;
#X connect 78 0 75 0;
#X connect 79 0 84 0;
#X connect 80 0 87 0;
#X connect 81 0 90 0;
#X connect 82 0 93 0;
#X connect 83 0 100 0;
#X connect 83 0 101 0;
#X connect 83 0 102 0;
#X connect 83 0 103 0;
#X connect 84 0 7 6;
#X connect 84 0 112 4;
#X connect 85 0 86 0;
#X connect 86 0 84 1;
#X connect 87 0 7 7;
#X connect 87 0 112 5;
#X connect 88 0 89 0;
#X connect 89 0 87 1;
#X connect 90 0 7 6;
#X connect 90 0 112 4;
#X connect 91 0 92 0;
#X connect 92 0 90 1;
#X connect 93 0 7 7;
#X connect 93 0 112 5;
#X connect 94 0 95 0;
#X connect 95 0 93 1;
#X connect 96 0 85 0;
#X connect 97 0 88 0;
#X connect 98 0 91 0;
#X connect 99 0 94 0;
#X connect 100 0 80 0;
#X connect 101 0 81 0;
#X connect 102 0 82 0;
#X connect 103 0 79 0;
#X connect 104 0 146 0;
#X connect 105 0 104 0;
#X connect 106 0 145 0;
#X connect 107 0 106 0;
#X connect 108 0 144 0;
#X connect 109 0 108 0;
#X connect 110 0 147 0;
#X connect 111 0 110 0;
#X connect 112 0 74 0;
#X connect 112 1 74 1;
#X connect 113 0 118 0;
#X connect 114 0 117 0;
#X connect 115 0 116 4;
#X connect 116 0 74 0;
#X connect 116 0 7 14;
#X connect 116 1 74 1;
#X connect 116 1 7 15;
#X connect 117 0 115 0;
#X connect 118 0 115 1;
#X connect 120 0 121 0;
#X connect 121 0 7 12;
#X connect 121 0 7 13;
#X connect 121 0 156 0;
#X connect 121 0 158 0;
#X connect 122 0 125 0;
#X connect 123 0 127 0;
#X connect 124 0 122 0;
#X connect 124 0 126 0;
#X connect 125 0 76 0;
#X connect 126 0 68 0;
#X connect 127 0 69 0;
#X connect 128 0 141 0;
#X connect 129 0 131 0;
#X connect 130 0 132 0;
#X connect 131 0 130 0;
#X connect 132 0 130 1;
#X connect 132 0 134 0;
#X connect 132 0 137 0;
#X connect 133 0 152 0;
#X connect 133 1 149 0;
#X connect 133 2 150 0;
#X connect 133 3 151 0;
#X connect 133 4 153 0;
#X connect 134 0 133 0;
#X connect 135 0 140 0;
#X connect 136 0 7 10;
#X connect 136 0 74 0;
#X connect 136 0 119 0;
#X connect 136 1 7 11;
#X connect 136 1 74 1;
#X connect 137 0 143 0;
#X connect 138 0 139 1;
#X connect 139 0 136 4;
#X connect 140 0 139 0;
#X connect 141 0 142 0;
#X connect 142 0 129 0;
#X connect 143 0 138 0;
#X connect 144 0 101 1;
#X connect 145 0 100 1;
#X connect 146 0 103 1;
#X connect 147 0 102 1;
#X connect 148 0 83 0;
#X connect 149 0 135 0;
#X connect 150 0 135 0;
#X connect 151 0 135 0;
#X connect 152 0 135 0;
#X connect 153 0 135 0;
#X connect 154 0 156 0;
#X connect 155 0 154 0;
#X connect 155 0 7 10;
#X connect 155 0 7 11;
#X connect 157 0 155 0;
#X connect 158 0 119 0;
