#N canvas 0 23 1366 722 12;
#X obj 87 77 clack;
#X obj 348 16 seqs;
#X obj 382 333 ks;
#X obj 374 536 dac~;
#X obj 947 75 drumtrig;
#X obj 682 308 samppad;
#X obj 559 292 channelst;
#X obj 1169 73 drumtrig;
#X obj 733 437 channelst;
#X connect 1 0 2 4;
#X connect 1 0 2 5;
#X connect 1 1 2 4;
#X connect 1 1 2 5;
#X connect 1 2 2 4;
#X connect 1 2 2 5;
#X connect 1 3 2 4;
#X connect 1 3 2 5;
#X connect 2 0 3 0;
#X connect 2 0 3 1;
#X connect 4 0 5 0;
#X connect 5 0 6 4;
#X connect 5 2 8 4;
#X connect 5 3 8 5;
#X connect 7 0 5 2;
