#N canvas 0 23 1366 723 12;
#X obj 165 415 line~;
#X obj 127 464 *~;
#X msg 165 373 1 1000;
#X obj 182 292 tgl 15 0 empty empty empty 17 7 0 10 -262144 -1 -1 0
1;
#X obj 182 322 sel 1 0;
#X obj 127 372 f;
#X obj 145 322 mtof;
#X obj 310 417 line~;
#X obj 272 466 *~;
#X msg 310 375 1 1000;
#X obj 327 294 tgl 15 0 empty empty empty 17 7 0 10 -262144 -1 -1 0
1;
#X obj 327 324 sel 1 0;
#X obj 272 374 f;
#X obj 290 324 mtof;
#X obj 452 418 line~;
#X obj 414 467 *~;
#X msg 452 376 1 1000;
#X obj 469 295 tgl 15 0 empty empty empty 17 7 0 10 -262144 -1 -1 1
1;
#X obj 469 325 sel 1 0;
#X obj 414 375 f;
#X obj 432 325 mtof;
#X obj 597 420 line~;
#X obj 559 469 *~;
#X msg 597 378 1 1000;
#X obj 614 297 tgl 15 0 empty empty empty 17 7 0 10 -262144 -1 -1 1
1;
#X obj 614 327 sel 1 0;
#X obj 559 377 f;
#X obj 577 327 mtof;
#X obj 739 422 line~;
#X obj 701 471 *~;
#X msg 739 380 1 1000;
#X obj 756 299 tgl 15 0 empty empty empty 17 7 0 10 -262144 -1 -1 1
1;
#X obj 756 329 sel 1 0;
#X obj 701 379 f;
#X obj 719 329 mtof;
#X obj 884 424 line~;
#X obj 846 473 *~;
#X msg 884 382 1 1000;
#X obj 901 301 tgl 15 0 empty empty empty 17 7 0 10 -262144 -1 -1 0
1;
#X obj 901 331 sel 1 0;
#X obj 846 381 f;
#X obj 864 331 mtof;
#X obj 1026 425 line~;
#X obj 988 474 *~;
#X msg 1026 383 1 1000;
#X obj 1043 302 tgl 15 0 empty empty empty 17 7 0 10 -262144 -1 -1
0 1;
#X obj 1043 332 sel 1 0;
#X obj 988 382 f;
#X obj 1006 332 mtof;
#X obj 1171 427 line~;
#X obj 1133 476 *~;
#X msg 1171 385 1 1000;
#X obj 1188 304 tgl 15 0 empty empty empty 17 7 0 10 -262144 -1 -1
1 1;
#X obj 1188 334 sel 1 0;
#X obj 1133 384 f;
#X obj 1151 334 mtof;
#X obj 65 258 unpack 0 0 0 0 0 0 0 0;
#X obj 64 215 pack 0 0 0 0 0 0 0 0;
#X obj 64 158 +;
#X obj 95 158 +;
#X obj 126 158 +;
#X obj 157 158 +;
#X obj 189 158 +;
#X obj 220 158 +;
#X obj 251 158 +;
#X obj 282 158 +;
#X obj 178 71 unpack 0 0 0 0 0 0 0 0;
#X obj 127 502 /~ 10;
#X obj 271 504 /~ 10;
#X obj 414 505 /~ 10;
#X obj 558 507 /~ 10;
#X obj 702 508 /~ 10;
#X obj 846 510 /~ 10;
#X obj 989 511 /~ 10;
#X obj 1133 513 /~ 10;
#X obj 496 179 random 8;
#X obj 561 44 tgl 15 0 empty empty empty 17 7 0 10 -262144 -1 -1 0
1;
#X floatatom 496 209 5 0 0 0 - - -;
#X obj 497 242 sel 0 1 2 3 4 5 6 7;
#X msg 659 378 0 100;
#X msg 801 380 0 100;
#X msg 946 382 0 100;
#X msg 1088 383 0 100;
#X msg 1233 385 0 100;
#X obj 496 107 metro 3000;
#X obj 583 106 metro 1234;
#X obj 671 106 metro 2487;
#X msg 177 23 -12 0 5 7 9 12 15 17 19;
#X obj 499 589 channelst;
#X obj 675 594 channelst;
#X obj 598 751 freeverb~;
#X msg 586 706 roomsize 0.9;
#X msg 65 114 \$1;
#X msg 45 22 60;
#X msg 67 46 64;
#X obj 33 685 delread4~ delk;
#X obj 202 713 delwrite~ delk 500;
#X obj 348 713 delwrite~ delj500;
#X obj 155 684 delread4~ delk;
#X obj 34 740 *~ 0.8;
#X obj 157 732 *~ 0.8;
#X obj 38 656 sig~;
#X obj 159 654 sig~;
#X obj 44 449 vsl 15 128 0 1000 0 0 empty empty empty 0 -9 0 10 -262144
-1 -1 0 1;
#X obj 67 452 vsl 15 128 0 1000 0 0 empty empty empty 0 -9 0 10 -262144
-1 -1 0 1;
#X msg 227 373 0 20;
#X msg 372 375 0 20;
#X msg 514 376 0 50;
#X floatatom 22 146 5 0 0 0 - - -;
#X obj 822 167 random 4;
#X obj 820 211 sel 0 1 2 3;
#X floatatom 896 169 5 0 0 0 - - -;
#X msg 85 20 58;
#X msg 104 54 63;
#X obj 798 701 *~;
#X obj 846 701 *~;
#X obj 816 746 dac~;
#X obj 796 617 /~ 2;
#X obj 935 617 /~ 2;
#X obj 797 655 +~ 0.8;
#X obj 936 655 +~ 0.8;
#X obj 921 583 osc~ 0.1453;
#X obj 782 583 osc~ 0.2451;
#X obj 1023 670 loadbang;
#X msg 1023 751 0;
#X msg 1066 750 0.5;
#X obj 541 420 triosc~;
#X obj 827 425 triosc~;
#X obj 394 418 triosc~;
#X obj 107 416 triosc~;
#X obj 681 422 osc~;
#X obj 967 425 osc~;
#X obj 1113 428 osc~;
#X obj 250 417 osc~;
#X obj 1079 101 *~ -1;
#X obj 1079 125 +~ 1;
#X obj 1145 154 line~;
#X obj 1073 153 *~;
#X obj 897 121 osc~ 440;
#X obj 1048 204 *~;
#X obj 1047 252 dac~;
#X obj 1168 6 bng 15 250 50 0 empty empty empty 17 7 0 10 -262144 -1
-1;
#X obj 1176 31 del 100;
#X obj 1054 67 phasor~ 10;
#X msg 1104 37 0;
#X obj 1102 191 pow~ 2;
#X obj 984 30 line~;
#X obj 978 53 pow~ 4;
#X msg 943 -1 1;
#X obj 986 77 *~ 10;
#X msg 1005 -1 0 100;
#X obj 954 -41 del 20;
#X obj 815 75 mtof;
#X obj 658 -19 sel 0 1 2 3 4 5 6 7;
#X obj 658 -45 random 8;
#X obj 583 -81 tgl 15 0 empty empty empty 17 7 0 10 -262144 -1 -1 0
1;
#X obj 518 -18 metro 3000;
#X msg 618 49 60;
#X msg 662 49 65;
#X msg 709 45 67;
#X msg 753 45 69;
#X msg 791 44 72;
#X msg 881 41 54;
#X msg 926 40 52;
#X obj 988 240 *~ 0.8;
#X msg 1227 71 0 3000;
#X obj 1181 194 pow~ 2;
#X msg 1165 71 1 50;
#X obj 1234 133 lopass;
#X msg 835 44 90;
#X connect 0 0 1 1;
#X connect 1 0 67 0;
#X connect 2 0 0 0;
#X connect 3 0 4 0;
#X connect 4 0 2 0;
#X connect 4 0 5 0;
#X connect 4 1 105 0;
#X connect 5 0 129 0;
#X connect 6 0 5 1;
#X connect 7 0 8 1;
#X connect 8 0 68 0;
#X connect 9 0 7 0;
#X connect 10 0 11 0;
#X connect 11 0 9 0;
#X connect 11 0 12 0;
#X connect 11 1 106 0;
#X connect 12 0 133 0;
#X connect 13 0 12 1;
#X connect 14 0 15 1;
#X connect 15 0 69 0;
#X connect 16 0 14 0;
#X connect 17 0 18 0;
#X connect 18 0 16 0;
#X connect 18 0 19 0;
#X connect 18 1 107 0;
#X connect 19 0 128 0;
#X connect 20 0 19 1;
#X connect 21 0 22 1;
#X connect 22 0 70 0;
#X connect 23 0 21 0;
#X connect 24 0 25 0;
#X connect 25 0 23 0;
#X connect 25 0 26 0;
#X connect 25 1 79 0;
#X connect 26 0 126 0;
#X connect 27 0 26 1;
#X connect 28 0 29 1;
#X connect 29 0 71 0;
#X connect 30 0 28 0;
#X connect 31 0 32 0;
#X connect 32 0 30 0;
#X connect 32 0 33 0;
#X connect 32 1 80 0;
#X connect 33 0 130 0;
#X connect 34 0 33 1;
#X connect 35 0 36 1;
#X connect 36 0 72 0;
#X connect 37 0 35 0;
#X connect 38 0 39 0;
#X connect 39 0 37 0;
#X connect 39 0 40 0;
#X connect 39 1 81 0;
#X connect 40 0 127 0;
#X connect 41 0 40 1;
#X connect 42 0 43 1;
#X connect 43 0 73 0;
#X connect 44 0 42 0;
#X connect 45 0 46 0;
#X connect 46 0 44 0;
#X connect 46 0 47 0;
#X connect 46 1 82 0;
#X connect 47 0 131 0;
#X connect 48 0 47 1;
#X connect 49 0 50 1;
#X connect 50 0 74 0;
#X connect 51 0 49 0;
#X connect 52 0 53 0;
#X connect 53 0 51 0;
#X connect 53 0 54 0;
#X connect 53 1 83 0;
#X connect 54 0 132 0;
#X connect 55 0 54 1;
#X connect 56 0 6 0;
#X connect 56 1 13 0;
#X connect 56 2 20 0;
#X connect 56 3 27 0;
#X connect 56 4 34 0;
#X connect 56 5 41 0;
#X connect 56 6 48 0;
#X connect 56 7 55 0;
#X connect 57 0 56 0;
#X connect 58 0 57 0;
#X connect 59 0 57 1;
#X connect 60 0 57 2;
#X connect 61 0 57 3;
#X connect 62 0 57 4;
#X connect 63 0 57 5;
#X connect 64 0 57 6;
#X connect 65 0 57 7;
#X connect 66 0 58 1;
#X connect 66 1 59 1;
#X connect 66 2 60 1;
#X connect 66 3 61 1;
#X connect 66 4 62 1;
#X connect 66 5 63 1;
#X connect 66 6 64 1;
#X connect 66 7 65 1;
#X connect 67 0 88 4;
#X connect 67 0 88 5;
#X connect 68 0 88 5;
#X connect 68 0 88 4;
#X connect 69 0 88 5;
#X connect 69 0 88 4;
#X connect 70 0 88 5;
#X connect 70 0 88 4;
#X connect 71 0 88 5;
#X connect 71 0 88 4;
#X connect 72 0 88 5;
#X connect 72 0 88 4;
#X connect 73 0 88 5;
#X connect 73 0 88 4;
#X connect 74 0 88 5;
#X connect 74 0 88 4;
#X connect 75 0 77 0;
#X connect 76 0 84 0;
#X connect 76 0 85 0;
#X connect 76 0 86 0;
#X connect 77 0 78 0;
#X connect 78 0 3 0;
#X connect 78 1 10 0;
#X connect 78 2 17 0;
#X connect 78 3 24 0;
#X connect 78 4 31 0;
#X connect 78 5 38 0;
#X connect 78 6 45 0;
#X connect 78 7 52 0;
#X connect 79 0 21 0;
#X connect 80 0 28 0;
#X connect 81 0 35 0;
#X connect 82 0 42 0;
#X connect 83 0 49 0;
#X connect 84 0 75 0;
#X connect 85 0 75 0;
#X connect 85 0 109 0;
#X connect 86 0 75 0;
#X connect 87 0 66 0;
#X connect 88 0 90 0;
#X connect 88 0 96 0;
#X connect 88 0 114 0;
#X connect 88 1 90 1;
#X connect 88 1 97 0;
#X connect 88 1 115 0;
#X connect 90 0 89 4;
#X connect 90 1 89 5;
#X connect 91 0 90 0;
#X connect 92 0 58 0;
#X connect 92 0 59 0;
#X connect 92 0 60 0;
#X connect 92 0 61 0;
#X connect 92 0 62 0;
#X connect 92 0 63 0;
#X connect 92 0 64 0;
#X connect 92 0 65 0;
#X connect 92 0 108 0;
#X connect 93 0 92 0;
#X connect 94 0 92 0;
#X connect 95 0 99 0;
#X connect 95 0 89 4;
#X connect 98 0 100 0;
#X connect 98 0 89 5;
#X connect 99 0 96 0;
#X connect 100 0 97 0;
#X connect 101 0 95 0;
#X connect 102 0 98 0;
#X connect 103 0 101 0;
#X connect 104 0 102 0;
#X connect 105 0 0 0;
#X connect 106 0 7 0;
#X connect 107 0 14 0;
#X connect 109 0 110 0;
#X connect 109 0 111 0;
#X connect 110 0 93 0;
#X connect 110 1 112 0;
#X connect 110 2 94 0;
#X connect 110 3 113 0;
#X connect 112 0 92 0;
#X connect 113 0 92 0;
#X connect 114 0 116 0;
#X connect 115 0 116 1;
#X connect 117 0 119 0;
#X connect 118 0 120 0;
#X connect 119 0 114 1;
#X connect 120 0 115 1;
#X connect 121 0 118 0;
#X connect 122 0 117 0;
#X connect 123 0 124 0;
#X connect 123 0 125 0;
#X connect 124 0 122 1;
#X connect 125 0 121 1;
#X connect 126 0 22 0;
#X connect 127 0 36 0;
#X connect 128 0 15 0;
#X connect 129 0 1 0;
#X connect 130 0 29 0;
#X connect 131 0 43 0;
#X connect 132 0 50 0;
#X connect 133 0 8 0;
#X connect 134 0 135 0;
#X connect 135 0 137 0;
#X connect 136 0 166 0;
#X connect 137 0 145 0;
#X connect 138 0 139 0;
#X connect 139 0 140 0;
#X connect 139 0 140 1;
#X connect 139 0 164 0;
#X connect 141 0 167 0;
#X connect 141 0 142 0;
#X connect 141 0 144 0;
#X connect 141 0 151 0;
#X connect 142 0 165 0;
#X connect 143 0 168 3;
#X connect 144 0 143 1;
#X connect 144 0 138 1;
#X connect 145 0 139 1;
#X connect 146 0 147 0;
#X connect 147 0 149 0;
#X connect 148 0 146 0;
#X connect 149 0 143 0;
#X connect 150 0 146 0;
#X connect 151 0 150 0;
#X connect 151 0 148 0;
#X connect 152 0 138 0;
#X connect 152 0 141 0;
#X connect 153 0 157 0;
#X connect 153 1 158 0;
#X connect 153 2 159 0;
#X connect 153 3 160 0;
#X connect 153 4 161 0;
#X connect 153 5 169 0;
#X connect 153 6 162 0;
#X connect 153 7 163 0;
#X connect 154 0 153 0;
#X connect 155 0 156 0;
#X connect 156 0 154 0;
#X connect 157 0 152 0;
#X connect 158 0 152 0;
#X connect 159 0 152 0;
#X connect 160 0 152 0;
#X connect 161 0 152 0;
#X connect 162 0 152 0;
#X connect 163 0 152 0;
#X connect 164 0 90 0;
#X connect 164 0 90 1;
#X connect 165 0 136 0;
#X connect 166 0 137 1;
#X connect 167 0 136 0;
#X connect 168 1 134 0;
#X connect 169 0 152 0;
