#N canvas 0 23 738 709 12;
#X floatatom 262 73 5 0 0 0 - - -;
#X text 270 197 fDec = 250;
#X floatatom 367 89 5 0 0 0 - - -;
#X text 402 93 pScale = 1;
#X obj 233 401 *~ 1;
#X obj 233 422 phasor~;
#X obj 105 180 bng 15 250 50 0 empty empty empty 17 7 0 10 -262144
-1 -1;
#X obj 233 442 expr~ if ($v1 > 0.5 \, 0 \, 1);
#X obj 265 471 noise~;
#X floatatom 505 92 5 0 0 0 - - -;
#X obj 339 413 *~ 1.5;
#X obj 236 514 vcf~ 0.5;
#X obj 199 625 *~;
#X obj 357 535 osc~;
#X floatatom 561 92 5 0 0 0 - - -;
#X obj 356 504 *~ 1;
#X obj 221 160 f 250;
#X obj 210 46 inlet;
#X obj 262 7 inlet;
#X text 260 29 decay time;
#X obj 369 14 inlet;
#X text 365 38 pitchScale;
#X text 489 -1 filterScale;
#X obj 489 13 inlet;
#X text 573 214 sineVol;
#X obj 199 646 outlet~;
#X obj 585 29 inlet;
#N canvas 0 23 450 300 vol_env 0;
#X obj 125 167 vline~;
#X obj 125 188 *~;
#X msg 115 115 0.5 \, 1 5 \, 0.5 60 5 \, 0 \$1 65;
#X obj 108 69 inlet;
#X obj 125 209 outlet~;
#X connect 0 0 1 0;
#X connect 0 0 1 1;
#X connect 1 0 4 0;
#X connect 2 0 0 0;
#X connect 3 0 2 0;
#X restore 51 502 pd vol_env;
#N canvas 0 23 450 300 pitch_env 0;
#X obj 37 37 inlet;
#X obj 33 107 vline~;
#X obj 36 222 mtof~;
#X msg 36 73 1 \, 0.5 5 \, 0 \$1 5;
#X obj 33 155 *~ 80;
#X obj 33 176 +~ 29;
#X obj 33 128 *~;
#X obj 36 243 outlet~;
#X connect 0 0 3 0;
#X connect 1 0 6 0;
#X connect 1 0 6 1;
#X connect 2 0 7 0;
#X connect 3 0 1 0;
#X connect 4 0 5 0;
#X connect 5 0 2 0;
#X connect 6 0 4 0;
#X restore 221 247 pd pitch_env;
#X obj 143 110 vsl 10 80 50 2000 1 0 empty kick_decay empty 0 -9 0
10 -262144 -1 -1 5153 1;
#X obj 158 110 vsl 10 80 0.1 3 0 0 empty kick_pitch empty 0 -9 0 10
-262144 -1 -1 0 1;
#X obj 186 109 vsl 10 80 0 2 0 0 empty kick_sine empty 0 -9 0 10 -262144
-1 -1 3160 1;
#X obj 172 110 vsl 10 80 0.1 3 0 0 empty kick_filter empty 0 -9 0 10
-262144 -1 -1 0 1;
#X msg 533 297 \; kick_decay 150 \; kick_pitch 0.5 \; kick_filter 1.5
\; kick_sine 1 \;;
#X obj 530 264 loadbang;
#X connect 0 0 16 1;
#X connect 2 0 4 1;
#X connect 4 0 5 0;
#X connect 5 0 7 0;
#X connect 6 0 16 0;
#X connect 7 0 11 0;
#X connect 8 0 11 0;
#X connect 9 0 10 1;
#X connect 10 0 11 1;
#X connect 11 1 12 1;
#X connect 12 0 25 0;
#X connect 13 0 12 1;
#X connect 14 0 15 1;
#X connect 15 0 13 0;
#X connect 16 0 27 0;
#X connect 16 0 28 0;
#X connect 17 0 6 0;
#X connect 18 0 29 0;
#X connect 20 0 30 0;
#X connect 23 0 32 0;
#X connect 26 0 31 0;
#X connect 27 0 12 0;
#X connect 28 0 4 0;
#X connect 28 0 10 0;
#X connect 28 0 15 0;
#X connect 29 0 0 0;
#X connect 30 0 2 0;
#X connect 31 0 14 0;
#X connect 32 0 9 0;
#X connect 34 0 33 0;
#X coords 0 -1 1 1 100 100 1 100 100;
