#N canvas 0 23 1024 723 12;
#X declare -lib Gem;
#X obj 18 69 declare -lib Gem;
#X obj 213 429 scopeXYZ~;
#X obj 147 399 gemhead;
#N canvas 0 23 450 300 gemwin 0;
#X obj 132 136 gemwin;
#X obj 67 89 outlet;
#X obj 67 10 inlet;
#X obj 67 41 route create;
#X msg 67 70 set destroy;
#X msg 142 68 set create;
#X msg 197 134 destroy;
#X msg 132 112 reset \, dim 600 600 \, create \, 1;
#X connect 2 0 3 0;
#X connect 3 0 4 0;
#X connect 3 0 7 0;
#X connect 3 1 5 0;
#X connect 3 1 6 0;
#X connect 4 0 1 0;
#X connect 5 0 1 0;
#X connect 6 0 0 0;
#X connect 7 0 0 0;
#X restore 18 40 pd gemwin;
#X msg 18 21 destroy;
#X msg 256 186 0;
#X msg 314 169 0.25;
#X obj 263 11 bng 15 250 50 0 empty empty empty 17 7 0 10 -262144 -1
-1;
#X obj 359 72 vsl 15 128 0 10 0 0 empty empty empty 0 -9 0 10 -262144
-1 -1 12700 1;
#X obj 146 88 +~ 1;
#X obj 147 117 /~ 2;
#X floatatom 358 253 5 0 0 0 - - -;
#X msg 316 30 5;
#X obj 151 175 snapshot~;
#X obj 186 137 metro 10;
#X obj 215 85 tgl 15 0 empty empty empty 17 7 0 10 -262144 -1 -1 1
1;
#X msg 125 246 length 100000;
#X obj 267 367 *~;
#X obj 388 66 vsl 15 128 0 3 0 0 empty empty empty 0 -9 0 10 -262144
-1 -1 12700 1;
#X obj 144 53 osc~ 3.33333;
#X obj 517 292 noise~;
#X obj 18 100 clock;
#X obj 561 270 vline~;
#X obj 514 343 *~;
#X obj 415 45 drumtrig;
#X msg 460 317 0;
#X obj 173 292 osc~ 1;
#X obj 217 348 *~;
#X obj 284 271 osc~ 4;
#X msg 108 347 draw point;
#X obj 415 274 del 100;
#X obj 655 142 gemhead;
#X obj 683 257 scopeXYZ;
#X msg 692 187 draw point;
#X obj 94 390 tgl 15 0 empty empty empty 17 7 0 10 -262144 -1 -1 1
1;
#X msg 744 92 0;
#X obj 764 38 bng 15 250 50 0 empty empty empty 17 7 0 10 -262144 -1
-1;
#X msg 840 91 0.25;
#X obj 799 270 *~;
#X obj 835 269 *~;
#X msg 621 299 draw linestrip;
#X msg 661 335 length 1000;
#X obj 395 350 pack 0 1000;
#X obj 594 425 +~ 1;
#X msg 392 314 0.5;
#X msg 536 469 0;
#X obj 491 426 del 100;
#X msg 468 466 1;
#X obj 509 562 vline~;
#X obj 513 608 pow~ 4;
#X obj 471 502 pack 0 100;
#X obj 748 141 osc~;
#X obj 786 141 triosc~;
#X obj 641 217 color 1 0 0;
#X obj 777 347 channelst;
#X msg 675 93 999;
#X msg 789 91 555;
#X connect 2 0 1 0;
#X connect 3 0 4 0;
#X connect 4 0 3 0;
#X connect 5 0 26 1;
#X connect 6 0 28 1;
#X connect 7 0 5 0;
#X connect 7 0 6 0;
#X connect 7 0 12 0;
#X connect 8 0 11 0;
#X connect 8 0 28 0;
#X connect 9 0 10 0;
#X connect 10 0 13 0;
#X connect 12 0 8 0;
#X connect 13 0 28 0;
#X connect 14 0 13 0;
#X connect 15 0 14 0;
#X connect 16 0 1 0;
#X connect 17 0 1 2;
#X connect 18 0 17 1;
#X connect 18 0 27 1;
#X connect 19 0 9 0;
#X connect 20 0 23 0;
#X connect 22 0 23 1;
#X connect 23 0 1 2;
#X connect 24 0 44 0;
#X connect 24 0 30 0;
#X connect 24 0 46 0;
#X connect 24 0 47 0;
#X connect 25 0 42 0;
#X connect 26 0 27 0;
#X connect 27 0 1 1;
#X connect 28 0 17 0;
#X connect 29 0 1 0;
#X connect 30 0 25 0;
#X connect 31 0 53 0;
#X connect 33 0 32 0;
#X connect 34 0 2 0;
#X connect 35 0 51 1;
#X connect 36 0 55 0;
#X connect 36 0 35 0;
#X connect 36 0 56 0;
#X connect 36 0 37 0;
#X connect 37 0 52 1;
#X connect 38 0 32 1;
#X connect 38 0 54 5;
#X connect 39 0 32 2;
#X connect 39 0 54 6;
#X connect 40 0 32 0;
#X connect 41 0 32 0;
#X connect 42 0 22 0;
#X connect 43 0 38 1;
#X connect 43 0 39 1;
#X connect 44 0 42 0;
#X connect 45 0 50 0;
#X connect 46 0 45 0;
#X connect 47 0 50 0;
#X connect 48 0 49 0;
#X connect 49 0 43 0;
#X connect 50 0 48 0;
#X connect 51 0 38 0;
#X connect 52 0 39 0;
#X connect 53 0 32 0;
#X connect 55 0 51 0;
#X connect 56 0 52 0;
