#N canvas 376 23 990 723 12;
#X obj 20 454 osc~ 9;
#X obj 20 511 osc~ 10;
#X obj 20 399 osc~ 0.8;
#X obj 317 651 dac~;
#X obj 28 669 vcf~;
#X obj 126 555 +~ 1;
#X obj 126 591 /~ 2;
#X obj 20 566 +~;
#X obj 20 67 phasor~ 0.02;
#X obj 20 39 *~ 1;
#X obj 20 93 *~ 2;
#X obj 20 150 *~ 3;
#X obj 20 206 *~ 4;
#X obj 20 258 *~ 5;
#X obj 20 311 *~ 6;
#X obj 20 370 *~ 7;
#X obj 20 122 phasor~ 0.3;
#X obj 20 179 phasor~ 0.4;
#X obj 20 233 phasor~ 0.5;
#X obj 20 283 osc~ 0.6;
#X obj 20 341 osc~ 0.7;
#X obj 20 483 *~ 200;
#X obj 20 426 *~ 0.8;
#X obj 286 166 random 10;
#X obj 127 620 *~ 10000;
#X obj 120 327 samppad;
#X obj 142 502 dac~;
#X obj 158 132 clock;
#X obj 199 453 channelst;
#X obj 399 11 drumtrig;
#X obj 20 12 osc~ 0.01;
#X obj 275 256 mtof;
#X obj 623 12 drumtrig;
#X obj 870 693 dac~;
#X obj 743 433 channelst;
#X msg 352 237 48;
#X floatatom 439 284 5 0 0 0 - - -;
#X obj 741 305 ks;
#X obj 9 604 osc~;
#X obj 272 226 + 48;
#X obj 286 197 * 3;
#X obj 20 539 *~ 60;
#X obj 504 658 dac~;
#X obj 386 460 channelst;
#X obj 687 697 dac~;
#X obj 564 453 channelst;
#X obj 65 598 triosc~;
#X connect 0 0 21 0;
#X connect 1 0 41 0;
#X connect 2 0 22 0;
#X connect 4 0 28 5;
#X connect 5 0 6 0;
#X connect 6 0 24 0;
#X connect 7 0 5 0;
#X connect 7 0 38 0;
#X connect 7 0 46 0;
#X connect 8 0 10 0;
#X connect 9 0 8 0;
#X connect 10 0 16 0;
#X connect 11 0 17 0;
#X connect 12 0 18 0;
#X connect 13 0 19 0;
#X connect 14 0 20 0;
#X connect 15 0 2 0;
#X connect 16 0 11 0;
#X connect 17 0 12 0;
#X connect 18 0 13 0;
#X connect 19 0 14 0;
#X connect 20 0 15 0;
#X connect 21 0 1 0;
#X connect 22 0 0 0;
#X connect 23 0 40 0;
#X connect 24 0 4 1;
#X connect 25 0 26 0;
#X connect 25 0 26 1;
#X connect 25 2 45 4;
#X connect 25 3 45 5;
#X connect 27 2 25 0;
#X connect 28 0 3 0;
#X connect 28 1 3 1;
#X connect 29 0 23 0;
#X connect 30 0 9 0;
#X connect 31 0 7 1;
#X connect 31 0 36 0;
#X connect 32 0 25 2;
#X connect 34 0 33 0;
#X connect 34 1 33 1;
#X connect 35 0 31 0;
#X connect 37 0 34 5;
#X connect 38 0 4 0;
#X connect 39 0 31 0;
#X connect 39 0 37 4;
#X connect 39 0 37 5;
#X connect 40 0 39 0;
#X connect 41 0 7 0;
#X connect 43 0 42 0;
#X connect 43 1 42 1;
#X connect 45 0 44 0;
#X connect 45 1 44 1;
#X connect 46 0 43 4;
