#N canvas 0 0 1024 746 12;
#X obj 162 174 osc~;
#X obj 205 174 osc~;
#X obj 251 173 osc~;
#X obj 294 173 osc~;
#X obj 204 115 * 2;
#X floatatom 158 81 5 0 0 0 - - -;
#X obj 224 283 *~;
#X obj 372 172 osc~;
#X obj 415 172 osc~;
#X obj 461 171 osc~;
#X obj 504 171 osc~;
#X floatatom 368 79 5 0 0 0 - - -;
#X obj 434 281 *~;
#X obj 179 47 mtof;
#X obj 368 30 mtof;
#X obj 299 311 channelst;
#X obj 329 65 vsl 15 128 0 1 0 0 empty empty empty 0 -9 0 10 -262144
-1 -1 2800 1;
#X obj 330 201 pow 2;
#X obj 330 243 sig~;
#X obj 370 53 + 2;
#X obj 315 648 dac~;
#X obj 631 181 osc~;
#X obj 674 181 osc~;
#X obj 720 180 osc~;
#X obj 763 180 osc~;
#X floatatom 627 88 5 0 0 0 - - -;
#X obj 693 290 *~;
#X obj 627 39 mtof;
#X obj 593 243 vsl 15 128 0 1 0 0 empty empty empty 0 -9 0 10 -262144
-1 -1 5200 1;
#X obj 594 379 pow 2;
#X obj 594 421 sig~;
#X obj 388 313 channelst;
#X obj 403 638 dac~;
#X obj 722 121 * 8;
#X obj 673 122 * 6;
#X obj 768 120 * 10;
#X obj 510 537 samppad;
#X obj 478 528 vsl 15 128 0 1 0 0 empty empty empty 0 -9 0 10 -262144
-1 -1 12700 1;
#X obj 479 664 pow 2;
#X obj 479 706 sig~;
#X obj 530 684 *~;
#X obj 617 704 dac~;
#X obj 32 46 clock;
#X obj 772 224 drumtrig;
#X obj 630 62 + 4;
#X obj 513 38 + 5;
#X obj 463 112 * 9;
#X obj 61 180 bng 15 250 50 0 empty empty empty 17 7 0 10 -262144 -1
-1;
#X obj 61 200 random 6;
#X obj 56 254 + 50;
#X msg 234 16 \$1;
#X obj 509 111 * 10;
#X obj 414 113 * 8;
#X obj 253 114 * 3;
#X obj 299 113 * 7;
#X obj 220 593 freeverb~;
#X obj 828 -1 drumtrig;
#X obj 989 217 drumtrig;
#X connect 0 0 6 0;
#X connect 1 0 6 0;
#X connect 2 0 6 0;
#X connect 3 0 6 0;
#X connect 4 0 1 0;
#X connect 5 0 0 0;
#X connect 5 0 4 0;
#X connect 5 0 53 0;
#X connect 5 0 54 0;
#X connect 6 0 15 4;
#X connect 7 0 12 0;
#X connect 8 0 12 0;
#X connect 9 0 12 0;
#X connect 10 0 12 0;
#X connect 11 0 7 0;
#X connect 11 0 46 0;
#X connect 11 0 51 0;
#X connect 11 0 52 0;
#X connect 12 0 15 5;
#X connect 13 0 5 0;
#X connect 14 0 19 0;
#X connect 15 0 20 0;
#X connect 15 0 55 0;
#X connect 15 1 20 1;
#X connect 15 1 55 1;
#X connect 16 0 17 0;
#X connect 17 0 18 0;
#X connect 18 0 6 1;
#X connect 18 0 12 1;
#X connect 19 0 11 0;
#X connect 21 0 26 0;
#X connect 22 0 26 0;
#X connect 23 0 26 0;
#X connect 24 0 26 0;
#X connect 25 0 21 0;
#X connect 25 0 33 0;
#X connect 25 0 34 0;
#X connect 25 0 35 0;
#X connect 26 0 31 4;
#X connect 27 0 44 0;
#X connect 28 0 29 0;
#X connect 29 0 30 0;
#X connect 30 0 26 1;
#X connect 31 0 32 0;
#X connect 31 1 32 1;
#X connect 33 0 23 0;
#X connect 34 0 22 0;
#X connect 35 0 24 0;
#X connect 36 0 40 0;
#X connect 36 2 40 0;
#X connect 36 4 40 0;
#X connect 37 0 38 0;
#X connect 38 0 39 0;
#X connect 39 0 40 1;
#X connect 40 0 41 0;
#X connect 40 0 41 1;
#X connect 42 2 47 0;
#X connect 43 0 36 0;
#X connect 44 0 25 0;
#X connect 45 0 27 0;
#X connect 46 0 9 0;
#X connect 47 0 48 0;
#X connect 48 0 49 0;
#X connect 49 0 50 0;
#X connect 50 0 13 0;
#X connect 50 0 14 0;
#X connect 50 0 45 0;
#X connect 51 0 10 0;
#X connect 52 0 8 0;
#X connect 53 0 2 0;
#X connect 54 0 3 0;
#X connect 55 0 20 0;
#X connect 55 1 20 1;
#X connect 56 0 36 2;
#X connect 57 0 36 4;
