#N canvas 0 22 1282 749 12;
#X obj 87 864 throw~ matrixal;
#X obj 216 867 throw~ matrixar;
#X obj 349 865 throw~ matrixbl;
#X obj 601 868 throw~ matrixcl;
#X obj 847 867 throw~ matrixdl;
#X obj 971 867 throw~ matrixdr;
#X obj 1092 866 throw~ matrixel;
#X obj 94 808 inlet~;
#X obj 223 807 inlet~;
#X obj 349 807 inlet~;
#X obj 478 806 inlet~;
#X obj 608 810 inlet~;
#X obj 737 809 inlet~;
#X obj 847 807 inlet~;
#X obj 978 808 inlet~;
#X obj 1096 807 inlet~;
#X obj 1227 808 inlet~;
#X obj 23 941 catch~ matrixoal;
#X obj 153 939 catch~ matrixoar;
#X obj 295 939 catch~ matrixobl;
#X obj 425 937 catch~ matrixobr;
#X obj 576 936 catch~ matrixocl;
#X obj 706 934 catch~ matrixocr;
#X obj 848 934 catch~ matrixodl;
#X obj 978 932 catch~ matrixodr;
#X obj 1105 933 catch~ matrixoel;
#X obj 1235 931 catch~ matrixoer;
#X obj 1377 931 catch~ matrixofl;
#X obj 1507 929 catch~ matrixofr;
#X obj 36 992 outlet~;
#X obj 160 997 outlet~;
#X obj 316 999 outlet~;
#X obj 440 1004 outlet~;
#X obj 578 988 outlet~;
#X obj 702 993 outlet~;
#X obj 858 995 outlet~;
#X obj 982 1000 outlet~;
#X obj 1094 998 outlet~;
#X obj 1218 1003 outlet~;
#X obj 1374 1005 outlet~;
#X obj 1498 1010 outlet~;
#X obj 479 867 throw~ matrixbr;
#X obj 723 869 throw~ matrixcr;
#X obj 1213 866 throw~ matrixer;
#X connect 7 0 0 0;
#X connect 8 0 1 0;
#X connect 9 0 2 0;
#X connect 10 0 41 0;
#X connect 11 0 3 0;
#X connect 12 0 42 0;
#X connect 13 0 4 0;
#X connect 14 0 5 0;
#X connect 15 0 6 0;
#X connect 16 0 43 0;
#X connect 17 0 29 0;
#X connect 18 0 30 0;
#X connect 19 0 31 0;
#X connect 20 0 32 0;
#X connect 21 0 33 0;
#X connect 22 0 34 0;
#X connect 23 0 35 0;
#X connect 24 0 36 0;
#X connect 25 0 37 0;
#X connect 26 0 38 0;
#X connect 27 0 39 0;
#X connect 28 0 40 0;
