#N canvas 0 22 1680 1006 12;
#X obj 371 253 catch~ add\$0;
#X obj 353 131 osc~;
#X obj 348 62 r f\$0;
#X obj 372 216 throw~ add\$0;
#X obj 390 157 vline~;
#X obj 390 130 pack 0 20;
#X obj 372 185 *~;
#X obj 390 106 pow 2;
#X obj 461 130 osc~;
#X obj 456 61 r f\$0;
#X obj 480 215 throw~ add\$0;
#X obj 498 156 vline~;
#X obj 498 129 pack 0 20;
#X obj 480 184 *~;
#X obj 498 105 pow 2;
#X obj 568 129 osc~;
#X obj 563 60 r f\$0;
#X obj 587 214 throw~ add\$0;
#X obj 605 155 vline~;
#X obj 605 128 pack 0 20;
#X obj 587 183 *~;
#X obj 605 104 pow 2;
#X obj 676 128 osc~;
#X obj 671 59 r f\$0;
#X obj 695 213 throw~ add\$0;
#X obj 713 154 vline~;
#X obj 713 127 pack 0 20;
#X obj 695 182 *~;
#X obj 713 103 pow 2;
#X obj 784 127 osc~;
#X obj 779 58 r f\$0;
#X obj 803 212 throw~ add\$0;
#X obj 821 153 vline~;
#X obj 821 126 pack 0 20;
#X obj 803 181 *~;
#X obj 821 102 pow 2;
#X obj 892 126 osc~;
#X obj 887 57 r f\$0;
#X obj 911 211 throw~ add\$0;
#X obj 929 152 vline~;
#X obj 929 125 pack 0 20;
#X obj 911 180 *~;
#X obj 929 101 pow 2;
#X obj 999 125 osc~;
#X obj 994 56 r f\$0;
#X obj 1018 210 throw~ add\$0;
#X obj 1036 151 vline~;
#X obj 1036 124 pack 0 20;
#X obj 1018 179 *~;
#X obj 1036 100 pow 2;
#X obj 1107 124 osc~;
#X obj 1102 55 r f\$0;
#X obj 1126 209 throw~ add\$0;
#X obj 1144 150 vline~;
#X obj 1144 123 pack 0 20;
#X obj 1126 178 *~;
#X obj 1144 99 pow 2;
#X obj 2106 110 osc~;
#X obj 2101 41 r f\$0;
#X obj 2125 195 throw~ add\$0;
#X obj 2143 136 vline~;
#X obj 2161 -91 vsl 15 128 0 1 0 0 empty empty empty 0 -9 0 10 -262144
-1 -1 2743 1;
#X obj 2143 109 pack 0 20;
#X obj 2125 164 *~;
#X obj 2143 85 pow 2;
#X obj 2214 109 osc~;
#X obj 2209 40 r f\$0;
#X obj 2233 194 throw~ add\$0;
#X obj 2251 135 vline~;
#X obj 2251 108 pack 0 20;
#X obj 2233 163 *~;
#X obj 2251 84 pow 2;
#X obj 2321 108 osc~;
#X obj 2316 39 r f\$0;
#X obj 2340 193 throw~ add\$0;
#X obj 2358 134 vline~;
#X obj 2358 107 pack 0 20;
#X obj 2340 162 *~;
#X obj 2358 83 pow 2;
#X obj 2429 107 osc~;
#X obj 2424 38 r f\$0;
#X obj 2448 192 throw~ add\$0;
#X obj 2466 133 vline~;
#X obj 2466 106 pack 0 20;
#X obj 2448 161 *~;
#X obj 2466 82 pow 2;
#X obj 2537 106 osc~;
#X obj 2532 37 r f\$0;
#X obj 2556 191 throw~ add\$0;
#X obj 2574 132 vline~;
#X obj 2574 105 pack 0 20;
#X obj 2556 160 *~;
#X obj 2574 81 pow 2;
#X obj 2645 105 osc~;
#X obj 2640 36 r f\$0;
#X obj 2664 190 throw~ add\$0;
#X obj 2682 131 vline~;
#X obj 2682 104 pack 0 20;
#X obj 2664 159 *~;
#X obj 2682 80 pow 2;
#X obj 2752 104 osc~;
#X obj 2747 35 r f\$0;
#X obj 2771 189 throw~ add\$0;
#X obj 2789 130 vline~;
#X obj 2789 103 pack 0 20;
#X obj 2771 158 *~;
#X obj 2789 79 pow 2;
#X obj 2860 103 osc~;
#X obj 2855 34 r f\$0;
#X obj 2879 188 throw~ add\$0;
#X obj 2897 129 vline~;
#X obj 2897 102 pack 0 20;
#X obj 2879 157 *~;
#X obj 2897 78 pow 2;
#X obj 1220 122 osc~;
#X obj 1215 53 r f\$0;
#X obj 1239 207 throw~ add\$0;
#X obj 1257 148 vline~;
#X obj 1257 121 pack 0 20;
#X obj 1239 176 *~;
#X obj 1257 97 pow 2;
#X obj 1328 121 osc~;
#X obj 1323 52 r f\$0;
#X obj 1347 206 throw~ add\$0;
#X obj 1365 147 vline~;
#X obj 1365 120 pack 0 20;
#X obj 1347 175 *~;
#X obj 1365 96 pow 2;
#X obj 1435 120 osc~;
#X obj 1430 51 r f\$0;
#X obj 1454 205 throw~ add\$0;
#X obj 1472 146 vline~;
#X obj 1472 119 pack 0 20;
#X obj 1454 174 *~;
#X obj 1472 95 pow 2;
#X obj 1543 119 osc~;
#X obj 1538 50 r f\$0;
#X obj 1562 204 throw~ add\$0;
#X obj 1580 145 vline~;
#X obj 1580 118 pack 0 20;
#X obj 1562 173 *~;
#X obj 1580 94 pow 2;
#X obj 1651 118 osc~;
#X obj 1646 49 r f\$0;
#X obj 1670 203 throw~ add\$0;
#X obj 1688 144 vline~;
#X obj 1688 117 pack 0 20;
#X obj 1670 172 *~;
#X obj 1688 93 pow 2;
#X obj 1759 117 osc~;
#X obj 1754 48 r f\$0;
#X obj 1778 202 throw~ add\$0;
#X obj 1796 143 vline~;
#X obj 1796 116 pack 0 20;
#X obj 1778 171 *~;
#X obj 1796 92 pow 2;
#X obj 1866 116 osc~;
#X obj 1861 47 r f\$0;
#X obj 1885 201 throw~ add\$0;
#X obj 1903 142 vline~;
#X obj 1903 115 pack 0 20;
#X obj 1885 170 *~;
#X obj 1903 91 pow 2;
#X obj 1974 115 osc~;
#X obj 1969 46 r f\$0;
#X obj 1993 200 throw~ add\$0;
#X obj 2011 141 vline~;
#X obj 2011 114 pack 0 20;
#X obj 1993 169 *~;
#X obj 2011 90 pow 2;
#X obj 354 103 * 1;
#X obj 462 102 * 2;
#X obj 569 101 * 3;
#X obj 677 100 * 4;
#X obj 785 99 * 5;
#X obj 893 98 * 6;
#X obj 1000 97 * 7;
#X obj 1108 96 * 8;
#X obj 1221 94 * 9;
#X obj 1329 93 * 10;
#X obj 1436 92 * 11;
#X obj 1544 91 * 12;
#X obj 1652 90 * 13;
#X obj 1760 89 * 14;
#X obj 1867 88 * 15;
#X obj 1975 87 * 16;
#X obj 116 142 vsl 15 128 0 440 0 0 empty empty empty 0 -9 0 10 -262144
-1 -1 749 1;
#X obj 71 356 s f\$0;
#X obj 2107 82 * 17;
#X obj 2215 81 * 18;
#X obj 2322 80 * 19;
#X obj 2430 79 * 20;
#X obj 2538 78 * 21;
#X obj 2646 77 * 22;
#X obj 2753 76 * 23;
#X obj 2861 75 * 24;
#X obj 193 44 bng 15 250 50 0 empty empty empty 17 7 0 10 -262144 -1
-1;
#X obj 140 143 vsl 15 128 0 2000 0 0 empty empty empty 0 -9 0 10 -262144
-1 -1 12700 1;
#X obj 138 408 s t\$0;
#X obj 2148 -230 random 100;
#X obj 2148 -198 / 100;
#X obj 2148 -171 pack 0 $f1;
#X obj 2214 -198 r t\$0;
#X obj 2149 -144 line;
#X obj 2151 -264 r r\$0;
#X obj 191 72 s r\$0;
#X obj 167 351 s a\$0;
#X obj 167 141 vsl 15 128 0 1 0 0 empty empty empty 0 -9 0 10 -262144
-1 -1 12700 1;
#X obj 2195 -264 r a\$0;
#X obj 2269 -91 vsl 15 128 0 1 0 0 empty empty empty 0 -9 0 10 -262144
-1 -1 3099 1;
#X obj 2256 -230 random 100;
#X obj 2256 -198 / 100;
#X obj 2256 -171 pack 0 $f1;
#X obj 2322 -198 r t\$0;
#X obj 2257 -144 line;
#X obj 2259 -264 r r\$0;
#X obj 2303 -264 r a\$0;
#X obj 2380 -92 vsl 15 128 0 1 0 0 empty empty empty 0 -9 0 10 -262144
-1 -1 9855 1;
#X obj 2367 -231 random 100;
#X obj 2367 -199 / 100;
#X obj 2367 -172 pack 0 $f1;
#X obj 2433 -199 r t\$0;
#X obj 2368 -145 line;
#X obj 2370 -265 r r\$0;
#X obj 2414 -265 r a\$0;
#X obj 2488 -92 vsl 15 128 0 1 0 0 empty empty empty 0 -9 0 10 -262144
-1 -1 2946 1;
#X obj 2475 -231 random 100;
#X obj 2475 -199 / 100;
#X obj 2475 -172 pack 0 $f1;
#X obj 2541 -199 r t\$0;
#X obj 2476 -145 line;
#X obj 2478 -265 r r\$0;
#X obj 2522 -265 r a\$0;
#X obj 2614 -96 vsl 15 128 0 1 0 0 empty empty empty 0 -9 0 10 -262144
-1 -1 3099 1;
#X obj 2601 -235 random 100;
#X obj 2601 -203 / 100;
#X obj 2601 -176 pack 0 $f1;
#X obj 2667 -203 r t\$0;
#X obj 2602 -149 line;
#X obj 2604 -269 r r\$0;
#X obj 2648 -269 r a\$0;
#X obj 2722 -96 vsl 15 128 0 1 0 0 empty empty empty 0 -9 0 10 -262144
-1 -1 5588 1;
#X obj 2709 -235 random 100;
#X obj 2709 -203 / 100;
#X obj 2709 -176 pack 0 $f1;
#X obj 2775 -203 r t\$0;
#X obj 2710 -149 line;
#X obj 2712 -269 r r\$0;
#X obj 2756 -269 r a\$0;
#X obj 2833 -97 vsl 15 128 0 1 0 0 empty empty empty 0 -9 0 10 -262144
-1 -1 8763 1;
#X obj 2820 -236 random 100;
#X obj 2820 -204 / 100;
#X obj 2820 -177 pack 0 $f1;
#X obj 2886 -204 r t\$0;
#X obj 2821 -150 line;
#X obj 2823 -270 r r\$0;
#X obj 2867 -270 r a\$0;
#X obj 2941 -97 vsl 15 128 0 1 0 0 empty empty empty 0 -9 0 10 -262144
-1 -1 7772 1;
#X obj 2928 -236 random 100;
#X obj 2928 -204 / 100;
#X obj 2928 -177 pack 0 $f1;
#X obj 2994 -204 r t\$0;
#X obj 2929 -150 line;
#X obj 2931 -270 r r\$0;
#X obj 2975 -270 r a\$0;
#X obj 392 -79 vsl 15 128 0 1 0 0 empty empty empty 0 -9 0 10 -262144
-1 -1 11227 1;
#X obj 379 -221 random 100;
#X obj 379 -189 / 100;
#X obj 379 -162 pack 0 $f1;
#X obj 445 -189 r t\$0;
#X obj 380 -135 line;
#X obj 382 -255 r r\$0;
#X obj 426 -255 r a\$0;
#X obj 500 -82 vsl 15 128 0 1 0 0 empty empty empty 0 -9 0 10 -262144
-1 -1 5359 1;
#X obj 487 -221 random 100;
#X obj 487 -189 / 100;
#X obj 487 -162 pack 0 $f1;
#X obj 553 -189 r t\$0;
#X obj 488 -135 line;
#X obj 490 -255 r r\$0;
#X obj 534 -255 r a\$0;
#X obj 611 -83 vsl 15 128 0 1 0 0 empty empty empty 0 -9 0 10 -262144
-1 -1 4318 1;
#X obj 598 -222 random 100;
#X obj 598 -190 / 100;
#X obj 598 -163 pack 0 $f1;
#X obj 664 -190 r t\$0;
#X obj 599 -136 line;
#X obj 601 -256 r r\$0;
#X obj 645 -256 r a\$0;
#X obj 719 -83 vsl 15 128 0 1 0 0 empty empty empty 0 -9 0 10 -262144
-1 -1 2870 1;
#X obj 706 -222 random 100;
#X obj 706 -190 / 100;
#X obj 706 -163 pack 0 $f1;
#X obj 772 -190 r t\$0;
#X obj 707 -136 line;
#X obj 709 -256 r r\$0;
#X obj 753 -256 r a\$0;
#X obj 845 -87 vsl 15 128 0 1 0 0 empty empty empty 0 -9 0 10 -262144
-1 -1 940 1;
#X obj 832 -226 random 100;
#X obj 832 -194 / 100;
#X obj 832 -167 pack 0 $f1;
#X obj 898 -194 r t\$0;
#X obj 833 -140 line;
#X obj 835 -260 r r\$0;
#X obj 879 -260 r a\$0;
#X obj 953 -87 vsl 15 128 0 1 0 0 empty empty empty 0 -9 0 10 -262144
-1 -1 2565 1;
#X obj 940 -226 random 100;
#X obj 940 -194 / 100;
#X obj 940 -167 pack 0 $f1;
#X obj 1006 -194 r t\$0;
#X obj 941 -140 line;
#X obj 943 -260 r r\$0;
#X obj 987 -260 r a\$0;
#X obj 1064 -88 vsl 15 128 0 1 0 0 empty empty empty 0 -9 0 10 -262144
-1 -1 1676 1;
#X obj 1051 -227 random 100;
#X obj 1051 -195 / 100;
#X obj 1051 -168 pack 0 $f1;
#X obj 1117 -195 r t\$0;
#X obj 1052 -141 line;
#X obj 1054 -261 r r\$0;
#X obj 1098 -261 r a\$0;
#X obj 1172 -88 vsl 15 128 0 1 0 0 empty empty empty 0 -9 0 10 -262144
-1 -1 4699 1;
#X obj 1159 -227 random 100;
#X obj 1159 -195 / 100;
#X obj 1159 -168 pack 0 $f1;
#X obj 1225 -195 r t\$0;
#X obj 1160 -141 line;
#X obj 1162 -261 r r\$0;
#X obj 1206 -261 r a\$0;
#X obj 1284 -90 vsl 15 128 0 1 0 0 empty empty empty 0 -9 0 10 -262144
-1 -1 1956 1;
#X obj 1271 -229 random 100;
#X obj 1271 -197 / 100;
#X obj 1271 -170 pack 0 $f1;
#X obj 1337 -197 r t\$0;
#X obj 1272 -143 line;
#X obj 1274 -263 r r\$0;
#X obj 1318 -263 r a\$0;
#X obj 1392 -90 vsl 15 128 0 1 0 0 empty empty empty 0 -9 0 10 -262144
-1 -1 1803 1;
#X obj 1379 -229 random 100;
#X obj 1379 -197 / 100;
#X obj 1379 -170 pack 0 $f1;
#X obj 1445 -197 r t\$0;
#X obj 1380 -143 line;
#X obj 1382 -263 r r\$0;
#X obj 1426 -263 r a\$0;
#X obj 1503 -91 vsl 15 128 0 1 0 0 empty empty empty 0 -9 0 10 -262144
-1 -1 5563 1;
#X obj 1490 -230 random 100;
#X obj 1490 -198 / 100;
#X obj 1490 -171 pack 0 $f1;
#X obj 1556 -198 r t\$0;
#X obj 1491 -144 line;
#X obj 1493 -264 r r\$0;
#X obj 1537 -264 r a\$0;
#X obj 1611 -91 vsl 15 128 0 1 0 0 empty empty empty 0 -9 0 10 -262144
-1 -1 12522 1;
#X obj 1598 -230 random 100;
#X obj 1598 -198 / 100;
#X obj 1598 -171 pack 0 $f1;
#X obj 1664 -198 r t\$0;
#X obj 1599 -144 line;
#X obj 1601 -264 r r\$0;
#X obj 1645 -264 r a\$0;
#X obj 1737 -95 vsl 15 128 0 1 0 0 empty empty empty 0 -9 0 10 -262144
-1 -1 7544 1;
#X obj 1724 -234 random 100;
#X obj 1724 -202 / 100;
#X obj 1724 -175 pack 0 $f1;
#X obj 1790 -202 r t\$0;
#X obj 1725 -148 line;
#X obj 1727 -268 r r\$0;
#X obj 1771 -268 r a\$0;
#X obj 1845 -95 vsl 15 128 0 1 0 0 empty empty empty 0 -9 0 10 -262144
-1 -1 10287 1;
#X obj 1832 -234 random 100;
#X obj 1832 -202 / 100;
#X obj 1832 -175 pack 0 $f1;
#X obj 1898 -202 r t\$0;
#X obj 1833 -148 line;
#X obj 1835 -268 r r\$0;
#X obj 1879 -268 r a\$0;
#X obj 1956 -96 vsl 15 128 0 1 0 0 empty empty empty 0 -9 0 10 -262144
-1 -1 7442 1;
#X obj 1943 -235 random 100;
#X obj 1943 -203 / 100;
#X obj 1943 -176 pack 0 $f1;
#X obj 2009 -203 r t\$0;
#X obj 1944 -149 line;
#X obj 1946 -269 r r\$0;
#X obj 1990 -269 r a\$0;
#X obj 2064 -96 vsl 15 128 0 1 0 0 empty empty empty 0 -9 0 10 -262144
-1 -1 10744 1;
#X obj 2051 -235 random 100;
#X obj 2051 -203 / 100;
#X obj 2051 -176 pack 0 $f1;
#X obj 2102 -205 r t\$0;
#X obj 2052 -149 line;
#X obj 2054 -269 r r\$0;
#X obj 2098 -269 r a\$0;
#X floatatom 124 374 5 0 0 0 - - -;
#X obj 189 -35 metro 2000;
#X obj 192 141 vsl 15 128 0 2000 0 0 empty empty empty 0 -9 0 10 -262144
-1 -1 12700 1;
#X obj 83 79 mtof;
#X msg 62 -62 36;
#X obj 162 -57 tgl 15 0 empty empty empty 17 7 0 10 -262144 -1 -1 1
1;
#X msg 111 -63 40;
#X obj 77 33 line;
#X msg 76 -28 48;
#X obj 81 57 +;
#X msg 161 40 -12;
#X msg 158 13 0;
#X msg 156 -12 12;
#X obj 155 70 bng 15 250 50 0 empty empty empty 17 7 0 10 -262144 -1
-1;
#X obj 248 -71 loadbang;
#X obj 340 358 outlet~;
#X obj 404 360 outlet~;
#X obj 439 300 /~ 6;
#X obj 415 389 channelst;
#X obj 492 688 dac~;
#X obj 637 381 samppad;
#X obj 1261 301 clock;
#X obj 1258 426 drumtrig;
#X obj 521 389 channelst;
#X obj 68 6 pack 0 1000;
#X obj 1480 425 drumtrig;
#X obj 715 573 freeverb~;
#X obj 815 541 channelst;
#X obj 1032 541 drumtrig;
#X obj 899 541 channelst;
#X msg 27 -28 20;
#X connect 0 0 410 0;
#X connect 1 0 6 0;
#X connect 2 0 170 0;
#X connect 4 0 6 1;
#X connect 5 0 4 0;
#X connect 6 0 3 0;
#X connect 7 0 5 0;
#X connect 8 0 13 0;
#X connect 9 0 171 0;
#X connect 11 0 13 1;
#X connect 12 0 11 0;
#X connect 13 0 10 0;
#X connect 14 0 12 0;
#X connect 15 0 20 0;
#X connect 16 0 172 0;
#X connect 18 0 20 1;
#X connect 19 0 18 0;
#X connect 20 0 17 0;
#X connect 21 0 19 0;
#X connect 22 0 27 0;
#X connect 23 0 173 0;
#X connect 25 0 27 1;
#X connect 26 0 25 0;
#X connect 27 0 24 0;
#X connect 28 0 26 0;
#X connect 29 0 34 0;
#X connect 30 0 174 0;
#X connect 32 0 34 1;
#X connect 33 0 32 0;
#X connect 34 0 31 0;
#X connect 35 0 33 0;
#X connect 36 0 41 0;
#X connect 37 0 175 0;
#X connect 39 0 41 1;
#X connect 40 0 39 0;
#X connect 41 0 38 0;
#X connect 42 0 40 0;
#X connect 43 0 48 0;
#X connect 44 0 176 0;
#X connect 46 0 48 1;
#X connect 47 0 46 0;
#X connect 48 0 45 0;
#X connect 49 0 47 0;
#X connect 50 0 55 0;
#X connect 51 0 177 0;
#X connect 53 0 55 1;
#X connect 54 0 53 0;
#X connect 55 0 52 0;
#X connect 56 0 54 0;
#X connect 57 0 63 0;
#X connect 58 0 188 0;
#X connect 60 0 63 1;
#X connect 61 0 64 0;
#X connect 62 0 60 0;
#X connect 63 0 59 0;
#X connect 64 0 62 0;
#X connect 65 0 70 0;
#X connect 66 0 189 0;
#X connect 68 0 70 1;
#X connect 69 0 68 0;
#X connect 70 0 67 0;
#X connect 71 0 69 0;
#X connect 72 0 77 0;
#X connect 73 0 190 0;
#X connect 75 0 77 1;
#X connect 76 0 75 0;
#X connect 77 0 74 0;
#X connect 78 0 76 0;
#X connect 79 0 84 0;
#X connect 80 0 191 0;
#X connect 82 0 84 1;
#X connect 83 0 82 0;
#X connect 84 0 81 0;
#X connect 85 0 83 0;
#X connect 86 0 91 0;
#X connect 87 0 192 0;
#X connect 89 0 91 1;
#X connect 90 0 89 0;
#X connect 91 0 88 0;
#X connect 92 0 90 0;
#X connect 93 0 98 0;
#X connect 94 0 193 0;
#X connect 96 0 98 1;
#X connect 97 0 96 0;
#X connect 98 0 95 0;
#X connect 99 0 97 0;
#X connect 100 0 105 0;
#X connect 101 0 194 0;
#X connect 103 0 105 1;
#X connect 104 0 103 0;
#X connect 105 0 102 0;
#X connect 106 0 104 0;
#X connect 107 0 112 0;
#X connect 108 0 195 0;
#X connect 110 0 112 1;
#X connect 111 0 110 0;
#X connect 112 0 109 0;
#X connect 113 0 111 0;
#X connect 114 0 119 0;
#X connect 115 0 178 0;
#X connect 117 0 119 1;
#X connect 118 0 117 0;
#X connect 119 0 116 0;
#X connect 120 0 118 0;
#X connect 121 0 126 0;
#X connect 122 0 179 0;
#X connect 124 0 126 1;
#X connect 125 0 124 0;
#X connect 126 0 123 0;
#X connect 127 0 125 0;
#X connect 128 0 133 0;
#X connect 129 0 180 0;
#X connect 131 0 133 1;
#X connect 132 0 131 0;
#X connect 133 0 130 0;
#X connect 134 0 132 0;
#X connect 135 0 140 0;
#X connect 136 0 181 0;
#X connect 138 0 140 1;
#X connect 139 0 138 0;
#X connect 140 0 137 0;
#X connect 141 0 139 0;
#X connect 142 0 147 0;
#X connect 143 0 182 0;
#X connect 145 0 147 1;
#X connect 146 0 145 0;
#X connect 147 0 144 0;
#X connect 148 0 146 0;
#X connect 149 0 154 0;
#X connect 150 0 183 0;
#X connect 152 0 154 1;
#X connect 153 0 152 0;
#X connect 154 0 151 0;
#X connect 155 0 153 0;
#X connect 156 0 161 0;
#X connect 157 0 184 0;
#X connect 159 0 161 1;
#X connect 160 0 159 0;
#X connect 161 0 158 0;
#X connect 162 0 160 0;
#X connect 163 0 168 0;
#X connect 164 0 185 0;
#X connect 166 0 168 1;
#X connect 167 0 166 0;
#X connect 168 0 165 0;
#X connect 169 0 167 0;
#X connect 170 0 1 0;
#X connect 171 0 8 0;
#X connect 172 0 15 0;
#X connect 173 0 22 0;
#X connect 174 0 29 0;
#X connect 175 0 36 0;
#X connect 176 0 43 0;
#X connect 177 0 50 0;
#X connect 178 0 114 0;
#X connect 179 0 121 0;
#X connect 180 0 128 0;
#X connect 181 0 135 0;
#X connect 182 0 142 0;
#X connect 183 0 149 0;
#X connect 184 0 156 0;
#X connect 185 0 163 0;
#X connect 186 0 187 0;
#X connect 188 0 57 0;
#X connect 189 0 65 0;
#X connect 190 0 72 0;
#X connect 191 0 79 0;
#X connect 192 0 86 0;
#X connect 193 0 93 0;
#X connect 194 0 100 0;
#X connect 195 0 107 0;
#X connect 196 0 205 0;
#X connect 197 0 198 0;
#X connect 197 0 393 0;
#X connect 199 0 200 0;
#X connect 200 0 201 0;
#X connect 201 0 203 0;
#X connect 202 0 201 1;
#X connect 203 0 61 0;
#X connect 204 0 199 0;
#X connect 207 0 206 0;
#X connect 208 0 61 0;
#X connect 209 0 71 0;
#X connect 210 0 211 0;
#X connect 211 0 212 0;
#X connect 212 0 214 0;
#X connect 213 0 212 1;
#X connect 214 0 209 0;
#X connect 215 0 210 0;
#X connect 216 0 209 0;
#X connect 217 0 78 0;
#X connect 218 0 219 0;
#X connect 219 0 220 0;
#X connect 220 0 222 0;
#X connect 221 0 220 1;
#X connect 222 0 217 0;
#X connect 223 0 218 0;
#X connect 224 0 217 0;
#X connect 225 0 85 0;
#X connect 226 0 227 0;
#X connect 227 0 228 0;
#X connect 228 0 230 0;
#X connect 229 0 228 1;
#X connect 230 0 225 0;
#X connect 231 0 226 0;
#X connect 232 0 225 0;
#X connect 233 0 92 0;
#X connect 234 0 235 0;
#X connect 235 0 236 0;
#X connect 236 0 238 0;
#X connect 237 0 236 1;
#X connect 238 0 233 0;
#X connect 239 0 234 0;
#X connect 240 0 233 0;
#X connect 241 0 99 0;
#X connect 242 0 243 0;
#X connect 243 0 244 0;
#X connect 244 0 246 0;
#X connect 245 0 244 1;
#X connect 246 0 241 0;
#X connect 247 0 242 0;
#X connect 248 0 241 0;
#X connect 249 0 106 0;
#X connect 250 0 251 0;
#X connect 251 0 252 0;
#X connect 252 0 254 0;
#X connect 253 0 252 1;
#X connect 254 0 249 0;
#X connect 255 0 250 0;
#X connect 256 0 249 0;
#X connect 257 0 113 0;
#X connect 258 0 259 0;
#X connect 259 0 260 0;
#X connect 260 0 262 0;
#X connect 261 0 260 1;
#X connect 262 0 257 0;
#X connect 263 0 258 0;
#X connect 264 0 257 0;
#X connect 265 0 7 0;
#X connect 266 0 267 0;
#X connect 267 0 268 0;
#X connect 268 0 270 0;
#X connect 269 0 268 1;
#X connect 270 0 265 0;
#X connect 271 0 266 0;
#X connect 272 0 265 0;
#X connect 273 0 14 0;
#X connect 274 0 275 0;
#X connect 275 0 276 0;
#X connect 276 0 278 0;
#X connect 277 0 276 1;
#X connect 278 0 273 0;
#X connect 279 0 274 0;
#X connect 280 0 273 0;
#X connect 281 0 21 0;
#X connect 282 0 283 0;
#X connect 283 0 284 0;
#X connect 284 0 286 0;
#X connect 285 0 284 1;
#X connect 286 0 281 0;
#X connect 287 0 282 0;
#X connect 288 0 281 0;
#X connect 289 0 28 0;
#X connect 290 0 291 0;
#X connect 291 0 292 0;
#X connect 292 0 294 0;
#X connect 293 0 292 1;
#X connect 294 0 289 0;
#X connect 295 0 290 0;
#X connect 296 0 289 0;
#X connect 297 0 35 0;
#X connect 298 0 299 0;
#X connect 299 0 300 0;
#X connect 300 0 302 0;
#X connect 301 0 300 1;
#X connect 302 0 297 0;
#X connect 303 0 298 0;
#X connect 304 0 297 0;
#X connect 305 0 42 0;
#X connect 306 0 307 0;
#X connect 307 0 308 0;
#X connect 308 0 310 0;
#X connect 309 0 308 1;
#X connect 310 0 305 0;
#X connect 311 0 306 0;
#X connect 312 0 305 0;
#X connect 313 0 49 0;
#X connect 314 0 315 0;
#X connect 315 0 316 0;
#X connect 316 0 318 0;
#X connect 317 0 316 1;
#X connect 318 0 313 0;
#X connect 319 0 314 0;
#X connect 320 0 313 0;
#X connect 321 0 56 0;
#X connect 322 0 323 0;
#X connect 323 0 324 0;
#X connect 324 0 326 0;
#X connect 325 0 324 1;
#X connect 326 0 321 0;
#X connect 327 0 322 0;
#X connect 328 0 321 0;
#X connect 329 0 120 0;
#X connect 330 0 331 0;
#X connect 331 0 332 0;
#X connect 332 0 334 0;
#X connect 333 0 332 1;
#X connect 334 0 329 0;
#X connect 335 0 330 0;
#X connect 336 0 329 0;
#X connect 337 0 127 0;
#X connect 338 0 339 0;
#X connect 339 0 340 0;
#X connect 340 0 342 0;
#X connect 341 0 340 1;
#X connect 342 0 337 0;
#X connect 343 0 338 0;
#X connect 344 0 337 0;
#X connect 345 0 134 0;
#X connect 346 0 347 0;
#X connect 347 0 348 0;
#X connect 348 0 350 0;
#X connect 349 0 348 1;
#X connect 350 0 345 0;
#X connect 351 0 346 0;
#X connect 352 0 345 0;
#X connect 353 0 141 0;
#X connect 354 0 355 0;
#X connect 355 0 356 0;
#X connect 356 0 358 0;
#X connect 357 0 356 1;
#X connect 358 0 353 0;
#X connect 359 0 354 0;
#X connect 360 0 353 0;
#X connect 361 0 148 0;
#X connect 362 0 363 0;
#X connect 363 0 364 0;
#X connect 364 0 366 0;
#X connect 365 0 364 1;
#X connect 366 0 361 0;
#X connect 367 0 362 0;
#X connect 368 0 361 0;
#X connect 369 0 155 0;
#X connect 370 0 371 0;
#X connect 371 0 372 0;
#X connect 372 0 374 0;
#X connect 373 0 372 1;
#X connect 374 0 369 0;
#X connect 375 0 370 0;
#X connect 376 0 369 0;
#X connect 377 0 162 0;
#X connect 378 0 379 0;
#X connect 379 0 380 0;
#X connect 380 0 382 0;
#X connect 381 0 380 1;
#X connect 382 0 377 0;
#X connect 383 0 378 0;
#X connect 384 0 377 0;
#X connect 385 0 169 0;
#X connect 386 0 387 0;
#X connect 387 0 388 0;
#X connect 388 0 390 0;
#X connect 389 0 388 1;
#X connect 390 0 385 0;
#X connect 391 0 386 0;
#X connect 392 0 385 0;
#X connect 394 0 196 0;
#X connect 395 0 394 1;
#X connect 396 0 186 0;
#X connect 397 0 417 0;
#X connect 398 0 394 0;
#X connect 399 0 417 0;
#X connect 400 0 402 0;
#X connect 401 0 417 0;
#X connect 402 0 396 0;
#X connect 403 0 402 1;
#X connect 403 0 406 0;
#X connect 404 0 402 1;
#X connect 404 0 406 0;
#X connect 405 0 402 1;
#X connect 405 0 406 0;
#X connect 406 0 402 0;
#X connect 407 0 398 0;
#X connect 407 0 397 0;
#X connect 410 0 408 0;
#X connect 410 0 409 0;
#X connect 410 0 411 4;
#X connect 410 0 411 5;
#X connect 411 0 412 0;
#X connect 411 1 412 1;
#X connect 413 0 416 4;
#X connect 413 2 419 0;
#X connect 413 2 420 4;
#X connect 413 3 419 1;
#X connect 413 3 420 5;
#X connect 413 4 420 4;
#X connect 413 5 420 5;
#X connect 413 6 422 4;
#X connect 415 0 413 0;
#X connect 416 0 412 0;
#X connect 416 1 412 1;
#X connect 417 0 400 0;
#X connect 418 0 413 2;
#X connect 419 0 420 4;
#X connect 419 1 420 5;
#X connect 420 0 412 0;
#X connect 420 1 412 1;
#X connect 421 0 413 4;
#X connect 422 0 412 0;
#X connect 422 1 412 1;
#X connect 423 0 417 0;
#X coords 0 -1 1 1 200 200 1 100 100;
