#N canvas 0 23 1072 486 12;
#X obj 26 133 key;
#X floatatom 26 160 5 0 0 0 - - -;
#X obj 65 216 tgl 15 0 empty empty empty 17 7 0 10 -262144 -1 -1 1
1;
#X obj 26 238 spigot;
#X obj 65 191 sel 171;
#X obj 26 312 bng 15 250 50 0 empty empty empty 17 7 0 10 -262144 -1
-1;
#X obj 44 312 bng 15 250 50 0 empty empty empty 17 7 0 10 -262144 -1
-1;
#X obj 61 312 bng 15 250 50 0 empty empty empty 17 7 0 10 -262144 -1
-1;
#X obj 79 312 bng 15 250 50 0 empty empty empty 17 7 0 10 -262144 -1
-1;
#X obj 96 312 bng 15 250 50 0 empty empty empty 17 7 0 10 -262144 -1
-1;
#X obj 114 312 bng 15 250 50 0 empty empty empty 17 7 0 10 -262144
-1 -1;
#X obj 131 312 bng 15 250 50 0 empty empty empty 17 7 0 10 -262144
-1 -1;
#X obj 149 312 bng 15 250 50 0 empty empty empty 17 7 0 10 -262144
-1 -1;
#X obj 166 312 bng 15 250 50 0 empty empty empty 17 7 0 10 -262144
-1 -1;
#X obj 184 312 bng 15 250 50 0 empty empty empty 17 7 0 10 -262144
-1 -1;
#X obj 201 312 bng 15 250 50 0 empty empty empty 17 7 0 10 -262144
-1 -1;
#X obj 219 312 bng 15 250 50 0 empty empty empty 17 7 0 10 -262144
-1 -1;
#X msg 27 353 0;
#X msg 63 353 1;
#X msg 98 353 2;
#X msg 134 353 3;
#X msg 170 353 4;
#X msg 206 353 5;
#X msg 241 353 6;
#X msg 277 353 7;
#X msg 313 353 8;
#X msg 349 353 9;
#X msg 384 353 10;
#X msg 420 353 11;
#X floatatom 27 418 5 0 0 0 - - -;
#X obj 27 449 outlet;
#X obj 26 264 sel 49 50 51 52 53 54 55 56 57 48 45 61;
#X floatatom 124 104 5 0 0 0 - - -;
#X obj 105 105 tgl 15 0 empty empty empty 17 7 0 10 -262144 -1 -1 1
1;
#X connect 0 0 1 0;
#X connect 1 0 3 0;
#X connect 1 0 4 0;
#X connect 2 0 3 1;
#X connect 2 0 33 0;
#X connect 3 0 31 0;
#X connect 4 0 2 0;
#X connect 5 0 17 0;
#X connect 6 0 18 0;
#X connect 7 0 19 0;
#X connect 8 0 20 0;
#X connect 9 0 21 0;
#X connect 10 0 22 0;
#X connect 11 0 23 0;
#X connect 12 0 24 0;
#X connect 13 0 25 0;
#X connect 14 0 26 0;
#X connect 15 0 27 0;
#X connect 16 0 28 0;
#X connect 17 0 29 0;
#X connect 18 0 29 0;
#X connect 19 0 29 0;
#X connect 20 0 29 0;
#X connect 21 0 29 0;
#X connect 22 0 29 0;
#X connect 23 0 29 0;
#X connect 24 0 29 0;
#X connect 25 0 29 0;
#X connect 26 0 29 0;
#X connect 27 0 29 0;
#X connect 28 0 29 0;
#X connect 29 0 30 0;
#X connect 29 0 32 0;
#X connect 31 0 5 0;
#X connect 31 1 6 0;
#X connect 31 2 7 0;
#X connect 31 3 8 0;
#X connect 31 4 9 0;
#X connect 31 5 10 0;
#X connect 31 6 11 0;
#X connect 31 7 12 0;
#X connect 31 8 13 0;
#X connect 31 9 14 0;
#X connect 31 10 15 0;
#X connect 31 11 16 0;
#X coords 0 -1 1 1 70 25 2 100 100;
