#N struct g1 float x float y float q;
#N canvas 363 66 947 626 12;
#X obj 161 588 print;
#X obj 61 392 oscparse;
#X obj 61 357 netreceive -u -b;
#X msg 67 283 listen 50000;
#X obj 61 453 list trim;
#X obj 164 497 route ZIGSIM;
#X obj 164 532 route frxOplyNYBw1MV0z;
#X obj 272 576 route quaternion;
#X obj 334 275 unpack 0 0 0 0;
#X obj 334 311 vsl 15 128 -2 2 0 0 empty empty empty 0 -9 0 10 -262144
-1 -1 6773 1;
#X obj 365 311 vsl 15 128 -2 2 0 0 empty empty empty 0 -9 0 10 -262144
-1 -1 6427 1;
#X obj 397 312 vsl 15 128 -2 2 0 0 empty empty empty 0 -9 0 10 -262144
-1 -1 7271 1;
#X obj 429 312 vsl 15 128 -2 2 0 0 empty empty empty 0 -9 0 10 -262144
-1 -1 9358 1;
#X obj 475 526 +;
#X obj 511 526 -;
#X obj 641 459 vsl 15 128 -1 1 0 0 empty empty empty 0 -9 0 10 -262144
-1 -1 4662 1;
#X obj 659 591 hsl 128 15 -1 1 0 0 empty empty empty -2 -8 0 10 -262144
-1 -1 4353 1;
#X obj 478 587 * -1;
#X obj 551 222 struct g1 float x float y float q;
#X obj 548 263 filledpolygon 22 12 3 0 0 100 0 100 100 0 100;
#X obj 630 144 append g1 x y;
#X obj 738 103 pointer;
#X msg 717 30 traverse pd-graphic;
#X obj 761 65 bng 15 250 50 0 empty empty empty 17 7 0 10 -262144 -1
-1;
#X obj 733 375 pack 0 0;
#X obj 690 328 * 1000;
#X obj 760 328 * 1000;
#X msg 597 97 50 50;
#X obj 701 453 * -1;
#X obj 753 459 * -1;
#N canvas 0 22 450 300 graphic 0;
#X scalar g1 -94.6566 224.747 0 \;;
#X scalar g1 -94.3747 224.9 0 \;;
#X scalar g1 -94.3189 224.997 0 \;;
#X scalar g1 -94.7346 225.673 0 \;;
#X scalar g1 -94.6619 226.128 0 \;;
#X scalar g1 -94.646 226.697 0 \;;
#X scalar g1 -95.0191 227.387 0 \;;
#X scalar g1 -95.2039 228.194 0 \;;
#X scalar g1 -94.9913 228.737 0 \;;
#X scalar g1 -95.021 228.667 0 \;;
#X scalar g1 -95.2018 228.457 0 \;;
#X scalar g1 -94.6126 228.303 0 \;;
#X scalar g1 -94.8757 227.586 0 \;;
#X scalar g1 -95.6171 227.899 0 \;;
#X scalar g1 -96.18 228.223 0 \;;
#X scalar g1 -96.4051 228.445 0 \;;
#X scalar g1 -96.4976 228.841 0 \;;
#X scalar g1 -96.5932 229.383 0 \;;
#X scalar g1 -97.0564 229.796 0 \;;
#X scalar g1 -97.2333 229.768 0 \;;
#X scalar g1 -97.4808 229.446 0 \;;
#X scalar g1 -97.7776 228.831 0 \;;
#X scalar g1 -97.8777 228.649 0 \;;
#X scalar g1 -97.8178 228.253 0 \;;
#X scalar g1 -97.8081 228.09 0 \;;
#X scalar g1 -97.4988 228.062 0 \;;
#X scalar g1 -97.3435 227.773 0 \;;
#X scalar g1 -97.4499 227.306 0 \;;
#X scalar g1 -96.7859 226.645 0 \;;
#X scalar g1 -95.9465 225.777 0 \;;
#X scalar g1 -95.6014 224.996 0 \;;
#X scalar g1 -94.8046 224.991 0 \;;
#X scalar g1 -94.2497 225.052 0 \;;
#X scalar g1 -93.8666 225.1 0 \;;
#X scalar g1 -93.1275 225.255 0 \;;
#X scalar g1 -92.791 225.38 0 \;;
#X scalar g1 -92.7231 225.451 0 \;;
#X scalar g1 50 50 0 \;;
#X scalar g1 -92.6162 225.541 0 \;;
#X scalar g1 -92.6697 225.538 0 \;;
#X scalar g1 -92.5796 225.534 0 \;;
#X scalar g1 -92.2195 226.25 0 \;;
#X scalar g1 -91.8955 226.704 0 \;;
#X scalar g1 -91.8183 227.33 0 \;;
#X scalar g1 -91.3632 227.947 0 \;;
#X scalar g1 -91.0445 227.977 0 \;;
#X scalar g1 -91.0163 227.532 0 \;;
#X scalar g1 -90.9911 226.734 0 \;;
#X scalar g1 -90.7056 225.758 0 \;;
#X scalar g1 -85.7326 224.642 0 \;;
#X scalar g1 -75.7655 219.725 0 \;;
#X scalar g1 -60.8355 214.566 0 \;;
#X scalar g1 -36.4493 207.908 0 \;;
#X scalar g1 -3.31537 196.239 0 \;;
#X scalar g1 32.4383 180.097 0 \;;
#X scalar g1 66.559 162.931 0 \;;
#X scalar g1 91.475 146.572 0 \;;
#X scalar g1 106 132.005 0 \;;
#X scalar g1 93.8779 119.672 0 \;;
#X scalar g1 71.5806 101.805 0 \;;
#X scalar g1 46.9763 96.6856 0 \;;
#X scalar g1 18.3921 92.8575 0 \;;
#X scalar g1 -8.86057 88.8163 0 \;;
#X scalar g1 -30.6683 85.5124 0 \;;
#X scalar g1 -44.9918 83.5589 0 \;;
#X scalar g1 -52.9047 81.2895 0 \;;
#X scalar g1 -57.11 78.7177 0 \;;
#X scalar g1 -63.7464 76.7003 0 \;;
#X scalar g1 -66.964 75.8553 0 \;;
#X scalar g1 -70.3845 77.4514 0 \;;
#X scalar g1 -75.299 80.9435 0 \;;
#X scalar g1 -74.7976 86.6017 0 \;;
#X scalar g1 -66.1575 91.5876 0 \;;
#X scalar g1 -52.3633 95.6768 0 \;;
#X scalar g1 -34.689 99.2115 0 \;;
#X scalar g1 -10.9109 99.978 0 \;;
#X scalar g1 27.7086 98.2392 0 \;;
#X scalar g1 43.2692 97.7731 0 \;;
#X scalar g1 54.1338 97.4536 0 \;;
#X scalar g1 62.7395 97.4627 0 \;;
#X scalar g1 71.3091 98.0444 0 \;;
#X scalar g1 84.8401 99.3009 0 \;;
#X scalar g1 101.313 100.862 0 \;;
#X scalar g1 115.824 102.279 0 \;;
#X scalar g1 126.943 103.405 0 \;;
#X scalar g1 155.294 103.123 0 \;;
#X scalar g1 166.663 97.1241 0 \;;
#X scalar g1 192.867 92.471 0 \;;
#X scalar g1 209.208 80.2705 0 \;;
#X scalar g1 222.431 74.1118 0 \;;
#X scalar g1 238.923 70.6253 0 \;;
#X scalar g1 256.429 65.7967 0 \;;
#X scalar g1 264.024 61.8635 0 \;;
#X scalar g1 256.619 60.8133 0 \;;
#X scalar g1 252.404 66.4867 0 \;;
#X scalar g1 247.28 69.6146 0 \;;
#X scalar g1 240.211 71.9307 0 \;;
#X scalar g1 235.466 74.034 0 \;;
#X scalar g1 228.524 75.5265 0 \;;
#X scalar g1 212.995 77.4854 0 \;;
#X scalar g1 192.813 80.7723 0 \;;
#X scalar g1 178.297 84.8953 0 \;;
#X scalar g1 149.002 88.1328 0 \;;
#X scalar g1 139.273 93.228 0 \;;
#X scalar g1 130.813 93.9843 0 \;;
#X scalar g1 118.353 93.9 0 \;;
#X scalar g1 102.226 94.2293 0 \;;
#X scalar g1 93.2571 94.5228 0 \;;
#X scalar g1 88.1552 92.8438 0 \;;
#X scalar g1 81.7584 90.6855 0 \;;
#X scalar g1 79.7405 89.3647 0 \;;
#X scalar g1 80.5419 88.0192 0 \;;
#X scalar g1 76.4514 86.4815 0 \;;
#X scalar g1 78.6653 86.2048 0 \;;
#X scalar g1 83.3663 85.8556 0 \;;
#X scalar g1 91.027 85.4367 0 \;;
#X scalar g1 100.839 85.4833 0 \;;
#X scalar g1 111.851 86.0321 0 \;;
#X scalar g1 126.536 87.44 0 \;;
#X scalar g1 144.586 89.3486 0 \;;
#X scalar g1 161.076 91.6691 0 \;;
#X scalar g1 183.344 94.3407 0 \;;
#X scalar g1 194.211 99.1818 0 \;;
#X scalar g1 208.081 99.7236 0 \;;
#X scalar g1 218.355 98.5539 0 \;;
#X scalar g1 222.433 97.3863 0 \;;
#X scalar g1 229.657 97.1219 0 \;;
#X scalar g1 234.29 95.6789 0 \;;
#X scalar g1 232.239 94.1958 0 \;;
#X scalar g1 230.297 94.3498 0 \;;
#X scalar g1 221.853 94.8942 0 \;;
#X scalar g1 215.796 95.6794 0 \;;
#X scalar g1 210.103 96.4549 0 \;;
#X scalar g1 203.339 96.9747 0 \;;
#X scalar g1 196.744 97.5629 0 \;;
#X scalar g1 192.561 97.7622 0 \;;
#X scalar g1 189.04 97.2587 0 \;;
#X scalar g1 186.527 96.8544 0 \;;
#X scalar g1 185.652 96.368 0 \;;
#X scalar g1 186.894 95.9959 0 \;;
#X scalar g1 187.882 96.3685 0 \;;
#X scalar g1 187.347 96.4463 0 \;;
#X scalar g1 187.43 96.7938 0 \;;
#X scalar g1 187.888 97.1891 0 \;;
#X scalar g1 187.225 97.2518 0 \;;
#X scalar g1 186.679 97.2952 0 \;;
#X scalar g1 186.212 97.2873 0 \;;
#X scalar g1 186.097 97.2451 0 \;;
#X scalar g1 186.502 97.5061 0 \;;
#X scalar g1 186.983 97.8636 0 \;;
#X scalar g1 187.266 97.9346 0 \;;
#X scalar g1 187.312 98.1494 0 \;;
#X scalar g1 186.968 98.1885 0 \;;
#X scalar g1 186.924 98.5026 0 \;;
#X scalar g1 187.12 98.79 0 \;;
#X scalar g1 187.148 98.8826 0 \;;
#X scalar g1 187.195 98.9899 0 \;;
#X scalar g1 186.587 99.3026 0 \;;
#X scalar g1 186.192 100.454 0 \;;
#X scalar g1 185.744 101.093 0 \;;
#X scalar g1 185.485 101.641 0 \;;
#X scalar g1 185.129 102.153 0 \;;
#X scalar g1 185.177 102.655 0 \;;
#X scalar g1 185.082 103.06 0 \;;
#X scalar g1 184.866 103.46 0 \;;
#X scalar g1 184.418 103.85 0 \;;
#X scalar g1 183.334 104.335 0 \;;
#X scalar g1 183.464 105.299 0 \;;
#X scalar g1 183.347 105.82 0 \;;
#X scalar g1 182.948 106.119 0 \;;
#X scalar g1 182.634 106.221 0 \;;
#X scalar g1 182.537 106.581 0 \;;
#X scalar g1 182.31 107.214 0 \;;
#X scalar g1 181.65 107.981 0 \;;
#X scalar g1 181.381 108.867 0 \;;
#X scalar g1 181.235 109.628 0 \;;
#X scalar g1 181.473 110.143 0 \;;
#X scalar g1 181.288 110.99 0 \;;
#X scalar g1 181.37 111.402 0 \;;
#X scalar g1 181.636 111.804 0 \;;
#X scalar g1 181.556 112.146 0 \;;
#X scalar g1 181.148 112.611 0 \;;
#X scalar g1 180.598 112.867 0 \;;
#X scalar g1 180.247 112.881 0 \;;
#X scalar g1 179.527 112.814 0 \;;
#X scalar g1 177.999 112.723 0 \;;
#X scalar g1 176.821 112.777 0 \;;
#X scalar g1 175.901 113.507 0 \;;
#X scalar g1 174.509 114.826 0 \;;
#X scalar g1 173.078 116.528 0 \;;
#X scalar g1 171.176 118.639 0 \;;
#X scalar g1 168.47 120.937 0 \;;
#X scalar g1 166.648 123.098 0 \;;
#X scalar g1 165.23 124.58 0 \;;
#X scalar g1 160.704 125.447 0 \;;
#X scalar g1 157.576 126.691 0 \;;
#X scalar g1 152.563 127.652 0 \;;
#X scalar g1 148.357 129.057 0 \;;
#X scalar g1 145.637 130.97 0 \;;
#X scalar g1 142.216 132.956 0 \;;
#X scalar g1 138.786 134.758 0 \;;
#X scalar g1 137.036 136.245 0 \;;
#X scalar g1 137.786 136.585 0 \;;
#X scalar g1 138.96 135.574 0 \;;
#X scalar g1 141.303 130.129 0 \;;
#X scalar g1 144.403 126.767 0 \;;
#X scalar g1 147.879 123.349 0 \;;
#X scalar g1 151.267 119.331 0 \;;
#X scalar g1 154.58 114.333 0 \;;
#X scalar g1 158.691 109.003 0 \;;
#X scalar g1 163.579 103.936 0 \;;
#X scalar g1 168.375 98.4279 0 \;;
#X scalar g1 173.917 93.0428 0 \;;
#X scalar g1 175.174 85.1038 0 \;;
#X scalar g1 174.799 81.5247 0 \;;
#X scalar g1 175.567 77.9888 0 \;;
#X scalar g1 175.995 74.2365 0 \;;
#X scalar g1 176.276 69.7569 0 \;;
#X scalar g1 177.837 65.0465 0 \;;
#X scalar g1 178.327 61.0732 0 \;;
#X scalar g1 178.878 57.4158 0 \;;
#X scalar g1 177.982 54.4672 0 \;;
#X scalar g1 176.634 53.029 0 \;;
#X scalar g1 174.119 54.7166 0 \;;
#X scalar g1 170.362 57.8701 0 \;;
#X scalar g1 168.014 59.9669 0 \;;
#X scalar g1 164.213 60.9449 0 \;;
#X scalar g1 160.401 61.1783 0 \;;
#X scalar g1 156.564 61.2789 0 \;;
#X scalar g1 151.788 61.823 0 \;;
#X scalar g1 143.646 62.3117 0 \;;
#X scalar g1 141.52 64.7612 0 \;;
#X scalar g1 139.685 65.1311 0 \;;
#X scalar g1 139.321 64.9007 0 \;;
#X scalar g1 139.193 65.0867 0 \;;
#X scalar g1 139.413 65.8369 0 \;;
#X scalar g1 139.822 66.9312 0 \;;
#X scalar g1 138.758 68.4538 0 \;;
#X scalar g1 137.163 69.6059 0 \;;
#X scalar g1 131.911 69.7605 0 \;;
#X scalar g1 128.314 67.6231 0 \;;
#X scalar g1 125.374 65.3562 0 \;;
#X scalar g1 125.77 62.6028 0 \;;
#X scalar g1 131.206 61.9879 0 \;;
#X scalar g1 131.446 66.131 0 \;;
#X scalar g1 122.526 74.9933 0 \;;
#X scalar g1 115.633 84.3736 0 \;;
#X scalar g1 115.051 90.1479 0 \;;
#X scalar g1 114.602 90.9876 0 \;;
#X scalar g1 120.773 89.7635 0 \;;
#X scalar g1 126.549 86.1107 0 \;;
#X scalar g1 130.417 85.893 0 \;;
#X scalar g1 140.838 85.7833 0 \;;
#X scalar g1 158.248 83.2059 0 \;;
#X scalar g1 172.148 80.4142 0 \;;
#X scalar g1 183.912 80.1197 0 \;;
#X scalar g1 201.882 82.9107 0 \;;
#X scalar g1 221.724 86.3446 0 \;;
#X scalar g1 254.359 88.5739 0 \;;
#X scalar g1 279.907 94.9886 0 \;;
#X scalar g1 295.756 96.7793 0 \;;
#X scalar g1 303.873 99.068 0 \;;
#X scalar g1 314.759 102.077 0 \;;
#X scalar g1 320.523 104.34 0 \;;
#X scalar g1 312.437 106.962 0 \;;
#X scalar g1 299.07 111.062 0 \;;
#X scalar g1 285.51 115.161 0 \;;
#X scalar g1 229.421 117.183 0 \;;
#X scalar g1 197.497 119.817 0 \;;
#X scalar g1 177.502 118.815 0 \;;
#X scalar g1 153.454 114.148 0 \;;
#X scalar g1 123.222 109.571 0 \;;
#X scalar g1 102.003 107.1 0 \;;
#X scalar g1 94.0057 104.297 0 \;;
#X scalar g1 87.0031 100.313 0 \;;
#X scalar g1 85.7143 98.1176 0 \;;
#X scalar g1 101.856 95.9309 0 \;;
#X scalar g1 118.655 88.8362 0 \;;
#X scalar g1 146.378 83.6265 0 \;;
#X scalar g1 172.724 77.7045 0 \;;
#X scalar g1 192.855 74.2877 0 \;;
#X scalar g1 215.979 74.0717 0 \;;
#X scalar g1 236.697 75.2017 0 \;;
#X scalar g1 253.001 79.0664 0 \;;
#X scalar g1 262.339 85.7451 0 \;;
#X scalar g1 266.679 95.8037 0 \;;
#X scalar g1 257.757 125.861 0 \;;
#X scalar g1 251.684 141.987 0 \;;
#X scalar g1 243.224 156.148 0 \;;
#X scalar g1 225.398 167.234 0 \;;
#X scalar g1 206.451 176.429 0 \;;
#X scalar g1 193.723 183.813 0 \;;
#X scalar g1 181.158 185.715 0 \;;
#X scalar g1 169.545 183.044 0 \;;
#X scalar g1 162.323 177.175 0 \;;
#X scalar g1 158.784 168.893 0 \;;
#X scalar g1 158.823 150.287 0 \;;
#X scalar g1 158.161 141.365 0 \;;
#X scalar g1 159.177 133.792 0 \;;
#X scalar g1 161.073 127.667 0 \;;
#X scalar g1 163.632 122.491 0 \;;
#X scalar g1 166.748 118.544 0 \;;
#X scalar g1 170.003 115.54 0 \;;
#X scalar g1 173.856 114.318 0 \;;
#X scalar g1 175.094 116.303 0 \;;
#X scalar g1 176.111 116.993 0 \;;
#X scalar g1 175.041 117.723 0 \;;
#X scalar g1 173.786 118.231 0 \;;
#X scalar g1 173.379 117.745 0 \;;
#X scalar g1 172.145 116.436 0 \;;
#X scalar g1 170.965 114.567 0 \;;
#X scalar g1 170.496 111.872 0 \;;
#X scalar g1 172.444 108.295 0 \;;
#X scalar g1 173.93 100.634 0 \;;
#X scalar g1 174.587 97.643 0 \;;
#X scalar g1 175.095 96.3224 0 \;;
#X scalar g1 173.591 97.1968 0 \;;
#X scalar g1 171.91 99.2096 0 \;;
#X scalar g1 171.617 100.698 0 \;;
#X scalar g1 170.511 100.734 0 \;;
#X scalar g1 168.242 99.6056 0 \;;
#X scalar g1 166.992 97.6256 0 \;;
#X scalar g1 165.493 94.5597 0 \;;
#X scalar g1 164.463 88.0772 0 \;;
#X scalar g1 164.876 85.9471 0 \;;
#X scalar g1 166.654 84.9098 0 \;;
#X scalar g1 167.787 84.7031 0 \;;
#X scalar g1 168.271 85.3289 0 \;;
#X scalar g1 168.105 86.6093 0 \;;
#X scalar g1 166.505 87.7283 0 \;;
#X scalar g1 164.024 87.6247 0 \;;
#X scalar g1 163.781 86.1392 0 \;;
#X scalar g1 165.69 81.9838 0 \;;
#X scalar g1 166.835 80.7466 0 \;;
#X scalar g1 168.244 79.4024 0 \;;
#X scalar g1 168.843 78.5833 0 \;;
#X scalar g1 168.88 78.2635 0 \;;
#X scalar g1 168.287 79.0629 0 \;;
#X scalar g1 168.189 79.4917 0 \;;
#X scalar g1 167.831 79.5835 0 \;;
#X scalar g1 167.502 79.2653 0 \;;
#X scalar g1 167.134 79.2141 0 \;;
#X scalar g1 167.199 79.4883 0 \;;
#X scalar g1 167.454 79.5535 0 \;;
#X scalar g1 167.171 79.8758 0 \;;
#X scalar g1 166.756 80.6369 0 \;;
#X scalar g1 166.303 80.9756 0 \;;
#X scalar g1 164.05 80.9875 0 \;;
#X scalar g1 163.184 81.9421 0 \;;
#X scalar g1 162.224 82.8001 0 \;;
#X scalar g1 161.148 83.1787 0 \;;
#X scalar g1 160.075 83.0772 0 \;;
#X scalar g1 159.823 82.8538 0 \;;
#X scalar g1 160.029 82.4365 0 \;;
#X scalar g1 169.558 82.4872 0 \;;
#X scalar g1 194.969 81.299 0 \;;
#X scalar g1 212.948 78.5664 0 \;;
#X scalar g1 228.994 79.828 0 \;;
#X scalar g1 237.502 84.1038 0 \;;
#X scalar g1 244.362 93.9723 0 \;;
#X scalar g1 240.171 111.069 0 \;;
#X scalar g1 229.657 132.202 0 \;;
#X scalar g1 216.428 155.305 0 \;;
#X scalar g1 198.513 175.237 0 \;;
#X scalar g1 164.768 190.187 0 \;;
#X scalar g1 140.941 199.915 0 \;;
#X scalar g1 114.048 196.582 0 \;;
#X scalar g1 98.3483 189.63 0 \;;
#X scalar g1 88.2509 178.876 0 \;;
#X scalar g1 76.5063 166.745 0 \;;
#X scalar g1 74.538 154.869 0 \;;
#X scalar g1 80.1644 140.771 0 \;;
#X scalar g1 92.1496 124.787 0 \;;
#X scalar g1 125.221 108.399 0 \;;
#X scalar g1 147.026 81.7853 0 \;;
#X scalar g1 168.492 72.0381 0 \;;
#X scalar g1 189.026 65.7797 0 \;;
#X scalar g1 209.431 64.1628 0 \;;
#X scalar g1 227.306 67.8765 0 \;;
#X scalar g1 237.726 76.5305 0 \;;
#X scalar g1 240.782 89.8884 0 \;;
#X scalar g1 241.474 108.424 0 \;;
#X scalar g1 239.399 130.278 0 \;;
#X scalar g1 212.648 151.818 0 \;;
#X scalar g1 197.248 187.03 0 \;;
#X scalar g1 183.312 197.036 0 \;;
#X scalar g1 165.582 200.168 0 \;;
#X scalar g1 139.873 200.103 0 \;;
#X scalar g1 117.942 198.307 0 \;;
#X scalar g1 102.425 192.235 0 \;;
#X scalar g1 92.5409 182.42 0 \;;
#X scalar g1 87.9261 170.212 0 \;;
#X scalar g1 94.3271 122.814 0 \;;
#X scalar g1 106.398 106.85 0 \;;
#X scalar g1 123.488 92.2764 0 \;;
#X scalar g1 141.11 80.1947 0 \;;
#X scalar g1 157.544 72.3714 0 \;;
#X scalar g1 176.213 68.6201 0 \;;
#X scalar g1 198.893 67.597 0 \;;
#X scalar g1 217.883 69.6806 0 \;;
#X scalar g1 232.601 75.786 0 \;;
#X scalar g1 237.926 98.0922 0 \;;
#X scalar g1 233.31 113.879 0 \;;
#X scalar g1 225.095 129.027 0 \;;
#X scalar g1 218.861 143.209 0 \;;
#X scalar g1 208.251 153.283 0 \;;
#X scalar g1 192.596 159.904 0 \;;
#X scalar g1 176.006 165.573 0 \;;
#X scalar g1 160.866 169.192 0 \;;
#X scalar g1 131.191 169.504 0 \;;
#X scalar g1 117.37 163.597 0 \;;
#X scalar g1 107.726 156.673 0 \;;
#X scalar g1 103.711 147.571 0 \;;
#X scalar g1 104.613 136.162 0 \;;
#X scalar g1 109.015 122.553 0 \;;
#X scalar g1 115.252 109.294 0 \;;
#X scalar g1 128.77 97.203 0 \;;
#X scalar g1 146.537 85.0453 0 \;;
#X scalar g1 186.898 74.8044 0 \;;
#X scalar g1 205.963 62.4272 0 \;;
#X scalar g1 217.418 64.6338 0 \;;
#X scalar g1 221.388 73.677 0 \;;
#X scalar g1 220.614 89.6631 0 \;;
#X scalar g1 215.015 110.023 0 \;;
#X scalar g1 203.914 130.19 0 \;;
#X scalar g1 188.662 147.804 0 \;;
#X scalar g1 172.906 161.49 0 \;;
#X scalar g1 139.936 169.464 0 \;;
#X scalar g1 104.811 166.641 0 \;;
#X scalar g1 94.9833 148.277 0 \;;
#X scalar g1 91.6681 134.002 0 \;;
#X scalar g1 95.5635 118.137 0 \;;
#X scalar g1 107.735 101.872 0 \;;
#X scalar g1 120.307 85.3254 0 \;;
#X scalar g1 135.306 71.701 0 \;;
#X scalar g1 164.549 61.4206 0 \;;
#X scalar g1 180.046 53.8249 0 \;;
#X scalar g1 195.011 56.9303 0 \;;
#X scalar g1 207.034 64.6697 0 \;;
#X scalar g1 215.76 76.8624 0 \;;
#X scalar g1 219.132 92.4068 0 \;;
#X scalar g1 215.774 109.757 0 \;;
#X scalar g1 209.8 128.77 0 \;;
#X scalar g1 200.21 147.055 0 \;;
#X scalar g1 186.741 161.782 0 \;;
#X scalar g1 157.458 172.425 0 \;;
#X scalar g1 142.606 182.305 0 \;;
#X scalar g1 125.373 181.787 0 \;;
#X scalar g1 109.885 176.883 0 \;;
#X scalar g1 101.096 166.579 0 \;;
#X scalar g1 102.061 151.808 0 \;;
#X scalar g1 106.766 133.715 0 \;;
#X scalar g1 112.882 114.835 0 \;;
#X scalar g1 124.068 97.2593 0 \;;
#X scalar g1 152.132 82.0899 0 \;;
#X scalar g1 165.527 63.8925 0 \;;
#X scalar g1 179.192 61.7428 0 \;;
#X scalar g1 192.699 64.5715 0 \;;
#X scalar g1 201.177 72.4075 0 \;;
#X scalar g1 203.653 84.1469 0 \;;
#X scalar g1 203.064 98.2911 0 \;;
#X scalar g1 199.623 113.501 0 \;;
#X scalar g1 192.605 128.599 0 \;;
#X scalar g1 165.831 144.235 0 \;;
#X scalar g1 153.171 169.754 0 \;;
#X scalar g1 144.378 175.957 0 \;;
#X scalar g1 133.293 176.468 0 \;;
#X scalar g1 116.513 173.531 0 \;;
#X scalar g1 103.406 168.906 0 \;;
#X scalar g1 98.1394 163.083 0 \;;
#X scalar g1 97.423 155.572 0 \;;
#X scalar g1 104.965 147.302 0 \;;
#X scalar g1 152.18 138.057 0 \;;
#X scalar g1 174.624 116.634 0 \;;
#X scalar g1 195.245 109.156 0 \;;
#X scalar g1 215.43 104.851 0 \;;
#X scalar g1 231.869 103.091 0 \;;
#X scalar g1 248.345 103.893 0 \;;
#X scalar g1 265.567 106.547 0 \;;
#X scalar g1 279.48 110.167 0 \;;
#X scalar g1 293.478 114.255 0 \;;
#X scalar g1 319.514 118.661 0 \;;
#X scalar g1 329.043 126.109 0 \;;
#X scalar g1 345.377 128.26 0 \;;
#X scalar g1 358.833 127.409 0 \;;
#X scalar g1 369.019 125.393 0 \;;
#X scalar g1 381.768 124.059 0 \;;
#X scalar g1 388.995 122.682 0 \;;
#X scalar g1 390.066 122.473 0 \;;
#X scalar g1 394.728 123.499 0 \;;
#X scalar g1 403.788 124.498 0 \;;
#X scalar g1 400.591 126.872 0 \;;
#X scalar g1 394.973 129.452 0 \;;
#X scalar g1 385.566 132.251 0 \;;
#X scalar g1 368.524 135.123 0 \;;
#X scalar g1 345.505 138.403 0 \;;
#X scalar g1 318.977 141.692 0 \;;
#X scalar g1 287.855 143.834 0 \;;
#X scalar g1 258.875 145.185 0 \;;
#X scalar g1 195.583 143.552 0 \;;
#X scalar g1 163.424 132.354 0 \;;
#X scalar g1 136.092 125.979 0 \;;
#X scalar g1 109.523 117.712 0 \;;
#X scalar g1 76.6326 107.036 0 \;;
#X scalar g1 42.8391 95.8473 0 \;;
#X scalar g1 22.3558 85.847 0 \;;
#X scalar g1 9.67439 74.7518 0 \;;
#X scalar g1 -8.03636 63.5835 0 \;;
#X scalar g1 -48.7375 55.5093 0 \;;
#X scalar g1 -58.3506 48.412 0 \;;
#X scalar g1 -75.6305 45.5516 0 \;;
#X scalar g1 -97.0231 45.3472 0 \;;
#X scalar g1 -109.849 46.958 0 \;;
#X scalar g1 -116.417 46.2918 0 \;;
#X scalar g1 -120.281 45.1619 0 \;;
#X scalar g1 -124.643 45.4652 0 \;;
#X scalar g1 -127.951 45.8629 0 \;;
#X scalar g1 -128.935 45.4446 0 \;;
#X scalar g1 -124.894 45.1066 0 \;;
#X scalar g1 -114.299 45.4087 0 \;;
#X scalar g1 -97.8954 44.8585 0 \;;
#X scalar g1 -65.5349 44.3069 0 \;;
#X scalar g1 -33.4641 42.0346 0 \;;
#X scalar g1 -6.30437 43.6272 0 \;;
#X scalar g1 20.0985 48.6023 0 \;;
#X scalar g1 47.2278 53.1976 0 \;;
#X scalar g1 71.0707 57.05 0 \;;
#X scalar g1 111.44 61.5704 0 \;;
#X scalar g1 124.763 68.1934 0 \;;
#X scalar g1 136.61 68.5293 0 \;;
#X scalar g1 144.503 66.3066 0 \;;
#X scalar g1 148.361 62.2426 0 \;;
#X scalar g1 154.295 57.5926 0 \;;
#X scalar g1 162.134 51.9241 0 \;;
#X scalar g1 167.686 45.2877 0 \;;
#X scalar g1 172.324 38.5765 0 \;;
#X scalar g1 183.716 31.7251 0 \;;
#X scalar g1 184.598 18.7346 0 \;;
#X scalar g1 186.133 12.0901 0 \;;
#X scalar g1 191.398 4.4646 0 \;;
#X scalar g1 198.342 -3.44848 0 \;;
#X scalar g1 207.883 -9.80276 0 \;;
#X scalar g1 229.013 -14.4595 0 \;;
#X scalar g1 237.261 -18.0202 0 \;;
#X scalar g1 246.132 -16.8945 0 \;;
#X scalar g1 250.886 -8.16258 0 \;;
#X scalar g1 253.609 -0.58277 0 \;;
#X scalar g1 254.494 7.29643 0 \;;
#X scalar g1 257.67 14.4967 0 \;;
#X scalar g1 262.489 21.1794 0 \;;
#X scalar g1 266.302 27.5031 0 \;;
#X scalar g1 269.23 33.6039 0 \;;
#X scalar g1 274.554 40.2787 0 \;;
#X scalar g1 284.287 48.0148 0 \;;
#X scalar g1 287.945 68.0583 0 \;;
#X scalar g1 289.294 79.5665 0 \;;
#X scalar g1 290.427 90.7976 0 \;;
#X scalar g1 291.154 100.977 0 \;;
#X scalar g1 291.605 110.058 0 \;;
#X scalar g1 290.782 117.383 0 \;;
#X scalar g1 290.562 122.205 0 \;;
#X scalar g1 290.599 124.304 0 \;;
#X scalar g1 291.9 123.464 0 \;;
#X scalar g1 292.042 117.136 0 \;;
#X scalar g1 290.327 112.438 0 \;;
#X scalar g1 286.572 105.028 0 \;;
#X scalar g1 284.047 95.1517 0 \;;
#X scalar g1 280.794 83.3129 0 \;;
#X scalar g1 278.119 69.4711 0 \;;
#X scalar g1 276.974 54.8668 0 \;;
#X scalar g1 275.33 40.2487 0 \;;
#X scalar g1 268.842 26.1862 0 \;;
#X scalar g1 264.483 3.78501 0 \;;
#X scalar g1 260.438 -4.51601 0 \;;
#X scalar g1 255.663 -10.5627 0 \;;
#X scalar g1 250.426 -14.8101 0 \;;
#X scalar g1 243.474 -17.7001 0 \;;
#X scalar g1 232.842 -20.2751 0 \;;
#X scalar g1 226.769 -22.6976 0 \;;
#X scalar g1 231.576 -25.2442 0 \;;
#X scalar g1 238.958 -28.6653 0 \;;
#X scalar g1 305.066 -30.6233 0 \;;
#X scalar g1 334.882 -25.1138 0 \;;
#X scalar g1 360.281 -17.8562 0 \;;
#X scalar g1 391.126 -8.63582 0 \;;
#X scalar g1 416.358 0.420019 0 \;;
#X scalar g1 431.411 8.80714 0 \;;
#X scalar g1 448.359 16.1646 0 \;;
#X scalar g1 461.074 20.2472 0 \;;
#X scalar g1 465.772 21.6933 0 \;;
#X scalar g1 473.449 21.7523 0 \;;
#X scalar g1 470.469 17.7812 0 \;;
#X scalar g1 463.422 17.338 0 \;;
#X scalar g1 456.857 18.0277 0 \;;
#X scalar g1 447.32 18.7506 0 \;;
#X scalar g1 425.929 19.4923 0 \;;
#X scalar g1 381.96 21.6141 0 \;;
#X scalar g1 341.9 26.2566 0 \;;
#X scalar g1 317.987 28.7294 0 \;;
#X scalar g1 261.665 26.9815 0 \;;
#X scalar g1 236.406 22.9635 0 \;;
#X scalar g1 217.159 19.0842 0 \;;
#X scalar g1 197.202 13.558 0 \;;
#X scalar g1 178.498 8.74119 0 \;;
#X scalar g1 160.308 4.65398 0 \;;
#X scalar g1 135.225 1.35303 0 \;;
#X scalar g1 113.978 -1.13235 0 \;;
#X scalar g1 94.2175 -4.7833 0 \;;
#X scalar g1 43.7742 -9.89106 0 \;;
#X scalar g1 27.686 -19.903 0 \;;
#X scalar g1 15.0012 -23.8978 0 \;;
#X scalar g1 0.270858 -27.1909 0 \;;
#X scalar g1 -11.6654 -29.2756 0 \;;
#X scalar g1 -13.6178 -30.925 0 \;;
#X scalar g1 -10.082 -33.1866 0 \;;
#X scalar g1 -12.0054 -34.3139 0 \;;
#X scalar g1 -21.9755 -32.8343 0 \;;
#X scalar g1 -26.4265 -29.2594 0 \;;
#X scalar g1 -28.9396 -22.6042 0 \;;
#X scalar g1 -34.1773 -14.768 0 \;;
#X scalar g1 -33.8998 -1.92819 0 \;;
#X scalar g1 -29.8535 10.7867 0 \;;
#X scalar g1 -24.8549 23.6271 0 \;;
#X scalar g1 -16.9684 40.0027 0 \;;
#X scalar g1 -5.16866 59.1434 0 \;;
#X scalar g1 6.23311 77.1079 0 \;;
#X scalar g1 28.1653 95.0888 0 \;;
#X scalar g1 40.3257 133.519 0 \;;
#X scalar g1 49.8637 152.105 0 \;;
#X scalar g1 57.8349 173.1 0 \;;
#X scalar g1 65.3144 195.389 0 \;;
#X scalar g1 71.9128 214.136 0 \;;
#X scalar g1 77.2262 230.32 0 \;;
#X scalar g1 81.8861 245.616 0 \;;
#X scalar g1 87.7821 259.226 0 \;;
#X scalar g1 110.656 268.231 0 \;;
#X scalar g1 131.07 274.674 0 \;;
#X scalar g1 152.537 272.451 0 \;;
#X scalar g1 175.532 268.682 0 \;;
#X scalar g1 202.366 264.31 0 \;;
#X scalar g1 220.84 259.802 0 \;;
#X scalar g1 240.183 257.16 0 \;;
#X scalar g1 264.263 255.3 0 \;;
#X scalar g1 282.83 252.665 0 \;;
#X scalar g1 297.82 250.947 0 \;;
#X scalar g1 325.737 250.013 0 \;;
#X scalar g1 334.811 244.81 0 \;;
#X scalar g1 341.845 240.836 0 \;;
#X scalar g1 347.964 235.648 0 \;;
#X scalar g1 352.601 229.062 0 \;;
#X scalar g1 354.532 221.898 0 \;;
#X scalar g1 355.639 214.837 0 \;;
#X scalar g1 358.12 206.807 0 \;;
#X scalar g1 360.982 196.6 0 \;;
#X scalar g1 365.587 184.598 0 \;;
#X scalar g1 360.793 160.347 0 \;;
#X scalar g1 349.226 149.267 0 \;;
#X scalar g1 335.29 138.018 0 \;;
#X scalar g1 322.007 126.266 0 \;;
#X scalar g1 302.155 114.191 0 \;;
#X scalar g1 278.124 103.177 0 \;;
#X scalar g1 258.775 93.1673 0 \;;
#X scalar g1 239.234 84.2503 0 \;;
#X scalar g1 190.065 77.1011 0 \;;
#X scalar g1 175.633 70.2964 0 \;;
#X scalar g1 160.99 67.5725 0 \;;
#X scalar g1 136.39 66.9922 0 \;;
#X scalar g1 113.101 70.4148 0 \;;
#X scalar g1 101.954 74.2448 0 \;;
#X scalar g1 89.0677 75.0078 0 \;;
#X scalar g1 72.9433 77.5191 0 \;;
#X scalar g1 68.9159 83.8027 0 \;;
#X scalar g1 77.6729 90.2182 0 \;;
#X scalar g1 79.205 117.589 0 \;;
#X scalar g1 85.8525 143.888 0 \;;
#X scalar g1 94.0834 170.971 0 \;;
#X scalar g1 99.2468 195.319 0 \;;
#X scalar g1 104.979 217.567 0 \;;
#X scalar g1 109.224 236.936 0 \;;
#X scalar g1 111.402 252.741 0 \;;
#X scalar g1 118.119 267.246 0 \;;
#X scalar g1 136.525 282.054 0 \;;
#X scalar g1 146.122 308.205 0 \;;
#X scalar g1 162.887 318.008 0 \;;
#X scalar g1 182.353 323.889 0 \;;
#X scalar g1 196.771 326.895 0 \;;
#X scalar g1 209.082 328.661 0 \;;
#X scalar g1 222.427 328.048 0 \;;
#X scalar g1 231.294 323.097 0 \;;
#X scalar g1 237.894 315.254 0 \;;
#X scalar g1 246.75 305.33 0 \;;
#X scalar g1 243.682 278.366 0 \;;
#X scalar g1 241.871 260.348 0 \;;
#X scalar g1 241.266 241.312 0 \;;
#X scalar g1 234.998 221.777 0 \;;
#X scalar g1 213.836 202.519 0 \;;
#X scalar g1 203.268 167.591 0 \;;
#X scalar g1 188.938 154.495 0 \;;
#X scalar g1 161.671 145.409 0 \;;
#X scalar g1 147.808 133.801 0 \;;
#X scalar g1 131.901 132.126 0 \;;
#X scalar g1 117.837 132.712 0 \;;
#X scalar g1 105.571 132.769 0 \;;
#X scalar g1 87.6051 131.491 0 \;;
#X scalar g1 68.7845 131.667 0 \;;
#X scalar g1 54.7389 133.132 0 \;;
#X scalar g1 41.9909 134.779 0 \;;
#X scalar g1 29.0939 137.181 0 \;;
#X scalar g1 8.23395 140.585 0 \;;
#X scalar g1 1.28634 148.187 0 \;;
#X scalar g1 -5.49832 153.019 0 \;;
#X scalar g1 -11.4376 158.708 0 \;;
#X scalar g1 -12.3225 164.9 0 \;;
#X scalar g1 -6.11439 171.424 0 \;;
#X scalar g1 5.87522 179.519 0 \;;
#X scalar g1 18.2052 190.237 0 \;;
#X scalar g1 29.6115 205.169 0 \;;
#X scalar g1 57.6234 223.991 0 \;;
#X scalar g1 70.0002 264.509 0 \;;
#X scalar g1 78.794 284.296 0 \;;
#X scalar g1 86.074 302.647 0 \;;
#X scalar g1 93.8218 316.651 0 \;;
#X scalar g1 102.266 325.913 0 \;;
#X scalar g1 111.762 331.082 0 \;;
#X scalar g1 122.23 333.108 0 \;;
#X scalar g1 133.192 331.799 0 \;;
#X scalar g1 154.608 326.402 0 \;;
#X scalar g1 163.867 302.862 0 \;;
#X scalar g1 170.461 287.175 0 \;;
#X scalar g1 172.597 268.43 0 \;;
#X scalar g1 171.938 248.651 0 \;;
#X scalar g1 172.244 228.522 0 \;;
#X scalar g1 171.876 208.538 0 \;;
#X scalar g1 167.139 189.065 0 \;;
#X scalar g1 165.514 170.647 0 \;;
#X scalar g1 168.967 152.503 0 \;;
#X scalar g1 167.914 116.845 0 \;;
#X scalar g1 164.596 101.388 0 \;;
#X scalar g1 160.034 87.6691 0 \;;
#X scalar g1 156.749 75.6431 0 \;;
#X scalar g1 154 65.4365 0 \;;
#X scalar g1 150.873 56.3442 0 \;;
#X scalar g1 146.429 48.1739 0 \;;
#X scalar g1 142.114 39.0714 0 \;;
#X scalar g1 145.104 28.7401 0 \;;
#X scalar g1 145.38 6.49205 0 \;;
#X scalar g1 149.301 -5.43541 0 \;;
#X scalar g1 157.965 -16.4187 0 \;;
#X scalar g1 168.599 -25.1392 0 \;;
#X scalar g1 175.494 -31.5268 0 \;;
#X scalar g1 180.554 -33.7061 0 \;;
#X scalar g1 186.809 -30.6438 0 \;;
#X scalar g1 193.127 -23.0961 0 \;;
#X scalar g1 207.838 -12.6223 0 \;;
#X scalar g1 217.369 11.2877 0 \;;
#X scalar g1 225.3 23.6945 0 \;;
#X scalar g1 231.422 35.9568 0 \;;
#X scalar g1 238.434 48.3727 0 \;;
#X scalar g1 243.877 59.6007 0 \;;
#X scalar g1 248.748 68.885 0 \;;
#X scalar g1 254.138 77.5546 0 \;;
#X scalar g1 257.551 86.6675 0 \;;
#X scalar g1 257.758 95.1369 0 \;;
#X scalar g1 262.874 106.034 0 \;;
#X scalar g1 263.697 109.6 0 \;;
#X scalar g1 259.56 113.875 0 \;;
#X scalar g1 254.547 119.824 0 \;;
#X scalar g1 251.387 126.623 0 \;;
#X scalar g1 245.627 134.918 0 \;;
#X scalar g1 234.15 145.376 0 \;;
#X scalar g1 219.231 159.003 0 \;;
#X scalar g1 201.235 174.757 0 \;;
#X scalar g1 192.961 193.041 0 \;;
#X scalar g1 181.231 193.989 0 \;;
#X scalar g1 168.517 192.138 0 \;;
#X scalar g1 157.556 187.158 0 \;;
#X scalar g1 146.013 179.615 0 \;;
#X scalar g1 132.043 171.589 0 \;;
#X scalar g1 119.913 164.376 0 \;;
#X scalar g1 113.145 157.603 0 \;;
#X scalar g1 106.741 150.918 0 \;;
#X scalar g1 96.0641 145.423 0 \;;
#X scalar g1 92.617 134.984 0 \;;
#X scalar g1 86.1295 128.163 0 \;;
#X scalar g1 82.4036 121.743 0 \;;
#X scalar g1 82.2607 115.03 0 \;;
#X scalar g1 83.2533 108.131 0 \;;
#X scalar g1 84.9348 102.196 0 \;;
#X scalar g1 88.3291 96.2065 0 \;;
#X scalar g1 91.5561 88.9223 0 \;;
#X scalar g1 102.698 81.6373 0 \;;
#X scalar g1 108.874 68.3217 0 \;;
#X scalar g1 113.289 62.9697 0 \;;
#X scalar g1 118.788 59.4387 0 \;;
#X scalar g1 125.575 56.6384 0 \;;
#X scalar g1 132.915 55.2397 0 \;;
#X scalar g1 141.343 56.4233 0 \;;
#X scalar g1 153.443 59.442 0 \;;
#X scalar g1 168.176 64.0714 0 \;;
#X scalar g1 190.143 71.1419 0 \;;
#X scalar g1 199.913 91.1173 0 \;;
#X scalar g1 206.103 101.124 0 \;;
#X scalar g1 210.678 110.911 0 \;;
#X scalar g1 214.591 119.4 0 \;;
#X scalar g1 218.378 126.048 0 \;;
#X scalar g1 219.113 131.068 0 \;;
#X scalar g1 218.824 135.517 0 \;;
#X scalar g1 218.038 139.647 0 \;;
#X scalar g1 213.048 142.824 0 \;;
#X scalar g1 212.277 147.994 0 \;;
#X scalar g1 210.926 149.607 0 \;;
#X scalar g1 207.368 151.273 0 \;;
#X scalar g1 204.205 153.464 0 \;;
#X scalar g1 199.813 154.824 0 \;;
#X scalar g1 192.552 154.761 0 \;;
#X scalar g1 183.531 154.787 0 \;;
#X scalar g1 174.757 155.462 0 \;;
#X scalar g1 157.412 155.07 0 \;;
#X scalar g1 150.826 150.147 0 \;;
#X scalar g1 142.676 144.8 0 \;;
#X scalar g1 135.643 137.917 0 \;;
#X scalar g1 130.194 129.686 0 \;;
#X scalar g1 124.362 121.423 0 \;;
#X scalar g1 119.605 114.592 0 \;;
#X scalar g1 118.755 108.964 0 \;;
#X scalar g1 118.502 103.001 0 \;;
#X scalar g1 121.653 96.8699 0 \;;
#X scalar g1 125.237 84.6459 0 \;;
#X scalar g1 128.913 78.7523 0 \;;
#X scalar g1 132.784 73.5442 0 \;;
#X scalar g1 136.875 68.9545 0 \;;
#X scalar g1 140.443 64.9959 0 \;;
#X scalar g1 143.809 62.1244 0 \;;
#X scalar g1 147.277 60.3574 0 \;;
#X scalar g1 151.013 59.4355 0 \;;
#X scalar g1 157.234 58.9444 0 \;;
#X scalar g1 159.908 59.5122 0 \;;
#X scalar g1 161.929 60.5734 0 \;;
#X scalar g1 162.891 62.352 0 \;;
#X scalar g1 164.208 64.9919 0 \;;
#X scalar g1 166.235 67.1613 0 \;;
#X scalar g1 167.995 68.5858 0 \;;
#X scalar g1 169.309 69.9919 0 \;;
#X scalar g1 171.286 71.805 0 \;;
#X scalar g1 171.355 73.6308 0 \;;
#X scalar g1 170.789 80.6357 0 \;;
#X scalar g1 170.164 82.2155 0 \;;
#X scalar g1 169.135 83.0541 0 \;;
#X scalar g1 168.525 83.6707 0 \;;
#X scalar g1 168.111 84.056 0 \;;
#X scalar g1 167.705 84.2767 0 \;;
#X scalar g1 167.333 84.5908 0 \;;
#X scalar g1 167.213 85.0902 0 \;;
#X scalar g1 167.015 85.4668 0 \;;
#X scalar g1 167.028 86.4746 0 \;;
#X scalar g1 167.058 86.5542 0 \;;
#X scalar g1 166.623 86.1826 0 \;;
#X scalar g1 166.647 86.0912 0 \;;
#X scalar g1 166.769 86.0758 0 \;;
#X scalar g1 166.539 86.1746 0 \;;
#X scalar g1 166.057 86.4062 0 \;;
#X scalar g1 166.311 86.591 0 \;;
#X scalar g1 166.956 86.6304 0 \;;
#X scalar g1 166.572 86.2092 0 \;;
#X scalar g1 166.491 86.0892 0 \;;
#X scalar g1 166.418 86.2398 0 \;;
#X scalar g1 166.318 86.3857 0 \;;
#X scalar g1 166.533 86.4976 0 \;;
#X scalar g1 166.288 86.386 0 \;;
#X scalar g1 166.227 86.2788 0 \;;
#X scalar g1 166.438 86.215 0 \;;
#X scalar g1 166.182 86.3554 0 \;;
#X scalar g1 166.254 86.5492 0 \;;
#X scalar g1 166.049 86.2251 0 \;;
#X scalar g1 165.838 86.0225 0 \;;
#X scalar g1 166.13 86.1541 0 \;;
#X scalar g1 166.117 86.4653 0 \;;
#X scalar g1 166.285 86.7078 0 \;;
#X scalar g1 165.69 86.7615 0 \;;
#X scalar g1 164.476 86.7358 0 \;;
#X scalar g1 161.69 87.0017 0 \;;
#X scalar g1 159.656 87.6758 0 \;;
#X scalar g1 157.622 88.2738 0 \;;
#X scalar g1 156.445 88.6953 0 \;;
#X scalar g1 155.046 88.6675 0 \;;
#X scalar g1 153.586 88.4215 0 \;;
#X scalar g1 152.861 88.3141 0 \;;
#X scalar g1 152.397 88.2158 0 \;;
#X scalar g1 151.683 88.1705 0 \;;
#X scalar g1 151.009 88.339 0 \;;
#X scalar g1 150.201 88.4726 0 \;;
#X scalar g1 148.838 88.3755 0 \;;
#X scalar g1 147.585 88.4678 0 \;;
#X scalar g1 145.929 88.2914 0 \;;
#X scalar g1 144.599 88.3524 0 \;;
#X scalar g1 143.973 88.4883 0 \;;
#X scalar g1 143.498 88.4006 0 \;;
#X scalar g1 143.207 88.3784 0 \;;
#X scalar g1 143.145 88.4186 0 \;;
#X scalar g1 143.604 88.4756 0 \;;
#X scalar g1 143.164 88.2782 0 \;;
#X scalar g1 142.447 88.1733 0 \;;
#X scalar g1 142.606 88.4437 0 \;;
#X scalar g1 142.435 88.5705 0 \;;
#X scalar g1 141.299 88.4633 0 \;;
#X scalar g1 140.994 88.7722 0 \;;
#X scalar g1 139.327 89.219 0 \;;
#X scalar g1 138.71 90.1036 0 \;;
#X scalar g1 137.558 90.2935 0 \;;
#X scalar g1 136.786 90.427 0 \;;
#X scalar g1 136.017 90.4571 0 \;;
#X scalar g1 135.127 90.6561 0 \;;
#X scalar g1 134.258 90.9284 0 \;;
#X scalar g1 133.305 91.2205 0 \;;
#X scalar g1 132.448 91.57 0 \;;
#X scalar g1 131.318 91.8347 0 \;;
#X scalar g1 129.328 91.9366 0 \;;
#X scalar g1 128.506 91.7948 0 \;;
#X scalar g1 127.47 91.9512 0 \;;
#X scalar g1 126.41 91.9815 0 \;;
#X scalar g1 125.928 91.9232 0 \;;
#X scalar g1 125.56 91.8706 0 \;;
#X scalar g1 124.442 91.9754 0 \;;
#X scalar g1 124.022 92.2047 0 \;;
#X scalar g1 123.41 92.4861 0 \;;
#X scalar g1 123.172 92.7034 0 \;;
#X scalar g1 122.714 92.4422 0 \;;
#X scalar g1 122.404 92.3687 0 \;;
#X scalar g1 122.36 92.421 0 \;;
#X scalar g1 121.759 92.3513 0 \;;
#X scalar g1 121.088 92.519 0 \;;
#X scalar g1 120.981 92.9686 0 \;;
#X scalar g1 120.489 93.3176 0 \;;
#X scalar g1 118.797 93.4901 0 \;;
#X scalar g1 118.057 94.049 0 \;;
#X scalar g1 117.531 94.464 0 \;;
#X scalar g1 116.404 94.5398 0 \;;
#X scalar g1 115.054 94.5344 0 \;;
#X scalar g1 114.034 94.688 0 \;;
#X scalar g1 112.823 94.8218 0 \;;
#X scalar g1 111.647 94.7799 0 \;;
#X scalar g1 110.945 94.8991 0 \;;
#X scalar g1 109.298 94.9964 0 \;;
#X scalar g1 108.931 95.2317 0 \;;
#X scalar g1 108.374 95.3074 0 \;;
#X scalar g1 107.316 95.1829 0 \;;
#X scalar g1 106.532 95.1501 0 \;;
#X scalar g1 105.721 95.171 0 \;;
#X scalar g1 104.485 95.1975 0 \;;
#X scalar g1 103.059 95.294 0 \;;
#X scalar g1 101.295 95.3254 0 \;;
#X scalar g1 98.9775 95.5222 0 \;;
#X scalar g1 97.1984 95.2504 0 \;;
#X scalar g1 95.8327 95.1282 0 \;;
#X scalar g1 94.4325 95.1257 0 \;;
#X scalar g1 92.9303 94.9967 0 \;;
#X scalar g1 91.6156 94.823 0 \;;
#X scalar g1 90.6256 94.7349 0 \;;
#X scalar g1 89.6304 94.5129 0 \;;
#X scalar g1 88.7246 94.4175 0 \;;
#X scalar g1 87.1838 94.4832 0 \;;
#X scalar g1 86.4361 95.0621 0 \;;
#X scalar g1 85.58 95.0125 0 \;;
#X scalar g1 84.6859 94.8921 0 \;;
#X scalar g1 83.6125 95.0285 0 \;;
#X scalar g1 82.1689 95.1857 0 \;;
#X scalar g1 80.8565 95.3398 0 \;;
#X scalar g1 79.7536 95.4531 0 \;;
#X scalar g1 78.7333 95.4037 0 \;;
#X scalar g1 76.8873 95.203 0 \;;
#X scalar g1 75.9832 95.3209 0 \;;
#X scalar g1 75.6418 95.6192 0 \;;
#X scalar g1 75.3532 95.6559 0 \;;
#X scalar g1 74.6885 95.5696 0 \;;
#X scalar g1 73.7678 95.8279 0 \;;
#X scalar g1 73.3803 96.2591 0 \;;
#X scalar g1 72.9033 96.2416 0 \;;
#X scalar g1 72.4175 96.2038 0 \;;
#X scalar g1 70.8679 96.4373 0 \;;
#X scalar g1 70.1478 96.5438 0 \;;
#X scalar g1 69.0975 96.7515 0 \;;
#X scalar g1 67.9457 97.1629 0 \;;
#X scalar g1 66.7508 97.5709 0 \;;
#X scalar g1 65.8429 97.7057 0 \;;
#X scalar g1 64.8919 97.8228 0 \;;
#X scalar g1 63.7122 98.2473 0 \;;
#X scalar g1 62.4465 98.7649 0 \;;
#X scalar g1 60.7972 99.1439 0 \;;
#X scalar g1 57.354 99.411 0 \;;
#X scalar g1 55.661 99.6425 0 \;;
#X scalar g1 54.4718 99.1953 0 \;;
#X scalar g1 52.8783 98.8231 0 \;;
#X scalar g1 50.8967 98.7313 0 \;;
#X scalar g1 49.408 98.7735 0 \;;
#X scalar g1 48.3318 98.4723 0 \;;
#X scalar g1 46.5687 97.9628 0 \;;
#X scalar g1 44.8609 97.851 0 \;;
#X scalar g1 42.1507 97.5421 0 \;;
#X scalar g1 39.9265 96.4772 0 \;;
#X scalar g1 38.2942 96.1823 0 \;;
#X scalar g1 36.8021 95.6845 0 \;;
#X scalar g1 34.5183 94.982 0 \;;
#X scalar g1 32.4035 94.5802 0 \;;
#X scalar g1 30.7645 94.7166 0 \;;
#X scalar g1 28.609 94.3446 0 \;;
#X scalar g1 26.2143 93.4468 0 \;;
#X scalar g1 22.1426 93.789 0 \;;
#X scalar g1 20.1878 92.4717 0 \;;
#X scalar g1 18.3759 91.7633 0 \;;
#X scalar g1 17.3744 91.6579 0 \;;
#X scalar g1 16.3794 91.1659 0 \;;
#X scalar g1 14.9054 90.6623 0 \;;
#X scalar g1 13.4185 90.413 0 \;;
#X scalar g1 12.722 90.1277 0 \;;
#X scalar g1 11.5796 89.6204 0 \;;
#X scalar g1 7.9258 89.1255 0 \;;
#X scalar g1 6.40085 88.7918 0 \;;
#X scalar g1 4.59293 88.4379 0 \;;
#X scalar g1 1.94297 88.1713 0 \;;
#X scalar g1 -0.301518 87.9724 0 \;;
#X scalar g1 -2.17355 87.4492 0 \;;
#X scalar g1 -4.17995 87.0748 0 \;;
#X scalar g1 -6.03982 86.7445 0 \;;
#X scalar g1 -8.38156 86.7383 0 \;;
#X scalar g1 -11.6067 87.1677 0 \;;
#X scalar g1 -13.3553 87.571 0 \;;
#X scalar g1 -15.317 87.6961 0 \;;
#X scalar g1 -16.9639 88.0515 0 \;;
#X scalar g1 -18.7077 88.34 0 \;;
#X scalar g1 -21.7846 88.6334 0 \;;
#X scalar g1 -25.0887 88.9093 0 \;;
#X scalar g1 -28.746 89.466 0 \;;
#X scalar g1 -32.9381 89.8503 0 \;;
#X scalar g1 -45.4758 90.1198 0 \;;
#X scalar g1 -52.5569 92.8571 0 \;;
#X scalar g1 -60.6207 94.5856 0 \;;
#X scalar g1 -69.7906 96.5978 0 \;;
#X scalar g1 -78.6993 99.5195 0 \;;
#X scalar g1 -86.0735 103.313 0 \;;
#X scalar g1 -92.7012 106.605 0 \;;
#X scalar g1 -100.595 109.144 0 \;;
#X scalar g1 -107.539 111.78 0 \;;
#X scalar g1 -119.69 114.082 0 \;;
#X scalar g1 -127.454 117.557 0 \;;
#X scalar g1 -136.287 121.275 0 \;;
#X scalar g1 -144.442 126.395 0 \;;
#X scalar g1 -152.005 132.761 0 \;;
#X scalar g1 -157.076 142.227 0 \;;
#X scalar g1 -157.522 156.373 0 \;;
#X scalar g1 -149.837 176.244 0 \;;
#X scalar g1 -137.495 199.958 0 \;;
#X scalar g1 -120.01 226.319 0 \;;
#X scalar g1 -60.9998 254.268 0 \;;
#X scalar g1 -29.9435 310.95 0 \;;
#X scalar g1 -1.32975 337.955 0 \;;
#X scalar g1 24.9677 360.682 0 \;;
#X scalar g1 46.8888 376.153 0 \;;
#X scalar g1 66.7255 383.281 0 \;;
#X scalar g1 90.2072 381.793 0 \;;
#X scalar g1 110.977 371.037 0 \;;
#X scalar g1 128.496 353.825 0 \;;
#X scalar g1 152.583 331.968 0 \;;
#X scalar g1 153.924 274.215 0 \;;
#X scalar g1 145.704 244.598 0 \;;
#X scalar g1 130.926 217.92 0 \;;
#X scalar g1 115.848 195.261 0 \;;
#X scalar g1 93.1755 175.916 0 \;;
#X scalar g1 59.254 159.326 0 \;;
#X scalar g1 23.0417 146.536 0 \;;
#X scalar g1 -2.90401 136.483 0 \;;
#X scalar g1 -37.0053 126.558 0 \;;
#X scalar g1 -68.4964 111.88 0 \;;
#X scalar g1 -98.9644 116.255 0 \;;
#X scalar g1 -116.053 123.952 0 \;;
#X scalar g1 -130.074 130.987 0 \;;
#X scalar g1 -141.499 140.988 0 \;;
#X scalar g1 -143.081 152.412 0 \;;
#X scalar g1 -132.719 160.106 0 \;;
#X scalar g1 -112.052 163.847 0 \;;
#X scalar g1 -54.1432 167.096 0 \;;
#X scalar g1 -20.3356 180.838 0 \;;
#X scalar g1 19.2746 190.163 0 \;;
#X scalar g1 61.3096 199.648 0 \;;
#X scalar g1 95.0099 208.788 0 \;;
#X scalar g1 120.823 218.062 0 \;;
#X scalar g1 142.154 226.09 0 \;;
#X scalar g1 158.469 232.12 0 \;;
#X scalar g1 163.162 235.917 0 \;;
#X scalar g1 129.502 239.917 0 \;;
#X scalar g1 82.6057 260.403 0 \;;
#X scalar g1 20.0573 282.409 0 \;;
#X scalar g1 -42.2489 312.2 0 \;;
#X scalar g1 -103.38 345.009 0 \;;
#X scalar g1 -161.382 377.259 0 \;;
#X scalar g1 -210.037 409.057 0 \;;
#X scalar g1 -256.158 435.918 0 \;;
#X scalar g1 -309.409 454.46 0 \;;
#X scalar g1 -381.407 460.515 0 \;;
#X scalar g1 -398.202 447.263 0 \;;
#X scalar g1 -407.507 440.76 0 \;;
#X scalar g1 -417.122 439.908 0 \;;
#X scalar g1 -424.119 434.441 0 \;;
#X scalar g1 -427.928 433.872 0 \;;
#X scalar g1 -428.754 440.788 0 \;;
#X scalar g1 -428.481 451.233 0 \;;
#X scalar g1 -419.861 462.923 0 \;;
#X scalar g1 -395.927 487.67 0 \;;
#X scalar g1 -376.767 537.521 0 \;;
#X scalar g1 -351.769 561.569 0 \;;
#X scalar g1 -336.187 581.579 0 \;;
#X scalar g1 -330.894 585.539 0 \;;
#X scalar g1 -321.875 577.853 0 \;;
#X scalar g1 -306.966 567.676 0 \;;
#X scalar g1 -287.849 554.191 0 \;;
#X scalar g1 -268.053 537.913 0 \;;
#X scalar g1 -232.619 521.656 0 \;;
#X scalar g1 -220.478 495.355 0 \;;
#X scalar g1 -213.632 480.746 0 \;;
#X scalar g1 -209.474 466.735 0 \;;
#X scalar g1 -205.978 459.012 0 \;;
#X scalar g1 -203.829 457.729 0 \;;
#X scalar g1 -198.336 457.09 0 \;;
#X scalar g1 -192.535 455.918 0 \;;
#X scalar g1 -185.949 457.302 0 \;;
#X scalar g1 -161.608 457.929 0 \;;
#X scalar g1 -152.71 456.728 0 \;;
#X scalar g1 -146.148 456.235 0 \;;
#X scalar g1 -143.817 456.611 0 \;;
#X scalar g1 -144.348 457.267 0 \;;
#X scalar g1 -145.205 457.855 0 \;;
#X scalar g1 -144.419 457.809 0 \;;
#X scalar g1 -142.412 458.285 0 \;;
#X scalar g1 -136.759 458.959 0 \;;
#X scalar g1 -135.134 459.698 0 \;;
#X scalar g1 -134.977 458.754 0 \;;
#X scalar g1 -135.193 455.97 0 \;;
#X scalar g1 -136.412 453.164 0 \;;
#X scalar g1 -138.399 451.122 0 \;;
#X scalar g1 -141.317 450.486 0 \;;
#X scalar g1 -144.453 449.651 0 \;;
#X scalar g1 -148.332 449.019 0 \;;
#X scalar g1 -160.804 448.96 0 \;;
#X scalar g1 -163.176 445.908 0 \;;
#X scalar g1 -162.608 444.985 0 \;;
#X scalar g1 -159.493 443.889 0 \;;
#X scalar g1 -156.083 442.924 0 \;;
#X scalar g1 -153.844 442.261 0 \;;
#X scalar g1 -151.211 442.297 0 \;;
#X scalar g1 -148.287 442.428 0 \;;
#X scalar g1 -146.336 443.364 0 \;;
#X scalar g1 -156.737 446.493 0 \;;
#X scalar g1 -159.034 461.337 0 \;;
#X scalar g1 -158.451 475.967 0 \;;
#X scalar g1 -164.372 485.054 0 \;;
#X scalar g1 -171.323 499.72 0 \;;
#X scalar g1 -165.683 518.544 0 \;;
#X scalar g1 -152.797 539.727 0 \;;
#X scalar g1 -149.802 564.478 0 \;;
#X scalar g1 -154.111 581.913 0 \;;
#X scalar g1 -160.014 592.438 0 \;;
#X scalar g1 -156.811 619.335 0 \;;
#X scalar g1 -152.576 636.862 0 \;;
#X scalar g1 -157.254 644.836 0 \;;
#X scalar g1 -170.375 645.808 0 \;;
#X scalar g1 -193.933 642.504 0 \;;
#X scalar g1 -220.76 631.933 0 \;;
#X scalar g1 -245.948 618.864 0 \;;
#X scalar g1 -430.078 597.287 0 \;;
#X scalar g1 -445.206 364.566 0 \;;
#X scalar g1 -450.971 336.636 0 \;;
#X scalar g1 -454.032 322.179 0 \;;
#X scalar g1 -459.268 314.914 0 \;;
#X scalar g1 -467.738 306.635 0 \;;
#X scalar g1 -467.516 272.867 0 \;;
#X scalar g1 -466.87 255.337 0 \;;
#X scalar g1 -467.946 241.972 0 \;;
#X scalar g1 -466.798 229.416 0 \;;
#X scalar g1 -461.262 218.459 0 \;;
#X scalar g1 -459.841 211.955 0 \;;
#X scalar g1 -464.57 202.61 0 \;;
#X scalar g1 -467.699 192.612 0 \;;
#X scalar g1 -468.934 187.887 0 \;;
#X scalar g1 -461.042 184.529 0 \;;
#X scalar g1 -450.781 183.312 0 \;;
#X scalar g1 -435.784 185.426 0 \;;
#X scalar g1 -422.546 189.972 0 \;;
#X scalar g1 -410.11 197.076 0 \;;
#X scalar g1 -394.28 204.219 0 \;;
#X scalar g1 -373.74 208.981 0 \;;
#X scalar g1 -351.356 215.64 0 \;;
#X scalar g1 -331.53 228.01 0 \;;
#X scalar g1 -290.682 245.416 0 \;;
#X scalar g1 -267.891 278.607 0 \;;
#X scalar g1 -256.909 286.499 0 \;;
#X scalar g1 -254.33 283.462 0 \;;
#X scalar g1 -255.2 276.432 0 \;;
#X scalar g1 -257.068 270.622 0 \;;
#X scalar g1 -259.527 267.093 0 \;;
#X scalar g1 -264.761 265.701 0 \;;
#X scalar g1 -272.577 266.211 0 \;;
#X scalar g1 -287.168 267.447 0 \;;
#X scalar g1 -294.33 272.283 0 \;;
#X scalar g1 -310.265 273.584 0 \;;
#X scalar g1 -314.529 267.664 0 \;;
#X restore 494 158 pd graphic;
#X connect 1 0 4 0;
#X connect 2 0 1 0;
#X connect 3 0 2 0;
#X connect 4 0 5 0;
#X connect 5 0 6 0;
#X connect 6 0 0 0;
#X connect 6 0 7 0;
#X connect 7 0 8 0;
#X connect 8 0 9 0;
#X connect 8 1 10 0;
#X connect 8 2 11 0;
#X connect 8 3 12 0;
#X connect 10 0 13 0;
#X connect 10 0 14 0;
#X connect 11 0 13 1;
#X connect 11 0 14 1;
#X connect 13 0 17 0;
#X connect 14 0 15 0;
#X connect 15 0 29 0;
#X connect 16 0 25 0;
#X connect 17 0 16 0;
#X connect 21 0 20 2;
#X connect 22 0 21 0;
#X connect 23 0 21 0;
#X connect 24 0 20 0;
#X connect 25 0 24 0;
#X connect 26 0 24 1;
#X connect 27 0 20 0;
#X connect 29 0 26 0;
