#N canvas 216 383 708 300 12;
#X obj 222 140 oscparse;
#X obj 222 163 print parse-output;
#X obj 222 86 netreceive -u -b;
#X msg 222 31 listen 5000;
#X msg 234 59 listen 0;
#X msg 410 29 1 2 3;
#X obj 410 150 oscformat cat horse pig;
#X msg 432 85 set dog ferret;
#X msg 430 112 set mouse banana;
#X obj 431 199 oscparse;
#X obj 410 261 print packet;
#X msg 418 56 4 5 weasel 6 7 rat;
#X msg 584 262 disconnect;
#X obj 565 288 netsend -u -b;
#X msg 574 237 connect localhost 5000;
#X obj 566 187 list prepend send;
#X obj 566 212 list trim;
#X obj 431 224 print reassembled;
#X connect 0 0 1 0;
#X connect 2 0 0 0;
#X connect 3 0 2 0;
#X connect 4 0 2 0;
#X connect 5 0 6 0;
#X connect 6 0 10 0;
#X connect 6 0 15 0;
#X connect 6 0 9 0;
#X connect 7 0 6 0;
#X connect 8 0 6 0;
#X connect 9 0 17 0;
#X connect 11 0 6 0;
#X connect 12 0 13 0;
#X connect 14 0 13 0;
#X connect 15 0 16 0;
#X connect 16 0 13 0;
