#N canvas 903 197 690 576 12;
#X msg 93 202 disconnect;
#X obj 74 228 netsend -u -b;
#X msg 83 177 connect localhost 5000;
#X obj 75 127 list prepend send;
#X obj 75 152 list trim;
#X obj 76 86 oscformat kn1;
#X obj 39 108 vsl 15 128 0 127 0 0 empty empty empty 0 -9 0 10 -262144
-1 -1 0 1;
#X msg 54 52 connect 192.168.1.11. 5000;
#X obj 309 58 clock;
#X floatatom 309 173 5 0 0 0 - - -;
#X obj 310 205 oscformat clk;
#X connect 0 0 1 0;
#X connect 2 0 1 0;
#X connect 3 0 4 0;
#X connect 4 0 1 0;
#X connect 5 0 3 0;
#X connect 6 0 5 0;
#X connect 7 0 1 0;
#X connect 8 0 9 0;
#X connect 9 0 10 0;
#X connect 10 0 3 0;
