#N canvas 610 131 828 533 12;
#X obj 32 94 oscparse;
#X obj 32 65 netreceive -u -b;
#X msg 32 33 listen 5000;
#X obj 32 125 list trim;
#X obj 33 158 spigot;
#X obj 106 143 tgl 15 0 empty empty empty 17 7 0 10 -262144 -1 -1 1
1;
#X obj 33 185 print monitor;
#X obj 169 158 route clk;
#X obj 169 191 s cl;
#X obj 253 158 route midin;
#X obj 258 226 midiout;
#X obj 251 190 unpack 0 0;
#X obj 35 305 vsl 15 128 0 127 0 0 empty empty empty 0 -9 0 10 -262144
-1 -1 0 1;
#X obj 67 304 vsl 15 128 0 127 0 0 empty empty empty 0 -9 0 10 -262144
-1 -1 12700 1;
#X obj 96 306 vsl 15 128 0 127 0 0 empty empty empty 0 -9 0 10 -262144
-1 -1 12700 1;
#X obj 128 305 vsl 15 128 0 127 0 0 empty empty empty 0 -9 0 10 -262144
-1 -1 12700 1;
#X obj 161 305 vsl 15 128 0 127 0 0 empty empty empty 0 -9 0 10 -262144
-1 -1 12700 1;
#X obj 193 304 vsl 15 128 0 127 0 0 empty empty empty 0 -9 0 10 -262144
-1 -1 12700 1;
#X obj 222 306 vsl 15 128 0 127 0 0 empty empty empty 0 -9 0 10 -262144
-1 -1 12700 1;
#X obj 254 305 vsl 15 128 0 127 0 0 empty empty empty 0 -9 0 10 -262144
-1 -1 12700 1;
#X obj 30 263 route sl1 sl2 sl3 sl4 sl5 sl6 sl7 sl8;
#X connect 0 0 3 0;
#X connect 1 0 0 0;
#X connect 2 0 1 0;
#X connect 3 0 4 0;
#X connect 3 0 7 0;
#X connect 3 0 9 0;
#X connect 3 0 20 0;
#X connect 4 0 6 0;
#X connect 5 0 4 1;
#X connect 7 0 8 0;
#X connect 9 0 11 0;
#X connect 11 0 10 0;
#X connect 11 1 10 1;
#X connect 20 0 12 0;
#X connect 20 1 13 0;
#X connect 20 2 14 0;
#X connect 20 3 15 0;
#X connect 20 4 16 0;
#X connect 20 5 17 0;
#X connect 20 6 18 0;
#X connect 20 7 19 0;
