#N canvas 57 57 1366 723 12;
#X declare -lib Gem;
#X obj 470 359 cnv 15 100 60 empty empty empty 20 12 0 14 -195568 -66577
0;
#N canvas 884 136 720 502 gemwin 0;
#X obj 132 136 gemwin;
#X obj 67 89 outlet;
#X obj 67 10 inlet;
#X obj 67 41 route create;
#X msg 67 70 set destroy;
#X msg 142 68 set create;
#X msg 226 112 destroy \, reset;
#X msg 55 113 dimen 700 700 \, create \, 1;
#X connect 2 0 3 0;
#X connect 3 0 4 0;
#X connect 3 0 7 0;
#X connect 3 1 5 0;
#X connect 3 1 6 0;
#X connect 4 0 1 0;
#X connect 5 0 1 0;
#X connect 6 0 0 0;
#X connect 7 0 0 0;
#X restore 475 398 pd gemwin;
#X msg 475 379 create;
#X text 471 358 Create window:;
#X obj 527 88 rotateXYZ;
#X floatatom 599 167 5 0 10 0 - - -;
#X msg 599 183 width \$1;
#X floatatom 600 124 5 0 100 0 - - -;
#X obj 579 359 cnv 15 90 60 empty empty empty 20 12 0 14 -195568 -66577
0;
#N canvas 0 0 450 300 dsp 0;
#X obj 74 87 r \$0-dsp;
#X obj 74 108 route set;
#X msg 132 131 \; pd dsp \$1;
#X obj 280 98 r pd;
#X obj 280 119 route dsp;
#X obj 280 170 s \$0-dsp;
#X msg 280 148 set \$1;
#X connect 0 0 1 0;
#X connect 1 1 2 0;
#X connect 3 0 4 0;
#X connect 4 0 6 0;
#X connect 6 0 5 0;
#X restore 587 396 pd dsp;
#X obj 590 362 tgl 30 0 \$0-dsp \$0-dsp dsp 35 15 2 12 -262144 -1 -1
1 1;
#X msg 600 141 length \$1;
#X obj 568 8 declare -lib Gem;
#X obj 313 209 channelst;
#X obj 368 533 scopeXYZ~ 512;
#X obj 550 56 color 1 0 0;
#X obj 347 97 osc~;
#X obj 750 76 vsl 15 128 0 360 0 0 empty empty empty 0 -9 0 10 -262144
-1 -1 0 1;
#X obj 777 76 vsl 15 128 0 360 0 0 empty empty empty 0 -9 0 10 -262144
-1 -1 0 1;
#X obj 809 79 vsl 15 128 0 360 0 0 empty empty empty 0 -9 0 10 -262144
-1 -1 0 1;
#X obj 303 97 osc~;
#X obj 137 61 vsl 15 500 0 1 0 0 empty empty empty 0 -9 0 10 -262144
-1 -1 13800 1;
#X obj 282 10 bng 15 250 50 0 empty empty empty 17 7 0 10 -262144 -1
-1;
#X msg 226 51 0;
#X msg 399 67 0.25;
#X obj 389 145 triosc~;
#X msg 353 49 100;
#X msg 479 163 draw linestrip;
#X obj 756 267 adc~;
#X obj 710 328 channelst;
#X obj 235 208 sqosc~;
#X msg 683 97 450;
#X obj 959 190 osc~;
#X obj 894 103 bng 15 250 50 0 empty empty empty 17 7 0 10 -262144
-1 -1;
#X msg 838 144 0;
#X obj 942 243 channelst;
#X obj 1060 110 rotateXYZ;
#X obj 894 539 scopeXYZ~ 512;
#X obj 1076 62 color 1 0 0;
#X msg 1005 169 draw linestrip;
#X msg 965 150 1000;
#X msg 1013 129 0.25;
#X msg 309 49 101;
#X obj 896 190 triosc~;
#X msg 920 148 1001;
#X obj 1087 201 bng 15 250 50 0 empty empty empty 17 7 0 10 -262144
-1 -1;
#X msg 1031 242 0;
#X obj 1151 390 channelst;
#X obj 1263 315 rotateXYZ;
#X obj 1103 683 scopeXYZ~ 512;
#X msg 1158 248 1000;
#X msg 1206 227 0.25;
#X obj 1152 288 sqosc~;
#X obj 1189 344 *~;
#X obj 1221 342 *~;
#X obj 1251 382 kik;
#X obj 862 577 drumtrig;
#X obj 817 337 clock;
#X msg 1198 267 draw fill;
#X obj 1260 572 env~;
#X obj 1279 500 channelst;
#X obj 1240 611 / 100;
#X obj 1246 10 vsl 15 128 0 1 0 0 empty empty empty 0 -9 0 10 -262144
-1 -1 12700 1;
#X obj 1269 10 vsl 15 128 0 1 0 0 empty empty empty 0 -9 0 10 -262144
-1 -1 12700 1;
#X obj 1293 11 vsl 15 128 0 1 0 0 empty empty empty 0 -9 0 10 -262144
-1 -1 12700 1;
#X obj 1277 279 colorRGB 0 1 1;
#X obj 1330 8 vsl 15 128 0 1 0 0 empty empty empty 0 -9 0 10 -262144
-1 -1 0 1;
#X floatatom 812 254 5 0 10 0 - - -;
#X msg 812 270 width \$1;
#X obj 1157 -2 gemhead 3;
#X obj 1072 19 gemhead 4;
#X obj 462 8 gemhead 2;
#X obj 1089 288 triosc~;
#X msg 1113 246 50;
#X connect 1 0 2 0;
#X connect 2 0 1 0;
#X connect 4 0 14 0;
#X connect 5 0 6 0;
#X connect 6 0 14 0;
#X connect 7 0 11 0;
#X connect 11 0 14 0;
#X connect 13 0 14 1;
#X connect 13 1 14 2;
#X connect 15 0 4 0;
#X connect 16 0 13 5;
#X connect 17 0 4 1;
#X connect 18 0 4 2;
#X connect 19 0 4 3;
#X connect 20 0 13 4;
#X connect 22 0 23 0;
#X connect 22 0 24 0;
#X connect 22 0 42 0;
#X connect 22 0 26 0;
#X connect 23 0 20 1;
#X connect 23 0 30 2;
#X connect 24 0 16 1;
#X connect 24 0 25 1;
#X connect 25 0 13 4;
#X connect 26 0 16 0;
#X connect 26 0 25 0;
#X connect 27 0 14 0;
#X connect 28 0 29 4;
#X connect 28 1 29 5;
#X connect 29 0 13 5;
#X connect 30 0 13 5;
#X connect 31 0 7 0;
#X connect 32 0 35 5;
#X connect 33 0 34 0;
#X connect 33 0 41 0;
#X connect 33 0 44 0;
#X connect 33 0 40 0;
#X connect 34 0 43 1;
#X connect 35 0 37 1;
#X connect 35 1 37 2;
#X connect 36 0 37 0;
#X connect 38 0 36 0;
#X connect 39 0 37 0;
#X connect 40 0 32 0;
#X connect 41 0 32 1;
#X connect 42 0 20 0;
#X connect 42 0 30 0;
#X connect 43 0 35 4;
#X connect 44 0 43 0;
#X connect 45 0 46 0;
#X connect 45 0 51 0;
#X connect 45 0 73 0;
#X connect 45 0 50 0;
#X connect 46 0 72 1;
#X connect 47 0 49 1;
#X connect 47 1 49 2;
#X connect 48 0 49 0;
#X connect 50 0 52 0;
#X connect 51 0 52 2;
#X connect 52 0 54 0;
#X connect 53 0 47 4;
#X connect 54 0 47 5;
#X connect 55 0 59 0;
#X connect 56 0 55 0;
#X connect 58 0 49 0;
#X connect 59 0 61 0;
#X connect 61 0 53 1;
#X connect 61 0 54 1;
#X connect 62 0 65 1;
#X connect 63 0 65 2;
#X connect 64 0 65 3;
#X connect 65 0 48 0;
#X connect 66 0 65 4;
#X connect 67 0 68 0;
#X connect 68 0 37 0;
#X connect 69 0 65 0;
#X connect 70 0 38 0;
#X connect 71 0 15 0;
#X connect 72 0 53 0;
#X connect 73 0 72 0;
