#N canvas 58 23 899 651 12;
#X obj 321 304 sqosc~;
#X obj 382 304 triosc~;
#X obj 451 304 osc~;
#X floatatom 332 216 5 0 0 0 - - -;
#X msg 412 215 0;
#X obj 358 141 inlet;
#X obj 414 186 bng 15 250 50 0 empty empty empty 17 7 0 10 -262144
-1 -1;
#X obj 411 141 inlet;
#X obj 200 436 == 1;
#X obj 155 437 == 0;
#X obj 246 437 == 2;
#X obj 301 389 *~;
#X obj 375 389 *~;
#X obj 469 393 *~;
#X obj 103 103 vradio 15 1 0 3 empty empty wav 20 5 0 10 -262144 -1
-1 0;
#X obj 162 513 sig~;
#X obj 203 513 sig~;
#X obj 246 514 sig~;
#X obj 375 499 outlet~;
#X connect 0 0 11 0;
#X connect 1 0 12 0;
#X connect 2 0 13 0;
#X connect 3 0 0 0;
#X connect 3 0 1 0;
#X connect 3 0 2 0;
#X connect 4 0 0 2;
#X connect 4 0 1 1;
#X connect 4 0 2 1;
#X connect 5 0 3 0;
#X connect 6 0 4 0;
#X connect 7 0 6 0;
#X connect 8 0 16 0;
#X connect 9 0 15 0;
#X connect 10 0 17 0;
#X connect 11 0 18 0;
#X connect 12 0 18 0;
#X connect 13 0 18 0;
#X connect 14 0 9 0;
#X connect 14 0 8 0;
#X connect 14 0 10 0;
#X connect 15 0 11 1;
#X connect 16 0 12 1;
#X connect 17 0 13 1;
#X coords 0 -1 1 1 50 50 2 100 100;
