#N canvas 106 111 1161 634 12;
#X declare -lib Gem;
#X obj 121 539 scopeXYZ~;
#X msg 201 381 0;
#X obj 30 223 channelst;
#X obj 141 413 phasor~ 1;
#X obj 202 541 scopeXYZ~;
#X msg 282 389 0;
#X obj 222 447 *~ 8;
#X obj 222 472 -~ 4;
#X obj 222 420 phasor~ 1;
#X obj 227 313 bng 15 250 50 0 empty empty empty 17 7 0 10 -262144
-1 -1;
#X obj 141 444 *~ 8;
#X obj 141 473 -~ 4;
#X obj 331 169 gemhead 2;
#X obj 168 65 loadbang;
#X obj 234 64 inlet;
#X obj 62 119 inlet~;
#X obj 115 120 inlet~;
#X obj 291 129 gemwin;
#X msg 385 105 destroy \, reset;
#X msg 214 106 dimen 700 700 \, create \, 1;
#X obj 324 70 sel 0 1;
#X obj 352 203 colorRGB 0 1 0 0;
#X obj 222 204 colorRGB 1 0 1 1;
#X obj 506 505 scopeXYZ~;
#X msg 586 387 0;
#X obj 526 445 *~ 8;
#X obj 526 470 -~ 4;
#X obj 526 418 phasor~ 1;
#X obj 493 292 gemhead 1;
#X obj 222 171 gemhead 3;
#X obj 427 64 inlet;
#X text 16 11 oscilloscope period;
#X obj 522 27 hradio 15 1 0 4 empty empty empty 0 -8 0 10 -262144 -1
-1 0;
#X msg 411 343 length \$1;
#X msg 491 174 22050;
#X msg 516 233 44100;
#X msg 610 158 1;
#X msg 570 157 2;
#X obj 575 298 t f;
#X obj 516 -1 inlet;
#X obj 523 53 sel 1 0 2 3;
#X msg 409 20 0;
#X msg 671 158 441000;
#X msg 676 229 0.1;
#X obj 840 74 metro 1000;
#X obj 932 76 metro 10000;
#X obj 713 124 == 1;
#X obj 777 122 == 0;
#X obj 833 124 == 2;
#X obj 749 74 metro 500;
#X obj 873 206 t b;
#X msg 376 425 draw point;
#X obj 35 73 declare -lib Gem;
#X connect 1 0 3 1;
#X connect 2 0 0 2;
#X connect 2 1 4 2;
#X connect 3 0 10 0;
#X connect 5 0 8 1;
#X connect 6 0 7 0;
#X connect 7 0 4 1;
#X connect 8 0 6 0;
#X connect 9 0 1 0;
#X connect 9 0 5 0;
#X connect 9 0 51 0;
#X connect 9 0 24 0;
#X connect 10 0 11 0;
#X connect 11 0 0 1;
#X connect 12 0 21 0;
#X connect 13 0 9 0;
#X connect 13 0 41 0;
#X connect 14 0 20 0;
#X connect 15 0 2 4;
#X connect 16 0 2 5;
#X connect 18 0 17 0;
#X connect 19 0 17 0;
#X connect 20 0 18 0;
#X connect 20 1 19 0;
#X connect 21 0 4 0;
#X connect 22 0 0 0;
#X connect 24 0 27 1;
#X connect 25 0 26 0;
#X connect 26 0 23 1;
#X connect 27 0 25 0;
#X connect 28 0 23 0;
#X connect 29 0 22 0;
#X connect 30 0 9 0;
#X connect 32 0 40 0;
#X connect 32 0 46 0;
#X connect 32 0 47 0;
#X connect 32 0 48 0;
#X connect 33 0 0 0;
#X connect 33 0 4 0;
#X connect 33 0 23 0;
#X connect 34 0 33 0;
#X connect 35 0 33 0;
#X connect 36 0 38 0;
#X connect 37 0 38 0;
#X connect 38 0 27 0;
#X connect 38 0 3 0;
#X connect 38 0 8 0;
#X connect 39 0 32 0;
#X connect 40 0 34 0;
#X connect 40 0 37 0;
#X connect 40 1 35 0;
#X connect 40 1 36 0;
#X connect 40 2 42 0;
#X connect 40 2 43 0;
#X connect 41 0 32 0;
#X connect 42 0 33 0;
#X connect 43 0 38 0;
#X connect 44 0 50 0;
#X connect 45 0 50 0;
#X connect 46 0 49 0;
#X connect 47 0 44 0;
#X connect 48 0 45 0;
#X connect 49 0 50 0;
#X connect 50 0 9 0;
#X connect 51 0 0 0;
#X connect 51 0 4 0;
#X connect 51 0 23 0;
