#N canvas 65 39 1232 723 12;
#X obj 22 13 adc~ 1 2 3 4;
#X obj 133 58 channelst;
#X obj 24 62 channelst;
#X obj 85 342 freeverb~;
#X obj 65 386 channelst;
#X obj 348 213 oscparse;
#X obj 245 705 print parse-output;
#X obj 348 159 netreceive -u -b;
#X msg 348 104 listen 5000;
#X msg 360 132 listen 0;
#X obj 380 303 list trim;
#X obj 381 336 route ZIGSIM;
#X obj 377 372 route uPBTDGY4fa2mBv9y;
#X obj 382 439 unpack 0 0 0 0;
#X obj 380 475 vsl 15 128 -1 1 0 0 empty empty empty 0 -9 0 10 -262144
-1 -1 6044 1;
#X obj 415 476 vsl 15 128 -1 1 0 0 empty empty empty 0 -9 0 10 -262144
-1 -1 2555 1;
#X obj 449 476 vsl 15 128 -1 1 0 0 empty empty empty 0 -9 0 10 -262144
-1 -1 3212 1;
#X obj 372 409 route quaternion;
#X obj 480 472 vsl 15 128 -1 1 0 0 empty empty empty 0 -9 0 10 -262144
-1 -1 10347 1;
#X obj 425 652 +;
#X floatatom 415 702 5 0 0 0 - - -;
#X floatatom 468 700 5 0 0 0 - - -;
#X obj 466 650 -;
#X obj 654 476 vsl 15 128 -1 1 0 0 empty empty empty 0 -9 0 10 -262144
-1 -1 5035 1;
#X obj 599 529 hsl 128 15 -1 1 0 0 empty empty empty -2 -8 0 10 -262144
-1 -1 12700 1;
#X obj 564 663 * -1;
#X obj 645 253 sigmund~;
#X floatatom 650 281 5 0 0 0 - - -;
#X obj 837 165 osc~;
#X obj 742 319 channelst;
#X obj 539 84 channelst;
#X obj 481 145 env~;
#X floatatom 481 172 5 0 0 0 - - -;
#X obj 483 201 - 100;
#X floatatom 485 229 5 0 0 0 - - -;
#X obj 558 366 tgl 15 0 empty empty empty 17 7 0 10 -262144 -1 -1 0
1;
#X obj 559 450 vline~;
#X obj 527 522 *~;
#X obj 489 322 > -20;
#X obj 814 230 *~;
#X obj 649 668 * 12;
#X obj 633 425 vline~;
#X floatatom 693 682 10 0 0 0 - - -;
#X obj 710 648 vline~;
#X obj 758 136 +~;
#X obj 681 129 sig~;
#X obj 758 189 mtof~;
#X obj 536 622 * 2;
#X floatatom 502 295 5 0 0 0 - - -;
#X floatatom 656 351 5 0 0 0 - - -;
#X obj 604 352 / 70;
#X obj 711 71 pack 0 50;
#X obj 795 109 vline~;
#X obj 691 614 pack 0 100;
#X obj 683 37 del 20;
#X obj 497 265 + 65;
#X obj 992 131 *~ 1000;
#X obj 838 71 +~;
#X obj 913 67 osc~;
#X floatatom 930 265 5 0 0 0 - - -;
#X obj 947 322 + 1;
#X obj 797 272 *~;
#X obj 946 356 * 200;
#X obj 603 394 pack 0 100;
#X obj 533 399 pack 0 50;
#X obj 848 28 *~;
#X obj 1003 304 sig~;
#X connect 0 2 2 4;
#X connect 0 3 1 4;
#X connect 1 0 3 0;
#X connect 1 1 3 1;
#X connect 2 0 3 0;
#X connect 2 0 31 0;
#X connect 2 0 37 0;
#X connect 2 1 3 1;
#X connect 3 0 4 4;
#X connect 3 1 4 5;
#X connect 5 0 10 0;
#X connect 7 0 5 0;
#X connect 8 0 7 0;
#X connect 9 0 7 0;
#X connect 10 0 11 0;
#X connect 11 0 12 0;
#X connect 12 0 17 0;
#X connect 13 0 14 0;
#X connect 13 1 15 0;
#X connect 13 2 16 0;
#X connect 13 3 18 0;
#X connect 15 0 19 0;
#X connect 15 0 22 0;
#X connect 16 0 19 1;
#X connect 16 0 22 1;
#X connect 17 0 6 0;
#X connect 17 0 13 0;
#X connect 19 0 20 0;
#X connect 20 0 25 0;
#X connect 21 0 47 0;
#X connect 22 0 21 0;
#X connect 23 0 40 0;
#X connect 24 0 59 0;
#X connect 25 0 24 0;
#X connect 26 0 27 0;
#X connect 27 0 45 0;
#X connect 28 0 39 0;
#X connect 30 0 26 0;
#X connect 31 0 32 0;
#X connect 32 0 33 0;
#X connect 33 0 34 0;
#X connect 34 0 38 0;
#X connect 34 0 55 0;
#X connect 35 0 63 0;
#X connect 35 0 64 0;
#X connect 36 0 37 1;
#X connect 37 0 30 4;
#X connect 38 0 35 0;
#X connect 39 0 61 0;
#X connect 40 0 42 0;
#X connect 41 0 61 1;
#X connect 42 0 53 0;
#X connect 43 0 44 1;
#X connect 44 0 46 0;
#X connect 45 0 44 0;
#X connect 46 0 57 1;
#X connect 47 0 23 0;
#X connect 48 0 50 0;
#X connect 49 0 54 0;
#X connect 50 0 49 0;
#X connect 51 0 52 0;
#X connect 52 0 39 1;
#X connect 53 0 43 0;
#X connect 54 0 51 0;
#X connect 55 0 48 0;
#X connect 56 0 65 0;
#X connect 57 0 28 0;
#X connect 58 0 56 0;
#X connect 59 0 60 0;
#X connect 59 0 66 0;
#X connect 60 0 62 0;
#X connect 61 0 29 4;
#X connect 62 0 58 0;
#X connect 63 0 41 0;
#X connect 64 0 36 0;
#X connect 65 0 57 0;
#X connect 66 0 65 1;
