#N canvas 0 0 1280 778 12;
#X obj 70 206 osc~;
#X floatatom 537 93 5 0 0 0 - - -;
#X obj 134 211 osc~;
#X obj 127 180 * 2.125;
#X obj 212 213 osc~;
#X obj 204 182 * 3.75;
#X obj 295 209 osc~;
#X obj 287 178 * 12;
#X obj 367 211 osc~;
#X obj 359 180 * 44.8;
#X obj 434 211 osc~;
#X obj 512 213 osc~;
#X obj 565 210 osc~;
#X obj 637 212 osc~;
#X obj 427 180 * 65.69;
#X obj 504 182 * 86.6;
#X obj 563 179 * 90.2;
#X obj 629 181 * 114.8;
#X obj 464 324 adr;
#X obj 700 209 osc~;
#X obj 767 209 osc~;
#X obj 845 211 osc~;
#X obj 913 212 osc~;
#X obj 760 178 * 65.69;
#X obj 845 245 /~ 20;
#X obj 692 178 * 125.5;
#X obj 700 244 /~ 50;
#X obj 837 180 * 131.1;
#X obj 911 180 * 139.3;
#X obj 913 246 /~ 15;
#X obj 537 66 / 44.8;
#X obj 537 40 mtof;
#X obj 70 241 /~ 1000;
#X obj 134 245 /~ 700;
#X obj 434 245 /~ 10;
#X obj 512 247 /~ 15;
#X obj 636 246 /~ 60;
#X obj 212 247 /~ 300;
#X obj 295 243 /~ 90;
#X obj 367 245 /~ 5;
#X obj 565 244 /~ 10;
#X obj 767 243 /~ 7;
#X msg 523 -11 \$1;
#X obj 620 367 osc~;
#X floatatom 1087 254 5 0 0 0 - - -;
#X obj 684 372 osc~;
#X obj 685 343 * 2.125;
#X obj 762 374 osc~;
#X obj 762 345 * 3.75;
#X obj 845 370 osc~;
#X obj 845 341 * 12;
#X obj 917 372 osc~;
#X obj 917 343 * 44.8;
#X obj 984 372 osc~;
#X obj 1062 374 osc~;
#X obj 1115 371 osc~;
#X obj 1187 373 osc~;
#X obj 985 343 * 65.69;
#X obj 1062 345 * 86.6;
#X obj 1118 345 * 90.2;
#X obj 1187 344 * 114.8;
#X obj 1073 486 adr;
#X obj 1250 370 osc~;
#X obj 1317 370 osc~;
#X obj 1395 372 osc~;
#X obj 1463 373 osc~;
#X obj 1318 341 * 65.69;
#X obj 1397 414 /~ 20;
#X obj 1250 341 * 125.5;
#X obj 1252 413 /~ 50;
#X obj 1395 343 * 131.1;
#X obj 1469 343 * 139.3;
#X obj 1465 415 /~ 15;
#X obj 1087 227 / 44.8;
#X obj 1086 198 mtof;
#X obj 622 410 /~ 1000;
#X obj 686 414 /~ 700;
#X obj 986 414 /~ 10;
#X obj 1064 416 /~ 15;
#X obj 1188 415 /~ 60;
#X obj 764 416 /~ 300;
#X obj 847 412 /~ 90;
#X obj 919 414 /~ 5;
#X obj 1117 413 /~ 10;
#X obj 1319 412 /~ 7;
#X msg 1090 144 \$1;
#X obj 160 479 freeverb~;
#X msg 209 429 roomsize 0.9;
#X obj 539 15 + 30;
#X obj 1088 173 + 30;
#X msg 207 393 damping 0.7;
#X obj 119 575 channelst;
#X obj 376 485 ctlin;
#X floatatom 350 561 5 0 0 0 - - -;
#X floatatom 437 560 5 0 0 0 - - -;
#X floatatom 478 552 5 0 0 0 - - -;
#X connect 0 0 32 0;
#X connect 1 0 0 0;
#X connect 1 0 3 0;
#X connect 1 0 5 0;
#X connect 1 0 7 0;
#X connect 1 0 9 0;
#X connect 1 0 14 0;
#X connect 1 0 15 0;
#X connect 1 0 16 0;
#X connect 1 0 17 0;
#X connect 1 0 25 0;
#X connect 1 0 23 0;
#X connect 1 0 27 0;
#X connect 1 0 28 0;
#X connect 2 0 33 0;
#X connect 3 0 2 0;
#X connect 4 0 37 0;
#X connect 5 0 4 0;
#X connect 6 0 38 0;
#X connect 7 0 6 0;
#X connect 8 0 39 0;
#X connect 9 0 8 0;
#X connect 10 0 34 0;
#X connect 11 0 35 0;
#X connect 12 0 40 0;
#X connect 13 0 36 0;
#X connect 14 0 10 0;
#X connect 15 0 11 0;
#X connect 16 0 12 0;
#X connect 17 0 13 0;
#X connect 19 0 26 0;
#X connect 20 0 41 0;
#X connect 21 0 24 0;
#X connect 22 0 29 0;
#X connect 23 0 20 0;
#X connect 24 0 18 0;
#X connect 25 0 19 0;
#X connect 26 0 18 0;
#X connect 27 0 21 0;
#X connect 28 0 22 0;
#X connect 29 0 18 0;
#X connect 30 0 1 0;
#X connect 31 0 30 0;
#X connect 32 0 18 0;
#X connect 33 0 18 0;
#X connect 34 0 18 0;
#X connect 35 0 18 0;
#X connect 36 0 18 0;
#X connect 37 0 18 0;
#X connect 38 0 18 0;
#X connect 39 0 18 0;
#X connect 40 0 18 0;
#X connect 41 0 18 0;
#X connect 42 0 18 8;
#X connect 42 0 88 0;
#X connect 43 0 75 0;
#X connect 44 0 43 0;
#X connect 44 0 46 0;
#X connect 44 0 48 0;
#X connect 44 0 50 0;
#X connect 44 0 52 0;
#X connect 44 0 57 0;
#X connect 44 0 58 0;
#X connect 44 0 59 0;
#X connect 44 0 60 0;
#X connect 44 0 68 0;
#X connect 44 0 66 0;
#X connect 44 0 70 0;
#X connect 44 0 71 0;
#X connect 45 0 76 0;
#X connect 46 0 45 0;
#X connect 47 0 80 0;
#X connect 48 0 47 0;
#X connect 49 0 81 0;
#X connect 50 0 49 0;
#X connect 51 0 82 0;
#X connect 52 0 51 0;
#X connect 53 0 77 0;
#X connect 54 0 78 0;
#X connect 55 0 83 0;
#X connect 56 0 79 0;
#X connect 57 0 53 0;
#X connect 58 0 54 0;
#X connect 59 0 55 0;
#X connect 60 0 56 0;
#X connect 62 0 69 0;
#X connect 63 0 84 0;
#X connect 64 0 67 0;
#X connect 65 0 72 0;
#X connect 66 0 63 0;
#X connect 67 0 61 0;
#X connect 68 0 62 0;
#X connect 69 0 61 0;
#X connect 70 0 64 0;
#X connect 71 0 65 0;
#X connect 72 0 61 0;
#X connect 73 0 44 0;
#X connect 74 0 73 0;
#X connect 75 0 61 0;
#X connect 76 0 61 0;
#X connect 77 0 61 0;
#X connect 78 0 61 0;
#X connect 79 0 61 0;
#X connect 80 0 61 0;
#X connect 81 0 61 0;
#X connect 82 0 61 0;
#X connect 83 0 61 0;
#X connect 84 0 61 0;
#X connect 85 0 61 8;
#X connect 85 0 89 0;
#X connect 87 0 86 0;
#X connect 88 0 31 0;
#X connect 89 0 74 0;
#X connect 90 0 86 0;
#X connect 92 0 93 0;
#X connect 92 1 94 0;
#X connect 92 2 95 0;
