#N canvas 0 22 1680 1006 12;
#X obj 132 663 tabwrite~ array1;
#X obj 171 628 metro;
#X obj 284 631 /;
#X msg 270 565 1000;
#X obj 306 524 bng 15 250 50 0 empty empty empty 17 7 0 10 -262144
-1 -1;
#X obj 171 586 tgl 15 0 empty empty empty 17 7 0 10 -262144 -1 -1 1
1;
#X msg 316 566 24;
#X obj -1 637 channelst;
#X obj 261 980 dac~;
#X obj 153 354 catch~ add\$0;
#X obj 353 131 osc~;
#X obj 348 62 r f\$0;
#X obj 372 216 throw~ add\$0;
#X obj 390 157 vline~;
#X obj 390 130 pack 0 20;
#X obj 372 185 *~;
#X obj 390 106 pow 2;
#X obj 461 130 osc~;
#X obj 456 61 r f\$0;
#X obj 480 215 throw~ add\$0;
#X obj 498 156 vline~;
#X obj 498 129 pack 0 20;
#X obj 480 184 *~;
#X obj 498 105 pow 2;
#X obj 568 129 osc~;
#X obj 563 60 r f\$0;
#X obj 587 214 throw~ add\$0;
#X obj 605 155 vline~;
#X obj 605 128 pack 0 20;
#X obj 587 183 *~;
#X obj 605 104 pow 2;
#X obj 676 128 osc~;
#X obj 671 59 r f\$0;
#X obj 695 213 throw~ add\$0;
#X obj 713 154 vline~;
#X obj 713 127 pack 0 20;
#X obj 695 182 *~;
#X obj 713 103 pow 2;
#X obj 784 127 osc~;
#X obj 779 58 r f\$0;
#X obj 803 212 throw~ add\$0;
#X obj 821 153 vline~;
#X obj 821 126 pack 0 20;
#X obj 803 181 *~;
#X obj 821 102 pow 2;
#X obj 892 126 osc~;
#X obj 887 57 r f\$0;
#X obj 911 211 throw~ add\$0;
#X obj 929 152 vline~;
#X obj 929 125 pack 0 20;
#X obj 911 180 *~;
#X obj 929 101 pow 2;
#X obj 999 125 osc~;
#X obj 994 56 r f\$0;
#X obj 1018 210 throw~ add\$0;
#X obj 1036 151 vline~;
#X obj 1036 124 pack 0 20;
#X obj 1018 179 *~;
#X obj 1036 100 pow 2;
#X obj 1107 124 osc~;
#X obj 1102 55 r f\$0;
#X obj 1126 209 throw~ add\$0;
#X obj 1144 150 vline~;
#X obj 1144 123 pack 0 20;
#X obj 1126 178 *~;
#X obj 1144 99 pow 2;
#X obj 353 636 osc~;
#X obj 348 567 r f\$0;
#X obj 372 721 throw~ add\$0;
#X obj 390 662 vline~;
#X obj 390 470 vsl 15 128 0 1 0 0 empty empty empty 0 -9 0 10 -262144
-1 -1 8637 1;
#X obj 390 635 pack 0 20;
#X obj 372 690 *~;
#X obj 390 611 pow 2;
#X obj 461 635 osc~;
#X obj 456 566 r f\$0;
#X obj 480 720 throw~ add\$0;
#X obj 498 661 vline~;
#X obj 498 634 pack 0 20;
#X obj 480 689 *~;
#X obj 498 610 pow 2;
#X obj 568 634 osc~;
#X obj 563 565 r f\$0;
#X obj 587 719 throw~ add\$0;
#X obj 605 660 vline~;
#X obj 605 633 pack 0 20;
#X obj 587 688 *~;
#X obj 605 609 pow 2;
#X obj 676 633 osc~;
#X obj 671 564 r f\$0;
#X obj 695 718 throw~ add\$0;
#X obj 713 659 vline~;
#X obj 713 632 pack 0 20;
#X obj 695 687 *~;
#X obj 713 608 pow 2;
#X obj 784 632 osc~;
#X obj 779 563 r f\$0;
#X obj 803 717 throw~ add\$0;
#X obj 821 658 vline~;
#X obj 821 631 pack 0 20;
#X obj 803 686 *~;
#X obj 821 607 pow 2;
#X obj 892 631 osc~;
#X obj 887 562 r f\$0;
#X obj 911 716 throw~ add\$0;
#X obj 929 657 vline~;
#X obj 929 630 pack 0 20;
#X obj 911 685 *~;
#X obj 929 606 pow 2;
#X obj 999 630 osc~;
#X obj 994 561 r f\$0;
#X obj 1018 715 throw~ add\$0;
#X obj 1036 656 vline~;
#X obj 1036 629 pack 0 20;
#X obj 1018 684 *~;
#X obj 1036 605 pow 2;
#X obj 1107 629 osc~;
#X obj 1102 560 r f\$0;
#X obj 1126 714 throw~ add\$0;
#X obj 1144 655 vline~;
#X obj 1144 628 pack 0 20;
#X obj 1126 683 *~;
#X obj 1144 604 pow 2;
#X obj 1220 122 osc~;
#X obj 1215 53 r f\$0;
#X obj 1239 207 throw~ add\$0;
#X obj 1257 148 vline~;
#X obj 1257 121 pack 0 20;
#X obj 1239 176 *~;
#X obj 1257 97 pow 2;
#X obj 1328 121 osc~;
#X obj 1323 52 r f\$0;
#X obj 1347 206 throw~ add\$0;
#X obj 1365 147 vline~;
#X obj 1365 120 pack 0 20;
#X obj 1347 175 *~;
#X obj 1365 96 pow 2;
#X obj 1435 120 osc~;
#X obj 1430 51 r f\$0;
#X obj 1454 205 throw~ add\$0;
#X obj 1472 146 vline~;
#X obj 1472 119 pack 0 20;
#X obj 1454 174 *~;
#X obj 1472 95 pow 2;
#X obj 1543 119 osc~;
#X obj 1538 50 r f\$0;
#X obj 1562 204 throw~ add\$0;
#X obj 1580 145 vline~;
#X obj 1580 118 pack 0 20;
#X obj 1562 173 *~;
#X obj 1580 94 pow 2;
#X obj 1651 118 osc~;
#X obj 1646 49 r f\$0;
#X obj 1670 203 throw~ add\$0;
#X obj 1688 144 vline~;
#X obj 1688 117 pack 0 20;
#X obj 1670 172 *~;
#X obj 1688 93 pow 2;
#X obj 1759 117 osc~;
#X obj 1754 48 r f\$0;
#X obj 1778 202 throw~ add\$0;
#X obj 1796 143 vline~;
#X obj 1796 116 pack 0 20;
#X obj 1778 171 *~;
#X obj 1796 92 pow 2;
#X obj 1866 116 osc~;
#X obj 1861 47 r f\$0;
#X obj 1885 201 throw~ add\$0;
#X obj 1903 142 vline~;
#X obj 1903 115 pack 0 20;
#X obj 1885 170 *~;
#X obj 1903 91 pow 2;
#X obj 1974 115 osc~;
#X obj 1969 46 r f\$0;
#X obj 1993 200 throw~ add\$0;
#X obj 2011 141 vline~;
#X obj 2011 114 pack 0 20;
#X obj 1993 169 *~;
#X obj 2011 90 pow 2;
#X obj 1220 627 osc~;
#X obj 1215 558 r f\$0;
#X obj 1239 712 throw~ add\$0;
#X obj 1257 653 vline~;
#X obj 1257 626 pack 0 20;
#X obj 1239 681 *~;
#X obj 1257 602 pow 2;
#X obj 1328 626 osc~;
#X obj 1323 557 r f\$0;
#X obj 1347 711 throw~ add\$0;
#X obj 1365 652 vline~;
#X obj 1365 625 pack 0 20;
#X obj 1347 680 *~;
#X obj 1365 601 pow 2;
#X obj 1435 625 osc~;
#X obj 1430 556 r f\$0;
#X obj 1454 710 throw~ add\$0;
#X obj 1472 651 vline~;
#X obj 1472 624 pack 0 20;
#X obj 1454 679 *~;
#X obj 1472 600 pow 2;
#X obj 1543 624 osc~;
#X obj 1538 555 r f\$0;
#X obj 1562 709 throw~ add\$0;
#X obj 1580 650 vline~;
#X obj 1580 623 pack 0 20;
#X obj 1562 678 *~;
#X obj 1580 599 pow 2;
#X obj 1651 623 osc~;
#X obj 1646 554 r f\$0;
#X obj 1670 708 throw~ add\$0;
#X obj 1688 649 vline~;
#X obj 1688 622 pack 0 20;
#X obj 1670 677 *~;
#X obj 1688 598 pow 2;
#X obj 1759 622 osc~;
#X obj 1754 553 r f\$0;
#X obj 1778 707 throw~ add\$0;
#X obj 1796 648 vline~;
#X obj 1796 621 pack 0 20;
#X obj 1778 676 *~;
#X obj 1796 597 pow 2;
#X obj 1866 621 osc~;
#X obj 1861 552 r f\$0;
#X obj 1885 706 throw~ add\$0;
#X obj 1903 647 vline~;
#X obj 1903 620 pack 0 20;
#X obj 1885 675 *~;
#X obj 1903 596 pow 2;
#X obj 1974 620 osc~;
#X obj 1969 551 r f\$0;
#X obj 1993 705 throw~ add\$0;
#X obj 2011 646 vline~;
#X obj 2011 619 pack 0 20;
#X obj 1993 674 *~;
#X obj 2011 595 pow 2;
#X obj 354 103 * 1;
#X obj 462 102 * 2;
#X obj 569 101 * 3;
#X obj 677 100 * 4;
#X obj 785 99 * 5;
#X obj 893 98 * 6;
#X obj 1000 97 * 7;
#X obj 1108 96 * 8;
#X obj 1221 94 * 9;
#X obj 1329 93 * 10;
#X obj 1436 92 * 11;
#X obj 1544 91 * 12;
#X obj 1652 90 * 13;
#X obj 1760 89 * 14;
#X obj 1867 88 * 15;
#X obj 1975 87 * 16;
#X obj 82 -94 vsl 15 128 0 440 0 0 empty empty empty 0 -9 0 10 -262144
-1 -1 2379 1;
#X obj 24 17 s f\$0;
#X obj 354 608 * 17;
#X obj 462 607 * 18;
#X obj 569 606 * 19;
#X obj 677 605 * 20;
#X obj 785 604 * 21;
#X obj 893 603 * 22;
#X obj 1000 602 * 23;
#X obj 1108 601 * 24;
#X obj 1221 599 * 25;
#X obj 1329 598 * 26;
#X obj 1436 597 * 27;
#X obj 1544 596 * 28;
#X obj 1652 595 * 29;
#X obj 1760 594 * 30;
#X obj 1867 593 * 31;
#X obj 1975 592 * 32;
#X obj 194 -7 bng 15 250 50 0 empty empty empty 17 7 0 10 -262144 -1
-1;
#X obj 81 566 /~ 3;
#X obj 162 -92 vsl 15 128 0 2000 0 0 empty empty empty 0 -9 0 10 -262144
-1 -1 700 1;
#X obj 104 19 s t\$0;
#X obj 377 331 random 100;
#X obj 377 363 / 100;
#X obj 377 390 pack 0 $f1;
#X obj 443 363 r t\$0;
#X obj 378 417 line;
#X obj 380 297 r r\$0;
#X obj 192 21 s r\$0;
#X obj 245 20 s a\$0;
#X obj 244 -130 vsl 15 128 0 1 0 0 empty empty empty 0 -9 0 10 -262144
-1 -1 0 1;
#X obj 424 297 r a\$0;
#X obj 498 470 vsl 15 128 0 1 0 0 empty empty empty 0 -9 0 10 -262144
-1 -1 8785 1;
#X obj 485 331 random 100;
#X obj 485 363 / 100;
#X obj 485 390 pack 0 $f1;
#X obj 551 363 r t\$0;
#X obj 486 417 line;
#X obj 488 297 r r\$0;
#X obj 532 297 r a\$0;
#X obj 609 469 vsl 15 128 0 1 0 0 empty empty empty 0 -9 0 10 -262144
-1 -1 5576 1;
#X obj 596 330 random 100;
#X obj 596 362 / 100;
#X obj 596 389 pack 0 $f1;
#X obj 662 362 r t\$0;
#X obj 597 416 line;
#X obj 599 296 r r\$0;
#X obj 643 296 r a\$0;
#X obj 717 469 vsl 15 128 0 1 0 0 empty empty empty 0 -9 0 10 -262144
-1 -1 1625 1;
#X obj 704 330 random 100;
#X obj 704 362 / 100;
#X obj 704 389 pack 0 $f1;
#X obj 770 362 r t\$0;
#X obj 705 416 line;
#X obj 707 296 r r\$0;
#X obj 751 296 r a\$0;
#X obj 843 465 vsl 15 128 0 1 0 0 empty empty empty 0 -9 0 10 -262144
-1 -1 2524 1;
#X obj 830 326 random 100;
#X obj 830 358 / 100;
#X obj 830 385 pack 0 $f1;
#X obj 896 358 r t\$0;
#X obj 831 412 line;
#X obj 833 292 r r\$0;
#X obj 877 292 r a\$0;
#X obj 951 465 vsl 15 128 0 1 0 0 empty empty empty 0 -9 0 10 -262144
-1 -1 1500 1;
#X obj 938 326 random 100;
#X obj 938 358 / 100;
#X obj 938 385 pack 0 $f1;
#X obj 1004 358 r t\$0;
#X obj 939 412 line;
#X obj 941 292 r r\$0;
#X obj 985 292 r a\$0;
#X obj 1062 464 vsl 15 128 0 1 0 0 empty empty empty 0 -9 0 10 -262144
-1 -1 8384 1;
#X obj 1049 325 random 100;
#X obj 1049 357 / 100;
#X obj 1049 384 pack 0 $f1;
#X obj 1115 357 r t\$0;
#X obj 1050 411 line;
#X obj 1052 291 r r\$0;
#X obj 1096 291 r a\$0;
#X obj 1170 464 vsl 15 128 0 1 0 0 empty empty empty 0 -9 0 10 -262144
-1 -1 9840 1;
#X obj 1157 325 random 100;
#X obj 1157 357 / 100;
#X obj 1157 384 pack 0 $f1;
#X obj 1223 357 r t\$0;
#X obj 1158 411 line;
#X obj 1160 291 r r\$0;
#X obj 1204 291 r a\$0;
#X obj 1282 462 vsl 15 128 0 1 0 0 empty empty empty 0 -9 0 10 -262144
-1 -1 5458 1;
#X obj 1269 323 random 100;
#X obj 1269 355 / 100;
#X obj 1269 382 pack 0 $f1;
#X obj 1335 355 r t\$0;
#X obj 1270 409 line;
#X obj 1272 289 r r\$0;
#X obj 1316 289 r a\$0;
#X obj 1390 462 vsl 15 128 0 1 0 0 empty empty empty 0 -9 0 10 -262144
-1 -1 9795 1;
#X obj 1377 323 random 100;
#X obj 1377 355 / 100;
#X obj 1377 382 pack 0 $f1;
#X obj 1443 355 r t\$0;
#X obj 1378 409 line;
#X obj 1380 289 r r\$0;
#X obj 1424 289 r a\$0;
#X obj 1501 461 vsl 15 128 0 1 0 0 empty empty empty 0 -9 0 10 -262144
-1 -1 5658 1;
#X obj 1488 322 random 100;
#X obj 1488 354 / 100;
#X obj 1488 381 pack 0 $f1;
#X obj 1554 354 r t\$0;
#X obj 1489 408 line;
#X obj 1491 288 r r\$0;
#X obj 1535 288 r a\$0;
#X obj 1609 461 vsl 15 128 0 1 0 0 empty empty empty 0 -9 0 10 -262144
-1 -1 2342 1;
#X obj 1596 322 random 100;
#X obj 1596 354 / 100;
#X obj 1596 381 pack 0 $f1;
#X obj 1662 354 r t\$0;
#X obj 1597 408 line;
#X obj 1599 288 r r\$0;
#X obj 1643 288 r a\$0;
#X obj 1735 457 vsl 15 128 0 1 0 0 empty empty empty 0 -9 0 10 -262144
-1 -1 9794 1;
#X obj 1722 318 random 100;
#X obj 1722 350 / 100;
#X obj 1722 377 pack 0 $f1;
#X obj 1788 350 r t\$0;
#X obj 1723 404 line;
#X obj 1725 284 r r\$0;
#X obj 1769 284 r a\$0;
#X obj 1843 457 vsl 15 128 0 1 0 0 empty empty empty 0 -9 0 10 -262144
-1 -1 10543 1;
#X obj 1830 318 random 100;
#X obj 1830 350 / 100;
#X obj 1830 377 pack 0 $f1;
#X obj 1896 350 r t\$0;
#X obj 1831 404 line;
#X obj 1833 284 r r\$0;
#X obj 1877 284 r a\$0;
#X obj 1954 456 vsl 15 128 0 1 0 0 empty empty empty 0 -9 0 10 -262144
-1 -1 10738 1;
#X obj 1941 317 random 100;
#X obj 1941 349 / 100;
#X obj 1941 376 pack 0 $f1;
#X obj 2007 349 r t\$0;
#X obj 1942 403 line;
#X obj 1944 283 r r\$0;
#X obj 1988 283 r a\$0;
#X obj 2062 456 vsl 15 128 0 1 0 0 empty empty empty 0 -9 0 10 -262144
-1 -1 10303 1;
#X obj 2049 317 random 100;
#X obj 2049 349 / 100;
#X obj 2049 376 pack 0 $f1;
#X obj 2115 349 r t\$0;
#X obj 2050 403 line;
#X obj 2052 283 r r\$0;
#X obj 2096 283 r a\$0;
#X obj 392 -82 vsl 15 128 0 1 0 0 empty empty empty 0 -9 0 10 -262144
-1 -1 11223 1;
#X obj 379 -221 random 100;
#X obj 379 -189 / 100;
#X obj 379 -162 pack 0 $f1;
#X obj 445 -189 r t\$0;
#X obj 380 -135 line;
#X obj 382 -255 r r\$0;
#X obj 426 -255 r a\$0;
#X obj 500 -82 vsl 15 128 0 1 0 0 empty empty empty 0 -9 0 10 -262144
-1 -1 8775 1;
#X obj 487 -221 random 100;
#X obj 487 -189 / 100;
#X obj 487 -162 pack 0 $f1;
#X obj 553 -189 r t\$0;
#X obj 488 -135 line;
#X obj 490 -255 r r\$0;
#X obj 534 -255 r a\$0;
#X obj 611 -83 vsl 15 128 0 1 0 0 empty empty empty 0 -9 0 10 -262144
-1 -1 11328 1;
#X obj 598 -222 random 100;
#X obj 598 -190 / 100;
#X obj 598 -163 pack 0 $f1;
#X obj 664 -190 r t\$0;
#X obj 599 -136 line;
#X obj 601 -256 r r\$0;
#X obj 645 -256 r a\$0;
#X obj 719 -83 vsl 15 128 0 1 0 0 empty empty empty 0 -9 0 10 -262144
-1 -1 622 1;
#X obj 706 -222 random 100;
#X obj 706 -190 / 100;
#X obj 706 -163 pack 0 $f1;
#X obj 772 -190 r t\$0;
#X obj 707 -136 line;
#X obj 709 -256 r r\$0;
#X obj 753 -256 r a\$0;
#X obj 845 -87 vsl 15 128 0 1 0 0 empty empty empty 0 -9 0 10 -262144
-1 -1 9654 1;
#X obj 832 -226 random 100;
#X obj 832 -194 / 100;
#X obj 832 -167 pack 0 $f1;
#X obj 898 -194 r t\$0;
#X obj 833 -140 line;
#X obj 835 -260 r r\$0;
#X obj 879 -260 r a\$0;
#X obj 953 -87 vsl 15 128 0 1 0 0 empty empty empty 0 -9 0 10 -262144
-1 -1 12285 1;
#X obj 940 -226 random 100;
#X obj 940 -194 / 100;
#X obj 940 -167 pack 0 $f1;
#X obj 1006 -194 r t\$0;
#X obj 941 -140 line;
#X obj 943 -260 r r\$0;
#X obj 987 -260 r a\$0;
#X obj 1064 -88 vsl 15 128 0 1 0 0 empty empty empty 0 -9 0 10 -262144
-1 -1 10715 1;
#X obj 1051 -227 random 100;
#X obj 1051 -195 / 100;
#X obj 1051 -168 pack 0 $f1;
#X obj 1117 -195 r t\$0;
#X obj 1052 -141 line;
#X obj 1054 -261 r r\$0;
#X obj 1098 -261 r a\$0;
#X obj 1172 -88 vsl 15 128 0 1 0 0 empty empty empty 0 -9 0 10 -262144
-1 -1 1567 1;
#X obj 1159 -227 random 100;
#X obj 1159 -195 / 100;
#X obj 1159 -168 pack 0 $f1;
#X obj 1225 -195 r t\$0;
#X obj 1160 -141 line;
#X obj 1162 -261 r r\$0;
#X obj 1206 -261 r a\$0;
#X obj 1284 -90 vsl 15 128 0 1 0 0 empty empty empty 0 -9 0 10 -262144
-1 -1 6870 1;
#X obj 1271 -229 random 100;
#X obj 1271 -197 / 100;
#X obj 1271 -170 pack 0 $f1;
#X obj 1337 -197 r t\$0;
#X obj 1272 -143 line;
#X obj 1274 -263 r r\$0;
#X obj 1318 -263 r a\$0;
#X obj 1392 -90 vsl 15 128 0 1 0 0 empty empty empty 0 -9 0 10 -262144
-1 -1 4296 1;
#X obj 1379 -229 random 100;
#X obj 1379 -197 / 100;
#X obj 1379 -170 pack 0 $f1;
#X obj 1445 -197 r t\$0;
#X obj 1380 -143 line;
#X obj 1382 -263 r r\$0;
#X obj 1426 -263 r a\$0;
#X obj 1503 -91 vsl 15 128 0 1 0 0 empty empty empty 0 -9 0 10 -262144
-1 -1 2759 1;
#X obj 1490 -230 random 100;
#X obj 1490 -198 / 100;
#X obj 1490 -171 pack 0 $f1;
#X obj 1556 -198 r t\$0;
#X obj 1491 -144 line;
#X obj 1493 -264 r r\$0;
#X obj 1537 -264 r a\$0;
#X obj 1611 -91 vsl 15 128 0 1 0 0 empty empty empty 0 -9 0 10 -262144
-1 -1 7838 1;
#X obj 1598 -230 random 100;
#X obj 1598 -198 / 100;
#X obj 1598 -171 pack 0 $f1;
#X obj 1664 -198 r t\$0;
#X obj 1599 -144 line;
#X obj 1601 -264 r r\$0;
#X obj 1645 -264 r a\$0;
#X obj 1737 -95 vsl 15 128 0 1 0 0 empty empty empty 0 -9 0 10 -262144
-1 -1 2414 1;
#X obj 1724 -234 random 100;
#X obj 1724 -202 / 100;
#X obj 1724 -175 pack 0 $f1;
#X obj 1790 -202 r t\$0;
#X obj 1725 -148 line;
#X obj 1727 -268 r r\$0;
#X obj 1771 -268 r a\$0;
#X obj 1845 -95 vsl 15 128 0 1 0 0 empty empty empty 0 -9 0 10 -262144
-1 -1 6572 1;
#X obj 1832 -234 random 100;
#X obj 1832 -202 / 100;
#X obj 1832 -175 pack 0 $f1;
#X obj 1898 -202 r t\$0;
#X obj 1833 -148 line;
#X obj 1835 -268 r r\$0;
#X obj 1879 -268 r a\$0;
#X obj 1956 -96 vsl 15 128 0 1 0 0 empty empty empty 0 -9 0 10 -262144
-1 -1 1774 1;
#X obj 1943 -235 random 100;
#X obj 1943 -203 / 100;
#X obj 1943 -176 pack 0 $f1;
#X obj 2009 -203 r t\$0;
#X obj 1944 -149 line;
#X obj 1946 -269 r r\$0;
#X obj 1990 -269 r a\$0;
#X obj 2064 -96 vsl 15 128 0 1 0 0 empty empty empty 0 -9 0 10 -262144
-1 -1 5784 1;
#X obj 2051 -235 random 100;
#X obj 2051 -203 / 100;
#X obj 2051 -176 pack 0 $f1;
#X obj 2117 -203 r t\$0;
#X obj 2052 -149 line;
#X obj 2054 -269 r r\$0;
#X obj 2098 -269 r a\$0;
#X floatatom 158 76 5 0 0 0 - - -;
#X obj 223 -72 tgl 15 0 empty empty empty 17 7 0 10 -262144 -1 -1 1
1;
#X obj 60 447 adr;
#X obj 38 236 metro 400;
#X obj 164 246 metro 300;
#X obj 180 -229 metro 2000;
#X obj 69 84 vsl 15 128 0 2000 0 0 empty empty empty 0 -9 0 10 -262144
-1 -1 3300 1;
#X obj 275 104 vsl 15 128 0 2000 0 0 empty empty empty 0 -9 0 10 -262144
-1 -1 4400 1;
#X obj 294 -159 vsl 15 128 0 2000 0 0 empty empty empty 0 -9 0 10 -262144
-1 -1 900 1;
#X obj 172 449 adr;
#X obj 122 577 /~ 3;
#X obj 266 260 metro 400;
#X obj -30 239 metro 300;
#X obj 321 98 vsl 15 128 0 2000 0 0 empty empty empty 0 -9 0 10 -262144
-1 -1 2300 1;
#X obj 48 93 vsl 15 128 0 2000 0 0 empty empty empty 0 -9 0 10 -262144
-1 -1 4300 1;
#X obj 118 751 splitter;
#X obj 74 -115 mtof;
#X msg 53 -256 36;
#X obj 207 -163 tgl 15 0 empty empty empty 17 7 0 10 -262144 -1 -1
1 1;
#X msg 102 -257 40;
#X obj 68 -161 line;
#X msg 67 -222 48;
#X obj 59 -188 pack 0 200;
#X msg 18 -222 43;
#X obj 72 -137 +;
#X msg 152 -154 -12;
#X msg 149 -181 0;
#X msg 147 -206 12;
#X obj 243 758 lopass;
#X obj 146 -124 bng 15 250 50 0 empty empty empty 17 7 0 10 -262144
-1 -1;
#X connect 1 0 0 0;
#X connect 2 0 1 1;
#X connect 3 0 2 0;
#X connect 4 0 3 0;
#X connect 4 0 6 0;
#X connect 5 0 1 0;
#X connect 6 0 2 1;
#X connect 7 0 546 0;
#X connect 7 1 546 1;
#X connect 9 0 540 1;
#X connect 9 0 533 0;
#X connect 10 0 15 0;
#X connect 11 0 235 0;
#X connect 13 0 15 1;
#X connect 14 0 13 0;
#X connect 15 0 12 0;
#X connect 16 0 14 0;
#X connect 17 0 22 0;
#X connect 18 0 236 0;
#X connect 20 0 22 1;
#X connect 21 0 20 0;
#X connect 22 0 19 0;
#X connect 23 0 21 0;
#X connect 24 0 29 0;
#X connect 25 0 237 0;
#X connect 27 0 29 1;
#X connect 28 0 27 0;
#X connect 29 0 26 0;
#X connect 30 0 28 0;
#X connect 31 0 36 0;
#X connect 32 0 238 0;
#X connect 34 0 36 1;
#X connect 35 0 34 0;
#X connect 36 0 33 0;
#X connect 37 0 35 0;
#X connect 38 0 43 0;
#X connect 39 0 239 0;
#X connect 41 0 43 1;
#X connect 42 0 41 0;
#X connect 43 0 40 0;
#X connect 44 0 42 0;
#X connect 45 0 50 0;
#X connect 46 0 240 0;
#X connect 48 0 50 1;
#X connect 49 0 48 0;
#X connect 50 0 47 0;
#X connect 51 0 49 0;
#X connect 52 0 57 0;
#X connect 53 0 241 0;
#X connect 55 0 57 1;
#X connect 56 0 55 0;
#X connect 57 0 54 0;
#X connect 58 0 56 0;
#X connect 59 0 64 0;
#X connect 60 0 242 0;
#X connect 62 0 64 1;
#X connect 63 0 62 0;
#X connect 64 0 61 0;
#X connect 65 0 63 0;
#X connect 66 0 72 0;
#X connect 67 0 253 0;
#X connect 69 0 72 1;
#X connect 70 0 73 0;
#X connect 71 0 69 0;
#X connect 72 0 68 0;
#X connect 73 0 71 0;
#X connect 74 0 79 0;
#X connect 75 0 254 0;
#X connect 77 0 79 1;
#X connect 78 0 77 0;
#X connect 79 0 76 0;
#X connect 80 0 78 0;
#X connect 81 0 86 0;
#X connect 82 0 255 0;
#X connect 84 0 86 1;
#X connect 85 0 84 0;
#X connect 86 0 83 0;
#X connect 87 0 85 0;
#X connect 88 0 93 0;
#X connect 89 0 256 0;
#X connect 91 0 93 1;
#X connect 92 0 91 0;
#X connect 93 0 90 0;
#X connect 94 0 92 0;
#X connect 95 0 100 0;
#X connect 96 0 257 0;
#X connect 98 0 100 1;
#X connect 99 0 98 0;
#X connect 100 0 97 0;
#X connect 101 0 99 0;
#X connect 102 0 107 0;
#X connect 103 0 258 0;
#X connect 105 0 107 1;
#X connect 106 0 105 0;
#X connect 107 0 104 0;
#X connect 108 0 106 0;
#X connect 109 0 114 0;
#X connect 110 0 259 0;
#X connect 112 0 114 1;
#X connect 113 0 112 0;
#X connect 114 0 111 0;
#X connect 115 0 113 0;
#X connect 116 0 121 0;
#X connect 117 0 260 0;
#X connect 119 0 121 1;
#X connect 120 0 119 0;
#X connect 121 0 118 0;
#X connect 122 0 120 0;
#X connect 123 0 128 0;
#X connect 124 0 243 0;
#X connect 126 0 128 1;
#X connect 127 0 126 0;
#X connect 128 0 125 0;
#X connect 129 0 127 0;
#X connect 130 0 135 0;
#X connect 131 0 244 0;
#X connect 133 0 135 1;
#X connect 134 0 133 0;
#X connect 135 0 132 0;
#X connect 136 0 134 0;
#X connect 137 0 142 0;
#X connect 138 0 245 0;
#X connect 140 0 142 1;
#X connect 141 0 140 0;
#X connect 142 0 139 0;
#X connect 143 0 141 0;
#X connect 144 0 149 0;
#X connect 145 0 246 0;
#X connect 147 0 149 1;
#X connect 148 0 147 0;
#X connect 149 0 146 0;
#X connect 150 0 148 0;
#X connect 151 0 156 0;
#X connect 152 0 247 0;
#X connect 154 0 156 1;
#X connect 155 0 154 0;
#X connect 156 0 153 0;
#X connect 157 0 155 0;
#X connect 158 0 163 0;
#X connect 159 0 248 0;
#X connect 161 0 163 1;
#X connect 162 0 161 0;
#X connect 163 0 160 0;
#X connect 164 0 162 0;
#X connect 165 0 170 0;
#X connect 166 0 249 0;
#X connect 168 0 170 1;
#X connect 169 0 168 0;
#X connect 170 0 167 0;
#X connect 171 0 169 0;
#X connect 172 0 177 0;
#X connect 173 0 250 0;
#X connect 175 0 177 1;
#X connect 176 0 175 0;
#X connect 177 0 174 0;
#X connect 178 0 176 0;
#X connect 179 0 184 0;
#X connect 180 0 261 0;
#X connect 182 0 184 1;
#X connect 183 0 182 0;
#X connect 184 0 181 0;
#X connect 185 0 183 0;
#X connect 186 0 191 0;
#X connect 187 0 262 0;
#X connect 189 0 191 1;
#X connect 190 0 189 0;
#X connect 191 0 188 0;
#X connect 192 0 190 0;
#X connect 193 0 198 0;
#X connect 194 0 263 0;
#X connect 196 0 198 1;
#X connect 197 0 196 0;
#X connect 198 0 195 0;
#X connect 199 0 197 0;
#X connect 200 0 205 0;
#X connect 201 0 264 0;
#X connect 203 0 205 1;
#X connect 204 0 203 0;
#X connect 205 0 202 0;
#X connect 206 0 204 0;
#X connect 207 0 212 0;
#X connect 208 0 265 0;
#X connect 210 0 212 1;
#X connect 211 0 210 0;
#X connect 212 0 209 0;
#X connect 213 0 211 0;
#X connect 214 0 219 0;
#X connect 215 0 266 0;
#X connect 217 0 219 1;
#X connect 218 0 217 0;
#X connect 219 0 216 0;
#X connect 220 0 218 0;
#X connect 221 0 226 0;
#X connect 222 0 267 0;
#X connect 224 0 226 1;
#X connect 225 0 224 0;
#X connect 226 0 223 0;
#X connect 227 0 225 0;
#X connect 228 0 233 0;
#X connect 229 0 268 0;
#X connect 231 0 233 1;
#X connect 232 0 231 0;
#X connect 233 0 230 0;
#X connect 234 0 232 0;
#X connect 235 0 10 0;
#X connect 236 0 17 0;
#X connect 237 0 24 0;
#X connect 238 0 31 0;
#X connect 239 0 38 0;
#X connect 240 0 45 0;
#X connect 241 0 52 0;
#X connect 242 0 59 0;
#X connect 243 0 123 0;
#X connect 244 0 130 0;
#X connect 245 0 137 0;
#X connect 246 0 144 0;
#X connect 247 0 151 0;
#X connect 248 0 158 0;
#X connect 249 0 165 0;
#X connect 250 0 172 0;
#X connect 251 0 252 0;
#X connect 253 0 66 0;
#X connect 254 0 74 0;
#X connect 255 0 81 0;
#X connect 256 0 88 0;
#X connect 257 0 95 0;
#X connect 258 0 102 0;
#X connect 259 0 109 0;
#X connect 260 0 116 0;
#X connect 261 0 179 0;
#X connect 262 0 186 0;
#X connect 263 0 193 0;
#X connect 264 0 200 0;
#X connect 265 0 207 0;
#X connect 266 0 214 0;
#X connect 267 0 221 0;
#X connect 268 0 228 0;
#X connect 269 0 279 0;
#X connect 270 0 7 4;
#X connect 271 0 272 0;
#X connect 271 0 531 0;
#X connect 273 0 274 0;
#X connect 274 0 275 0;
#X connect 275 0 277 0;
#X connect 276 0 275 1;
#X connect 277 0 70 0;
#X connect 278 0 273 0;
#X connect 281 0 280 0;
#X connect 282 0 70 0;
#X connect 283 0 80 0;
#X connect 284 0 285 0;
#X connect 285 0 286 0;
#X connect 286 0 288 0;
#X connect 287 0 286 1;
#X connect 288 0 283 0;
#X connect 289 0 284 0;
#X connect 290 0 283 0;
#X connect 291 0 87 0;
#X connect 292 0 293 0;
#X connect 293 0 294 0;
#X connect 294 0 296 0;
#X connect 295 0 294 1;
#X connect 296 0 291 0;
#X connect 297 0 292 0;
#X connect 298 0 291 0;
#X connect 299 0 94 0;
#X connect 300 0 301 0;
#X connect 301 0 302 0;
#X connect 302 0 304 0;
#X connect 303 0 302 1;
#X connect 304 0 299 0;
#X connect 305 0 300 0;
#X connect 306 0 299 0;
#X connect 307 0 101 0;
#X connect 308 0 309 0;
#X connect 309 0 310 0;
#X connect 310 0 312 0;
#X connect 311 0 310 1;
#X connect 312 0 307 0;
#X connect 313 0 308 0;
#X connect 314 0 307 0;
#X connect 315 0 108 0;
#X connect 316 0 317 0;
#X connect 317 0 318 0;
#X connect 318 0 320 0;
#X connect 319 0 318 1;
#X connect 320 0 315 0;
#X connect 321 0 316 0;
#X connect 322 0 315 0;
#X connect 323 0 115 0;
#X connect 324 0 325 0;
#X connect 325 0 326 0;
#X connect 326 0 328 0;
#X connect 327 0 326 1;
#X connect 328 0 323 0;
#X connect 329 0 324 0;
#X connect 330 0 323 0;
#X connect 331 0 122 0;
#X connect 332 0 333 0;
#X connect 333 0 334 0;
#X connect 334 0 336 0;
#X connect 335 0 334 1;
#X connect 336 0 331 0;
#X connect 337 0 332 0;
#X connect 338 0 331 0;
#X connect 339 0 185 0;
#X connect 340 0 341 0;
#X connect 341 0 342 0;
#X connect 342 0 344 0;
#X connect 343 0 342 1;
#X connect 344 0 339 0;
#X connect 345 0 340 0;
#X connect 346 0 339 0;
#X connect 347 0 192 0;
#X connect 348 0 349 0;
#X connect 349 0 350 0;
#X connect 350 0 352 0;
#X connect 351 0 350 1;
#X connect 352 0 347 0;
#X connect 353 0 348 0;
#X connect 354 0 347 0;
#X connect 355 0 199 0;
#X connect 356 0 357 0;
#X connect 357 0 358 0;
#X connect 358 0 360 0;
#X connect 359 0 358 1;
#X connect 360 0 355 0;
#X connect 361 0 356 0;
#X connect 362 0 355 0;
#X connect 363 0 206 0;
#X connect 364 0 365 0;
#X connect 365 0 366 0;
#X connect 366 0 368 0;
#X connect 367 0 366 1;
#X connect 368 0 363 0;
#X connect 369 0 364 0;
#X connect 370 0 363 0;
#X connect 371 0 213 0;
#X connect 372 0 373 0;
#X connect 373 0 374 0;
#X connect 374 0 376 0;
#X connect 375 0 374 1;
#X connect 376 0 371 0;
#X connect 377 0 372 0;
#X connect 378 0 371 0;
#X connect 379 0 220 0;
#X connect 380 0 381 0;
#X connect 381 0 382 0;
#X connect 382 0 384 0;
#X connect 383 0 382 1;
#X connect 384 0 379 0;
#X connect 385 0 380 0;
#X connect 386 0 379 0;
#X connect 387 0 227 0;
#X connect 388 0 389 0;
#X connect 389 0 390 0;
#X connect 390 0 392 0;
#X connect 391 0 390 1;
#X connect 392 0 387 0;
#X connect 393 0 388 0;
#X connect 394 0 387 0;
#X connect 395 0 234 0;
#X connect 396 0 397 0;
#X connect 397 0 398 0;
#X connect 398 0 400 0;
#X connect 399 0 398 1;
#X connect 400 0 395 0;
#X connect 401 0 396 0;
#X connect 402 0 395 0;
#X connect 403 0 16 0;
#X connect 404 0 405 0;
#X connect 405 0 406 0;
#X connect 406 0 408 0;
#X connect 407 0 406 1;
#X connect 408 0 403 0;
#X connect 409 0 404 0;
#X connect 410 0 403 0;
#X connect 411 0 23 0;
#X connect 412 0 413 0;
#X connect 413 0 414 0;
#X connect 414 0 416 0;
#X connect 415 0 414 1;
#X connect 416 0 411 0;
#X connect 417 0 412 0;
#X connect 418 0 411 0;
#X connect 419 0 30 0;
#X connect 420 0 421 0;
#X connect 421 0 422 0;
#X connect 422 0 424 0;
#X connect 423 0 422 1;
#X connect 424 0 419 0;
#X connect 425 0 420 0;
#X connect 426 0 419 0;
#X connect 427 0 37 0;
#X connect 428 0 429 0;
#X connect 429 0 430 0;
#X connect 430 0 432 0;
#X connect 431 0 430 1;
#X connect 432 0 427 0;
#X connect 433 0 428 0;
#X connect 434 0 427 0;
#X connect 435 0 44 0;
#X connect 436 0 437 0;
#X connect 437 0 438 0;
#X connect 438 0 440 0;
#X connect 439 0 438 1;
#X connect 440 0 435 0;
#X connect 441 0 436 0;
#X connect 442 0 435 0;
#X connect 443 0 51 0;
#X connect 444 0 445 0;
#X connect 445 0 446 0;
#X connect 446 0 448 0;
#X connect 447 0 446 1;
#X connect 448 0 443 0;
#X connect 449 0 444 0;
#X connect 450 0 443 0;
#X connect 451 0 58 0;
#X connect 452 0 453 0;
#X connect 453 0 454 0;
#X connect 454 0 456 0;
#X connect 455 0 454 1;
#X connect 456 0 451 0;
#X connect 457 0 452 0;
#X connect 458 0 451 0;
#X connect 459 0 65 0;
#X connect 460 0 461 0;
#X connect 461 0 462 0;
#X connect 462 0 464 0;
#X connect 463 0 462 1;
#X connect 464 0 459 0;
#X connect 465 0 460 0;
#X connect 466 0 459 0;
#X connect 467 0 129 0;
#X connect 468 0 469 0;
#X connect 469 0 470 0;
#X connect 470 0 472 0;
#X connect 471 0 470 1;
#X connect 472 0 467 0;
#X connect 473 0 468 0;
#X connect 474 0 467 0;
#X connect 475 0 136 0;
#X connect 476 0 477 0;
#X connect 477 0 478 0;
#X connect 478 0 480 0;
#X connect 479 0 478 1;
#X connect 480 0 475 0;
#X connect 481 0 476 0;
#X connect 482 0 475 0;
#X connect 483 0 143 0;
#X connect 484 0 485 0;
#X connect 485 0 486 0;
#X connect 486 0 488 0;
#X connect 487 0 486 1;
#X connect 488 0 483 0;
#X connect 489 0 484 0;
#X connect 490 0 483 0;
#X connect 491 0 150 0;
#X connect 492 0 493 0;
#X connect 493 0 494 0;
#X connect 494 0 496 0;
#X connect 495 0 494 1;
#X connect 496 0 491 0;
#X connect 497 0 492 0;
#X connect 498 0 491 0;
#X connect 499 0 157 0;
#X connect 500 0 501 0;
#X connect 501 0 502 0;
#X connect 502 0 504 0;
#X connect 503 0 502 1;
#X connect 504 0 499 0;
#X connect 505 0 500 0;
#X connect 506 0 499 0;
#X connect 507 0 164 0;
#X connect 508 0 509 0;
#X connect 509 0 510 0;
#X connect 510 0 512 0;
#X connect 511 0 510 1;
#X connect 512 0 507 0;
#X connect 513 0 508 0;
#X connect 514 0 507 0;
#X connect 515 0 171 0;
#X connect 516 0 517 0;
#X connect 517 0 518 0;
#X connect 518 0 520 0;
#X connect 519 0 518 1;
#X connect 520 0 515 0;
#X connect 521 0 516 0;
#X connect 522 0 515 0;
#X connect 523 0 178 0;
#X connect 524 0 525 0;
#X connect 525 0 526 0;
#X connect 526 0 528 0;
#X connect 527 0 526 1;
#X connect 528 0 523 0;
#X connect 529 0 524 0;
#X connect 530 0 523 0;
#X connect 532 0 534 0;
#X connect 532 0 535 0;
#X connect 532 0 542 0;
#X connect 532 0 543 0;
#X connect 533 0 270 0;
#X connect 534 0 533 8;
#X connect 535 0 540 8;
#X connect 536 0 269 0;
#X connect 537 0 534 1;
#X connect 538 0 535 1;
#X connect 539 0 536 1;
#X connect 540 1 541 0;
#X connect 541 0 7 5;
#X connect 542 0 540 8;
#X connect 543 0 533 8;
#X connect 544 0 542 1;
#X connect 545 0 543 1;
#X connect 546 2 559 2;
#X connect 546 3 559 3;
#X connect 547 0 251 0;
#X connect 548 0 553 0;
#X connect 549 0 536 0;
#X connect 550 0 553 0;
#X connect 551 0 555 0;
#X connect 552 0 553 0;
#X connect 553 0 551 0;
#X connect 554 0 553 0;
#X connect 555 0 547 0;
#X connect 556 0 555 1;
#X connect 556 0 560 0;
#X connect 557 0 555 1;
#X connect 557 0 560 0;
#X connect 558 0 555 1;
#X connect 558 0 560 0;
#X connect 559 0 8 0;
#X connect 559 0 0 0;
#X connect 559 1 8 1;
#X connect 559 1 0 0;
#X connect 560 0 555 0;
