#N canvas 501 23 865 723 12;
#X obj 146 109 vsl 15 128 0 1 0 0 empty empty empty 0 -9 0 10 -262144
-1 -1 6170 1;
#X obj 233 101 vsl 15 128 -1 1 0 0 empty empty empty 0 -9 0 10 -262144
-1 -1 6330 1;
#X obj 103 353 snapshot~;
#X obj 101 280 tgl 15 0 empty empty empty 17 7 0 10 -262144 -1 -1 1
1;
#X obj 57 278 +~ 1;
#X obj 56 306 /~ 2;
#X obj 101 308 metro 60;
#X obj 261 301 snapshot~;
#X obj 203 103 vsl 15 128 -1 1 0 0 empty empty empty 0 -9 0 10 -262144
-1 -1 6170 1;
#X obj 190 265 + 1;
#X obj 192 303 / 2;
#X obj 190 357 * 2;
#X obj 190 385 - 1;
#X obj 202 30 * 2;
#X obj 203 57 - 1;
#X obj 262 99 vsl 15 128 -1 1 0 0 empty empty empty 0 -9 0 10 -262144
-1 -1 8852 1;
#X obj 190 332 pow 0.5;
#X obj 57 249 triosc~ 1;
#X msg 33 218 0.5;
#X obj 261 270 pow~ 3;
#X obj 351 99 vsl 15 128 0 1 0 0 empty empty empty 0 -9 0 10 -262144
-1 -1 6170 1;
#X obj 357 263 * -1;
#X obj 358 295 + 1;
#X floatatom 358 323 5 0 0 0 - - -;
#X obj 319 99 vsl 15 128 0 1 0 0 empty empty empty 0 -9 0 10 -262144
-1 -1 9342 1;
#X obj 362 383 * -1;
#X obj 363 415 + 1;
#X obj 290 98 vsl 15 128 0 1 0 0 empty empty empty 0 -9 0 10 -262144
-1 -1 2997 1;
#X obj 290 66 pow 2;
#X obj 359 352 pow 2;
#X obj 553 338 dac~;
#X obj 623 245 channelst;
#X obj 460 477 osc~ 440;
#X obj 406 73 *~;
#X obj 486 77 *~;
#X obj 577 1 vsl 15 128 0 2 0 0 empty empty empty 0 -9 0 10 -262144
-1 -1 12700 1;
#X obj 27 552 samppad;
#X obj 70 502 bng 15 250 50 0 empty empty empty 17 7 0 10 -262144 -1
-1;
#X obj 69 449 metro 500;
#X obj 75 397 bng 15 250 50 0 empty empty empty 17 7 0 10 -262144 -1
-1;
#X obj 21 401 tgl 15 0 empty empty empty 17 7 0 10 -262144 -1 -1 1
1;
#X obj 661 68 vsl 15 128 0 1 0 0 empty empty empty 0 -9 0 10 -262144
-1 -1 8200 1;
#X obj 749 444 channelst;
#X obj 766 340 *~;
#X obj 823 178 vsl 15 128 1 50 0 0 empty empty empty 0 -9 0 10 -262144
-1 -1 12700 1;
#X obj 766 279 adc~;
#X obj 804 341 *~;
#X obj 845 395 clip~ -1 1;
#X obj 766 395 clip~ -1 1;
#X floatatom 855 343 5 0 0 0 - - -;
#X floatatom 147 407 5 0 0 0 - - -;
#X obj 397 133 pow~ 3;
#X obj 498 136 pow~ 3;
#X connect 0 0 13 0;
#X connect 0 0 20 0;
#X connect 0 0 28 0;
#X connect 2 0 0 0;
#X connect 2 0 50 0;
#X connect 3 0 6 0;
#X connect 4 0 5 0;
#X connect 5 0 2 0;
#X connect 6 0 2 0;
#X connect 6 0 7 0;
#X connect 7 0 1 0;
#X connect 8 0 19 0;
#X connect 8 0 9 0;
#X connect 9 0 10 0;
#X connect 10 0 16 0;
#X connect 11 0 12 0;
#X connect 12 0 15 0;
#X connect 13 0 14 0;
#X connect 14 0 8 0;
#X connect 16 0 11 0;
#X connect 17 0 4 0;
#X connect 18 0 17 0;
#X connect 19 0 7 0;
#X connect 20 0 21 0;
#X connect 21 0 22 0;
#X connect 22 0 23 0;
#X connect 23 0 29 0;
#X connect 25 0 26 0;
#X connect 26 0 24 0;
#X connect 28 0 27 0;
#X connect 29 0 25 0;
#X connect 33 0 51 0;
#X connect 34 0 52 0;
#X connect 35 0 34 1;
#X connect 35 0 33 1;
#X connect 36 0 43 0;
#X connect 36 1 46 0;
#X connect 37 0 36 0;
#X connect 38 0 37 0;
#X connect 40 0 38 0;
#X connect 41 0 51 1;
#X connect 41 0 52 1;
#X connect 42 0 33 0;
#X connect 42 1 34 0;
#X connect 43 0 48 0;
#X connect 44 0 43 1;
#X connect 44 0 46 1;
#X connect 44 0 49 0;
#X connect 45 0 43 0;
#X connect 45 1 46 0;
#X connect 46 0 47 0;
#X connect 47 0 42 5;
#X connect 48 0 42 4;
#X connect 51 0 31 4;
#X connect 52 0 31 5;
