#N canvas 546 133 450 418 12;
#X obj 188 170 metro 100;
#X obj 182 103 tgl 15 0 empty empty empty 17 7 0 10 -262144 -1 -1 1
1;
#X obj 188 266 +;
#X msg 188 243 1;
#X floatatom 219 243 5 0 0 0 - - -;
#X obj 219 268 % 10;
#X floatatom 182 128 2 0 0 0 - - -;
#X obj 219 298 sel 0;
#X obj 263 241 +;
#X msg 263 214 1;
#X floatatom 294 242 5 0 0 0 - - -;
#X floatatom 156 128 3 0 0 0 - - -;
#X obj 263 298 sel 0;
#X obj 263 268 % 60;
#X obj 337 242 +;
#X msg 337 215 1;
#X floatatom 367 243 5 0 0 0 - - -;
#X obj 336 299 sel 0;
#X obj 337 268 % 60;
#X floatatom 130 128 3 0 0 0 - - -;
#X obj 409 243 +;
#X msg 409 216 1;
#X floatatom 445 244 5 0 0 0 - - -;
#X obj 409 300 sel 0;
#X floatatom 104 128 3 0 0 0 - - -;
#X obj 409 269 % 24;
#X msg 344 138 0;
#X obj 188 217 del 100;
#X obj 411 148 sel 0;
#X obj 412 121 del 200;
#X obj 155 65 inlet;
#X obj 77 368 outlet;
#X obj 131 368 outlet;
#X obj 186 368 outlet;
#X obj 240 368 outlet;
#X connect 0 0 27 0;
#X connect 1 0 0 0;
#X connect 1 0 28 0;
#X connect 2 0 4 0;
#X connect 3 0 2 0;
#X connect 4 0 2 1;
#X connect 4 0 5 0;
#X connect 5 0 6 0;
#X connect 5 0 7 0;
#X connect 6 0 34 0;
#X connect 7 0 9 0;
#X connect 8 0 10 0;
#X connect 8 0 13 0;
#X connect 9 0 8 0;
#X connect 10 0 8 1;
#X connect 11 0 33 0;
#X connect 12 0 15 0;
#X connect 13 0 11 0;
#X connect 13 0 12 0;
#X connect 14 0 16 0;
#X connect 14 0 18 0;
#X connect 15 0 14 0;
#X connect 16 0 14 1;
#X connect 17 0 21 0;
#X connect 18 0 19 0;
#X connect 18 0 17 0;
#X connect 19 0 32 0;
#X connect 20 0 22 0;
#X connect 20 0 25 0;
#X connect 21 0 20 0;
#X connect 22 0 20 1;
#X connect 24 0 31 0;
#X connect 25 0 24 0;
#X connect 25 0 23 0;
#X connect 26 0 4 0;
#X connect 26 0 10 0;
#X connect 26 0 16 0;
#X connect 26 0 22 0;
#X connect 26 0 24 0;
#X connect 26 0 19 0;
#X connect 26 0 11 0;
#X connect 26 0 6 0;
#X connect 27 0 3 0;
#X connect 28 0 29 0;
#X connect 29 0 26 0;
#X connect 30 0 1 0;
#X coords 0 -1 1 1 100 50 1 100 100;
