#N canvas 669 46 552 642 12;
#X declare -lib Gem;
#X obj 18 69 declare -lib Gem;
#N canvas 0 23 450 300 gemwin 0;
#X obj 132 136 gemwin;
#X obj 67 89 outlet;
#X obj 67 10 inlet;
#X obj 67 41 route create;
#X msg 67 70 set destroy;
#X msg 142 68 set create;
#X msg 197 134 destroy;
#X msg 132 112 reset \, dim 600 600 \, create \, 1;
#X connect 2 0 3 0;
#X connect 3 0 4 0;
#X connect 3 0 7 0;
#X connect 3 1 5 0;
#X connect 3 1 6 0;
#X connect 4 0 1 0;
#X connect 5 0 1 0;
#X connect 6 0 0 0;
#X connect 7 0 0 0;
#X restore 18 40 pd gemwin;
#X msg 18 21 destroy;
#X obj 18 100 clock;
#X obj 297 573 scopeXYZ;
#X obj 367 489 gemhead;
#X obj 407 384 bng 15 250 50 0 empty empty empty 17 7 0 10 -262144
-1 -1;
#X obj 217 226 triosc~;
#X obj 169 421 triosc~;
#X msg 136 461 length \$1;
#X obj 137 258 vsl 15 128 0 100000 0 0 empty empty empty 0 -9 0 10
-262144 -1 -1 759 1;
#X obj 428 205 vsl 15 128 0 1 0 0 empty empty empty 0 -9 0 10 -262144
-1 -1 12416 1;
#X msg 215 322 \$1;
#X msg 259 168 \$2;
#X obj 396 150 vsl 15 128 0 1 0 0 empty empty empty 0 -9 0 10 -262144
-1 -1 12700 1;
#X obj 428 141 snapshot~;
#X obj 450 46 metro 10;
#X obj 443 21 tgl 15 0 empty empty empty 17 7 0 10 -262144 -1 -1 1
1;
#X floatatom 428 173 5 0 0 0 - - -;
#X obj 429 91 phasor~ 0.05;
#X msg 169 387 400;
#X obj 368 571 rotateXYZ 0 0 90;
#X obj 216 461 *~ 1;
#X obj 217 296 +~;
#X obj 215 497 -~ 1;
#X floatatom 135 167 5 0 0 0 - - -;
#X obj 323 328 *~ 1;
#X obj 322 364 -~ 1;
#X msg 326 261 300;
#X obj 217 258 *~;
#X obj 17 420 +~ 1;
#X obj 17 447 *~ 0.5;
#X obj 18 474 +~ 1;
#X msg 18 215 0.4;
#X obj 18 501 /~ 2;
#X msg 217 195 600;
#X obj 17 306 shape;
#X obj 17 247 triosc~ 2;
#X msg 302 460 draw linestrip;
#X obj 136 197 * 1000;
#X obj 324 291 sqosc~;
#X obj 428 366 * 360;
#X obj 216 531 +~;
#X obj 326 536 +~ 1;
#X obj 439 480 *~ 1.5;
#X obj 137 227 + 5000;
#X obj 439 450 sqosc~;
#X msg 440 418 6000;
#X obj 368 539 scaleXYZ 2 2 1.5;
#X connect 1 0 2 0;
#X connect 2 0 1 0;
#X connect 5 0 48 0;
#X connect 6 0 12 0;
#X connect 6 0 13 0;
#X connect 6 0 20 0;
#X connect 6 0 35 0;
#X connect 6 0 28 0;
#X connect 7 0 29 0;
#X connect 8 0 22 0;
#X connect 9 0 4 0;
#X connect 10 0 9 0;
#X connect 11 0 6 0;
#X connect 11 0 12 0;
#X connect 11 0 25 0;
#X connect 11 0 41 0;
#X connect 12 0 8 1;
#X connect 13 0 7 1;
#X connect 14 0 13 0;
#X connect 14 0 6 0;
#X connect 15 0 18 0;
#X connect 16 0 15 0;
#X connect 17 0 16 0;
#X connect 18 0 11 0;
#X connect 19 0 15 0;
#X connect 20 0 8 0;
#X connect 21 0 4 0;
#X connect 22 0 24 0;
#X connect 23 0 4 2;
#X connect 24 0 42 0;
#X connect 25 0 13 0;
#X connect 25 0 39 0;
#X connect 26 0 27 0;
#X connect 27 0 42 1;
#X connect 28 0 40 0;
#X connect 29 0 23 0;
#X connect 30 0 31 0;
#X connect 31 0 32 0;
#X connect 32 0 34 0;
#X connect 33 0 37 0;
#X connect 34 0 29 1;
#X connect 35 0 7 0;
#X connect 36 0 30 0;
#X connect 37 0 36 0;
#X connect 38 0 4 0;
#X connect 39 0 45 0;
#X connect 40 0 26 0;
#X connect 41 0 21 3;
#X connect 41 0 21 2;
#X connect 42 0 43 0;
#X connect 43 0 4 1;
#X connect 44 0 4 3;
#X connect 45 0 10 0;
#X connect 46 0 44 0;
#X connect 47 0 46 0;
#X connect 48 0 21 0;
