#N canvas 0 23 1366 723 12;
#N canvas 0 23 450 278 (subpatch) 0;
#X array 1l 25539 float 2;
#X coords 0 1 25539 -1 70 30 2 0 0;
#X restore 103 122 graph;
#X obj 120 103 bng 15 250 50 0 empty empty empty 17 7 0 10 -262144
-1 -1;
#X obj 105 224 openpanel;
#X obj 105 295 soundfiler;
#X msg 102 369 bang;
#X msg 150 370 0 1;
#X obj 102 321 inlet;
#X obj 102 435 outlet~;
#X obj 191 435 outlet~;
#X msg 105 260 read -resize \$1 1l 1r;
#N canvas 0 23 450 278 (subpatch) 0;
#X array 1r 25539 float 2;
#X coords 0 1 25539 -1 70 30 2 0 0;
#X restore 103 168 graph;
#X obj 279 214 openpanel;
#X obj 279 285 soundfiler;
#X msg 277 370 bang;
#X msg 325 371 0 1;
#X obj 277 322 inlet;
#X obj 277 436 outlet~;
#X obj 366 436 outlet~;
#X obj 455 219 openpanel;
#X obj 455 290 soundfiler;
#X msg 454 368 bang;
#X msg 502 369 0 1;
#X obj 454 320 inlet;
#X obj 454 436 outlet~;
#X obj 543 436 outlet~;
#X obj 626 222 openpanel;
#X obj 626 295 soundfiler;
#X msg 626 368 bang;
#X msg 674 369 0 1;
#X obj 626 320 inlet;
#X obj 626 434 outlet~;
#X obj 715 434 outlet~;
#X msg 279 250 read -resize \$1 2l 2r;
#X obj 277 404 tabplay~ 2l;
#X obj 366 404 tabplay~ 2r;
#X msg 455 255 read -resize \$1 3l 3r;
#X obj 543 402 tabplay~ 3r;
#X obj 454 402 tabplay~ 3l;
#X msg 626 258 read -resize \$1 4l 4r;
#X obj 626 402 tabplay~ 4l;
#X obj 715 402 tabplay~ 4r;
#N canvas 0 23 450 278 (subpatch) 0;
#X array 2l 37550 float 2;
#X coords 0 1 37550 -1 70 30 2 0 0;
#X restore 178 123 graph;
#X obj 195 104 bng 15 250 50 0 empty empty empty 17 7 0 10 -262144
-1 -1;
#N canvas 0 23 450 278 (subpatch) 0;
#X array 2r 37550 float 2;
#X coords 0 1 37550 -1 70 30 2 0 0;
#X restore 178 168 graph;
#N canvas 0 23 450 278 (subpatch) 0;
#X array 3l 37550 float 2;
#X coords 0 1 37550 -1 70 30 2 0 0;
#X restore 253 122 graph;
#X obj 270 103 bng 15 250 50 0 empty empty empty 17 7 0 10 -262144
-1 -1;
#N canvas 0 23 450 278 (subpatch) 0;
#X array 3r 37550 float 2;
#X coords 0 1 37550 -1 70 30 2 0 0;
#X restore 253 168 graph;
#N canvas 0 23 450 278 (subpatch) 0;
#X array 4l 37550 float 2;
#X coords 0 1 37550 -1 70 30 2 0 0;
#X restore 328 122 graph;
#X obj 345 103 bng 15 250 50 0 empty empty empty 17 7 0 10 -262144
-1 -1;
#N canvas 0 23 450 278 (subpatch) 0;
#X array 4r 37550 float 2;
#X coords 0 1 37550 -1 70 30 2 0 0;
#X restore 328 168 graph;
#X obj 102 403 tabplay~ 1l;
#X obj 191 403 tabplay~ 1r;
#X obj 142 103 bng 15 250 50 0 empty empty empty 17 7 0 10 -262144
-1 -1;
#X obj 217 104 bng 15 250 50 0 empty empty empty 17 7 0 10 -262144
-1 -1;
#X obj 292 103 bng 15 250 50 0 empty empty empty 17 7 0 10 -262144
-1 -1;
#X obj 367 103 bng 15 250 50 0 empty empty empty 17 7 0 10 -262144
-1 -1;
#X obj 158 103 bng 15 250 50 0 empty empty empty 17 7 0 10 -262144
-1 -1;
#X obj 233 104 bng 15 250 50 0 empty empty empty 17 7 0 10 -262144
-1 -1;
#X obj 308 103 bng 15 250 50 0 empty empty empty 17 7 0 10 -262144
-1 -1;
#X obj 383 103 bng 15 250 50 0 empty empty empty 17 7 0 10 -262144
-1 -1;
#X obj 504 320 inlet;
#X obj 676 320 inlet;
#X obj 153 320 inlet;
#X obj 328 321 inlet;
#X connect 1 0 2 0;
#X connect 2 0 9 0;
#X connect 4 0 50 0;
#X connect 4 0 51 0;
#X connect 5 0 50 0;
#X connect 6 0 4 0;
#X connect 9 0 3 0;
#X connect 11 0 32 0;
#X connect 13 0 33 0;
#X connect 13 0 34 0;
#X connect 14 0 33 0;
#X connect 15 0 13 0;
#X connect 18 0 35 0;
#X connect 20 0 36 0;
#X connect 20 0 37 0;
#X connect 21 0 37 0;
#X connect 22 0 20 0;
#X connect 25 0 38 0;
#X connect 27 0 39 0;
#X connect 27 0 40 0;
#X connect 28 0 39 0;
#X connect 29 0 27 0;
#X connect 32 0 12 0;
#X connect 33 0 16 0;
#X connect 34 0 17 0;
#X connect 35 0 19 0;
#X connect 36 0 24 0;
#X connect 37 0 23 0;
#X connect 38 0 26 0;
#X connect 39 0 30 0;
#X connect 40 0 31 0;
#X connect 42 0 11 0;
#X connect 45 0 18 0;
#X connect 48 0 25 0;
#X connect 50 0 7 0;
#X connect 51 0 8 0;
#X connect 52 0 4 0;
#X connect 53 0 13 0;
#X connect 54 0 20 0;
#X connect 55 0 27 0;
#X connect 56 0 5 0;
#X connect 57 0 14 0;
#X connect 58 0 21 0;
#X connect 59 0 28 0;
#X connect 60 0 21 0;
#X connect 61 0 28 0;
#X connect 62 0 5 0;
#X connect 63 0 14 0;
#X coords 0 -1 1 1 300 100 2 100 100;
