#N canvas 128 23 1238 691 12;
#X obj 178 225 %;
#X obj 181 132 +;
#X floatatom 224 134 5 0 0 0 - - -;
#X msg 179 95 1;
#X floatatom 178 275 5 0 0 0 - - -;
#X obj 195 56 metro 125;
#X obj 201 21 tgl 15 0 empty empty empty 17 7 0 10 -262144 -1 -1 1
1;
#X obj 249 190 sel 0 1 2 3;
#X obj 417 77 +;
#X floatatom 460 79 5 0 0 0 - - -;
#X msg 415 40 1;
#X obj 433 215 sel 0;
#X obj 522 220 %;
#X obj 525 127 +;
#X floatatom 568 129 5 0 0 0 - - -;
#X msg 523 90 1;
#X floatatom 522 270 5 0 0 0 - - -;
#X obj 539 51 metro 125;
#X obj 661 15 tgl 15 0 empty empty empty 17 7 0 10 -262144 -1 -1 1
1;
#X obj 593 185 sel 0 1 2 3;
#X obj 627 99 random 4;
#X obj 761 72 +;
#X floatatom 804 74 5 0 0 0 - - -;
#X msg 759 35 1;
#X obj 777 210 sel 0;
#X obj 178 314 sel 0;
#X obj 269 849 channelst;
#X obj 777 807 channelst;
#X obj 440 -36 tgl 15 0 empty empty empty 17 7 0 10 -262144 -1 -1 1
1;
#X msg 583 240 3;
#X msg 629 240 4;
#X msg 680 236 5;
#X msg 726 236 6;
#X msg 239 245 2;
#X msg 285 245 3;
#X msg 336 241 4;
#X msg 382 241 5;
#X obj 870 128 +;
#X floatatom 913 130 5 0 0 0 - - -;
#X floatatom 867 271 5 0 0 0 - - -;
#X obj 938 186 sel 0 1 2 3;
#X obj 1106 73 +;
#X floatatom 1149 75 5 0 0 0 - - -;
#X msg 1104 36 1;
#X obj 1122 211 sel 0;
#X obj 845 195 %;
#X msg 893 92 1;
#X obj 412 270 unpack 0 0 0 0;
#X obj 737 450 triosc~;
#X obj 518 330 mtof;
#X obj 961 447 vline~;
#X obj 955 333 sel 0;
#X obj 921 510 *~;
#X obj 1083 344 bng 15 250 50 0 empty empty empty 17 7 0 10 -262144
-1 -1;
#X msg 928 241 1;
#X msg 974 241 2;
#X msg 1025 237 3;
#X msg 1071 237 4;
#X obj 1059 201 random 4;
#X obj 283 104 random 4;
#X obj 414 170 % 8;
#X obj 758 165 % 12;
#X obj 1103 166 % 8;
#X obj 1019 519 vline~;
#X obj 961 628 *~;
#X obj 884 52 metro 125;
#X obj 1033 703 freeverb~;
#X obj 992 135 / 4;
#X obj 994 86 random 4;
#X obj 858 685 *~;
#X obj 823 383 mtof;
#X obj 1051 597 sel 0 1;
#X obj 1040 563 random 2;
#X msg 1090 652 wet 0.25;
#X msg 1014 461 0 5 \, 1 2 5 \, 0 2 7;
#X msg 1034 649 wet 2;
#X obj 839 447 noise~;
#X obj 704 546 random 2;
#X msg 732 620 wet 0.25;
#X msg 680 613 wet 2;
#X obj 744 697 freeverb~;
#X msg 904 382 0 2 \, 1 2 2 \, 0 2 4;
#X obj 704 586 sel 0 1;
#X obj 861 807 channelst;
#X obj 691 807 channelst;
#X obj 536 557 / 4;
#X obj 741 741 *~;
#X obj 125 511 osc~;
#X obj 190 509 osc~;
#X obj 205 653 *~;
#X obj 240 572 /~ 2;
#X obj 243 607 +~ 0.5;
#X obj 32 658 *~;
#X obj 101 623 /~ 2;
#X obj 104 658 +~ 0.5;
#X obj 98 585 osc~ 0.5;
#X obj 237 534 osc~ 0.55;
#X obj 395 633 osc~;
#X obj 460 631 osc~;
#X obj 475 775 *~;
#X obj 544 740 /~ 2;
#X obj 547 775 +~ 0.5;
#X obj 302 780 *~;
#X obj 371 745 /~ 2;
#X obj 374 780 +~ 0.5;
#X obj 368 707 osc~ 0.22;
#X obj 541 702 osc~ 0.3;
#X obj 278 438 osc~;
#X obj 444 458 osc~;
#X obj 450 500 *~;
#X obj 493 439 /~ 2;
#X obj 496 474 +~ 0.5;
#X obj 277 505 *~;
#X obj 346 470 /~ 2;
#X obj 349 505 +~ 0.5;
#X obj 343 432 osc~ 0.12;
#X obj 490 401 osc~ 0.2;
#X obj 157 829 osc~;
#X obj 518 896 osc~;
#X obj 533 1040 *~;
#X obj 602 1005 /~ 2;
#X obj 605 1040 +~ 0.5;
#X obj 64 976 *~;
#X obj 133 941 /~ 2;
#X obj 136 976 +~ 0.5;
#X obj 130 903 osc~ 0.1;
#X obj 599 967 osc~ 0.08;
#X obj 390 1040 *~;
#X obj 948 808 channelst;
#X obj 461 1050 *~;
#X obj 538 508 random 6;
#X obj 1064 811 channelst;
#X obj 1060 769 freeverb~;
#X msg 649 276 60 66 20 127;
#X msg 395 591 220;
#X msg 460 589 221;
#X msg 157 787 222;
#X msg 518 854 223;
#X msg 190 467 224;
#X msg 125 469 225;
#X msg 440 427 226;
#X msg 278 396 227;
#X connect 0 0 4 0;
#X connect 1 0 2 0;
#X connect 1 0 0 0;
#X connect 2 0 1 1;
#X connect 3 0 1 0;
#X connect 4 0 25 0;
#X connect 5 0 3 0;
#X connect 5 0 10 0;
#X connect 6 0 5 0;
#X connect 7 0 33 0;
#X connect 7 1 34 0;
#X connect 7 2 35 0;
#X connect 7 3 36 0;
#X connect 8 0 9 0;
#X connect 8 0 60 0;
#X connect 9 0 8 1;
#X connect 10 0 8 0;
#X connect 11 0 59 0;
#X connect 12 0 16 0;
#X connect 13 0 14 0;
#X connect 13 0 12 0;
#X connect 14 0 13 1;
#X connect 15 0 13 0;
#X connect 17 0 15 0;
#X connect 17 0 23 0;
#X connect 18 0 65 0;
#X connect 18 0 17 0;
#X connect 19 0 29 0;
#X connect 19 1 30 0;
#X connect 19 2 31 0;
#X connect 19 3 32 0;
#X connect 20 0 19 0;
#X connect 21 0 22 0;
#X connect 21 0 61 0;
#X connect 22 0 21 1;
#X connect 23 0 21 0;
#X connect 24 0 20 0;
#X connect 26 0 127 0;
#X connect 26 1 129 0;
#X connect 28 0 6 0;
#X connect 28 0 18 0;
#X connect 29 0 12 1;
#X connect 30 0 12 1;
#X connect 31 0 12 1;
#X connect 32 0 12 1;
#X connect 33 0 0 1;
#X connect 34 0 0 1;
#X connect 35 0 0 1;
#X connect 36 0 0 1;
#X connect 37 0 38 0;
#X connect 37 0 45 0;
#X connect 38 0 37 1;
#X connect 39 0 51 0;
#X connect 40 0 54 0;
#X connect 40 1 55 0;
#X connect 40 2 56 0;
#X connect 40 3 57 0;
#X connect 41 0 42 0;
#X connect 41 0 62 0;
#X connect 42 0 41 1;
#X connect 43 0 41 0;
#X connect 44 0 58 0;
#X connect 45 0 39 0;
#X connect 46 0 37 0;
#X connect 47 2 49 0;
#X connect 47 3 70 0;
#X connect 48 0 64 0;
#X connect 49 0 48 0;
#X connect 50 0 52 1;
#X connect 51 0 81 0;
#X connect 51 1 53 0;
#X connect 52 0 69 0;
#X connect 53 0 74 0;
#X connect 54 0 45 1;
#X connect 55 0 45 1;
#X connect 56 0 45 1;
#X connect 57 0 45 1;
#X connect 58 0 40 0;
#X connect 59 0 7 0;
#X connect 60 0 11 0;
#X connect 61 0 24 0;
#X connect 62 0 44 0;
#X connect 63 0 64 1;
#X connect 64 0 86 0;
#X connect 65 0 43 0;
#X connect 65 0 46 0;
#X connect 65 0 68 0;
#X connect 65 0 72 0;
#X connect 65 0 77 0;
#X connect 65 0 130 0;
#X connect 66 0 83 5;
#X connect 67 0 69 1;
#X connect 67 0 129 1;
#X connect 68 0 67 0;
#X connect 69 0 66 0;
#X connect 69 0 27 4;
#X connect 69 0 80 0;
#X connect 69 0 27 5;
#X connect 70 0 76 0;
#X connect 71 0 75 0;
#X connect 71 1 73 0;
#X connect 72 0 71 0;
#X connect 73 0 66 0;
#X connect 74 0 63 0;
#X connect 75 0 66 0;
#X connect 76 0 52 0;
#X connect 77 0 82 0;
#X connect 78 0 80 0;
#X connect 79 0 80 0;
#X connect 80 0 83 4;
#X connect 81 0 50 0;
#X connect 82 0 79 0;
#X connect 82 1 78 0;
#X connect 85 0 86 1;
#X connect 85 0 127 1;
#X connect 86 0 84 4;
#X connect 87 0 92 0;
#X connect 88 0 89 0;
#X connect 89 0 26 5;
#X connect 90 0 91 0;
#X connect 91 0 89 1;
#X connect 92 0 26 4;
#X connect 93 0 94 0;
#X connect 94 0 92 1;
#X connect 95 0 93 0;
#X connect 96 0 90 0;
#X connect 97 0 102 0;
#X connect 98 0 99 0;
#X connect 99 0 26 5;
#X connect 100 0 101 0;
#X connect 101 0 99 1;
#X connect 102 0 26 4;
#X connect 103 0 104 0;
#X connect 104 0 102 1;
#X connect 105 0 103 0;
#X connect 106 0 100 0;
#X connect 107 0 112 0;
#X connect 108 0 109 0;
#X connect 109 0 26 5;
#X connect 110 0 111 0;
#X connect 111 0 109 1;
#X connect 112 0 26 4;
#X connect 113 0 114 0;
#X connect 114 0 112 1;
#X connect 115 0 113 0;
#X connect 116 0 110 0;
#X connect 117 0 122 0;
#X connect 118 0 119 0;
#X connect 119 0 26 5;
#X connect 120 0 121 0;
#X connect 121 0 119 1;
#X connect 122 0 26 4;
#X connect 123 0 124 0;
#X connect 124 0 122 1;
#X connect 125 0 123 0;
#X connect 126 0 120 0;
#X connect 127 0 128 4;
#X connect 128 0 132 0;
#X connect 128 1 132 1;
#X connect 129 0 128 5;
#X connect 130 0 85 0;
#X connect 132 0 131 4;
#X connect 132 1 131 5;
#X connect 133 0 47 0;
#X connect 134 0 97 0;
#X connect 135 0 98 0;
#X connect 136 0 117 0;
#X connect 137 0 118 0;
#X connect 138 0 88 0;
#X connect 139 0 87 0;
#X connect 140 0 108 0;
#X connect 141 0 107 0;
