#N canvas 18 23 1161 634 12;
#N canvas 884 136 720 502 gemwin 0;
#X obj 132 136 gemwin;
#X obj 67 89 outlet;
#X obj 67 10 inlet;
#X obj 67 41 route create;
#X msg 67 70 set destroy;
#X msg 142 68 set create;
#X msg 226 112 destroy \, reset;
#X msg 55 113 dimen 700 700 \, create \, 1;
#X connect 2 0 3 0;
#X connect 3 0 4 0;
#X connect 3 0 7 0;
#X connect 3 1 5 0;
#X connect 3 1 6 0;
#X connect 4 0 1 0;
#X connect 5 0 1 0;
#X connect 6 0 0 0;
#X connect 7 0 0 0;
#X restore 15 39 pd gemwin;
#X msg 15 20 destroy;
#X obj 257 285 scopeXYZ~;
#X msg 397 109 0;
#X obj 367 322 channelst;
#X obj 453 181 phasor~ 1;
#X obj 803 229 scopeXYZ~;
#X msg 814 99 0;
#X obj 813 163 *~ 8;
#X obj 799 198 -~ 4;
#X obj 817 126 phasor~ 1;
#X obj 631 40 bng 15 250 50 0 empty empty empty 17 7 0 10 -262144 -1
-1;
#X obj 676 98 gemhead 0;
#X obj 259 108 gemhead 4;
#X obj 381 233 *~ 8;
#X obj 296 235 -~ 4;
#X msg 151 148 length \$1;
#X obj 81 167 vsl 15 128 0 44100 0 0 empty empty empty 0 -9 0 10 -262144
-1 -1 12700 1;
#X msg 178 203 draw point;
#X obj 259 388 kik;
#X obj 36 353 drumtrig;
#X obj 91 15 clock;
#X obj -51 356 channelst;
#X obj 252 513 shape;
#X obj 488 253 samppad;
#X obj 837 276 drumtrig;
#X obj 552 394 channelst;
#X obj 293 52 sel 0;
#X obj 675 139 color 1 0 0;
#X connect 0 0 1 0;
#X connect 1 0 0 0;
#X connect 3 0 5 1;
#X connect 4 0 2 2;
#X connect 4 1 6 2;
#X connect 5 0 14 0;
#X connect 7 0 10 1;
#X connect 8 0 9 0;
#X connect 9 0 6 1;
#X connect 10 0 8 0;
#X connect 11 0 3 0;
#X connect 11 0 7 0;
#X connect 12 0 28 0;
#X connect 13 0 2 0;
#X connect 14 0 15 0;
#X connect 15 0 2 1;
#X connect 16 0 2 0;
#X connect 16 0 6 0;
#X connect 17 0 16 0;
#X connect 18 0 2 0;
#X connect 19 0 23 0;
#X connect 20 0 19 0;
#X connect 21 0 27 0;
#X connect 23 0 4 4;
#X connect 23 0 22 4;
#X connect 24 0 26 4;
#X connect 24 1 26 5;
#X connect 25 0 24 0;
#X connect 26 0 4 5;
#X connect 26 1 4 5;
#X connect 27 0 11 0;
#X connect 28 0 6 0;
