#N canvas 0 23 1366 662 12;
#X obj 105 139 vradio 10 1 0 12 empty empty empty 0 -8 0 10 -204786
-66577 -1 11;
#X floatatom 105 534 5 0 0 0 - - -;
#X obj 118 139 vradio 10 1 0 10 empty empty empty 0 -8 0 10 -191407
-262130 -1 6;
#X obj 119 513 bng 15 250 50 0 empty empty empty 17 7 0 10 -262144
-1 -1;
#N canvas 0 23 750 624 octave 0;
#X msg 79 467 0;
#X msg 95 494 12;
#X msg 114 521 24;
#X msg 130 548 36;
#X msg 145 468 48;
#X msg 161 495 60;
#X msg 180 522 72;
#X msg 196 549 84;
#X msg 211 581 96;
#X obj 79 434 sel 0 1 2 3 4 5 6 7 8 9;
#X msg 228 612 118;
#X floatatom 80 614 5 0 0 0 - - -;
#X obj 81 396 * -1;
#X obj 81 370 - 9;
#X obj 318 495 outlet;
#X obj 322 379 inlet;
#X connect 0 0 11 0;
#X connect 1 0 11 0;
#X connect 2 0 11 0;
#X connect 3 0 11 0;
#X connect 4 0 11 0;
#X connect 5 0 11 0;
#X connect 6 0 11 0;
#X connect 7 0 11 0;
#X connect 8 0 11 0;
#X connect 9 0 0 0;
#X connect 9 1 1 0;
#X connect 9 2 2 0;
#X connect 9 3 3 0;
#X connect 9 4 4 0;
#X connect 9 5 5 0;
#X connect 9 6 6 0;
#X connect 9 7 7 0;
#X connect 9 8 8 0;
#X connect 9 9 10 0;
#X connect 10 0 11 0;
#X connect 11 0 14 0;
#X connect 12 0 9 0;
#X connect 13 0 12 0;
#X connect 15 0 13 0;
#X restore 119 485 pd octave;
#N canvas 734 132 450 447 note 0;
#X obj 133 354 int;
#X obj 151 282 * -1;
#X obj 151 256 - 11;
#X obj 92 317 bng 15 250 50 0 empty empty empty 17 7 0 10 -262144 -1
-1;
#X obj 151 221 inlet;
#X obj 133 387 outlet;
#X obj 66 238 inlet;
#X obj 151 314 +;
#X obj 208 222 inlet;
#X connect 0 0 5 0;
#X connect 1 0 7 0;
#X connect 2 0 1 0;
#X connect 3 0 0 0;
#X connect 4 0 2 0;
#X connect 6 0 3 0;
#X connect 7 0 0 1;
#X connect 8 0 7 1;
#X restore 105 463 pd note;
#X obj 107 29 r init\$0;
#X obj -30 650 s init\$0;
#X obj 107 56 unpack;
#X obj -30 621 pack 0 0;
#X obj -29 541 loadbang;
#X msg 16 579 6;
#X obj 134 139 vradio 10 1 0 12 empty empty empty 0 -8 0 10 -262144
-1 -1 11;
#X floatatom 175 534 5 0 0 0 - - -;
#X obj 147 139 vradio 10 1 0 10 empty empty empty 0 -8 0 10 -191407
-262130 -1 6;
#X obj 189 513 bng 15 250 50 0 empty empty empty 17 7 0 10 -262144
-1 -1;
#N canvas 0 23 750 624 octave 0;
#X msg 79 467 0;
#X msg 95 494 12;
#X msg 114 521 24;
#X msg 130 548 36;
#X msg 145 468 48;
#X msg 161 495 60;
#X msg 180 522 72;
#X msg 196 549 84;
#X msg 211 581 96;
#X obj 79 434 sel 0 1 2 3 4 5 6 7 8 9;
#X msg 228 612 118;
#X floatatom 80 614 5 0 0 0 - - -;
#X obj 81 396 * -1;
#X obj 81 370 - 9;
#X obj 318 495 outlet;
#X obj 322 379 inlet;
#X connect 0 0 11 0;
#X connect 1 0 11 0;
#X connect 2 0 11 0;
#X connect 3 0 11 0;
#X connect 4 0 11 0;
#X connect 5 0 11 0;
#X connect 6 0 11 0;
#X connect 7 0 11 0;
#X connect 8 0 11 0;
#X connect 9 0 0 0;
#X connect 9 1 1 0;
#X connect 9 2 2 0;
#X connect 9 3 3 0;
#X connect 9 4 4 0;
#X connect 9 5 5 0;
#X connect 9 6 6 0;
#X connect 9 7 7 0;
#X connect 9 8 8 0;
#X connect 9 9 10 0;
#X connect 10 0 11 0;
#X connect 11 0 14 0;
#X connect 12 0 9 0;
#X connect 13 0 12 0;
#X connect 15 0 13 0;
#X restore 189 485 pd octave;
#N canvas 734 132 450 447 note 0;
#X obj 133 354 int;
#X obj 151 314 +;
#X obj 151 282 * -1;
#X obj 151 256 - 11;
#X obj 92 317 bng 15 250 50 0 empty empty empty 17 7 0 10 -262144 -1
-1;
#X obj 151 221 inlet;
#X obj 133 387 outlet;
#X obj 66 238 inlet;
#X obj 237 218 inlet;
#X connect 0 0 6 0;
#X connect 1 0 0 1;
#X connect 2 0 1 0;
#X connect 3 0 2 0;
#X connect 4 0 0 0;
#X connect 5 0 3 0;
#X connect 7 0 4 0;
#X connect 8 0 1 1;
#X restore 175 463 pd note;
#X obj 177 29 r init\$0;
#X obj 177 56 unpack;
#X obj 164 139 vradio 10 1 0 12 empty empty empty 0 -8 0 10 -262144
-1 -1 11;
#X floatatom 244 534 5 0 0 0 - - -;
#X obj 177 139 vradio 10 1 0 10 empty empty empty 0 -8 0 10 -191407
-262130 -1 6;
#X obj 258 513 bng 15 250 50 0 empty empty empty 17 7 0 10 -262144
-1 -1;
#N canvas 0 23 750 624 octave 0;
#X msg 79 467 0;
#X msg 95 494 12;
#X msg 114 521 24;
#X msg 130 548 36;
#X msg 145 468 48;
#X msg 161 495 60;
#X msg 180 522 72;
#X msg 196 549 84;
#X msg 211 581 96;
#X obj 79 434 sel 0 1 2 3 4 5 6 7 8 9;
#X msg 228 612 118;
#X floatatom 80 614 5 0 0 0 - - -;
#X obj 81 396 * -1;
#X obj 81 370 - 9;
#X obj 318 495 outlet;
#X obj 322 379 inlet;
#X connect 0 0 11 0;
#X connect 1 0 11 0;
#X connect 2 0 11 0;
#X connect 3 0 11 0;
#X connect 4 0 11 0;
#X connect 5 0 11 0;
#X connect 6 0 11 0;
#X connect 7 0 11 0;
#X connect 8 0 11 0;
#X connect 9 0 0 0;
#X connect 9 1 1 0;
#X connect 9 2 2 0;
#X connect 9 3 3 0;
#X connect 9 4 4 0;
#X connect 9 5 5 0;
#X connect 9 6 6 0;
#X connect 9 7 7 0;
#X connect 9 8 8 0;
#X connect 9 9 10 0;
#X connect 10 0 11 0;
#X connect 11 0 14 0;
#X connect 12 0 9 0;
#X connect 13 0 12 0;
#X connect 15 0 13 0;
#X restore 258 485 pd octave;
#N canvas 734 132 450 447 note 0;
#X obj 133 354 int;
#X obj 151 314 +;
#X obj 151 282 * -1;
#X obj 151 256 - 11;
#X obj 92 317 bng 15 250 50 0 empty empty empty 17 7 0 10 -262144 -1
-1;
#X obj 151 221 inlet;
#X obj 133 387 outlet;
#X obj 66 238 inlet;
#X obj 212 227 inlet;
#X connect 0 0 6 0;
#X connect 1 0 0 1;
#X connect 2 0 1 0;
#X connect 3 0 2 0;
#X connect 4 0 0 0;
#X connect 5 0 3 0;
#X connect 7 0 4 0;
#X connect 8 0 1 1;
#X restore 244 463 pd note;
#X obj 246 29 r init\$0;
#X obj 246 56 unpack;
#X obj 192 139 vradio 10 1 0 12 empty empty empty 0 -8 0 10 -262144
-1 -1 11;
#X floatatom 314 534 5 0 0 0 - - -;
#X obj 205 139 vradio 10 1 0 10 empty empty empty 0 -8 0 10 -191407
-262130 -1 6;
#X obj 328 513 bng 15 250 50 0 empty empty empty 17 7 0 10 -262144
-1 -1;
#N canvas 0 23 750 624 octave 0;
#X msg 79 467 0;
#X msg 95 494 12;
#X msg 114 521 24;
#X msg 130 548 36;
#X msg 145 468 48;
#X msg 161 495 60;
#X msg 180 522 72;
#X msg 196 549 84;
#X msg 211 581 96;
#X obj 79 434 sel 0 1 2 3 4 5 6 7 8 9;
#X msg 228 612 118;
#X floatatom 80 614 5 0 0 0 - - -;
#X obj 81 396 * -1;
#X obj 81 370 - 9;
#X obj 318 495 outlet;
#X obj 322 379 inlet;
#X connect 0 0 11 0;
#X connect 1 0 11 0;
#X connect 2 0 11 0;
#X connect 3 0 11 0;
#X connect 4 0 11 0;
#X connect 5 0 11 0;
#X connect 6 0 11 0;
#X connect 7 0 11 0;
#X connect 8 0 11 0;
#X connect 9 0 0 0;
#X connect 9 1 1 0;
#X connect 9 2 2 0;
#X connect 9 3 3 0;
#X connect 9 4 4 0;
#X connect 9 5 5 0;
#X connect 9 6 6 0;
#X connect 9 7 7 0;
#X connect 9 8 8 0;
#X connect 9 9 10 0;
#X connect 10 0 11 0;
#X connect 11 0 14 0;
#X connect 12 0 9 0;
#X connect 13 0 12 0;
#X connect 15 0 13 0;
#X restore 328 485 pd octave;
#N canvas 734 132 450 447 note 0;
#X obj 133 354 int;
#X obj 151 314 +;
#X obj 151 282 * -1;
#X obj 151 256 - 11;
#X obj 92 317 bng 15 250 50 0 empty empty empty 17 7 0 10 -262144 -1
-1;
#X obj 151 221 inlet;
#X obj 133 387 outlet;
#X obj 66 238 inlet;
#X obj 208 218 inlet;
#X connect 0 0 6 0;
#X connect 1 0 0 1;
#X connect 2 0 1 0;
#X connect 3 0 2 0;
#X connect 4 0 0 0;
#X connect 5 0 3 0;
#X connect 7 0 4 0;
#X connect 8 0 1 1;
#X restore 314 463 pd note;
#X obj 316 29 r init\$0;
#X obj 316 56 unpack;
#X obj 11 260 r clo;
#X floatatom 12 348 5 0 0 0 - - -;
#X obj 12 377 %;
#X floatatom 12 408 5 0 0 0 - - -;
#X obj 65 355 + 1;
#X floatatom 55 451 5 0 0 0 - - -;
#X obj 247 364 sel 0 1 2 3 4 5 6 7 8 9 10 11 12 13 14 15;
#X obj 105 105 hradio 29 1 0 16 empty empty empty 0 -8 0 10 -262144
-1 -1 8;
#X msg -29 579 11;
#X obj 105 568 spigot;
#X obj 118 249 tgl 10 0 empty empty empty 17 7 0 10 -262144 -1 -1 0
1;
#X obj 147 249 tgl 10 0 empty empty empty 17 7 0 10 -262144 -1 -1 0
1;
#X obj 177 249 tgl 10 0 empty empty empty 17 7 0 10 -262144 -1 -1 0
1;
#X obj 205 249 tgl 10 0 empty empty empty 17 7 0 10 -262144 -1 -1 0
1;
#X obj 105 266 hradio 29 1 0 16 empty empty empty 0 -8 0 10 -262144
-1 -1 15;
#X obj 593 105 vsl 15 190 0 15 0 0 empty empty empty 0 -9 0 10 -262144
-1 -1 0 1;
#X obj 12 321 spigot;
#X obj 574 114 tgl 15 0 empty empty empty 17 7 0 10 -262144 -1 -1 0
1;
#X obj 174 568 spigot;
#X obj 244 567 spigot;
#X obj 313 567 spigot;
#X obj 105 646 outlet;
#X obj 221 139 vradio 10 1 0 12 empty empty empty 0 -8 0 10 -204786
-66577 -1 11;
#X floatatom 385 534 5 0 0 0 - - -;
#X obj 234 139 vradio 10 1 0 10 empty empty empty 0 -8 0 10 -191407
-262130 -1 6;
#X obj 399 513 bng 15 250 50 0 empty empty empty 17 7 0 10 -262144
-1 -1;
#N canvas 0 23 750 624 octave 0;
#X msg 79 467 0;
#X msg 95 494 12;
#X msg 114 521 24;
#X msg 130 548 36;
#X msg 145 468 48;
#X msg 161 495 60;
#X msg 180 522 72;
#X msg 196 549 84;
#X msg 211 581 96;
#X obj 79 434 sel 0 1 2 3 4 5 6 7 8 9;
#X msg 228 612 118;
#X floatatom 80 614 5 0 0 0 - - -;
#X obj 81 396 * -1;
#X obj 81 370 - 9;
#X obj 318 495 outlet;
#X obj 322 379 inlet;
#X connect 0 0 11 0;
#X connect 1 0 11 0;
#X connect 2 0 11 0;
#X connect 3 0 11 0;
#X connect 4 0 11 0;
#X connect 5 0 11 0;
#X connect 6 0 11 0;
#X connect 7 0 11 0;
#X connect 8 0 11 0;
#X connect 9 0 0 0;
#X connect 9 1 1 0;
#X connect 9 2 2 0;
#X connect 9 3 3 0;
#X connect 9 4 4 0;
#X connect 9 5 5 0;
#X connect 9 6 6 0;
#X connect 9 7 7 0;
#X connect 9 8 8 0;
#X connect 9 9 10 0;
#X connect 10 0 11 0;
#X connect 11 0 14 0;
#X connect 12 0 9 0;
#X connect 13 0 12 0;
#X connect 15 0 13 0;
#X restore 399 485 pd octave;
#N canvas 734 132 450 447 note 0;
#X obj 133 354 int;
#X obj 151 282 * -1;
#X obj 151 256 - 11;
#X obj 92 317 bng 15 250 50 0 empty empty empty 17 7 0 10 -262144 -1
-1;
#X obj 151 221 inlet;
#X obj 133 387 outlet;
#X obj 66 238 inlet;
#X obj 151 314 +;
#X obj 208 222 inlet;
#X connect 0 0 5 0;
#X connect 1 0 7 0;
#X connect 2 0 1 0;
#X connect 3 0 0 0;
#X connect 4 0 2 0;
#X connect 6 0 3 0;
#X connect 7 0 0 1;
#X connect 8 0 7 1;
#X restore 385 463 pd note;
#X obj 387 29 r init\$0;
#X obj 387 56 unpack;
#X obj 250 139 vradio 10 1 0 12 empty empty empty 0 -8 0 10 -262144
-1 -1 11;
#X floatatom 455 534 5 0 0 0 - - -;
#X obj 263 139 vradio 10 1 0 10 empty empty empty 0 -8 0 10 -191407
-262130 -1 6;
#X obj 469 513 bng 15 250 50 0 empty empty empty 17 7 0 10 -262144
-1 -1;
#N canvas 0 23 750 624 octave 0;
#X msg 79 467 0;
#X msg 95 494 12;
#X msg 114 521 24;
#X msg 130 548 36;
#X msg 145 468 48;
#X msg 161 495 60;
#X msg 180 522 72;
#X msg 196 549 84;
#X msg 211 581 96;
#X obj 79 434 sel 0 1 2 3 4 5 6 7 8 9;
#X msg 228 612 118;
#X floatatom 80 614 5 0 0 0 - - -;
#X obj 81 396 * -1;
#X obj 81 370 - 9;
#X obj 318 495 outlet;
#X obj 322 379 inlet;
#X connect 0 0 11 0;
#X connect 1 0 11 0;
#X connect 2 0 11 0;
#X connect 3 0 11 0;
#X connect 4 0 11 0;
#X connect 5 0 11 0;
#X connect 6 0 11 0;
#X connect 7 0 11 0;
#X connect 8 0 11 0;
#X connect 9 0 0 0;
#X connect 9 1 1 0;
#X connect 9 2 2 0;
#X connect 9 3 3 0;
#X connect 9 4 4 0;
#X connect 9 5 5 0;
#X connect 9 6 6 0;
#X connect 9 7 7 0;
#X connect 9 8 8 0;
#X connect 9 9 10 0;
#X connect 10 0 11 0;
#X connect 11 0 14 0;
#X connect 12 0 9 0;
#X connect 13 0 12 0;
#X connect 15 0 13 0;
#X restore 469 485 pd octave;
#N canvas 734 132 450 447 note 0;
#X obj 133 354 int;
#X obj 151 314 +;
#X obj 151 282 * -1;
#X obj 151 256 - 11;
#X obj 92 317 bng 15 250 50 0 empty empty empty 17 7 0 10 -262144 -1
-1;
#X obj 151 221 inlet;
#X obj 133 387 outlet;
#X obj 66 238 inlet;
#X obj 237 218 inlet;
#X connect 0 0 6 0;
#X connect 1 0 0 1;
#X connect 2 0 1 0;
#X connect 3 0 2 0;
#X connect 4 0 0 0;
#X connect 5 0 3 0;
#X connect 7 0 4 0;
#X connect 8 0 1 1;
#X restore 455 463 pd note;
#X obj 457 29 r init\$0;
#X obj 457 56 unpack;
#X obj 280 139 vradio 10 1 0 12 empty empty empty 0 -8 0 10 -262144
-1 -1 11;
#X floatatom 524 534 5 0 0 0 - - -;
#X obj 293 139 vradio 10 1 0 10 empty empty empty 0 -8 0 10 -191407
-262130 -1 6;
#X obj 538 513 bng 15 250 50 0 empty empty empty 17 7 0 10 -262144
-1 -1;
#N canvas 0 23 750 624 octave 0;
#X msg 79 467 0;
#X msg 95 494 12;
#X msg 114 521 24;
#X msg 130 548 36;
#X msg 145 468 48;
#X msg 161 495 60;
#X msg 180 522 72;
#X msg 196 549 84;
#X msg 211 581 96;
#X obj 79 434 sel 0 1 2 3 4 5 6 7 8 9;
#X msg 228 612 118;
#X floatatom 80 614 5 0 0 0 - - -;
#X obj 81 396 * -1;
#X obj 81 370 - 9;
#X obj 318 495 outlet;
#X obj 322 379 inlet;
#X connect 0 0 11 0;
#X connect 1 0 11 0;
#X connect 2 0 11 0;
#X connect 3 0 11 0;
#X connect 4 0 11 0;
#X connect 5 0 11 0;
#X connect 6 0 11 0;
#X connect 7 0 11 0;
#X connect 8 0 11 0;
#X connect 9 0 0 0;
#X connect 9 1 1 0;
#X connect 9 2 2 0;
#X connect 9 3 3 0;
#X connect 9 4 4 0;
#X connect 9 5 5 0;
#X connect 9 6 6 0;
#X connect 9 7 7 0;
#X connect 9 8 8 0;
#X connect 9 9 10 0;
#X connect 10 0 11 0;
#X connect 11 0 14 0;
#X connect 12 0 9 0;
#X connect 13 0 12 0;
#X connect 15 0 13 0;
#X restore 538 485 pd octave;
#N canvas 734 132 450 447 note 0;
#X obj 133 354 int;
#X obj 151 314 +;
#X obj 151 282 * -1;
#X obj 151 256 - 11;
#X obj 92 317 bng 15 250 50 0 empty empty empty 17 7 0 10 -262144 -1
-1;
#X obj 151 221 inlet;
#X obj 133 387 outlet;
#X obj 66 238 inlet;
#X obj 212 227 inlet;
#X connect 0 0 6 0;
#X connect 1 0 0 1;
#X connect 2 0 1 0;
#X connect 3 0 2 0;
#X connect 4 0 0 0;
#X connect 5 0 3 0;
#X connect 7 0 4 0;
#X connect 8 0 1 1;
#X restore 524 463 pd note;
#X obj 526 29 r init\$0;
#X obj 526 56 unpack;
#X obj 308 139 vradio 10 1 0 12 empty empty empty 0 -8 0 10 -262144
-1 -1 11;
#X floatatom 594 534 5 0 0 0 - - -;
#X obj 321 139 vradio 10 1 0 10 empty empty empty 0 -8 0 10 -191407
-262130 -1 6;
#X obj 608 513 bng 15 250 50 0 empty empty empty 17 7 0 10 -262144
-1 -1;
#N canvas 0 23 750 624 octave 0;
#X msg 79 467 0;
#X msg 95 494 12;
#X msg 114 521 24;
#X msg 130 548 36;
#X msg 145 468 48;
#X msg 161 495 60;
#X msg 180 522 72;
#X msg 196 549 84;
#X msg 211 581 96;
#X obj 79 434 sel 0 1 2 3 4 5 6 7 8 9;
#X msg 228 612 118;
#X floatatom 80 614 5 0 0 0 - - -;
#X obj 81 396 * -1;
#X obj 81 370 - 9;
#X obj 318 495 outlet;
#X obj 322 379 inlet;
#X connect 0 0 11 0;
#X connect 1 0 11 0;
#X connect 2 0 11 0;
#X connect 3 0 11 0;
#X connect 4 0 11 0;
#X connect 5 0 11 0;
#X connect 6 0 11 0;
#X connect 7 0 11 0;
#X connect 8 0 11 0;
#X connect 9 0 0 0;
#X connect 9 1 1 0;
#X connect 9 2 2 0;
#X connect 9 3 3 0;
#X connect 9 4 4 0;
#X connect 9 5 5 0;
#X connect 9 6 6 0;
#X connect 9 7 7 0;
#X connect 9 8 8 0;
#X connect 9 9 10 0;
#X connect 10 0 11 0;
#X connect 11 0 14 0;
#X connect 12 0 9 0;
#X connect 13 0 12 0;
#X connect 15 0 13 0;
#X restore 608 485 pd octave;
#N canvas 734 132 450 447 note 0;
#X obj 133 354 int;
#X obj 151 314 +;
#X obj 151 282 * -1;
#X obj 151 256 - 11;
#X obj 92 317 bng 15 250 50 0 empty empty empty 17 7 0 10 -262144 -1
-1;
#X obj 151 221 inlet;
#X obj 133 387 outlet;
#X obj 66 238 inlet;
#X obj 208 218 inlet;
#X connect 0 0 6 0;
#X connect 1 0 0 1;
#X connect 2 0 1 0;
#X connect 3 0 2 0;
#X connect 4 0 0 0;
#X connect 5 0 3 0;
#X connect 7 0 4 0;
#X connect 8 0 1 1;
#X restore 594 463 pd note;
#X obj 596 29 r init\$0;
#X obj 596 56 unpack;
#X obj 385 568 spigot;
#X obj 234 249 tgl 10 0 empty empty empty 17 7 0 10 -262144 -1 -1 0
1;
#X obj 263 249 tgl 10 0 empty empty empty 17 7 0 10 -262144 -1 -1 0
1;
#X obj 293 249 tgl 10 0 empty empty empty 17 7 0 10 -262144 -1 -1 0
1;
#X obj 321 249 tgl 10 0 empty empty empty 17 7 0 10 -262144 -1 -1 0
1;
#X obj 454 568 spigot;
#X obj 524 567 spigot;
#X obj 593 567 spigot;
#X obj 337 139 vradio 10 1 0 12 empty empty empty 0 -8 0 10 -204786
-66577 -1 11;
#X floatatom 677 529 5 0 0 0 - - -;
#X obj 350 139 vradio 10 1 0 10 empty empty empty 0 -8 0 10 -191407
-262130 -1 6;
#X obj 691 508 bng 15 250 50 0 empty empty empty 17 7 0 10 -262144
-1 -1;
#N canvas 0 23 750 624 octave 0;
#X msg 79 467 0;
#X msg 95 494 12;
#X msg 114 521 24;
#X msg 130 548 36;
#X msg 145 468 48;
#X msg 161 495 60;
#X msg 180 522 72;
#X msg 196 549 84;
#X msg 211 581 96;
#X obj 79 434 sel 0 1 2 3 4 5 6 7 8 9;
#X msg 228 612 118;
#X floatatom 80 614 5 0 0 0 - - -;
#X obj 81 396 * -1;
#X obj 81 370 - 9;
#X obj 318 495 outlet;
#X obj 322 379 inlet;
#X connect 0 0 11 0;
#X connect 1 0 11 0;
#X connect 2 0 11 0;
#X connect 3 0 11 0;
#X connect 4 0 11 0;
#X connect 5 0 11 0;
#X connect 6 0 11 0;
#X connect 7 0 11 0;
#X connect 8 0 11 0;
#X connect 9 0 0 0;
#X connect 9 1 1 0;
#X connect 9 2 2 0;
#X connect 9 3 3 0;
#X connect 9 4 4 0;
#X connect 9 5 5 0;
#X connect 9 6 6 0;
#X connect 9 7 7 0;
#X connect 9 8 8 0;
#X connect 9 9 10 0;
#X connect 10 0 11 0;
#X connect 11 0 14 0;
#X connect 12 0 9 0;
#X connect 13 0 12 0;
#X connect 15 0 13 0;
#X restore 691 480 pd octave;
#N canvas 734 132 450 447 note 0;
#X obj 133 354 int;
#X obj 151 282 * -1;
#X obj 151 256 - 11;
#X obj 92 317 bng 15 250 50 0 empty empty empty 17 7 0 10 -262144 -1
-1;
#X obj 151 221 inlet;
#X obj 133 387 outlet;
#X obj 66 238 inlet;
#X obj 151 314 +;
#X obj 208 222 inlet;
#X connect 0 0 5 0;
#X connect 1 0 7 0;
#X connect 2 0 1 0;
#X connect 3 0 0 0;
#X connect 4 0 2 0;
#X connect 6 0 3 0;
#X connect 7 0 0 1;
#X connect 8 0 7 1;
#X restore 677 458 pd note;
#X obj 679 24 r init\$0;
#X obj 679 51 unpack;
#X obj 366 139 vradio 10 1 0 12 empty empty empty 0 -8 0 10 -262144
-1 -1 11;
#X floatatom 747 529 5 0 0 0 - - -;
#X obj 379 139 vradio 10 1 0 10 empty empty empty 0 -8 0 10 -191407
-262130 -1 6;
#X obj 761 508 bng 15 250 50 0 empty empty empty 17 7 0 10 -262144
-1 -1;
#N canvas 0 23 750 624 octave 0;
#X msg 79 467 0;
#X msg 95 494 12;
#X msg 114 521 24;
#X msg 130 548 36;
#X msg 145 468 48;
#X msg 161 495 60;
#X msg 180 522 72;
#X msg 196 549 84;
#X msg 211 581 96;
#X obj 79 434 sel 0 1 2 3 4 5 6 7 8 9;
#X msg 228 612 118;
#X floatatom 80 614 5 0 0 0 - - -;
#X obj 81 396 * -1;
#X obj 81 370 - 9;
#X obj 318 495 outlet;
#X obj 322 379 inlet;
#X connect 0 0 11 0;
#X connect 1 0 11 0;
#X connect 2 0 11 0;
#X connect 3 0 11 0;
#X connect 4 0 11 0;
#X connect 5 0 11 0;
#X connect 6 0 11 0;
#X connect 7 0 11 0;
#X connect 8 0 11 0;
#X connect 9 0 0 0;
#X connect 9 1 1 0;
#X connect 9 2 2 0;
#X connect 9 3 3 0;
#X connect 9 4 4 0;
#X connect 9 5 5 0;
#X connect 9 6 6 0;
#X connect 9 7 7 0;
#X connect 9 8 8 0;
#X connect 9 9 10 0;
#X connect 10 0 11 0;
#X connect 11 0 14 0;
#X connect 12 0 9 0;
#X connect 13 0 12 0;
#X connect 15 0 13 0;
#X restore 761 480 pd octave;
#N canvas 734 132 450 447 note 0;
#X obj 133 354 int;
#X obj 151 314 +;
#X obj 151 282 * -1;
#X obj 151 256 - 11;
#X obj 92 317 bng 15 250 50 0 empty empty empty 17 7 0 10 -262144 -1
-1;
#X obj 151 221 inlet;
#X obj 133 387 outlet;
#X obj 66 238 inlet;
#X obj 237 218 inlet;
#X connect 0 0 6 0;
#X connect 1 0 0 1;
#X connect 2 0 1 0;
#X connect 3 0 2 0;
#X connect 4 0 0 0;
#X connect 5 0 3 0;
#X connect 7 0 4 0;
#X connect 8 0 1 1;
#X restore 747 458 pd note;
#X obj 749 24 r init\$0;
#X obj 749 51 unpack;
#X obj 396 139 vradio 10 1 0 12 empty empty empty 0 -8 0 10 -262144
-1 -1 11;
#X floatatom 816 529 5 0 0 0 - - -;
#X obj 409 139 vradio 10 1 0 10 empty empty empty 0 -8 0 10 -191407
-262130 -1 6;
#X obj 830 508 bng 15 250 50 0 empty empty empty 17 7 0 10 -262144
-1 -1;
#N canvas 0 23 750 624 octave 0;
#X msg 79 467 0;
#X msg 95 494 12;
#X msg 114 521 24;
#X msg 130 548 36;
#X msg 145 468 48;
#X msg 161 495 60;
#X msg 180 522 72;
#X msg 196 549 84;
#X msg 211 581 96;
#X obj 79 434 sel 0 1 2 3 4 5 6 7 8 9;
#X msg 228 612 118;
#X floatatom 80 614 5 0 0 0 - - -;
#X obj 81 396 * -1;
#X obj 81 370 - 9;
#X obj 318 495 outlet;
#X obj 322 379 inlet;
#X connect 0 0 11 0;
#X connect 1 0 11 0;
#X connect 2 0 11 0;
#X connect 3 0 11 0;
#X connect 4 0 11 0;
#X connect 5 0 11 0;
#X connect 6 0 11 0;
#X connect 7 0 11 0;
#X connect 8 0 11 0;
#X connect 9 0 0 0;
#X connect 9 1 1 0;
#X connect 9 2 2 0;
#X connect 9 3 3 0;
#X connect 9 4 4 0;
#X connect 9 5 5 0;
#X connect 9 6 6 0;
#X connect 9 7 7 0;
#X connect 9 8 8 0;
#X connect 9 9 10 0;
#X connect 10 0 11 0;
#X connect 11 0 14 0;
#X connect 12 0 9 0;
#X connect 13 0 12 0;
#X connect 15 0 13 0;
#X restore 830 480 pd octave;
#N canvas 734 132 450 447 note 0;
#X obj 133 354 int;
#X obj 151 314 +;
#X obj 151 282 * -1;
#X obj 151 256 - 11;
#X obj 92 317 bng 15 250 50 0 empty empty empty 17 7 0 10 -262144 -1
-1;
#X obj 151 221 inlet;
#X obj 133 387 outlet;
#X obj 66 238 inlet;
#X obj 212 227 inlet;
#X connect 0 0 6 0;
#X connect 1 0 0 1;
#X connect 2 0 1 0;
#X connect 3 0 2 0;
#X connect 4 0 0 0;
#X connect 5 0 3 0;
#X connect 7 0 4 0;
#X connect 8 0 1 1;
#X restore 816 458 pd note;
#X obj 818 24 r init\$0;
#X obj 818 51 unpack;
#X obj 424 139 vradio 10 1 0 12 empty empty empty 0 -8 0 10 -262144
-1 -1 11;
#X floatatom 886 529 5 0 0 0 - - -;
#X obj 437 139 vradio 10 1 0 10 empty empty empty 0 -8 0 10 -191407
-262130 -1 6;
#X obj 900 508 bng 15 250 50 0 empty empty empty 17 7 0 10 -262144
-1 -1;
#N canvas 0 23 750 624 octave 0;
#X msg 79 467 0;
#X msg 95 494 12;
#X msg 114 521 24;
#X msg 130 548 36;
#X msg 145 468 48;
#X msg 161 495 60;
#X msg 180 522 72;
#X msg 196 549 84;
#X msg 211 581 96;
#X obj 79 434 sel 0 1 2 3 4 5 6 7 8 9;
#X msg 228 612 118;
#X floatatom 80 614 5 0 0 0 - - -;
#X obj 81 396 * -1;
#X obj 81 370 - 9;
#X obj 318 495 outlet;
#X obj 322 379 inlet;
#X connect 0 0 11 0;
#X connect 1 0 11 0;
#X connect 2 0 11 0;
#X connect 3 0 11 0;
#X connect 4 0 11 0;
#X connect 5 0 11 0;
#X connect 6 0 11 0;
#X connect 7 0 11 0;
#X connect 8 0 11 0;
#X connect 9 0 0 0;
#X connect 9 1 1 0;
#X connect 9 2 2 0;
#X connect 9 3 3 0;
#X connect 9 4 4 0;
#X connect 9 5 5 0;
#X connect 9 6 6 0;
#X connect 9 7 7 0;
#X connect 9 8 8 0;
#X connect 9 9 10 0;
#X connect 10 0 11 0;
#X connect 11 0 14 0;
#X connect 12 0 9 0;
#X connect 13 0 12 0;
#X connect 15 0 13 0;
#X restore 900 480 pd octave;
#N canvas 734 132 450 447 note 0;
#X obj 133 354 int;
#X obj 151 314 +;
#X obj 151 282 * -1;
#X obj 151 256 - 11;
#X obj 92 317 bng 15 250 50 0 empty empty empty 17 7 0 10 -262144 -1
-1;
#X obj 151 221 inlet;
#X obj 133 387 outlet;
#X obj 66 238 inlet;
#X obj 208 218 inlet;
#X connect 0 0 6 0;
#X connect 1 0 0 1;
#X connect 2 0 1 0;
#X connect 3 0 2 0;
#X connect 4 0 0 0;
#X connect 5 0 3 0;
#X connect 7 0 4 0;
#X connect 8 0 1 1;
#X restore 886 458 pd note;
#X obj 888 24 r init\$0;
#X obj 888 51 unpack;
#X obj 677 563 spigot;
#X obj 350 249 tgl 10 0 empty empty empty 17 7 0 10 -262144 -1 -1 0
1;
#X obj 379 249 tgl 10 0 empty empty empty 17 7 0 10 -262144 -1 -1 0
1;
#X obj 409 249 tgl 10 0 empty empty empty 17 7 0 10 -262144 -1 -1 0
1;
#X obj 437 249 tgl 10 0 empty empty empty 17 7 0 10 -262144 -1 -1 0
1;
#X obj 746 563 spigot;
#X obj 816 562 spigot;
#X obj 885 562 spigot;
#X obj 453 139 vradio 10 1 0 12 empty empty empty 0 -8 0 10 -204786
-66577 -1 11;
#X floatatom 957 529 5 0 0 0 - - -;
#X obj 466 139 vradio 10 1 0 10 empty empty empty 0 -8 0 10 -191407
-262130 -1 6;
#X obj 971 508 bng 15 250 50 0 empty empty empty 17 7 0 10 -262144
-1 -1;
#N canvas 0 23 750 624 octave 0;
#X msg 79 467 0;
#X msg 95 494 12;
#X msg 114 521 24;
#X msg 130 548 36;
#X msg 145 468 48;
#X msg 161 495 60;
#X msg 180 522 72;
#X msg 196 549 84;
#X msg 211 581 96;
#X obj 79 434 sel 0 1 2 3 4 5 6 7 8 9;
#X msg 228 612 118;
#X floatatom 80 614 5 0 0 0 - - -;
#X obj 81 396 * -1;
#X obj 81 370 - 9;
#X obj 318 495 outlet;
#X obj 322 379 inlet;
#X connect 0 0 11 0;
#X connect 1 0 11 0;
#X connect 2 0 11 0;
#X connect 3 0 11 0;
#X connect 4 0 11 0;
#X connect 5 0 11 0;
#X connect 6 0 11 0;
#X connect 7 0 11 0;
#X connect 8 0 11 0;
#X connect 9 0 0 0;
#X connect 9 1 1 0;
#X connect 9 2 2 0;
#X connect 9 3 3 0;
#X connect 9 4 4 0;
#X connect 9 5 5 0;
#X connect 9 6 6 0;
#X connect 9 7 7 0;
#X connect 9 8 8 0;
#X connect 9 9 10 0;
#X connect 10 0 11 0;
#X connect 11 0 14 0;
#X connect 12 0 9 0;
#X connect 13 0 12 0;
#X connect 15 0 13 0;
#X restore 971 480 pd octave;
#N canvas 734 132 450 447 note 0;
#X obj 133 354 int;
#X obj 151 282 * -1;
#X obj 151 256 - 11;
#X obj 92 317 bng 15 250 50 0 empty empty empty 17 7 0 10 -262144 -1
-1;
#X obj 151 221 inlet;
#X obj 133 387 outlet;
#X obj 66 238 inlet;
#X obj 151 314 +;
#X obj 208 222 inlet;
#X connect 0 0 5 0;
#X connect 1 0 7 0;
#X connect 2 0 1 0;
#X connect 3 0 0 0;
#X connect 4 0 2 0;
#X connect 6 0 3 0;
#X connect 7 0 0 1;
#X connect 8 0 7 1;
#X restore 957 458 pd note;
#X obj 959 24 r init\$0;
#X obj 959 51 unpack;
#X obj 482 139 vradio 10 1 0 12 empty empty empty 0 -8 0 10 -262144
-1 -1 11;
#X floatatom 1027 529 5 0 0 0 - - -;
#X obj 495 139 vradio 10 1 0 10 empty empty empty 0 -8 0 10 -191407
-262130 -1 6;
#X obj 1041 508 bng 15 250 50 0 empty empty empty 17 7 0 10 -262144
-1 -1;
#N canvas 0 23 750 624 octave 0;
#X msg 79 467 0;
#X msg 95 494 12;
#X msg 114 521 24;
#X msg 130 548 36;
#X msg 145 468 48;
#X msg 161 495 60;
#X msg 180 522 72;
#X msg 196 549 84;
#X msg 211 581 96;
#X obj 79 434 sel 0 1 2 3 4 5 6 7 8 9;
#X msg 228 612 118;
#X floatatom 80 614 5 0 0 0 - - -;
#X obj 81 396 * -1;
#X obj 81 370 - 9;
#X obj 318 495 outlet;
#X obj 322 379 inlet;
#X connect 0 0 11 0;
#X connect 1 0 11 0;
#X connect 2 0 11 0;
#X connect 3 0 11 0;
#X connect 4 0 11 0;
#X connect 5 0 11 0;
#X connect 6 0 11 0;
#X connect 7 0 11 0;
#X connect 8 0 11 0;
#X connect 9 0 0 0;
#X connect 9 1 1 0;
#X connect 9 2 2 0;
#X connect 9 3 3 0;
#X connect 9 4 4 0;
#X connect 9 5 5 0;
#X connect 9 6 6 0;
#X connect 9 7 7 0;
#X connect 9 8 8 0;
#X connect 9 9 10 0;
#X connect 10 0 11 0;
#X connect 11 0 14 0;
#X connect 12 0 9 0;
#X connect 13 0 12 0;
#X connect 15 0 13 0;
#X restore 1041 480 pd octave;
#N canvas 734 132 450 447 note 0;
#X obj 133 354 int;
#X obj 151 314 +;
#X obj 151 282 * -1;
#X obj 151 256 - 11;
#X obj 92 317 bng 15 250 50 0 empty empty empty 17 7 0 10 -262144 -1
-1;
#X obj 151 221 inlet;
#X obj 133 387 outlet;
#X obj 66 238 inlet;
#X obj 237 218 inlet;
#X connect 0 0 6 0;
#X connect 1 0 0 1;
#X connect 2 0 1 0;
#X connect 3 0 2 0;
#X connect 4 0 0 0;
#X connect 5 0 3 0;
#X connect 7 0 4 0;
#X connect 8 0 1 1;
#X restore 1027 458 pd note;
#X obj 1029 24 r init\$0;
#X obj 1029 51 unpack;
#X obj 512 139 vradio 10 1 0 12 empty empty empty 0 -8 0 10 -262144
-1 -1 11;
#X floatatom 1096 529 5 0 0 0 - - -;
#X obj 525 139 vradio 10 1 0 10 empty empty empty 0 -8 0 10 -191407
-262130 -1 6;
#X obj 1110 508 bng 15 250 50 0 empty empty empty 17 7 0 10 -262144
-1 -1;
#N canvas 0 23 750 624 octave 0;
#X msg 79 467 0;
#X msg 95 494 12;
#X msg 114 521 24;
#X msg 130 548 36;
#X msg 145 468 48;
#X msg 161 495 60;
#X msg 180 522 72;
#X msg 196 549 84;
#X msg 211 581 96;
#X obj 79 434 sel 0 1 2 3 4 5 6 7 8 9;
#X msg 228 612 118;
#X floatatom 80 614 5 0 0 0 - - -;
#X obj 81 396 * -1;
#X obj 81 370 - 9;
#X obj 318 495 outlet;
#X obj 322 379 inlet;
#X connect 0 0 11 0;
#X connect 1 0 11 0;
#X connect 2 0 11 0;
#X connect 3 0 11 0;
#X connect 4 0 11 0;
#X connect 5 0 11 0;
#X connect 6 0 11 0;
#X connect 7 0 11 0;
#X connect 8 0 11 0;
#X connect 9 0 0 0;
#X connect 9 1 1 0;
#X connect 9 2 2 0;
#X connect 9 3 3 0;
#X connect 9 4 4 0;
#X connect 9 5 5 0;
#X connect 9 6 6 0;
#X connect 9 7 7 0;
#X connect 9 8 8 0;
#X connect 9 9 10 0;
#X connect 10 0 11 0;
#X connect 11 0 14 0;
#X connect 12 0 9 0;
#X connect 13 0 12 0;
#X connect 15 0 13 0;
#X restore 1110 480 pd octave;
#N canvas 734 132 450 447 note 0;
#X obj 133 354 int;
#X obj 151 314 +;
#X obj 151 282 * -1;
#X obj 151 256 - 11;
#X obj 92 317 bng 15 250 50 0 empty empty empty 17 7 0 10 -262144 -1
-1;
#X obj 151 221 inlet;
#X obj 133 387 outlet;
#X obj 66 238 inlet;
#X obj 212 227 inlet;
#X connect 0 0 6 0;
#X connect 1 0 0 1;
#X connect 2 0 1 0;
#X connect 3 0 2 0;
#X connect 4 0 0 0;
#X connect 5 0 3 0;
#X connect 7 0 4 0;
#X connect 8 0 1 1;
#X restore 1096 458 pd note;
#X obj 1098 24 r init\$0;
#X obj 1098 51 unpack;
#X obj 540 139 vradio 10 1 0 12 empty empty empty 0 -8 0 10 -262144
-1 -1 11;
#X floatatom 1166 529 5 0 0 0 - - -;
#X obj 553 139 vradio 10 1 0 10 empty empty empty 0 -8 0 10 -191407
-262130 -1 6;
#X obj 1180 508 bng 15 250 50 0 empty empty empty 17 7 0 10 -262144
-1 -1;
#N canvas 0 23 750 624 octave 0;
#X msg 79 467 0;
#X msg 95 494 12;
#X msg 114 521 24;
#X msg 130 548 36;
#X msg 145 468 48;
#X msg 161 495 60;
#X msg 180 522 72;
#X msg 196 549 84;
#X msg 211 581 96;
#X obj 79 434 sel 0 1 2 3 4 5 6 7 8 9;
#X msg 228 612 118;
#X floatatom 80 614 5 0 0 0 - - -;
#X obj 81 396 * -1;
#X obj 81 370 - 9;
#X obj 318 495 outlet;
#X obj 322 379 inlet;
#X connect 0 0 11 0;
#X connect 1 0 11 0;
#X connect 2 0 11 0;
#X connect 3 0 11 0;
#X connect 4 0 11 0;
#X connect 5 0 11 0;
#X connect 6 0 11 0;
#X connect 7 0 11 0;
#X connect 8 0 11 0;
#X connect 9 0 0 0;
#X connect 9 1 1 0;
#X connect 9 2 2 0;
#X connect 9 3 3 0;
#X connect 9 4 4 0;
#X connect 9 5 5 0;
#X connect 9 6 6 0;
#X connect 9 7 7 0;
#X connect 9 8 8 0;
#X connect 9 9 10 0;
#X connect 10 0 11 0;
#X connect 11 0 14 0;
#X connect 12 0 9 0;
#X connect 13 0 12 0;
#X connect 15 0 13 0;
#X restore 1180 480 pd octave;
#N canvas 734 132 450 447 note 0;
#X obj 133 354 int;
#X obj 151 314 +;
#X obj 151 282 * -1;
#X obj 151 256 - 11;
#X obj 92 317 bng 15 250 50 0 empty empty empty 17 7 0 10 -262144 -1
-1;
#X obj 151 221 inlet;
#X obj 133 387 outlet;
#X obj 66 238 inlet;
#X obj 208 218 inlet;
#X connect 0 0 6 0;
#X connect 1 0 0 1;
#X connect 2 0 1 0;
#X connect 3 0 2 0;
#X connect 4 0 0 0;
#X connect 5 0 3 0;
#X connect 7 0 4 0;
#X connect 8 0 1 1;
#X restore 1166 458 pd note;
#X obj 1168 24 r init\$0;
#X obj 1168 51 unpack;
#X obj 957 563 spigot;
#X obj 466 249 tgl 10 0 empty empty empty 17 7 0 10 -262144 -1 -1 0
1;
#X obj 495 249 tgl 10 0 empty empty empty 17 7 0 10 -262144 -1 -1 0
1;
#X obj 525 249 tgl 10 0 empty empty empty 17 7 0 10 -262144 -1 -1 0
1;
#X obj 553 249 tgl 10 0 empty empty empty 17 7 0 10 -262144 -1 -1 0
1;
#X obj 1026 563 spigot;
#X obj 1096 562 spigot;
#X obj 1165 562 spigot;
#X obj 49 515 del 20;
#X msg 17 464 15;
#X connect 0 0 5 1;
#X connect 1 0 45 0;
#X connect 2 0 4 0;
#X connect 3 0 0 0;
#X connect 4 0 5 2;
#X connect 4 0 3 0;
#X connect 5 0 1 0;
#X connect 6 0 8 0;
#X connect 8 0 0 0;
#X connect 8 1 2 0;
#X connect 9 0 7 0;
#X connect 10 0 11 0;
#X connect 10 0 179 0;
#X connect 10 0 178 0;
#X connect 11 0 9 1;
#X connect 12 0 17 1;
#X connect 13 0 54 0;
#X connect 14 0 16 0;
#X connect 15 0 12 0;
#X connect 16 0 17 2;
#X connect 16 0 15 0;
#X connect 17 0 13 0;
#X connect 18 0 19 0;
#X connect 19 0 12 0;
#X connect 19 1 14 0;
#X connect 20 0 25 1;
#X connect 21 0 55 0;
#X connect 22 0 24 0;
#X connect 23 0 20 0;
#X connect 24 0 25 2;
#X connect 24 0 23 0;
#X connect 25 0 21 0;
#X connect 26 0 27 0;
#X connect 27 0 20 0;
#X connect 27 1 22 0;
#X connect 28 0 33 1;
#X connect 29 0 56 0;
#X connect 30 0 32 0;
#X connect 31 0 28 0;
#X connect 32 0 33 2;
#X connect 32 0 31 0;
#X connect 33 0 29 0;
#X connect 34 0 35 0;
#X connect 35 0 28 0;
#X connect 35 1 30 0;
#X connect 36 0 52 0;
#X connect 37 0 38 0;
#X connect 38 0 39 0;
#X connect 39 0 42 0;
#X connect 39 0 43 0;
#X connect 40 0 41 0;
#X connect 41 0 38 1;
#X connect 42 0 5 0;
#X connect 42 1 17 0;
#X connect 42 2 25 0;
#X connect 42 3 33 0;
#X connect 42 4 63 0;
#X connect 42 5 71 0;
#X connect 42 6 79 0;
#X connect 42 7 87 0;
#X connect 42 8 103 0;
#X connect 42 9 111 0;
#X connect 42 10 119 0;
#X connect 42 11 127 0;
#X connect 42 12 143 0;
#X connect 42 13 151 0;
#X connect 42 14 159 0;
#X connect 42 15 167 0;
#X connect 44 0 9 0;
#X connect 45 0 57 0;
#X connect 46 0 45 1;
#X connect 47 0 54 1;
#X connect 48 0 55 1;
#X connect 49 0 56 1;
#X connect 50 0 40 0;
#X connect 51 0 50 0;
#X connect 52 0 37 0;
#X connect 53 0 52 1;
#X connect 54 0 57 0;
#X connect 55 0 57 0;
#X connect 56 0 57 0;
#X connect 58 0 63 1;
#X connect 59 0 90 0;
#X connect 60 0 62 0;
#X connect 61 0 58 0;
#X connect 62 0 63 2;
#X connect 62 0 61 0;
#X connect 63 0 59 0;
#X connect 64 0 65 0;
#X connect 65 0 58 0;
#X connect 65 1 60 0;
#X connect 66 0 71 1;
#X connect 67 0 95 0;
#X connect 68 0 70 0;
#X connect 69 0 66 0;
#X connect 70 0 71 2;
#X connect 70 0 69 0;
#X connect 71 0 67 0;
#X connect 72 0 73 0;
#X connect 73 0 66 0;
#X connect 73 1 68 0;
#X connect 74 0 79 1;
#X connect 75 0 96 0;
#X connect 76 0 78 0;
#X connect 77 0 74 0;
#X connect 78 0 79 2;
#X connect 78 0 77 0;
#X connect 79 0 75 0;
#X connect 80 0 81 0;
#X connect 81 0 74 0;
#X connect 81 1 76 0;
#X connect 82 0 87 1;
#X connect 83 0 97 0;
#X connect 84 0 86 0;
#X connect 85 0 82 0;
#X connect 86 0 87 2;
#X connect 86 0 85 0;
#X connect 87 0 83 0;
#X connect 88 0 89 0;
#X connect 89 0 82 0;
#X connect 89 1 84 0;
#X connect 90 0 57 0;
#X connect 91 0 90 1;
#X connect 92 0 95 1;
#X connect 93 0 96 1;
#X connect 94 0 97 1;
#X connect 95 0 57 0;
#X connect 96 0 57 0;
#X connect 97 0 57 0;
#X connect 98 0 103 1;
#X connect 99 0 130 0;
#X connect 100 0 102 0;
#X connect 101 0 98 0;
#X connect 102 0 103 2;
#X connect 102 0 101 0;
#X connect 103 0 99 0;
#X connect 104 0 105 0;
#X connect 105 0 98 0;
#X connect 105 1 100 0;
#X connect 106 0 111 1;
#X connect 107 0 135 0;
#X connect 108 0 110 0;
#X connect 109 0 106 0;
#X connect 110 0 111 2;
#X connect 110 0 109 0;
#X connect 111 0 107 0;
#X connect 112 0 113 0;
#X connect 113 0 106 0;
#X connect 113 1 108 0;
#X connect 114 0 119 1;
#X connect 115 0 136 0;
#X connect 116 0 118 0;
#X connect 117 0 114 0;
#X connect 118 0 119 2;
#X connect 118 0 117 0;
#X connect 119 0 115 0;
#X connect 120 0 121 0;
#X connect 121 0 114 0;
#X connect 121 1 116 0;
#X connect 122 0 127 1;
#X connect 123 0 137 0;
#X connect 124 0 126 0;
#X connect 125 0 122 0;
#X connect 126 0 127 2;
#X connect 126 0 125 0;
#X connect 127 0 123 0;
#X connect 128 0 129 0;
#X connect 129 0 122 0;
#X connect 129 1 124 0;
#X connect 130 0 57 0;
#X connect 131 0 130 1;
#X connect 132 0 135 1;
#X connect 133 0 136 1;
#X connect 134 0 137 1;
#X connect 135 0 57 0;
#X connect 136 0 57 0;
#X connect 137 0 57 0;
#X connect 138 0 143 1;
#X connect 139 0 170 0;
#X connect 140 0 142 0;
#X connect 141 0 138 0;
#X connect 142 0 143 2;
#X connect 142 0 141 0;
#X connect 143 0 139 0;
#X connect 144 0 145 0;
#X connect 145 0 138 0;
#X connect 145 1 140 0;
#X connect 146 0 151 1;
#X connect 147 0 175 0;
#X connect 148 0 150 0;
#X connect 149 0 146 0;
#X connect 150 0 151 2;
#X connect 150 0 149 0;
#X connect 151 0 147 0;
#X connect 152 0 153 0;
#X connect 153 0 146 0;
#X connect 153 1 148 0;
#X connect 154 0 159 1;
#X connect 155 0 176 0;
#X connect 156 0 158 0;
#X connect 157 0 154 0;
#X connect 158 0 159 2;
#X connect 158 0 157 0;
#X connect 159 0 155 0;
#X connect 160 0 161 0;
#X connect 161 0 154 0;
#X connect 161 1 156 0;
#X connect 162 0 167 1;
#X connect 163 0 177 0;
#X connect 164 0 166 0;
#X connect 165 0 162 0;
#X connect 166 0 167 2;
#X connect 166 0 165 0;
#X connect 167 0 163 0;
#X connect 168 0 169 0;
#X connect 169 0 162 0;
#X connect 169 1 164 0;
#X connect 170 0 57 0;
#X connect 171 0 170 1;
#X connect 172 0 175 1;
#X connect 173 0 176 1;
#X connect 174 0 177 1;
#X connect 175 0 57 0;
#X connect 176 0 57 0;
#X connect 177 0 57 0;
#X connect 178 0 44 0;
#X connect 179 0 50 0;
#X coords 0 -1 1 1 510 200 2 100 100;
